%
M48
M72
T01C0.0120
T02C0.0320
T03C0.0394
T04C0.0400
T05C0.1102
T06C0.1980
%
T01
X10050Y10605
X8500Y11180
X11600Y14180
X13513Y14555
X15200Y14180
X17300Y16780
X15350Y17680
X15200Y18680
X13100Y17180
X19300Y19480
X19300Y21580
X13800Y26180
X13238Y27092
X11825Y26993
X7700Y25180
X7700Y24780
X8700Y32055
X6450Y32118
X4200Y32118
X10950Y32055
X26000Y15980
X26250Y15230
X26250Y14430
X26250Y13630
X26250Y12830
X26250Y12030
X26250Y11230
X26250Y10430
X26250Y9630
X26000Y8880
X26950Y9230
X26950Y10030
X26950Y10830
X26950Y11630
X26950Y12430
X26950Y13230
X26950Y14030
X26950Y14830
X21575Y9930
X17800Y9580
X16863Y7043
X20500Y14880
X31250Y8880
X36500Y8880
X36500Y27780
X34473Y29180
X31250Y27780
X29200Y32730
X29200Y33630
T02
X4200Y34180
X4200Y35180
X6450Y35180
X6450Y34180
X8700Y34180
X8700Y35180
X10950Y35180
X10950Y34180
T03
X5620Y27820
X6400Y27820
X6400Y28800
X5620Y28800
T04
X4363Y4118
X5363Y4118
X5363Y5118
X5363Y6118
X4363Y6118
X4363Y5118
X4363Y7118
X4363Y8118
X5363Y8118
X5363Y7118
X5363Y9118
X5363Y10118
X4363Y10118
X4363Y9118
X4363Y11118
X4363Y12118
X5363Y12118
X5363Y11118
X5363Y13118
X5363Y14118
X4363Y14118
X4363Y13118
X4363Y15118
X4363Y16118
X5363Y16118
X5363Y15118
X5363Y17118
X4363Y17118
X4363Y18118
X4363Y19118
X5363Y19118
X5363Y18118
X9210Y22500
X10990Y22500
X10650Y20680
X10650Y19680
X10650Y18680
X11650Y18680
X11650Y19680
X11650Y20680
X10990Y25060
X9210Y25060
X13200Y32180
X14200Y32180
X14200Y33180
X14200Y34180
X13200Y34180
X13200Y33180
X15200Y33180
X15200Y34180
X16200Y34180
X16200Y33180
X16200Y32180
X15200Y32180
X17200Y32180
X18200Y32180
X18200Y33180
X18200Y34180
X17200Y34180
X17200Y33180
X19200Y33180
X19200Y34180
X20200Y34180
X20200Y33180
X21200Y33180
X21200Y34180
X22200Y34180
X22200Y33180
X23200Y33180
X23200Y34180
X23200Y32180
X22200Y32180
X21200Y32180
X20200Y32180
X19200Y32180
X33500Y26580
X33500Y25580
X33500Y24580
X33500Y23580
X33500Y22580
X33500Y21580
X33500Y20580
X33500Y19580
X33500Y18580
X33500Y17580
X33500Y16580
X33500Y15580
X33500Y14580
X33500Y13580
X33500Y12580
X33500Y11580
X34500Y11580
X34500Y12580
X35500Y12580
X35500Y11580
X35500Y13580
X34500Y13580
X34500Y14580
X34500Y15580
X35500Y15580
X35500Y14580
X35500Y16580
X35500Y17580
X34500Y17580
X34500Y16580
X34500Y18580
X34500Y19580
X35500Y19580
X35500Y18580
X35500Y20580
X35500Y21580
X34500Y21580
X34500Y20580
X34500Y22580
X34500Y23580
X35500Y23580
X35500Y22580
X35500Y24580
X35500Y25580
X34500Y25580
X34500Y24580
X34500Y26580
X35500Y26580
X29650Y4630
X29650Y3630
X28650Y3630
X28650Y4630
X27650Y4630
X27650Y3630
X26650Y3630
X26650Y4630
X25650Y4630
X25650Y3630
X24650Y3630
X24650Y4630
X23650Y4630
X23650Y3630
X22650Y3630
X22650Y4630
X21650Y4630
X21650Y3630
X20650Y3630
X20650Y4630
X19650Y4630
X19650Y3630
X18650Y3630
X18650Y4630
X17650Y4630
X17650Y3630
X16650Y3630
X16650Y4630
X15650Y4630
X15650Y3630
X14650Y3630
X14650Y4630
T05
X4550Y25940
X4550Y30680
T06
X2400Y2180
X37400Y2180
X37400Y37180
X2400Y37180
M30
