G75*
%MOIN*%
%OFA0B0*%
%FSLAX24Y24*%
%IPPOS*%
%LPD*%
%AMOC8*
5,1,8,0,0,1.08239X$1,22.5*
%
%ADD10C,0.0080*%
%ADD11C,0.0160*%
%ADD12C,0.0000*%
%ADD13C,0.0100*%
%ADD14C,0.0010*%
%ADD15C,0.0050*%
%ADD16C,0.0040*%
%ADD17C,0.0060*%
%ADD18C,0.0020*%
%ADD19R,0.4000X0.1000*%
%ADD20R,0.0925X0.4000*%
%ADD21R,0.0750X0.4000*%
%ADD22R,0.0500X0.2500*%
%ADD23R,0.3500X0.0500*%
%ADD24R,0.3000X0.1000*%
%ADD25C,0.0030*%
D10*
X001101Y003908D02*
X001381Y003908D01*
X001561Y003908D02*
X001841Y003908D01*
X002021Y003908D02*
X002021Y004328D01*
X002231Y004328D01*
X002302Y004258D01*
X002302Y003978D01*
X002231Y003908D01*
X002021Y003908D01*
X001701Y004118D02*
X001561Y004118D01*
X001561Y004328D02*
X001561Y003908D01*
X001561Y004328D02*
X001841Y004328D01*
X001841Y004908D02*
X001561Y004908D01*
X001561Y005328D01*
X001841Y005328D01*
X002021Y005328D02*
X002021Y004908D01*
X002231Y004908D01*
X002302Y004978D01*
X002302Y005258D01*
X002231Y005328D01*
X002021Y005328D01*
X001701Y005118D02*
X001561Y005118D01*
X001381Y004908D02*
X001101Y004908D01*
X001101Y005328D01*
X001101Y005908D02*
X001381Y005908D01*
X001561Y005908D02*
X001841Y005908D01*
X002021Y005908D02*
X002021Y006328D01*
X002231Y006328D01*
X002302Y006258D01*
X002302Y005978D01*
X002231Y005908D01*
X002021Y005908D01*
X001701Y006118D02*
X001561Y006118D01*
X001561Y006328D02*
X001561Y005908D01*
X001561Y006328D02*
X001841Y006328D01*
X001841Y006908D02*
X001561Y006908D01*
X001561Y007328D01*
X001841Y007328D01*
X002021Y007328D02*
X002021Y006908D01*
X002231Y006908D01*
X002302Y006978D01*
X002302Y007258D01*
X002231Y007328D01*
X002021Y007328D01*
X001701Y007118D02*
X001561Y007118D01*
X001381Y006908D02*
X001101Y006908D01*
X001101Y007328D01*
X001101Y007908D02*
X001381Y007908D01*
X001561Y007908D02*
X001841Y007908D01*
X002021Y007908D02*
X002021Y008328D01*
X002231Y008328D01*
X002302Y008258D01*
X002302Y007978D01*
X002231Y007908D01*
X002021Y007908D01*
X001701Y008118D02*
X001561Y008118D01*
X001561Y008328D02*
X001561Y007908D01*
X001561Y008328D02*
X001841Y008328D01*
X001841Y008908D02*
X001561Y008908D01*
X001561Y009328D01*
X001841Y009328D01*
X002021Y009328D02*
X002021Y008908D01*
X002231Y008908D01*
X002302Y008978D01*
X002302Y009258D01*
X002231Y009328D01*
X002021Y009328D01*
X001701Y009118D02*
X001561Y009118D01*
X001381Y008908D02*
X001101Y008908D01*
X001101Y009328D01*
X001561Y009908D02*
X001841Y009908D01*
X002021Y009908D02*
X002021Y010328D01*
X002302Y010328D01*
X002482Y010328D02*
X002482Y009908D01*
X002692Y009908D01*
X002762Y009978D01*
X002762Y010258D01*
X002692Y010328D01*
X002482Y010328D01*
X002161Y010118D02*
X002021Y010118D01*
X002021Y009908D02*
X002302Y009908D01*
X002942Y009978D02*
X003012Y009908D01*
X003152Y009908D01*
X003222Y009978D01*
X003222Y010258D01*
X003152Y010328D01*
X003012Y010328D01*
X002942Y010258D01*
X002942Y010188D01*
X003012Y010118D01*
X003222Y010118D01*
X003152Y010908D02*
X003012Y010908D01*
X002942Y010978D01*
X002942Y011048D01*
X003012Y011118D01*
X003152Y011118D01*
X003222Y011048D01*
X003222Y010978D01*
X003152Y010908D01*
X003152Y011118D02*
X003222Y011188D01*
X003222Y011258D01*
X003152Y011328D01*
X003012Y011328D01*
X002942Y011258D01*
X002942Y011188D01*
X003012Y011118D01*
X002762Y010978D02*
X002762Y011258D01*
X002692Y011328D01*
X002482Y011328D01*
X002482Y010908D01*
X002692Y010908D01*
X002762Y010978D01*
X002302Y010908D02*
X002021Y010908D01*
X002021Y011328D01*
X002302Y011328D01*
X002161Y011118D02*
X002021Y011118D01*
X001841Y010908D02*
X001561Y010908D01*
X001561Y011328D01*
X001561Y011908D02*
X001841Y011908D01*
X002021Y011908D02*
X002021Y012328D01*
X002302Y012328D01*
X002482Y012328D02*
X002482Y011908D01*
X002692Y011908D01*
X002762Y011978D01*
X002762Y012258D01*
X002692Y012328D01*
X002482Y012328D01*
X002161Y012118D02*
X002021Y012118D01*
X002021Y011908D02*
X002302Y011908D01*
X002942Y011908D02*
X002942Y011978D01*
X003222Y012258D01*
X003222Y012328D01*
X002942Y012328D01*
X003012Y012908D02*
X003152Y012908D01*
X003222Y012978D01*
X003222Y013048D01*
X003152Y013118D01*
X002942Y013118D01*
X002942Y012978D01*
X003012Y012908D01*
X002942Y013118D02*
X003082Y013258D01*
X003222Y013328D01*
X002762Y013258D02*
X002762Y012978D01*
X002692Y012908D01*
X002482Y012908D01*
X002482Y013328D01*
X002692Y013328D01*
X002762Y013258D01*
X002302Y013328D02*
X002021Y013328D01*
X002021Y012908D01*
X002302Y012908D01*
X002161Y013118D02*
X002021Y013118D01*
X001841Y012908D02*
X001561Y012908D01*
X001561Y013328D01*
X001561Y013908D02*
X001841Y013908D01*
X002021Y013908D02*
X002021Y014328D01*
X002302Y014328D01*
X002482Y014328D02*
X002482Y013908D01*
X002692Y013908D01*
X002762Y013978D01*
X002762Y014258D01*
X002692Y014328D01*
X002482Y014328D01*
X002161Y014118D02*
X002021Y014118D01*
X002021Y013908D02*
X002302Y013908D01*
X002942Y013978D02*
X003012Y013908D01*
X003152Y013908D01*
X003222Y013978D01*
X003222Y014118D01*
X003152Y014188D01*
X003082Y014188D01*
X002942Y014118D01*
X002942Y014328D01*
X003222Y014328D01*
X003152Y014908D02*
X003152Y015328D01*
X002942Y015118D01*
X003222Y015118D01*
X002762Y015258D02*
X002692Y015328D01*
X002482Y015328D01*
X002482Y014908D01*
X002692Y014908D01*
X002762Y014978D01*
X002762Y015258D01*
X002302Y015328D02*
X002021Y015328D01*
X002021Y014908D01*
X002302Y014908D01*
X002161Y015118D02*
X002021Y015118D01*
X001841Y014908D02*
X001561Y014908D01*
X001561Y015328D01*
X001561Y015908D02*
X001841Y015908D01*
X002021Y015908D02*
X002021Y016328D01*
X002302Y016328D01*
X002482Y016328D02*
X002482Y015908D01*
X002692Y015908D01*
X002762Y015978D01*
X002762Y016258D01*
X002692Y016328D01*
X002482Y016328D01*
X002161Y016118D02*
X002021Y016118D01*
X002021Y015908D02*
X002302Y015908D01*
X002942Y015978D02*
X003012Y015908D01*
X003152Y015908D01*
X003222Y015978D01*
X003222Y016048D01*
X003152Y016118D01*
X003082Y016118D01*
X003152Y016118D02*
X003222Y016188D01*
X003222Y016258D01*
X003152Y016328D01*
X003012Y016328D01*
X002942Y016258D01*
X002942Y016908D02*
X003222Y017188D01*
X003222Y017258D01*
X003152Y017328D01*
X003012Y017328D01*
X002942Y017258D01*
X002762Y017258D02*
X002692Y017328D01*
X002482Y017328D01*
X002482Y016908D01*
X002692Y016908D01*
X002762Y016978D01*
X002762Y017258D01*
X002942Y016908D02*
X003222Y016908D01*
X002302Y016908D02*
X002021Y016908D01*
X002021Y017328D01*
X002302Y017328D01*
X002161Y017118D02*
X002021Y017118D01*
X001841Y016908D02*
X001561Y016908D01*
X001561Y017328D01*
X001561Y017908D02*
X001841Y017908D01*
X002021Y017908D02*
X002021Y018328D01*
X002302Y018328D01*
X002482Y018328D02*
X002482Y017908D01*
X002692Y017908D01*
X002762Y017978D01*
X002762Y018258D01*
X002692Y018328D01*
X002482Y018328D01*
X002161Y018118D02*
X002021Y018118D01*
X002021Y017908D02*
X002302Y017908D01*
X002942Y017908D02*
X003222Y017908D01*
X003082Y017908D02*
X003082Y018328D01*
X002942Y018188D01*
X003012Y018908D02*
X002942Y018978D01*
X003222Y019258D01*
X003222Y018978D01*
X003152Y018908D01*
X003012Y018908D01*
X002942Y018978D02*
X002942Y019258D01*
X003012Y019328D01*
X003152Y019328D01*
X003222Y019258D01*
X002762Y019258D02*
X002692Y019328D01*
X002482Y019328D01*
X002482Y018908D01*
X002692Y018908D01*
X002762Y018978D01*
X002762Y019258D01*
X002302Y019328D02*
X002021Y019328D01*
X002021Y018908D01*
X002302Y018908D01*
X002161Y019118D02*
X002021Y019118D01*
X001841Y018908D02*
X001561Y018908D01*
X001561Y019328D01*
X001561Y018328D02*
X001561Y017908D01*
X001561Y016328D02*
X001561Y015908D01*
X001561Y014328D02*
X001561Y013908D01*
X001561Y012328D02*
X001561Y011908D01*
X001561Y010328D02*
X001561Y009908D01*
X002482Y009188D02*
X002622Y009328D01*
X002622Y008908D01*
X002482Y008908D02*
X002762Y008908D01*
X002942Y008978D02*
X002942Y009258D01*
X003012Y009328D01*
X003152Y009328D01*
X003222Y009258D01*
X002942Y008978D01*
X003012Y008908D01*
X003152Y008908D01*
X003222Y008978D01*
X003222Y009258D01*
X003082Y008328D02*
X003082Y007908D01*
X002942Y007908D02*
X003222Y007908D01*
X002942Y008188D02*
X003082Y008328D01*
X002622Y008328D02*
X002622Y007908D01*
X002482Y007908D02*
X002762Y007908D01*
X002482Y008188D02*
X002622Y008328D01*
X002622Y007328D02*
X002622Y006908D01*
X002482Y006908D02*
X002762Y006908D01*
X002942Y006908D02*
X003222Y007188D01*
X003222Y007258D01*
X003152Y007328D01*
X003012Y007328D01*
X002942Y007258D01*
X002622Y007328D02*
X002482Y007188D01*
X002942Y006908D02*
X003222Y006908D01*
X003152Y006328D02*
X003222Y006258D01*
X003222Y006188D01*
X003152Y006118D01*
X003222Y006048D01*
X003222Y005978D01*
X003152Y005908D01*
X003012Y005908D01*
X002942Y005978D01*
X002762Y005908D02*
X002482Y005908D01*
X002622Y005908D02*
X002622Y006328D01*
X002482Y006188D01*
X002942Y006258D02*
X003012Y006328D01*
X003152Y006328D01*
X003152Y006118D02*
X003082Y006118D01*
X003152Y005328D02*
X002942Y005118D01*
X003222Y005118D01*
X003152Y004908D02*
X003152Y005328D01*
X002622Y005328D02*
X002622Y004908D01*
X002482Y004908D02*
X002762Y004908D01*
X002482Y005188D02*
X002622Y005328D01*
X002622Y004328D02*
X002622Y003908D01*
X002482Y003908D02*
X002762Y003908D01*
X002942Y003978D02*
X003012Y003908D01*
X003152Y003908D01*
X003222Y003978D01*
X003222Y004118D01*
X003152Y004188D01*
X003082Y004188D01*
X002942Y004118D01*
X002942Y004328D01*
X003222Y004328D01*
X002622Y004328D02*
X002482Y004188D01*
X001101Y004328D02*
X001101Y003908D01*
X001101Y005908D02*
X001101Y006328D01*
X001101Y007908D02*
X001101Y008328D01*
X010740Y010378D02*
X010950Y010378D01*
X010880Y010519D01*
X010880Y010589D01*
X010950Y010659D01*
X011090Y010659D01*
X011160Y010589D01*
X011160Y010448D01*
X011090Y010378D01*
X010740Y010378D02*
X010740Y010659D01*
X010740Y010839D02*
X011020Y010839D01*
X011160Y010979D01*
X011020Y011119D01*
X010740Y011119D01*
X010810Y011299D02*
X010740Y011369D01*
X010740Y011509D01*
X010810Y011579D01*
X010950Y011579D01*
X011020Y011509D01*
X010880Y011509D01*
X010880Y011369D01*
X011020Y011369D01*
X011020Y011509D01*
X011090Y011579D02*
X011160Y011509D01*
X011160Y011369D01*
X011090Y011299D01*
X010810Y011299D01*
X010880Y011760D02*
X010740Y011900D01*
X011160Y011900D01*
X011160Y011760D02*
X011160Y012040D01*
X011090Y012220D02*
X010950Y012220D01*
X010950Y012430D01*
X011020Y012500D01*
X011090Y012500D01*
X011160Y012430D01*
X011160Y012290D01*
X011090Y012220D01*
X010950Y012220D02*
X010810Y012360D01*
X010740Y012500D01*
X010740Y012680D02*
X010880Y012821D01*
X010740Y012961D01*
X011160Y012961D01*
X011160Y013141D02*
X010740Y013141D01*
X010950Y013141D02*
X010950Y013421D01*
X010880Y013601D02*
X010880Y013881D01*
X011160Y013601D01*
X011160Y013881D01*
X011160Y013421D02*
X010740Y013421D01*
X010740Y012680D02*
X011160Y012680D01*
X011844Y013274D02*
X012356Y013274D01*
X012356Y011857D02*
X011844Y011857D01*
X011507Y017520D02*
X011507Y017940D01*
X011718Y017940D01*
X011788Y017870D01*
X011788Y017730D01*
X011718Y017660D01*
X011507Y017660D01*
X011327Y017660D02*
X011257Y017730D01*
X011117Y017730D01*
X011047Y017800D01*
X011047Y017870D01*
X011117Y017940D01*
X011257Y017940D01*
X011327Y017870D01*
X011327Y017660D02*
X011327Y017590D01*
X011257Y017520D01*
X011117Y017520D01*
X011047Y017590D01*
X010880Y017520D02*
X010740Y017520D01*
X010810Y017520D02*
X010810Y017940D01*
X010740Y017940D02*
X010880Y017940D01*
X010400Y018180D02*
X010150Y018430D01*
X010150Y018930D01*
X010400Y019180D01*
X011900Y019180D01*
X012150Y019430D01*
X012150Y019930D01*
X011900Y020180D01*
X010400Y020180D01*
X010150Y020430D01*
X010150Y020930D01*
X010400Y021180D01*
X011900Y021180D01*
X012150Y020930D01*
X012150Y020430D01*
X011900Y020180D01*
X011900Y019180D02*
X012150Y018930D01*
X012150Y018430D01*
X011900Y018180D01*
X010400Y018180D01*
X010400Y019180D02*
X010150Y019430D01*
X010150Y019930D01*
X010400Y020180D01*
X012282Y018930D02*
X012282Y018430D01*
X005573Y020228D02*
X005573Y020368D01*
X005502Y020438D01*
X005222Y020438D01*
X005152Y020368D01*
X005152Y020228D01*
X005222Y020158D01*
X005502Y020158D01*
X005573Y020228D01*
X005502Y020618D02*
X005573Y020688D01*
X005573Y020828D01*
X005502Y020898D01*
X005152Y020898D01*
X005152Y021078D02*
X005152Y021359D01*
X005152Y021218D02*
X005573Y021218D01*
X005573Y021539D02*
X005152Y021539D01*
X005152Y021749D01*
X005222Y021819D01*
X005362Y021819D01*
X005432Y021749D01*
X005432Y021539D01*
X005502Y021999D02*
X005573Y022069D01*
X005573Y022209D01*
X005502Y022279D01*
X005152Y022279D01*
X005152Y022459D02*
X005152Y022740D01*
X005152Y022600D02*
X005573Y022600D01*
X005502Y021999D02*
X005152Y021999D01*
X004573Y022139D02*
X004432Y021999D01*
X004292Y021999D01*
X004152Y022139D01*
X004362Y022306D02*
X004362Y022586D01*
X004222Y022446D02*
X004502Y022446D01*
X004573Y022766D02*
X004432Y022907D01*
X004292Y022907D01*
X004152Y022766D01*
X003573Y022598D02*
X003573Y022388D01*
X003152Y022388D01*
X003152Y022598D01*
X003222Y022668D01*
X003502Y022668D01*
X003573Y022598D01*
X003573Y022208D02*
X003573Y021927D01*
X003152Y021927D01*
X003152Y022208D01*
X003362Y022067D02*
X003362Y021927D01*
X003573Y021747D02*
X003573Y021467D01*
X003152Y021467D01*
X002873Y021440D02*
X002592Y021440D01*
X002592Y021620D02*
X002592Y021760D01*
X002522Y021690D02*
X002802Y021690D01*
X002873Y021760D01*
X002873Y021927D02*
X002873Y022137D01*
X002802Y022208D01*
X002662Y022208D01*
X002592Y022137D01*
X002592Y021927D01*
X003013Y021927D01*
X002802Y022388D02*
X002592Y022388D01*
X002802Y022388D02*
X002873Y022458D01*
X002873Y022668D01*
X002592Y022668D01*
X002592Y022848D02*
X002592Y022988D01*
X002522Y022918D02*
X002802Y022918D01*
X002873Y022988D01*
X002873Y023155D02*
X002873Y023365D01*
X002802Y023435D01*
X002732Y023365D01*
X002732Y023225D01*
X002662Y023155D01*
X002592Y023225D01*
X002592Y023435D01*
X002173Y022898D02*
X001892Y022898D01*
X001752Y022758D01*
X001892Y022618D01*
X002173Y022618D01*
X002173Y022438D02*
X001962Y022438D01*
X001892Y022368D01*
X001962Y022298D01*
X002173Y022298D01*
X002173Y022157D02*
X001892Y022157D01*
X001892Y022228D01*
X001962Y022298D01*
X001962Y022618D02*
X001962Y022898D01*
X001473Y022943D02*
X001473Y022803D01*
X001402Y022733D01*
X001262Y022733D01*
X001192Y022803D01*
X001192Y022943D01*
X001262Y023013D01*
X001332Y023013D01*
X001332Y022733D01*
X001192Y022553D02*
X001473Y022413D01*
X001192Y022273D01*
X001192Y022036D02*
X001473Y022036D01*
X001473Y021966D02*
X001473Y022106D01*
X001192Y022036D02*
X001192Y021966D01*
X001052Y022036D02*
X000982Y022036D01*
X001192Y021792D02*
X001192Y021722D01*
X001332Y021582D01*
X001192Y021582D02*
X001473Y021582D01*
X001402Y021402D02*
X001122Y021402D01*
X001052Y021332D01*
X001052Y021122D01*
X001473Y021122D01*
X001473Y021332D01*
X001402Y021402D01*
X001752Y021447D02*
X001752Y021307D01*
X001822Y021237D01*
X001752Y021447D02*
X001822Y021517D01*
X001892Y021517D01*
X002173Y021237D01*
X002173Y021517D01*
X002102Y021697D02*
X001822Y021977D01*
X002102Y021977D01*
X002173Y021907D01*
X002173Y021767D01*
X002102Y021697D01*
X001822Y021697D01*
X001752Y021767D01*
X001752Y021907D01*
X001822Y021977D01*
X002592Y021160D02*
X002802Y021160D01*
X002873Y021230D01*
X002873Y021440D01*
X002802Y020980D02*
X002522Y020980D01*
X002452Y020910D01*
X002452Y020770D01*
X002522Y020700D01*
X002802Y020700D01*
X002873Y020770D01*
X002873Y020910D01*
X002802Y020980D01*
X004152Y020898D02*
X004152Y020618D01*
X004362Y020618D01*
X004292Y020758D01*
X004292Y020828D01*
X004362Y020898D01*
X004502Y020898D01*
X004573Y020828D01*
X004573Y020688D01*
X004502Y020618D01*
X004362Y020438D02*
X004362Y020158D01*
X004222Y020298D02*
X004502Y020298D01*
X005152Y020618D02*
X005502Y020618D01*
X004573Y021218D02*
X004432Y021359D01*
X004152Y021359D01*
X004152Y021078D02*
X004432Y021078D01*
X004573Y021218D01*
X005292Y023380D02*
X005152Y023520D01*
X005292Y023380D02*
X005432Y023380D01*
X005573Y023520D01*
X005362Y023687D02*
X005362Y023967D01*
X005152Y024148D02*
X005292Y024288D01*
X005432Y024288D01*
X005573Y024148D01*
X007400Y025930D02*
X007400Y026430D01*
X008000Y026430D02*
X008000Y025930D01*
X012990Y035220D02*
X012990Y035430D01*
X013060Y035500D01*
X013200Y035500D01*
X013270Y035430D01*
X013270Y035220D01*
X013410Y035220D02*
X012990Y035220D01*
X012990Y035680D02*
X013410Y035680D01*
X013270Y035821D01*
X013410Y035961D01*
X012990Y035961D01*
X012990Y036141D02*
X013130Y036281D01*
X012990Y036421D01*
X013410Y036421D01*
X013410Y036601D02*
X013410Y036881D01*
X013410Y036741D02*
X012990Y036741D01*
X013130Y036601D01*
X012990Y036141D02*
X013410Y036141D01*
X013990Y036141D02*
X014130Y036281D01*
X013990Y036421D01*
X014410Y036421D01*
X014340Y036601D02*
X014410Y036671D01*
X014410Y036811D01*
X014340Y036881D01*
X014060Y036881D01*
X013990Y036811D01*
X013990Y036671D01*
X014060Y036601D01*
X014130Y036601D01*
X014200Y036671D01*
X014200Y036881D01*
X014410Y036141D02*
X013990Y036141D01*
X013990Y035961D02*
X014410Y035961D01*
X014270Y035821D01*
X014410Y035680D01*
X013990Y035680D01*
X014060Y035500D02*
X014200Y035500D01*
X014270Y035430D01*
X014270Y035220D01*
X014410Y035220D02*
X013990Y035220D01*
X013990Y035430D01*
X014060Y035500D01*
X014990Y035430D02*
X014990Y035220D01*
X015410Y035220D01*
X015270Y035220D02*
X015270Y035430D01*
X015200Y035500D01*
X015060Y035500D01*
X014990Y035430D01*
X014990Y035680D02*
X015410Y035680D01*
X015270Y035821D01*
X015410Y035961D01*
X014990Y035961D01*
X014990Y036141D02*
X015130Y036281D01*
X014990Y036421D01*
X015410Y036421D01*
X015340Y036601D02*
X015270Y036601D01*
X015200Y036671D01*
X015200Y036811D01*
X015270Y036881D01*
X015340Y036881D01*
X015410Y036811D01*
X015410Y036671D01*
X015340Y036601D01*
X015200Y036671D02*
X015130Y036601D01*
X015060Y036601D01*
X014990Y036671D01*
X014990Y036811D01*
X015060Y036881D01*
X015130Y036881D01*
X015200Y036811D01*
X015410Y036141D02*
X014990Y036141D01*
X015990Y036141D02*
X016130Y036281D01*
X015990Y036421D01*
X016410Y036421D01*
X016410Y036601D02*
X016340Y036601D01*
X016060Y036881D01*
X015990Y036881D01*
X015990Y036601D01*
X015990Y036141D02*
X016410Y036141D01*
X016410Y035961D02*
X015990Y035961D01*
X015990Y035680D02*
X016410Y035680D01*
X016270Y035821D01*
X016410Y035961D01*
X016200Y035500D02*
X016270Y035430D01*
X016270Y035220D01*
X016410Y035220D02*
X015990Y035220D01*
X015990Y035430D01*
X016060Y035500D01*
X016200Y035500D01*
X016990Y035430D02*
X016990Y035220D01*
X017410Y035220D01*
X017270Y035220D02*
X017270Y035430D01*
X017200Y035500D01*
X017060Y035500D01*
X016990Y035430D01*
X016990Y035680D02*
X017410Y035680D01*
X017270Y035821D01*
X017410Y035961D01*
X016990Y035961D01*
X016990Y036141D02*
X017130Y036281D01*
X016990Y036421D01*
X017410Y036421D01*
X017340Y036601D02*
X017410Y036671D01*
X017410Y036811D01*
X017340Y036881D01*
X017270Y036881D01*
X017200Y036811D01*
X017200Y036601D01*
X017340Y036601D01*
X017200Y036601D02*
X017060Y036741D01*
X016990Y036881D01*
X016990Y036141D02*
X017410Y036141D01*
X017990Y036141D02*
X018130Y036281D01*
X017990Y036421D01*
X018410Y036421D01*
X018340Y036601D02*
X018410Y036671D01*
X018410Y036811D01*
X018340Y036881D01*
X018200Y036881D01*
X018130Y036811D01*
X018130Y036741D01*
X018200Y036601D01*
X017990Y036601D01*
X017990Y036881D01*
X017990Y036141D02*
X018410Y036141D01*
X018410Y035961D02*
X017990Y035961D01*
X017990Y035680D02*
X018410Y035680D01*
X018270Y035821D01*
X018410Y035961D01*
X018200Y035500D02*
X018270Y035430D01*
X018270Y035220D01*
X018410Y035220D02*
X017990Y035220D01*
X017990Y035430D01*
X018060Y035500D01*
X018200Y035500D01*
X018990Y035430D02*
X018990Y035220D01*
X019410Y035220D01*
X019270Y035220D02*
X019270Y035430D01*
X019200Y035500D01*
X019060Y035500D01*
X018990Y035430D01*
X018990Y035680D02*
X019410Y035680D01*
X019270Y035821D01*
X019410Y035961D01*
X018990Y035961D01*
X018990Y036141D02*
X019130Y036281D01*
X018990Y036421D01*
X019410Y036421D01*
X019200Y036601D02*
X019200Y036881D01*
X019410Y036811D02*
X018990Y036811D01*
X019200Y036601D01*
X019410Y036141D02*
X018990Y036141D01*
X019990Y036141D02*
X020130Y036281D01*
X019990Y036421D01*
X020410Y036421D01*
X020340Y036601D02*
X020410Y036671D01*
X020410Y036811D01*
X020340Y036881D01*
X020270Y036881D01*
X020200Y036811D01*
X020200Y036741D01*
X020200Y036811D02*
X020130Y036881D01*
X020060Y036881D01*
X019990Y036811D01*
X019990Y036671D01*
X020060Y036601D01*
X019990Y036141D02*
X020410Y036141D01*
X020410Y035961D02*
X019990Y035961D01*
X019990Y035680D02*
X020410Y035680D01*
X020270Y035821D01*
X020410Y035961D01*
X020200Y035500D02*
X020060Y035500D01*
X019990Y035430D01*
X019990Y035220D01*
X020410Y035220D01*
X020270Y035220D02*
X020270Y035430D01*
X020200Y035500D01*
X020990Y035430D02*
X020990Y035220D01*
X021410Y035220D01*
X021270Y035220D02*
X021270Y035430D01*
X021200Y035500D01*
X021060Y035500D01*
X020990Y035430D01*
X020990Y035680D02*
X021410Y035680D01*
X021270Y035821D01*
X021410Y035961D01*
X020990Y035961D01*
X020990Y036141D02*
X021130Y036281D01*
X020990Y036421D01*
X021410Y036421D01*
X021410Y036601D02*
X021130Y036881D01*
X021060Y036881D01*
X020990Y036811D01*
X020990Y036671D01*
X021060Y036601D01*
X021410Y036601D02*
X021410Y036881D01*
X021990Y036741D02*
X022130Y036601D01*
X021990Y036741D02*
X022410Y036741D01*
X022410Y036601D02*
X022410Y036881D01*
X022410Y036421D02*
X021990Y036421D01*
X022130Y036281D01*
X021990Y036141D01*
X022410Y036141D01*
X022410Y035961D02*
X021990Y035961D01*
X021990Y035680D02*
X022410Y035680D01*
X022270Y035821D01*
X022410Y035961D01*
X022200Y035500D02*
X022060Y035500D01*
X021990Y035430D01*
X021990Y035220D01*
X022410Y035220D01*
X022270Y035220D02*
X022270Y035430D01*
X022200Y035500D01*
X022990Y035430D02*
X022990Y035220D01*
X023410Y035220D01*
X023270Y035220D02*
X023270Y035430D01*
X023200Y035500D01*
X023060Y035500D01*
X022990Y035430D01*
X022990Y035680D02*
X023410Y035680D01*
X023270Y035821D01*
X023410Y035961D01*
X022990Y035961D01*
X022990Y036141D02*
X023130Y036281D01*
X022990Y036421D01*
X023410Y036421D01*
X023340Y036601D02*
X023060Y036881D01*
X023340Y036881D01*
X023410Y036811D01*
X023410Y036671D01*
X023340Y036601D01*
X023060Y036601D01*
X022990Y036671D01*
X022990Y036811D01*
X023060Y036881D01*
X022990Y036141D02*
X023410Y036141D01*
X024129Y036665D02*
X024199Y036595D01*
X024339Y036595D01*
X024409Y036665D01*
X024409Y036945D01*
X024339Y037015D01*
X024199Y037015D01*
X024129Y036945D01*
X024129Y036665D01*
X024589Y036665D02*
X024659Y036595D01*
X024799Y036595D01*
X024869Y036665D01*
X024869Y037015D01*
X025049Y037015D02*
X025330Y037015D01*
X025190Y037015D02*
X025190Y036595D01*
X025510Y036595D02*
X025510Y037015D01*
X025720Y037015D01*
X025790Y036945D01*
X025790Y036805D01*
X025720Y036735D01*
X025510Y036735D01*
X025970Y036665D02*
X026040Y036595D01*
X026180Y036595D01*
X026250Y036665D01*
X026250Y037015D01*
X026431Y037015D02*
X026711Y037015D01*
X026571Y037015D02*
X026571Y036595D01*
X026891Y036665D02*
X026961Y036595D01*
X027101Y036595D01*
X027171Y036665D01*
X027171Y036735D01*
X027101Y036805D01*
X026961Y036805D01*
X026891Y036875D01*
X026891Y036945D01*
X026961Y037015D01*
X027101Y037015D01*
X027171Y036945D01*
X026250Y036265D02*
X026250Y035845D01*
X025970Y035845D02*
X025970Y036265D01*
X026110Y036125D01*
X026250Y036265D01*
X025790Y036265D02*
X025790Y035845D01*
X025650Y035985D01*
X025510Y035845D01*
X025510Y036265D01*
X025330Y036195D02*
X025330Y036055D01*
X025260Y035985D01*
X025049Y035985D01*
X025049Y035845D02*
X025049Y036265D01*
X025260Y036265D01*
X025330Y036195D01*
X025970Y036665D02*
X025970Y037015D01*
X024589Y037015D02*
X024589Y036665D01*
X024700Y034390D02*
X024981Y033970D01*
X024981Y034390D01*
X025161Y034390D02*
X025371Y034390D01*
X025441Y034320D01*
X025441Y034040D01*
X025371Y033970D01*
X025161Y033970D01*
X025161Y034390D01*
X024700Y034390D02*
X024700Y033970D01*
X024520Y034040D02*
X024520Y034180D01*
X024380Y034180D01*
X024240Y034040D02*
X024310Y033970D01*
X024450Y033970D01*
X024520Y034040D01*
X024240Y034040D02*
X024240Y034320D01*
X024310Y034390D01*
X024450Y034390D01*
X024520Y034320D01*
X024700Y033390D02*
X024700Y033180D01*
X024841Y033250D01*
X024911Y033250D01*
X024981Y033180D01*
X024981Y033040D01*
X024911Y032970D01*
X024770Y032970D01*
X024700Y033040D01*
X024520Y033180D02*
X024240Y033180D01*
X024380Y033320D02*
X024380Y033040D01*
X024700Y033390D02*
X024981Y033390D01*
X025161Y033390D02*
X025161Y033110D01*
X025301Y032970D01*
X025441Y033110D01*
X025441Y033390D01*
X026082Y033250D02*
X026222Y033390D01*
X026388Y033390D02*
X026599Y033390D01*
X026669Y033320D01*
X026669Y033180D01*
X026599Y033110D01*
X026388Y033110D01*
X026388Y032970D02*
X026388Y033390D01*
X026529Y033110D02*
X026669Y032970D01*
X026849Y032970D02*
X026989Y033110D01*
X026989Y033250D01*
X026849Y033390D01*
X026222Y032970D02*
X026082Y033110D01*
X026082Y033250D01*
X026222Y033970D02*
X026082Y034110D01*
X026082Y034250D01*
X026222Y034390D01*
X026388Y034390D02*
X026599Y034390D01*
X026669Y034320D01*
X026669Y034250D01*
X026599Y034180D01*
X026388Y034180D01*
X026388Y033970D02*
X026599Y033970D01*
X026669Y034040D01*
X026669Y034110D01*
X026599Y034180D01*
X026388Y033970D02*
X026388Y034390D01*
X026849Y034390D02*
X026989Y034250D01*
X026989Y034110D01*
X026849Y033970D01*
X026695Y032390D02*
X026836Y032250D01*
X026836Y032110D01*
X026695Y031970D01*
X026515Y031970D02*
X026515Y032390D01*
X026235Y032390D02*
X026235Y031970D01*
X026375Y032110D01*
X026515Y031970D01*
X026068Y031970D02*
X025928Y032110D01*
X025928Y032250D01*
X026068Y032390D01*
X025288Y032320D02*
X025218Y032390D01*
X025077Y032390D01*
X025007Y032320D01*
X025007Y032040D01*
X025077Y031970D01*
X025218Y031970D01*
X025288Y032040D01*
X025288Y032180D01*
X025147Y032180D01*
X024841Y031970D02*
X024700Y031970D01*
X024770Y031970D02*
X024770Y032390D01*
X024700Y032390D02*
X024841Y032390D01*
X024520Y032320D02*
X024450Y032390D01*
X024310Y032390D01*
X024240Y032320D01*
X024240Y032250D01*
X024310Y032180D01*
X024450Y032180D01*
X024520Y032110D01*
X024520Y032040D01*
X024450Y031970D01*
X024310Y031970D01*
X024240Y032040D01*
X021410Y036141D02*
X020990Y036141D01*
X013410Y037132D02*
X013340Y037062D01*
X013060Y037342D01*
X013340Y037342D01*
X013410Y037272D01*
X013410Y037132D01*
X013340Y037062D02*
X013060Y037062D01*
X012990Y037132D01*
X012990Y037272D01*
X013060Y037342D01*
X036540Y026650D02*
X036540Y026370D01*
X036540Y026580D02*
X036820Y026580D01*
X036820Y026650D02*
X036820Y026370D01*
X037000Y026370D02*
X037000Y026790D01*
X037281Y026370D01*
X037281Y026790D01*
X037461Y026650D02*
X037601Y026790D01*
X037741Y026650D01*
X037741Y026370D01*
X037921Y026370D02*
X038201Y026370D01*
X038061Y026370D02*
X038061Y026790D01*
X037921Y026650D01*
X037741Y026580D02*
X037461Y026580D01*
X037461Y026650D02*
X037461Y026370D01*
X037601Y025790D02*
X037741Y025650D01*
X037741Y025370D01*
X037921Y025370D02*
X038201Y025370D01*
X038061Y025370D02*
X038061Y025790D01*
X037921Y025650D01*
X037741Y025580D02*
X037461Y025580D01*
X037461Y025650D02*
X037461Y025370D01*
X037281Y025370D02*
X037281Y025790D01*
X037461Y025650D02*
X037601Y025790D01*
X037281Y025370D02*
X037000Y025790D01*
X037000Y025370D01*
X036820Y025370D02*
X036820Y025650D01*
X036680Y025790D01*
X036540Y025650D01*
X036540Y025370D01*
X036540Y025580D02*
X036820Y025580D01*
X036680Y024790D02*
X036820Y024650D01*
X036820Y024370D01*
X037000Y024370D02*
X037000Y024790D01*
X037281Y024370D01*
X037281Y024790D01*
X037461Y024650D02*
X037601Y024790D01*
X037741Y024650D01*
X037741Y024370D01*
X037921Y024370D02*
X038201Y024370D01*
X038061Y024370D02*
X038061Y024790D01*
X037921Y024650D01*
X037741Y024580D02*
X037461Y024580D01*
X037461Y024650D02*
X037461Y024370D01*
X037601Y023790D02*
X037741Y023650D01*
X037741Y023370D01*
X037921Y023370D02*
X038201Y023370D01*
X038061Y023370D02*
X038061Y023790D01*
X037921Y023650D01*
X037741Y023580D02*
X037461Y023580D01*
X037461Y023650D02*
X037461Y023370D01*
X037281Y023370D02*
X037281Y023790D01*
X037461Y023650D02*
X037601Y023790D01*
X037281Y023370D02*
X037000Y023790D01*
X037000Y023370D01*
X036820Y023370D02*
X036820Y023650D01*
X036680Y023790D01*
X036540Y023650D01*
X036540Y023370D01*
X036540Y023580D02*
X036820Y023580D01*
X036680Y022790D02*
X036820Y022650D01*
X036820Y022370D01*
X037000Y022370D02*
X037000Y022790D01*
X037281Y022370D01*
X037281Y022790D01*
X037461Y022650D02*
X037601Y022790D01*
X037741Y022650D01*
X037741Y022370D01*
X037921Y022370D02*
X038201Y022370D01*
X038061Y022370D02*
X038061Y022790D01*
X037921Y022650D01*
X037741Y022580D02*
X037461Y022580D01*
X037461Y022650D02*
X037461Y022370D01*
X037601Y021790D02*
X037741Y021650D01*
X037741Y021370D01*
X037921Y021370D02*
X038201Y021370D01*
X038061Y021370D02*
X038061Y021790D01*
X037921Y021650D01*
X037741Y021580D02*
X037461Y021580D01*
X037461Y021650D02*
X037461Y021370D01*
X037281Y021370D02*
X037281Y021790D01*
X037461Y021650D02*
X037601Y021790D01*
X037281Y021370D02*
X037000Y021790D01*
X037000Y021370D01*
X036820Y021370D02*
X036820Y021650D01*
X036680Y021790D01*
X036540Y021650D01*
X036540Y021370D01*
X036540Y021580D02*
X036820Y021580D01*
X036680Y020790D02*
X036820Y020650D01*
X036820Y020370D01*
X037000Y020370D02*
X037000Y020790D01*
X037281Y020370D01*
X037281Y020790D01*
X037461Y020650D02*
X037601Y020790D01*
X037741Y020650D01*
X037741Y020370D01*
X037921Y020440D02*
X037991Y020370D01*
X038131Y020370D01*
X038201Y020440D01*
X038201Y020720D01*
X038131Y020790D01*
X037991Y020790D01*
X037921Y020720D01*
X037921Y020650D01*
X037991Y020580D01*
X038201Y020580D01*
X037741Y020580D02*
X037461Y020580D01*
X037461Y020650D02*
X037461Y020370D01*
X037601Y019790D02*
X037741Y019650D01*
X037741Y019370D01*
X037921Y019440D02*
X037921Y019510D01*
X037991Y019580D01*
X038131Y019580D01*
X038201Y019510D01*
X038201Y019440D01*
X038131Y019370D01*
X037991Y019370D01*
X037921Y019440D01*
X037991Y019580D02*
X037921Y019650D01*
X037921Y019720D01*
X037991Y019790D01*
X038131Y019790D01*
X038201Y019720D01*
X038201Y019650D01*
X038131Y019580D01*
X037741Y019580D02*
X037461Y019580D01*
X037461Y019650D02*
X037601Y019790D01*
X037461Y019650D02*
X037461Y019370D01*
X037281Y019370D02*
X037281Y019790D01*
X037000Y019790D02*
X037000Y019370D01*
X036820Y019370D02*
X036820Y019650D01*
X036680Y019790D01*
X036540Y019650D01*
X036540Y019370D01*
X036540Y019580D02*
X036820Y019580D01*
X037000Y019790D02*
X037281Y019370D01*
X037281Y018790D02*
X037281Y018370D01*
X037000Y018790D01*
X037000Y018370D01*
X036820Y018370D02*
X036820Y018650D01*
X036680Y018790D01*
X036540Y018650D01*
X036540Y018370D01*
X036540Y018580D02*
X036820Y018580D01*
X037461Y018580D02*
X037741Y018580D01*
X037741Y018650D02*
X037741Y018370D01*
X037921Y018370D02*
X037921Y018440D01*
X038201Y018720D01*
X038201Y018790D01*
X037921Y018790D01*
X037741Y018650D02*
X037601Y018790D01*
X037461Y018650D01*
X037461Y018370D01*
X037601Y017790D02*
X037741Y017650D01*
X037741Y017370D01*
X037921Y017440D02*
X037991Y017370D01*
X038131Y017370D01*
X038201Y017440D01*
X038201Y017510D01*
X038131Y017580D01*
X037921Y017580D01*
X037921Y017440D01*
X037921Y017580D02*
X038061Y017720D01*
X038201Y017790D01*
X037741Y017580D02*
X037461Y017580D01*
X037461Y017650D02*
X037601Y017790D01*
X037461Y017650D02*
X037461Y017370D01*
X037281Y017370D02*
X037281Y017790D01*
X037000Y017790D02*
X037000Y017370D01*
X036820Y017370D02*
X036820Y017650D01*
X036680Y017790D01*
X036540Y017650D01*
X036540Y017370D01*
X036540Y017580D02*
X036820Y017580D01*
X037000Y017790D02*
X037281Y017370D01*
X037281Y016790D02*
X037281Y016370D01*
X037000Y016790D01*
X037000Y016370D01*
X036820Y016370D02*
X036820Y016650D01*
X036680Y016790D01*
X036540Y016650D01*
X036540Y016370D01*
X036540Y016580D02*
X036820Y016580D01*
X037461Y016580D02*
X037741Y016580D01*
X037741Y016650D02*
X037741Y016370D01*
X037921Y016440D02*
X037991Y016370D01*
X038131Y016370D01*
X038201Y016440D01*
X038201Y016580D01*
X038131Y016650D01*
X038061Y016650D01*
X037921Y016580D01*
X037921Y016790D01*
X038201Y016790D01*
X037741Y016650D02*
X037601Y016790D01*
X037461Y016650D01*
X037461Y016370D01*
X037601Y015790D02*
X037741Y015650D01*
X037741Y015370D01*
X037741Y015580D02*
X037461Y015580D01*
X037461Y015650D02*
X037601Y015790D01*
X037461Y015650D02*
X037461Y015370D01*
X037281Y015370D02*
X037281Y015790D01*
X037000Y015790D02*
X037000Y015370D01*
X036820Y015370D02*
X036820Y015650D01*
X036680Y015790D01*
X036540Y015650D01*
X036540Y015370D01*
X036540Y015580D02*
X036820Y015580D01*
X037000Y015790D02*
X037281Y015370D01*
X037921Y015580D02*
X038201Y015580D01*
X038131Y015370D02*
X038131Y015790D01*
X037921Y015580D01*
X037991Y014790D02*
X038131Y014790D01*
X038201Y014720D01*
X038201Y014650D01*
X038131Y014580D01*
X038201Y014510D01*
X038201Y014440D01*
X038131Y014370D01*
X037991Y014370D01*
X037921Y014440D01*
X037741Y014370D02*
X037741Y014650D01*
X037601Y014790D01*
X037461Y014650D01*
X037461Y014370D01*
X037281Y014370D02*
X037281Y014790D01*
X037461Y014580D02*
X037741Y014580D01*
X037921Y014720D02*
X037991Y014790D01*
X038061Y014580D02*
X038131Y014580D01*
X038131Y013790D02*
X037991Y013790D01*
X037921Y013720D01*
X037741Y013650D02*
X037741Y013370D01*
X037921Y013370D02*
X038201Y013650D01*
X038201Y013720D01*
X038131Y013790D01*
X037741Y013650D02*
X037601Y013790D01*
X037461Y013650D01*
X037461Y013370D01*
X037281Y013370D02*
X037281Y013790D01*
X037461Y013580D02*
X037741Y013580D01*
X037921Y013370D02*
X038201Y013370D01*
X038061Y012790D02*
X037921Y012650D01*
X037741Y012650D02*
X037741Y012370D01*
X037921Y012370D02*
X038201Y012370D01*
X038061Y012370D02*
X038061Y012790D01*
X037741Y012650D02*
X037601Y012790D01*
X037461Y012650D01*
X037461Y012370D01*
X037281Y012370D02*
X037281Y012790D01*
X037461Y012580D02*
X037741Y012580D01*
X037281Y012370D02*
X037000Y012790D01*
X037000Y012370D01*
X036820Y012370D02*
X036820Y012650D01*
X036680Y012790D01*
X036540Y012650D01*
X036540Y012370D01*
X036540Y012580D02*
X036820Y012580D01*
X036820Y013370D02*
X036820Y013650D01*
X036680Y013790D01*
X036540Y013650D01*
X036540Y013370D01*
X036540Y013580D02*
X036820Y013580D01*
X037000Y013370D02*
X037000Y013790D01*
X037281Y013370D01*
X037281Y014370D02*
X037000Y014790D01*
X037000Y014370D01*
X036820Y014370D02*
X036820Y014650D01*
X036680Y014790D01*
X036540Y014650D01*
X036540Y014370D01*
X036540Y014580D02*
X036820Y014580D01*
X036680Y011790D02*
X036820Y011650D01*
X036820Y011370D01*
X037000Y011370D02*
X037000Y011790D01*
X037281Y011370D01*
X037281Y011790D01*
X037461Y011650D02*
X037601Y011790D01*
X037741Y011650D01*
X037741Y011370D01*
X037921Y011440D02*
X037991Y011370D01*
X038131Y011370D01*
X038201Y011440D01*
X038201Y011720D01*
X037921Y011440D01*
X037921Y011720D01*
X037991Y011790D01*
X038131Y011790D01*
X038201Y011720D01*
X037741Y011580D02*
X037461Y011580D01*
X037461Y011650D02*
X037461Y011370D01*
X036820Y011580D02*
X036540Y011580D01*
X036540Y011650D02*
X036680Y011790D01*
X036540Y011650D02*
X036540Y011370D01*
X037110Y010321D02*
X037040Y010251D01*
X037040Y010111D01*
X037110Y010041D01*
X037390Y010041D01*
X037460Y010111D01*
X037460Y010251D01*
X037390Y010321D01*
X037250Y010321D01*
X037250Y010181D01*
X037390Y009861D02*
X037110Y009861D01*
X037040Y009791D01*
X037040Y009650D01*
X037110Y009580D01*
X037390Y009580D01*
X037460Y009650D01*
X037460Y009791D01*
X037390Y009861D01*
X037665Y009784D02*
X037665Y009504D01*
X037665Y009644D02*
X038085Y009644D01*
X038015Y009964D02*
X038085Y010034D01*
X038085Y010174D01*
X038015Y010244D01*
X037945Y010244D01*
X037875Y010174D01*
X037875Y010034D01*
X037805Y009964D01*
X037735Y009964D01*
X037665Y010034D01*
X037665Y010174D01*
X037735Y010244D01*
X037460Y009400D02*
X037460Y009120D01*
X037040Y009120D01*
X037180Y008940D02*
X037460Y008940D01*
X037250Y008940D02*
X037250Y008660D01*
X037180Y008660D02*
X037460Y008660D01*
X037460Y008479D02*
X037040Y008479D01*
X037180Y008660D02*
X037040Y008800D01*
X037180Y008940D01*
X037460Y008479D02*
X037040Y008199D01*
X037460Y008199D01*
X037460Y008019D02*
X037180Y008019D01*
X037040Y007879D01*
X037180Y007739D01*
X037460Y007739D01*
X037250Y007739D02*
X037250Y008019D01*
X037665Y007956D02*
X037665Y007816D01*
X037665Y007886D02*
X038085Y007886D01*
X038085Y007816D02*
X038085Y007956D01*
X038085Y008122D02*
X037665Y008122D01*
X038085Y008403D01*
X037665Y008403D01*
X037665Y008583D02*
X037665Y008793D01*
X037735Y008863D01*
X037875Y008863D01*
X037945Y008793D01*
X037945Y008583D01*
X038085Y008583D02*
X037665Y008583D01*
X037665Y009043D02*
X038015Y009043D01*
X038085Y009113D01*
X038085Y009253D01*
X038015Y009324D01*
X037665Y009324D01*
X035710Y009686D02*
X035570Y009546D01*
X035430Y009546D01*
X035290Y009686D01*
X035290Y009853D02*
X035290Y010063D01*
X035360Y010133D01*
X035430Y010133D01*
X035500Y010063D01*
X035500Y009853D01*
X035500Y010063D02*
X035570Y010133D01*
X035640Y010133D01*
X035710Y010063D01*
X035710Y009853D01*
X035290Y009853D01*
X035290Y010313D02*
X035430Y010453D01*
X035570Y010453D01*
X035710Y010313D01*
X034710Y010313D02*
X034570Y010453D01*
X034430Y010453D01*
X034290Y010313D01*
X034360Y010133D02*
X034500Y010133D01*
X034570Y010063D01*
X034570Y009853D01*
X034570Y009993D02*
X034710Y010133D01*
X034710Y009853D02*
X034290Y009853D01*
X034290Y010063D01*
X034360Y010133D01*
X034290Y009686D02*
X034430Y009546D01*
X034570Y009546D01*
X034710Y009686D01*
X034570Y008905D02*
X034290Y008905D01*
X034570Y008905D02*
X034710Y008765D01*
X034570Y008625D01*
X034290Y008625D01*
X034290Y008445D02*
X034290Y008165D01*
X034500Y008165D01*
X034430Y008305D01*
X034430Y008375D01*
X034500Y008445D01*
X034640Y008445D01*
X034710Y008375D01*
X034710Y008235D01*
X034640Y008165D01*
X034500Y007984D02*
X034500Y007704D01*
X034360Y007844D02*
X034640Y007844D01*
X035290Y007774D02*
X035360Y007704D01*
X035640Y007704D01*
X035710Y007774D01*
X035710Y007914D01*
X035640Y007984D01*
X035500Y007984D01*
X035500Y007844D01*
X035360Y007984D02*
X035290Y007914D01*
X035290Y007774D01*
X035290Y008165D02*
X035710Y008445D01*
X035290Y008445D01*
X035290Y008625D02*
X035290Y008835D01*
X035360Y008905D01*
X035640Y008905D01*
X035710Y008835D01*
X035710Y008625D01*
X035290Y008625D01*
X035290Y008165D02*
X035710Y008165D01*
X033710Y008068D02*
X033710Y007928D01*
X033640Y007858D01*
X033500Y007928D02*
X033430Y007858D01*
X033360Y007858D01*
X033290Y007928D01*
X033290Y008068D01*
X033360Y008138D01*
X033500Y008068D02*
X033570Y008138D01*
X033640Y008138D01*
X033710Y008068D01*
X033500Y008068D02*
X033500Y007928D01*
X033710Y008318D02*
X033710Y008458D01*
X033710Y008388D02*
X033290Y008388D01*
X033290Y008318D02*
X033290Y008458D01*
X033360Y008625D02*
X033640Y008625D01*
X033710Y008695D01*
X033710Y008835D01*
X033640Y008905D01*
X033500Y008905D01*
X033500Y008765D01*
X033360Y008625D02*
X033290Y008695D01*
X033290Y008835D01*
X033360Y008905D01*
X033430Y009546D02*
X033290Y009686D01*
X033290Y009853D02*
X033710Y009853D01*
X033570Y009993D01*
X033710Y010133D01*
X033290Y010133D01*
X033290Y010313D02*
X033430Y010453D01*
X033570Y010453D01*
X033710Y010313D01*
X033710Y009686D02*
X033570Y009546D01*
X033430Y009546D01*
X029790Y002490D02*
X029650Y002490D01*
X029580Y002420D01*
X029580Y002350D01*
X029650Y002210D01*
X029440Y002210D01*
X029440Y002490D01*
X029790Y002490D02*
X029860Y002420D01*
X029860Y002280D01*
X029790Y002210D01*
X029860Y002029D02*
X029860Y001749D01*
X029860Y001889D02*
X029440Y001889D01*
X029580Y001749D01*
X029440Y001569D02*
X029860Y001569D01*
X029720Y001429D01*
X029860Y001289D01*
X029440Y001289D01*
X029510Y001109D02*
X029440Y001039D01*
X029440Y000898D01*
X029510Y000828D01*
X029580Y000828D01*
X029650Y000898D01*
X029650Y001039D01*
X029720Y001109D01*
X029790Y001109D01*
X029860Y001039D01*
X029860Y000898D01*
X029790Y000828D01*
X028860Y000898D02*
X028790Y000828D01*
X028860Y000898D02*
X028860Y001039D01*
X028790Y001109D01*
X028720Y001109D01*
X028650Y001039D01*
X028650Y000898D01*
X028580Y000828D01*
X028510Y000828D01*
X028440Y000898D01*
X028440Y001039D01*
X028510Y001109D01*
X028440Y001289D02*
X028860Y001289D01*
X028720Y001429D01*
X028860Y001569D01*
X028440Y001569D01*
X028580Y001749D02*
X028440Y001889D01*
X028860Y001889D01*
X028860Y001749D02*
X028860Y002029D01*
X028650Y002210D02*
X028650Y002490D01*
X028860Y002420D02*
X028440Y002420D01*
X028650Y002210D01*
X027860Y002280D02*
X027790Y002210D01*
X027860Y002280D02*
X027860Y002420D01*
X027790Y002490D01*
X027720Y002490D01*
X027650Y002420D01*
X027650Y002350D01*
X027650Y002420D02*
X027580Y002490D01*
X027510Y002490D01*
X027440Y002420D01*
X027440Y002280D01*
X027510Y002210D01*
X027440Y001889D02*
X027860Y001889D01*
X027860Y001749D02*
X027860Y002029D01*
X027580Y001749D02*
X027440Y001889D01*
X027440Y001569D02*
X027860Y001569D01*
X027720Y001429D01*
X027860Y001289D01*
X027440Y001289D01*
X027510Y001109D02*
X027440Y001039D01*
X027440Y000898D01*
X027510Y000828D01*
X027580Y000828D01*
X027650Y000898D01*
X027650Y001039D01*
X027720Y001109D01*
X027790Y001109D01*
X027860Y001039D01*
X027860Y000898D01*
X027790Y000828D01*
X026860Y000898D02*
X026790Y000828D01*
X026860Y000898D02*
X026860Y001039D01*
X026790Y001109D01*
X026720Y001109D01*
X026650Y001039D01*
X026650Y000898D01*
X026580Y000828D01*
X026510Y000828D01*
X026440Y000898D01*
X026440Y001039D01*
X026510Y001109D01*
X026440Y001289D02*
X026860Y001289D01*
X026720Y001429D01*
X026860Y001569D01*
X026440Y001569D01*
X026580Y001749D02*
X026440Y001889D01*
X026860Y001889D01*
X026860Y001749D02*
X026860Y002029D01*
X026860Y002210D02*
X026580Y002490D01*
X026510Y002490D01*
X026440Y002420D01*
X026440Y002280D01*
X026510Y002210D01*
X026860Y002210D02*
X026860Y002490D01*
X025860Y002490D02*
X025860Y002210D01*
X025860Y002350D02*
X025440Y002350D01*
X025580Y002210D01*
X025860Y002029D02*
X025860Y001749D01*
X025860Y001889D02*
X025440Y001889D01*
X025580Y001749D01*
X025440Y001569D02*
X025860Y001569D01*
X025720Y001429D01*
X025860Y001289D01*
X025440Y001289D01*
X025510Y001109D02*
X025440Y001039D01*
X025440Y000898D01*
X025510Y000828D01*
X025580Y000828D01*
X025650Y000898D01*
X025650Y001039D01*
X025720Y001109D01*
X025790Y001109D01*
X025860Y001039D01*
X025860Y000898D01*
X025790Y000828D01*
X024860Y000898D02*
X024790Y000828D01*
X024860Y000898D02*
X024860Y001039D01*
X024790Y001109D01*
X024720Y001109D01*
X024650Y001039D01*
X024650Y000898D01*
X024580Y000828D01*
X024510Y000828D01*
X024440Y000898D01*
X024440Y001039D01*
X024510Y001109D01*
X024440Y001289D02*
X024860Y001289D01*
X024720Y001429D01*
X024860Y001569D01*
X024440Y001569D01*
X024580Y001749D02*
X024440Y001889D01*
X024860Y001889D01*
X024860Y001749D02*
X024860Y002029D01*
X024790Y002210D02*
X024510Y002490D01*
X024790Y002490D01*
X024860Y002420D01*
X024860Y002280D01*
X024790Y002210D01*
X024510Y002210D01*
X024440Y002280D01*
X024440Y002420D01*
X024510Y002490D01*
X023860Y002420D02*
X023860Y002280D01*
X023790Y002210D01*
X023650Y002280D02*
X023650Y002490D01*
X023790Y002490D02*
X023510Y002490D01*
X023440Y002420D01*
X023440Y002280D01*
X023510Y002210D01*
X023580Y002210D01*
X023650Y002280D01*
X023860Y002420D02*
X023790Y002490D01*
X023860Y002029D02*
X023440Y002029D01*
X023440Y001749D02*
X023860Y001749D01*
X023720Y001889D01*
X023860Y002029D01*
X023790Y001569D02*
X023720Y001569D01*
X023650Y001499D01*
X023650Y001359D01*
X023580Y001289D01*
X023510Y001289D01*
X023440Y001359D01*
X023440Y001499D01*
X023510Y001569D01*
X023790Y001569D02*
X023860Y001499D01*
X023860Y001359D01*
X023790Y001289D01*
X022860Y001359D02*
X022790Y001289D01*
X022860Y001359D02*
X022860Y001499D01*
X022790Y001569D01*
X022720Y001569D01*
X022650Y001499D01*
X022650Y001359D01*
X022580Y001289D01*
X022510Y001289D01*
X022440Y001359D01*
X022440Y001499D01*
X022510Y001569D01*
X022440Y001749D02*
X022860Y001749D01*
X022720Y001889D01*
X022860Y002029D01*
X022440Y002029D01*
X022510Y002210D02*
X022580Y002210D01*
X022650Y002280D01*
X022650Y002420D01*
X022720Y002490D01*
X022790Y002490D01*
X022860Y002420D01*
X022860Y002280D01*
X022790Y002210D01*
X022720Y002210D01*
X022650Y002280D01*
X022650Y002420D02*
X022580Y002490D01*
X022510Y002490D01*
X022440Y002420D01*
X022440Y002280D01*
X022510Y002210D01*
X021860Y002210D02*
X021790Y002210D01*
X021510Y002490D01*
X021440Y002490D01*
X021440Y002210D01*
X021440Y002029D02*
X021860Y002029D01*
X021720Y001889D01*
X021860Y001749D01*
X021440Y001749D01*
X021510Y001569D02*
X021440Y001499D01*
X021440Y001359D01*
X021510Y001289D01*
X021580Y001289D01*
X021650Y001359D01*
X021650Y001499D01*
X021720Y001569D01*
X021790Y001569D01*
X021860Y001499D01*
X021860Y001359D01*
X021790Y001289D01*
X020860Y001359D02*
X020790Y001289D01*
X020860Y001359D02*
X020860Y001499D01*
X020790Y001569D01*
X020720Y001569D01*
X020650Y001499D01*
X020650Y001359D01*
X020580Y001289D01*
X020510Y001289D01*
X020440Y001359D01*
X020440Y001499D01*
X020510Y001569D01*
X020440Y001749D02*
X020860Y001749D01*
X020720Y001889D01*
X020860Y002029D01*
X020440Y002029D01*
X020650Y002210D02*
X020510Y002350D01*
X020440Y002490D01*
X020650Y002420D02*
X020650Y002210D01*
X020790Y002210D01*
X020860Y002280D01*
X020860Y002420D01*
X020790Y002490D01*
X020720Y002490D01*
X020650Y002420D01*
X019860Y002420D02*
X019860Y002280D01*
X019790Y002210D01*
X019650Y002210D02*
X019580Y002350D01*
X019580Y002420D01*
X019650Y002490D01*
X019790Y002490D01*
X019860Y002420D01*
X019650Y002210D02*
X019440Y002210D01*
X019440Y002490D01*
X019440Y002029D02*
X019860Y002029D01*
X019720Y001889D01*
X019860Y001749D01*
X019440Y001749D01*
X019510Y001569D02*
X019440Y001499D01*
X019440Y001359D01*
X019510Y001289D01*
X019580Y001289D01*
X019650Y001359D01*
X019650Y001499D01*
X019720Y001569D01*
X019790Y001569D01*
X019860Y001499D01*
X019860Y001359D01*
X019790Y001289D01*
X018860Y001359D02*
X018790Y001289D01*
X018860Y001359D02*
X018860Y001499D01*
X018790Y001569D01*
X018720Y001569D01*
X018650Y001499D01*
X018650Y001359D01*
X018580Y001289D01*
X018510Y001289D01*
X018440Y001359D01*
X018440Y001499D01*
X018510Y001569D01*
X018440Y001749D02*
X018860Y001749D01*
X018720Y001889D01*
X018860Y002029D01*
X018440Y002029D01*
X018650Y002210D02*
X018440Y002420D01*
X018860Y002420D01*
X018650Y002490D02*
X018650Y002210D01*
X017860Y002280D02*
X017790Y002210D01*
X017860Y002280D02*
X017860Y002420D01*
X017790Y002490D01*
X017720Y002490D01*
X017650Y002420D01*
X017650Y002350D01*
X017650Y002420D02*
X017580Y002490D01*
X017510Y002490D01*
X017440Y002420D01*
X017440Y002280D01*
X017510Y002210D01*
X017440Y002029D02*
X017860Y002029D01*
X017720Y001889D01*
X017860Y001749D01*
X017440Y001749D01*
X017510Y001569D02*
X017440Y001499D01*
X017440Y001359D01*
X017510Y001289D01*
X017580Y001289D01*
X017650Y001359D01*
X017650Y001499D01*
X017720Y001569D01*
X017790Y001569D01*
X017860Y001499D01*
X017860Y001359D01*
X017790Y001289D01*
X016860Y001359D02*
X016790Y001289D01*
X016860Y001359D02*
X016860Y001499D01*
X016790Y001569D01*
X016720Y001569D01*
X016650Y001499D01*
X016650Y001359D01*
X016580Y001289D01*
X016510Y001289D01*
X016440Y001359D01*
X016440Y001499D01*
X016510Y001569D01*
X016440Y001749D02*
X016860Y001749D01*
X016720Y001889D01*
X016860Y002029D01*
X016440Y002029D01*
X016510Y002210D02*
X016440Y002280D01*
X016440Y002420D01*
X016510Y002490D01*
X016580Y002490D01*
X016860Y002210D01*
X016860Y002490D01*
X015860Y002490D02*
X015860Y002210D01*
X015860Y002350D02*
X015440Y002350D01*
X015580Y002210D01*
X015440Y002029D02*
X015860Y002029D01*
X015720Y001889D01*
X015860Y001749D01*
X015440Y001749D01*
X015510Y001569D02*
X015440Y001499D01*
X015440Y001359D01*
X015510Y001289D01*
X015580Y001289D01*
X015650Y001359D01*
X015650Y001499D01*
X015720Y001569D01*
X015790Y001569D01*
X015860Y001499D01*
X015860Y001359D01*
X015790Y001289D01*
X014860Y001359D02*
X014790Y001289D01*
X014860Y001359D02*
X014860Y001499D01*
X014790Y001569D01*
X014720Y001569D01*
X014650Y001499D01*
X014650Y001359D01*
X014580Y001289D01*
X014510Y001289D01*
X014440Y001359D01*
X014440Y001499D01*
X014510Y001569D01*
X014440Y001749D02*
X014860Y001749D01*
X014720Y001889D01*
X014860Y002029D01*
X014440Y002029D01*
X014510Y002210D02*
X014440Y002280D01*
X014440Y002420D01*
X014510Y002490D01*
X014790Y002210D01*
X014860Y002280D01*
X014860Y002420D01*
X014790Y002490D01*
X014510Y002490D01*
X014510Y002210D02*
X014790Y002210D01*
X013510Y003490D02*
X013510Y003770D01*
X013440Y003840D01*
X013230Y003840D01*
X013230Y003420D01*
X013440Y003420D01*
X013510Y003490D01*
X013049Y003420D02*
X013049Y003840D01*
X012769Y003840D02*
X013049Y003420D01*
X012769Y003420D02*
X012769Y003840D01*
X012589Y003770D02*
X012519Y003840D01*
X012379Y003840D01*
X012309Y003770D01*
X012309Y003490D01*
X012379Y003420D01*
X012519Y003420D01*
X012589Y003490D01*
X012589Y003630D01*
X012449Y003630D01*
X012309Y004420D02*
X012309Y004840D01*
X012519Y004840D01*
X012589Y004770D01*
X012589Y004630D01*
X012519Y004560D01*
X012309Y004560D01*
X012129Y004420D02*
X012129Y004840D01*
X011848Y004840D02*
X011848Y004420D01*
X011682Y004420D02*
X011541Y004420D01*
X011612Y004420D02*
X011612Y004840D01*
X011682Y004840D02*
X011541Y004840D01*
X011848Y004840D02*
X012129Y004420D01*
X012769Y004490D02*
X012839Y004420D01*
X012979Y004420D01*
X013049Y004490D01*
X013049Y004840D01*
X013230Y004840D02*
X013510Y004840D01*
X013370Y004840D02*
X013370Y004420D01*
X012769Y004490D02*
X012769Y004840D01*
X012859Y002440D02*
X012859Y002020D01*
X012679Y002090D02*
X012609Y002020D01*
X012469Y002020D01*
X012399Y002090D01*
X012399Y002370D01*
X012469Y002440D01*
X012609Y002440D01*
X012679Y002370D01*
X012859Y002230D02*
X013139Y002230D01*
X013139Y002440D02*
X013139Y002020D01*
X013069Y001740D02*
X012929Y001740D01*
X012859Y001670D01*
X012859Y001600D01*
X012929Y001530D01*
X013069Y001530D01*
X013139Y001460D01*
X013139Y001390D01*
X013069Y001320D01*
X012929Y001320D01*
X012859Y001390D01*
X012539Y001320D02*
X012539Y001740D01*
X012399Y001740D02*
X012679Y001740D01*
X013069Y001740D02*
X013139Y001670D01*
X012219Y001740D02*
X012219Y001390D01*
X012148Y001320D01*
X012008Y001320D01*
X011938Y001390D01*
X011938Y001740D01*
X011758Y001670D02*
X011758Y001530D01*
X011688Y001460D01*
X011478Y001460D01*
X011478Y001320D02*
X011478Y001740D01*
X011688Y001740D01*
X011758Y001670D01*
X011771Y002020D02*
X011631Y002020D01*
X011701Y002020D02*
X011701Y002440D01*
X011631Y002440D02*
X011771Y002440D01*
X011938Y002440D02*
X012219Y002440D01*
X012078Y002440D02*
X012078Y002020D01*
X011451Y002020D02*
X011451Y002440D01*
X011171Y002440D02*
X011171Y002020D01*
X011311Y002160D01*
X011451Y002020D01*
X011298Y001740D02*
X011298Y001320D01*
X011017Y001740D01*
X011017Y001320D01*
X010851Y001320D02*
X010711Y001320D01*
X010781Y001320D02*
X010781Y001740D01*
X010711Y001740D02*
X010851Y001740D01*
X010921Y002020D02*
X010781Y002020D01*
X010711Y002090D01*
X010781Y002230D02*
X010921Y002230D01*
X010991Y002160D01*
X010991Y002090D01*
X010921Y002020D01*
X010781Y002230D02*
X010711Y002300D01*
X010711Y002370D01*
X010781Y002440D01*
X010921Y002440D01*
X010991Y002370D01*
X036540Y020370D02*
X036540Y020650D01*
X036680Y020790D01*
X036540Y020580D02*
X036820Y020580D01*
X038382Y021440D02*
X038382Y021720D01*
X038452Y021790D01*
X038592Y021790D01*
X038662Y021720D01*
X038382Y021440D01*
X038452Y021370D01*
X038592Y021370D01*
X038662Y021440D01*
X038662Y021720D01*
X038662Y022370D02*
X038382Y022370D01*
X038522Y022370D02*
X038522Y022790D01*
X038382Y022650D01*
X038382Y023370D02*
X038662Y023650D01*
X038662Y023720D01*
X038592Y023790D01*
X038452Y023790D01*
X038382Y023720D01*
X038382Y023370D02*
X038662Y023370D01*
X038592Y024370D02*
X038452Y024370D01*
X038382Y024440D01*
X038522Y024580D02*
X038592Y024580D01*
X038662Y024510D01*
X038662Y024440D01*
X038592Y024370D01*
X038592Y024580D02*
X038662Y024650D01*
X038662Y024720D01*
X038592Y024790D01*
X038452Y024790D01*
X038382Y024720D01*
X038592Y025370D02*
X038592Y025790D01*
X038382Y025580D01*
X038662Y025580D01*
X038592Y026370D02*
X038452Y026370D01*
X038382Y026440D01*
X038382Y026580D02*
X038522Y026650D01*
X038592Y026650D01*
X038662Y026580D01*
X038662Y026440D01*
X038592Y026370D01*
X038382Y026580D02*
X038382Y026790D01*
X038662Y026790D01*
X036820Y026650D02*
X036680Y026790D01*
X036540Y026650D01*
X036680Y024790D02*
X036540Y024650D01*
X036540Y024370D01*
X036540Y024580D02*
X036820Y024580D01*
X036680Y022790D02*
X036540Y022650D01*
X036540Y022370D01*
X036540Y022580D02*
X036820Y022580D01*
D11*
X039400Y000180D02*
X000400Y000180D01*
X000400Y039180D01*
X039400Y039180D01*
X039400Y000180D01*
X039000Y007080D02*
X036000Y007080D01*
X036000Y011080D01*
X039000Y011080D01*
X039000Y007080D01*
X036000Y007080D02*
X035000Y007080D01*
X035000Y027080D01*
X036000Y027080D01*
X036000Y016080D01*
X033000Y016080D01*
X033000Y017080D01*
X033000Y018080D01*
X039000Y018080D01*
X039000Y019080D01*
X039000Y020080D01*
X033000Y020080D01*
X033000Y021080D01*
X039000Y021080D01*
X039000Y022080D01*
X033000Y022080D01*
X033000Y023080D01*
X039000Y023080D01*
X039000Y024080D01*
X033000Y024080D01*
X033000Y025080D01*
X039000Y025080D01*
X039000Y026080D01*
X033000Y026080D01*
X033000Y027080D01*
X034000Y027080D01*
X034000Y007080D01*
X033000Y007080D01*
X033000Y011080D01*
X036000Y011080D01*
X036000Y012080D01*
X033000Y012080D01*
X033000Y013080D01*
X036000Y013080D01*
X036000Y014080D01*
X033000Y014080D01*
X033000Y015080D01*
X036000Y015080D01*
X036000Y016080D01*
X039000Y016080D01*
X039000Y015080D01*
X036000Y015080D01*
X036000Y014080D01*
X039000Y014080D01*
X039000Y013080D01*
X036000Y013080D01*
X036000Y012080D01*
X039000Y012080D01*
X039000Y011080D01*
X039000Y012080D02*
X039000Y013080D01*
X039000Y014080D02*
X039000Y015080D01*
X039000Y016080D02*
X039000Y017080D01*
X039000Y018080D01*
X039000Y017080D02*
X033000Y017080D01*
X033000Y018080D02*
X033000Y019080D01*
X039000Y019080D01*
X039000Y020080D02*
X039000Y021080D01*
X039000Y022080D02*
X039000Y023080D01*
X039000Y024080D02*
X039000Y025080D01*
X039000Y026080D02*
X039000Y027080D01*
X036000Y027080D01*
X035000Y027080D02*
X034000Y027080D01*
X033000Y026080D02*
X033000Y025080D01*
X032843Y025130D02*
X032843Y024710D01*
X032423Y024710D01*
X032283Y024850D01*
X032423Y024990D01*
X032843Y024990D01*
X032843Y025130D02*
X032703Y025270D01*
X032423Y025270D01*
X031809Y025270D02*
X031809Y024710D01*
X031669Y024710D02*
X031949Y024710D01*
X031335Y024710D02*
X031195Y024850D01*
X031195Y025411D01*
X031055Y025270D02*
X031335Y025270D01*
X031669Y025270D02*
X031809Y025270D01*
X031809Y025551D02*
X031809Y025691D01*
X031042Y026210D02*
X030902Y026210D01*
X030902Y026350D01*
X031042Y026350D01*
X031042Y026210D01*
X031042Y026630D02*
X030902Y026630D01*
X030902Y026770D01*
X031042Y026770D01*
X031042Y026630D01*
X030541Y026770D02*
X030541Y026070D01*
X030401Y025930D01*
X030261Y025930D01*
X030121Y026210D02*
X029981Y026350D01*
X029981Y026770D01*
X029621Y026630D02*
X029481Y026770D01*
X029060Y026770D01*
X029060Y027051D02*
X029060Y026210D01*
X029481Y026210D01*
X029621Y026350D01*
X029621Y026630D01*
X030121Y026210D02*
X030541Y026210D01*
X030555Y025270D02*
X030275Y025270D01*
X030134Y025130D01*
X030134Y024850D01*
X030275Y024710D01*
X030555Y024710D01*
X030695Y024990D02*
X030134Y024990D01*
X029787Y025270D02*
X029647Y025270D01*
X029367Y024990D01*
X029367Y024710D02*
X029367Y025270D01*
X029007Y025130D02*
X029007Y024710D01*
X028586Y024710D01*
X028446Y024850D01*
X028586Y024990D01*
X029007Y024990D01*
X029007Y025130D02*
X028867Y025270D01*
X028586Y025270D01*
X028086Y025270D02*
X027526Y024710D01*
X028086Y024710D01*
X028086Y025270D02*
X027526Y025270D01*
X027165Y025130D02*
X027165Y024710D01*
X026745Y024710D01*
X026605Y024850D01*
X026745Y024990D01*
X027165Y024990D01*
X027165Y025130D02*
X027025Y025270D01*
X026745Y025270D01*
X026244Y025551D02*
X026244Y024710D01*
X025684Y025551D01*
X025684Y024710D01*
X025517Y024191D02*
X025517Y024051D01*
X025517Y023770D02*
X025517Y023210D01*
X025377Y023210D02*
X025657Y023210D01*
X025991Y023350D02*
X026131Y023210D01*
X026411Y023210D01*
X026551Y023350D01*
X026551Y023630D01*
X026411Y023770D01*
X026131Y023770D01*
X025991Y023630D01*
X025991Y023350D01*
X025517Y023770D02*
X025377Y023770D01*
X025017Y023770D02*
X024596Y023770D01*
X024456Y023630D01*
X024596Y023490D01*
X024877Y023490D01*
X025017Y023350D01*
X024877Y023210D01*
X024456Y023210D01*
X024123Y023210D02*
X023842Y023210D01*
X023982Y023210D02*
X023982Y023770D01*
X023842Y023770D01*
X023982Y024051D02*
X023982Y024191D01*
X023842Y024710D02*
X023842Y025270D01*
X024263Y025270D01*
X024403Y025130D01*
X024403Y024710D01*
X023482Y024710D02*
X023062Y024710D01*
X022922Y024850D01*
X023062Y024990D01*
X023482Y024990D01*
X023482Y025130D02*
X023482Y024710D01*
X023482Y025130D02*
X023342Y025270D01*
X023062Y025270D01*
X022561Y025270D02*
X022561Y024570D01*
X022421Y024430D01*
X022281Y024430D01*
X022141Y024710D02*
X022001Y024850D01*
X022001Y025270D01*
X021640Y025130D02*
X021500Y024990D01*
X021080Y024990D01*
X021080Y024710D02*
X021080Y025551D01*
X021500Y025551D01*
X021640Y025411D01*
X021640Y025130D01*
X021360Y024990D02*
X021640Y024710D01*
X022141Y024710D02*
X022561Y024710D01*
X022421Y023770D02*
X022141Y023770D01*
X022001Y023630D01*
X022001Y023350D01*
X022141Y023210D01*
X022421Y023210D01*
X022561Y023490D02*
X022001Y023490D01*
X021640Y023630D02*
X021500Y023490D01*
X021080Y023490D01*
X021080Y023210D02*
X021080Y024051D01*
X021500Y024051D01*
X021640Y023911D01*
X021640Y023630D01*
X021360Y023490D02*
X021640Y023210D01*
X022421Y023770D02*
X022561Y023630D01*
X022561Y023490D01*
X022922Y023770D02*
X023202Y023210D01*
X023482Y023770D01*
X024736Y025930D02*
X024877Y025930D01*
X025017Y026070D01*
X025017Y026770D01*
X024596Y026770D01*
X024456Y026630D01*
X024456Y026350D01*
X024596Y026210D01*
X025017Y026210D01*
X025377Y026210D02*
X025377Y026770D01*
X025797Y026770D01*
X025937Y026630D01*
X025937Y026210D01*
X026298Y026350D02*
X026298Y026630D01*
X026438Y026770D01*
X026718Y026770D01*
X026858Y026630D01*
X026858Y026490D01*
X026298Y026490D01*
X026298Y026350D02*
X026438Y026210D01*
X026718Y026210D01*
X027219Y026350D02*
X027219Y026630D01*
X027359Y026770D01*
X027779Y026770D01*
X027779Y027051D02*
X027779Y026210D01*
X027359Y026210D01*
X027219Y026350D01*
X029033Y024051D02*
X029033Y023210D01*
X028753Y023210D02*
X029314Y023210D01*
X029674Y023210D02*
X029814Y023210D01*
X029814Y023350D01*
X029674Y023350D01*
X029674Y023210D01*
X030134Y023210D02*
X030695Y023210D01*
X030415Y023210D02*
X030415Y024051D01*
X030134Y023770D01*
X029033Y024051D02*
X028753Y023770D01*
X027472Y023630D02*
X027472Y023210D01*
X027472Y023630D02*
X027332Y023770D01*
X026912Y023770D01*
X026912Y023210D01*
X024123Y026210D02*
X023842Y026210D01*
X023982Y026210D02*
X023982Y026770D01*
X023842Y026770D01*
X023982Y027051D02*
X023982Y027191D01*
X023482Y026770D02*
X023062Y026770D01*
X022922Y026630D01*
X023062Y026490D01*
X023342Y026490D01*
X023482Y026350D01*
X023342Y026210D01*
X022922Y026210D01*
X022561Y026490D02*
X022001Y026490D01*
X022001Y026350D02*
X022001Y026630D01*
X022141Y026770D01*
X022421Y026770D01*
X022561Y026630D01*
X022561Y026490D01*
X022421Y026210D02*
X022141Y026210D01*
X022001Y026350D01*
X021640Y026350D02*
X021640Y026911D01*
X021500Y027051D01*
X021080Y027051D01*
X021080Y026210D01*
X021500Y026210D01*
X021640Y026350D01*
X023700Y031680D02*
X027700Y031680D01*
X027700Y032680D01*
X023700Y032680D01*
X023700Y033680D01*
X027700Y033680D01*
X027700Y032680D01*
X027700Y033680D02*
X027700Y034680D01*
X023700Y034680D01*
X023700Y038180D01*
X027700Y038180D01*
X027700Y034680D01*
X023700Y034680D02*
X023700Y033680D01*
X023700Y032680D02*
X023700Y031680D01*
X012700Y031680D01*
X012700Y034680D01*
X012700Y038180D01*
X013700Y038180D01*
X014700Y038180D01*
X015700Y038180D01*
X016700Y038180D01*
X017700Y038180D01*
X018700Y038180D01*
X019700Y038180D01*
X020700Y038180D01*
X021700Y038180D01*
X022700Y038180D01*
X023700Y038180D01*
X022700Y038180D02*
X022700Y034680D01*
X021700Y034680D01*
X021700Y038180D01*
X020700Y038180D02*
X020700Y034680D01*
X019700Y034680D01*
X019700Y038180D01*
X018700Y038180D02*
X018700Y034680D01*
X017700Y034680D01*
X017700Y038180D01*
X016700Y038180D02*
X016700Y034680D01*
X015700Y034680D01*
X015700Y038180D01*
X014700Y038180D02*
X014700Y034680D01*
X013700Y034680D01*
X013700Y038180D01*
X013700Y034680D02*
X012700Y034680D01*
X014700Y034680D02*
X015700Y034680D01*
X016700Y034680D02*
X017700Y034680D01*
X018700Y034680D02*
X019700Y034680D01*
X020700Y034680D02*
X021700Y034680D01*
X022700Y034680D02*
X023700Y034680D01*
X030555Y025270D02*
X030695Y025130D01*
X030695Y024990D01*
X033000Y024080D02*
X033000Y023080D01*
X033000Y022080D02*
X033000Y021080D01*
X033000Y020080D02*
X033000Y019080D01*
X033000Y016080D02*
X033000Y015080D01*
X033000Y014080D02*
X033000Y013080D01*
X033000Y012080D02*
X033000Y011080D01*
X034000Y007080D02*
X035000Y007080D01*
X030150Y005130D02*
X030150Y004130D01*
X027150Y004130D01*
X009650Y004130D01*
X009650Y005130D01*
X014150Y005130D01*
X014150Y000630D01*
X015150Y000630D01*
X015150Y005130D01*
X014150Y005130D01*
X015150Y005130D02*
X016150Y005130D01*
X016150Y000630D01*
X017150Y000630D01*
X017150Y005130D01*
X018150Y005130D01*
X018150Y000630D01*
X019150Y000630D01*
X019150Y005130D01*
X020150Y005130D01*
X020150Y000630D01*
X021150Y000630D01*
X021150Y005130D01*
X022150Y005130D01*
X022150Y000630D01*
X023150Y000630D01*
X023150Y005130D01*
X024150Y005130D01*
X024150Y000630D01*
X025150Y000630D01*
X025150Y005130D01*
X026150Y005130D01*
X026150Y000630D01*
X027150Y000630D01*
X027150Y003130D01*
X030150Y003130D01*
X030150Y000630D01*
X029150Y000630D01*
X029150Y005130D01*
X030150Y005130D01*
X030150Y004130D02*
X030150Y003130D01*
X029150Y005130D02*
X028150Y005130D01*
X028150Y000630D01*
X029150Y000630D01*
X028150Y000630D02*
X027150Y000630D01*
X026150Y000630D02*
X025150Y000630D01*
X024150Y000630D02*
X023150Y000630D01*
X022150Y000630D02*
X021150Y000630D01*
X020150Y000630D02*
X019150Y000630D01*
X018150Y000630D02*
X017150Y000630D01*
X016150Y000630D02*
X015150Y000630D01*
X014150Y000630D02*
X009650Y000630D01*
X009650Y003130D01*
X027150Y003130D01*
X027150Y004130D01*
X027150Y005130D01*
X028150Y005130D01*
X027150Y005130D02*
X026150Y005130D01*
X025150Y005130D02*
X024150Y005130D01*
X023150Y005130D02*
X022150Y005130D01*
X021150Y005130D02*
X020150Y005130D01*
X019150Y005130D02*
X018150Y005130D01*
X017150Y005130D02*
X016150Y005130D01*
X009650Y004130D02*
X009650Y003130D01*
X005863Y003618D02*
X005863Y004618D01*
X000863Y004618D01*
X000863Y003618D01*
X003863Y003618D01*
X003863Y024618D01*
X000863Y024618D01*
X000863Y019618D01*
X005863Y019618D01*
X005863Y024618D01*
X004863Y024618D01*
X004863Y003618D01*
X005863Y003618D01*
X005863Y004618D02*
X005863Y005618D01*
X000863Y005618D01*
X000863Y004618D01*
X000863Y005618D02*
X000863Y006618D01*
X005863Y006618D01*
X005863Y007618D01*
X000863Y007618D01*
X000863Y006618D01*
X000863Y007618D02*
X000863Y008618D01*
X005863Y008618D01*
X005863Y009618D01*
X000863Y009618D01*
X000863Y008618D01*
X000863Y009618D02*
X000863Y010618D01*
X005863Y010618D01*
X005863Y011618D01*
X000863Y011618D01*
X000863Y010618D01*
X000863Y011618D02*
X000863Y012618D01*
X005863Y012618D01*
X005863Y013618D01*
X000863Y013618D01*
X000863Y012618D01*
X000863Y013618D02*
X000863Y014618D01*
X005863Y014618D01*
X005863Y015618D01*
X000863Y015618D01*
X000863Y014618D01*
X000863Y015618D02*
X000863Y016618D01*
X005863Y016618D01*
X005863Y017618D01*
X000863Y017618D01*
X000863Y016618D01*
X000863Y017618D02*
X000863Y018618D01*
X005863Y018618D01*
X005863Y019618D01*
X005863Y018618D02*
X005863Y017618D01*
X005863Y016618D02*
X005863Y015618D01*
X005863Y014618D02*
X005863Y013618D01*
X005863Y012618D02*
X005863Y011618D01*
X005863Y010618D02*
X005863Y009618D01*
X005863Y008618D02*
X005863Y007618D01*
X005863Y006618D02*
X005863Y005618D01*
X004863Y003618D02*
X003863Y003618D01*
X000863Y018618D02*
X000863Y019618D01*
X003863Y024618D02*
X004863Y024618D01*
X033204Y024710D02*
X033204Y025270D01*
X033624Y025270D01*
X033764Y025130D01*
X033764Y024710D01*
D12*
X036410Y037180D02*
X036412Y037243D01*
X036418Y037305D01*
X036428Y037367D01*
X036442Y037429D01*
X036459Y037489D01*
X036481Y037548D01*
X036506Y037605D01*
X036535Y037661D01*
X036567Y037715D01*
X036603Y037767D01*
X036642Y037816D01*
X036684Y037863D01*
X036728Y037907D01*
X036776Y037948D01*
X036826Y037986D01*
X036878Y038021D01*
X036932Y038053D01*
X036989Y038081D01*
X037047Y038105D01*
X037106Y038125D01*
X037167Y038142D01*
X037228Y038155D01*
X037290Y038164D01*
X037353Y038169D01*
X037416Y038170D01*
X037478Y038167D01*
X037541Y038160D01*
X037603Y038149D01*
X037664Y038134D01*
X037724Y038116D01*
X037782Y038093D01*
X037840Y038067D01*
X037895Y038037D01*
X037948Y038004D01*
X038000Y037968D01*
X038048Y037928D01*
X038094Y037886D01*
X038138Y037840D01*
X038178Y037792D01*
X038215Y037741D01*
X038249Y037689D01*
X038280Y037634D01*
X038307Y037577D01*
X038330Y037519D01*
X038350Y037459D01*
X038366Y037398D01*
X038378Y037336D01*
X038386Y037274D01*
X038390Y037211D01*
X038390Y037149D01*
X038386Y037086D01*
X038378Y037024D01*
X038366Y036962D01*
X038350Y036901D01*
X038330Y036841D01*
X038307Y036783D01*
X038280Y036726D01*
X038249Y036671D01*
X038215Y036619D01*
X038178Y036568D01*
X038138Y036520D01*
X038094Y036474D01*
X038048Y036432D01*
X038000Y036392D01*
X037948Y036356D01*
X037895Y036323D01*
X037840Y036293D01*
X037782Y036267D01*
X037724Y036244D01*
X037664Y036226D01*
X037603Y036211D01*
X037541Y036200D01*
X037478Y036193D01*
X037416Y036190D01*
X037353Y036191D01*
X037290Y036196D01*
X037228Y036205D01*
X037167Y036218D01*
X037106Y036235D01*
X037047Y036255D01*
X036989Y036279D01*
X036932Y036307D01*
X036878Y036339D01*
X036826Y036374D01*
X036776Y036412D01*
X036728Y036453D01*
X036684Y036497D01*
X036642Y036544D01*
X036603Y036593D01*
X036567Y036645D01*
X036535Y036699D01*
X036506Y036755D01*
X036481Y036812D01*
X036459Y036871D01*
X036442Y036931D01*
X036428Y036993D01*
X036418Y037055D01*
X036412Y037117D01*
X036410Y037180D01*
X009583Y011738D02*
X009562Y011736D01*
X009542Y011731D01*
X009523Y011722D01*
X009506Y011710D01*
X009491Y011695D01*
X009479Y011678D01*
X009470Y011659D01*
X009465Y011639D01*
X009463Y011618D01*
X009465Y011597D01*
X009470Y011577D01*
X009479Y011558D01*
X009491Y011541D01*
X009506Y011526D01*
X009523Y011514D01*
X009542Y011505D01*
X009562Y011500D01*
X009583Y011498D01*
X001410Y002180D02*
X001412Y002243D01*
X001418Y002305D01*
X001428Y002367D01*
X001442Y002429D01*
X001459Y002489D01*
X001481Y002548D01*
X001506Y002605D01*
X001535Y002661D01*
X001567Y002715D01*
X001603Y002767D01*
X001642Y002816D01*
X001684Y002863D01*
X001728Y002907D01*
X001776Y002948D01*
X001826Y002986D01*
X001878Y003021D01*
X001932Y003053D01*
X001989Y003081D01*
X002047Y003105D01*
X002106Y003125D01*
X002167Y003142D01*
X002228Y003155D01*
X002290Y003164D01*
X002353Y003169D01*
X002416Y003170D01*
X002478Y003167D01*
X002541Y003160D01*
X002603Y003149D01*
X002664Y003134D01*
X002724Y003116D01*
X002782Y003093D01*
X002840Y003067D01*
X002895Y003037D01*
X002948Y003004D01*
X003000Y002968D01*
X003048Y002928D01*
X003094Y002886D01*
X003138Y002840D01*
X003178Y002792D01*
X003215Y002741D01*
X003249Y002689D01*
X003280Y002634D01*
X003307Y002577D01*
X003330Y002519D01*
X003350Y002459D01*
X003366Y002398D01*
X003378Y002336D01*
X003386Y002274D01*
X003390Y002211D01*
X003390Y002149D01*
X003386Y002086D01*
X003378Y002024D01*
X003366Y001962D01*
X003350Y001901D01*
X003330Y001841D01*
X003307Y001783D01*
X003280Y001726D01*
X003249Y001671D01*
X003215Y001619D01*
X003178Y001568D01*
X003138Y001520D01*
X003094Y001474D01*
X003048Y001432D01*
X003000Y001392D01*
X002948Y001356D01*
X002895Y001323D01*
X002840Y001293D01*
X002782Y001267D01*
X002724Y001244D01*
X002664Y001226D01*
X002603Y001211D01*
X002541Y001200D01*
X002478Y001193D01*
X002416Y001190D01*
X002353Y001191D01*
X002290Y001196D01*
X002228Y001205D01*
X002167Y001218D01*
X002106Y001235D01*
X002047Y001255D01*
X001989Y001279D01*
X001932Y001307D01*
X001878Y001339D01*
X001826Y001374D01*
X001776Y001412D01*
X001728Y001453D01*
X001684Y001497D01*
X001642Y001544D01*
X001603Y001593D01*
X001567Y001645D01*
X001535Y001699D01*
X001506Y001755D01*
X001481Y001812D01*
X001459Y001871D01*
X001442Y001931D01*
X001428Y001993D01*
X001418Y002055D01*
X001412Y002117D01*
X001410Y002180D01*
X001410Y037180D02*
X001412Y037243D01*
X001418Y037305D01*
X001428Y037367D01*
X001442Y037429D01*
X001459Y037489D01*
X001481Y037548D01*
X001506Y037605D01*
X001535Y037661D01*
X001567Y037715D01*
X001603Y037767D01*
X001642Y037816D01*
X001684Y037863D01*
X001728Y037907D01*
X001776Y037948D01*
X001826Y037986D01*
X001878Y038021D01*
X001932Y038053D01*
X001989Y038081D01*
X002047Y038105D01*
X002106Y038125D01*
X002167Y038142D01*
X002228Y038155D01*
X002290Y038164D01*
X002353Y038169D01*
X002416Y038170D01*
X002478Y038167D01*
X002541Y038160D01*
X002603Y038149D01*
X002664Y038134D01*
X002724Y038116D01*
X002782Y038093D01*
X002840Y038067D01*
X002895Y038037D01*
X002948Y038004D01*
X003000Y037968D01*
X003048Y037928D01*
X003094Y037886D01*
X003138Y037840D01*
X003178Y037792D01*
X003215Y037741D01*
X003249Y037689D01*
X003280Y037634D01*
X003307Y037577D01*
X003330Y037519D01*
X003350Y037459D01*
X003366Y037398D01*
X003378Y037336D01*
X003386Y037274D01*
X003390Y037211D01*
X003390Y037149D01*
X003386Y037086D01*
X003378Y037024D01*
X003366Y036962D01*
X003350Y036901D01*
X003330Y036841D01*
X003307Y036783D01*
X003280Y036726D01*
X003249Y036671D01*
X003215Y036619D01*
X003178Y036568D01*
X003138Y036520D01*
X003094Y036474D01*
X003048Y036432D01*
X003000Y036392D01*
X002948Y036356D01*
X002895Y036323D01*
X002840Y036293D01*
X002782Y036267D01*
X002724Y036244D01*
X002664Y036226D01*
X002603Y036211D01*
X002541Y036200D01*
X002478Y036193D01*
X002416Y036190D01*
X002353Y036191D01*
X002290Y036196D01*
X002228Y036205D01*
X002167Y036218D01*
X002106Y036235D01*
X002047Y036255D01*
X001989Y036279D01*
X001932Y036307D01*
X001878Y036339D01*
X001826Y036374D01*
X001776Y036412D01*
X001728Y036453D01*
X001684Y036497D01*
X001642Y036544D01*
X001603Y036593D01*
X001567Y036645D01*
X001535Y036699D01*
X001506Y036755D01*
X001481Y036812D01*
X001459Y036871D01*
X001442Y036931D01*
X001428Y036993D01*
X001418Y037055D01*
X001412Y037117D01*
X001410Y037180D01*
X036410Y002180D02*
X036412Y002243D01*
X036418Y002305D01*
X036428Y002367D01*
X036442Y002429D01*
X036459Y002489D01*
X036481Y002548D01*
X036506Y002605D01*
X036535Y002661D01*
X036567Y002715D01*
X036603Y002767D01*
X036642Y002816D01*
X036684Y002863D01*
X036728Y002907D01*
X036776Y002948D01*
X036826Y002986D01*
X036878Y003021D01*
X036932Y003053D01*
X036989Y003081D01*
X037047Y003105D01*
X037106Y003125D01*
X037167Y003142D01*
X037228Y003155D01*
X037290Y003164D01*
X037353Y003169D01*
X037416Y003170D01*
X037478Y003167D01*
X037541Y003160D01*
X037603Y003149D01*
X037664Y003134D01*
X037724Y003116D01*
X037782Y003093D01*
X037840Y003067D01*
X037895Y003037D01*
X037948Y003004D01*
X038000Y002968D01*
X038048Y002928D01*
X038094Y002886D01*
X038138Y002840D01*
X038178Y002792D01*
X038215Y002741D01*
X038249Y002689D01*
X038280Y002634D01*
X038307Y002577D01*
X038330Y002519D01*
X038350Y002459D01*
X038366Y002398D01*
X038378Y002336D01*
X038386Y002274D01*
X038390Y002211D01*
X038390Y002149D01*
X038386Y002086D01*
X038378Y002024D01*
X038366Y001962D01*
X038350Y001901D01*
X038330Y001841D01*
X038307Y001783D01*
X038280Y001726D01*
X038249Y001671D01*
X038215Y001619D01*
X038178Y001568D01*
X038138Y001520D01*
X038094Y001474D01*
X038048Y001432D01*
X038000Y001392D01*
X037948Y001356D01*
X037895Y001323D01*
X037840Y001293D01*
X037782Y001267D01*
X037724Y001244D01*
X037664Y001226D01*
X037603Y001211D01*
X037541Y001200D01*
X037478Y001193D01*
X037416Y001190D01*
X037353Y001191D01*
X037290Y001196D01*
X037228Y001205D01*
X037167Y001218D01*
X037106Y001235D01*
X037047Y001255D01*
X036989Y001279D01*
X036932Y001307D01*
X036878Y001339D01*
X036826Y001374D01*
X036776Y001412D01*
X036728Y001453D01*
X036684Y001497D01*
X036642Y001544D01*
X036603Y001593D01*
X036567Y001645D01*
X036535Y001699D01*
X036506Y001755D01*
X036481Y001812D01*
X036459Y001871D01*
X036442Y001931D01*
X036428Y001993D01*
X036418Y002055D01*
X036412Y002117D01*
X036410Y002180D01*
D13*
X019456Y009023D02*
X019357Y008924D01*
X014043Y008924D01*
X013944Y009023D01*
X013944Y014337D01*
X014043Y014436D01*
X019161Y014436D01*
X019456Y014141D01*
X019456Y009023D01*
X018964Y014042D02*
X018966Y014061D01*
X018971Y014080D01*
X018981Y014096D01*
X018993Y014111D01*
X019008Y014123D01*
X019024Y014133D01*
X019043Y014138D01*
X019062Y014140D01*
X019081Y014138D01*
X019100Y014133D01*
X019116Y014123D01*
X019131Y014111D01*
X019143Y014096D01*
X019153Y014080D01*
X019158Y014061D01*
X019160Y014042D01*
X019158Y014023D01*
X019153Y014004D01*
X019143Y013988D01*
X019131Y013973D01*
X019116Y013961D01*
X019100Y013951D01*
X019081Y013946D01*
X019062Y013944D01*
X019043Y013946D01*
X019024Y013951D01*
X019008Y013961D01*
X018993Y013973D01*
X018981Y013988D01*
X018971Y014004D01*
X018966Y014023D01*
X018964Y014042D01*
X011460Y035300D02*
X011280Y035300D01*
X010640Y035300D02*
X010440Y035300D01*
X009210Y035300D02*
X009030Y035300D01*
X008390Y035300D02*
X008190Y035300D01*
X006960Y035300D02*
X006780Y035300D01*
X006140Y035300D02*
X005940Y035300D01*
X004710Y035300D02*
X004530Y035300D01*
X003890Y035300D02*
X003690Y035300D01*
D14*
X003356Y034675D02*
X003446Y034675D01*
X003445Y034675D02*
X003447Y034621D01*
X003453Y034568D01*
X003463Y034515D01*
X003477Y034463D01*
X003494Y034412D01*
X003515Y034363D01*
X003539Y034315D01*
X003567Y034269D01*
X003598Y034225D01*
X003632Y034183D01*
X003668Y034144D01*
X003708Y034107D01*
X003750Y034074D01*
X003794Y034043D01*
X003840Y034016D01*
X003798Y033937D01*
X003749Y033965D01*
X003703Y033997D01*
X003658Y034032D01*
X003616Y034069D01*
X003576Y034110D01*
X003540Y034153D01*
X003506Y034198D01*
X003475Y034245D01*
X003448Y034295D01*
X003424Y034346D01*
X003403Y034398D01*
X003386Y034452D01*
X003373Y034507D01*
X003363Y034562D01*
X003357Y034619D01*
X003355Y034675D01*
X003364Y034675D01*
X003366Y034619D01*
X003372Y034564D01*
X003382Y034509D01*
X003395Y034454D01*
X003412Y034401D01*
X003432Y034349D01*
X003456Y034299D01*
X003483Y034250D01*
X003513Y034203D01*
X003547Y034158D01*
X003583Y034116D01*
X003622Y034076D01*
X003664Y034039D01*
X003708Y034004D01*
X003754Y033973D01*
X003802Y033945D01*
X003806Y033953D01*
X003759Y033981D01*
X003713Y034012D01*
X003670Y034046D01*
X003628Y034082D01*
X003590Y034122D01*
X003554Y034164D01*
X003521Y034208D01*
X003491Y034254D01*
X003464Y034303D01*
X003441Y034353D01*
X003420Y034404D01*
X003404Y034457D01*
X003391Y034510D01*
X003381Y034565D01*
X003375Y034620D01*
X003373Y034675D01*
X003382Y034675D01*
X003384Y034620D01*
X003390Y034566D01*
X003399Y034512D01*
X003412Y034459D01*
X003429Y034407D01*
X003449Y034356D01*
X003472Y034307D01*
X003499Y034259D01*
X003528Y034213D01*
X003561Y034169D01*
X003596Y034128D01*
X003635Y034089D01*
X003675Y034052D01*
X003718Y034019D01*
X003764Y033988D01*
X003811Y033961D01*
X003815Y033969D01*
X003768Y033996D01*
X003724Y034026D01*
X003681Y034059D01*
X003641Y034095D01*
X003603Y034134D01*
X003568Y034175D01*
X003536Y034218D01*
X003506Y034264D01*
X003480Y034311D01*
X003457Y034360D01*
X003437Y034410D01*
X003421Y034462D01*
X003408Y034514D01*
X003399Y034567D01*
X003393Y034621D01*
X003391Y034675D01*
X003400Y034675D01*
X003402Y034622D01*
X003408Y034569D01*
X003417Y034516D01*
X003430Y034464D01*
X003446Y034413D01*
X003465Y034363D01*
X003488Y034315D01*
X003514Y034268D01*
X003543Y034224D01*
X003575Y034181D01*
X003610Y034140D01*
X003647Y034102D01*
X003687Y034066D01*
X003729Y034033D01*
X003773Y034003D01*
X003819Y033976D01*
X003823Y033984D01*
X003778Y034011D01*
X003734Y034041D01*
X003693Y034073D01*
X003653Y034108D01*
X003616Y034146D01*
X003582Y034186D01*
X003550Y034229D01*
X003522Y034273D01*
X003496Y034319D01*
X003474Y034367D01*
X003454Y034416D01*
X003438Y034466D01*
X003426Y034518D01*
X003417Y034570D01*
X003411Y034622D01*
X003409Y034675D01*
X003418Y034675D01*
X003420Y034619D01*
X003427Y034564D01*
X003437Y034509D01*
X003451Y034455D01*
X003469Y034403D01*
X003490Y034351D01*
X003516Y034302D01*
X003544Y034254D01*
X003576Y034208D01*
X003611Y034165D01*
X003649Y034125D01*
X003690Y034087D01*
X003734Y034052D01*
X003780Y034021D01*
X003828Y033992D01*
X003832Y034000D01*
X003784Y034028D01*
X003739Y034059D01*
X003696Y034094D01*
X003656Y034131D01*
X003618Y034171D01*
X003583Y034214D01*
X003552Y034259D01*
X003523Y034306D01*
X003499Y034355D01*
X003477Y034406D01*
X003460Y034458D01*
X003446Y034511D01*
X003436Y034565D01*
X003429Y034620D01*
X003427Y034675D01*
X003436Y034675D01*
X003438Y034621D01*
X003444Y034567D01*
X003454Y034513D01*
X003468Y034461D01*
X003486Y034409D01*
X003507Y034359D01*
X003531Y034310D01*
X003559Y034264D01*
X003591Y034219D01*
X003625Y034177D01*
X003662Y034138D01*
X003702Y034101D01*
X003744Y034067D01*
X003789Y034036D01*
X003836Y034008D01*
X004623Y033949D02*
X004578Y034027D01*
X004579Y034027D02*
X004623Y034055D01*
X004665Y034086D01*
X004705Y034119D01*
X004743Y034155D01*
X004778Y034194D01*
X004810Y034235D01*
X004840Y034279D01*
X004866Y034324D01*
X004889Y034371D01*
X004909Y034419D01*
X004925Y034469D01*
X004938Y034519D01*
X004947Y034571D01*
X004953Y034623D01*
X004955Y034675D01*
X005044Y034676D01*
X005045Y034675D01*
X005043Y034620D01*
X005037Y034566D01*
X005028Y034511D01*
X005015Y034458D01*
X004999Y034406D01*
X004980Y034354D01*
X004957Y034304D01*
X004931Y034256D01*
X004902Y034209D01*
X004870Y034165D01*
X004835Y034122D01*
X004797Y034082D01*
X004757Y034045D01*
X004715Y034010D01*
X004670Y033978D01*
X004624Y033949D01*
X004619Y033957D01*
X004665Y033985D01*
X004709Y034017D01*
X004751Y034052D01*
X004791Y034089D01*
X004828Y034128D01*
X004863Y034170D01*
X004894Y034214D01*
X004923Y034260D01*
X004949Y034308D01*
X004971Y034358D01*
X004991Y034408D01*
X005007Y034460D01*
X005019Y034513D01*
X005028Y034567D01*
X005034Y034621D01*
X005036Y034675D01*
X005027Y034675D01*
X005025Y034621D01*
X005019Y034568D01*
X005010Y034515D01*
X004998Y034463D01*
X004982Y034411D01*
X004963Y034361D01*
X004941Y034312D01*
X004915Y034265D01*
X004887Y034219D01*
X004855Y034176D01*
X004821Y034134D01*
X004785Y034095D01*
X004745Y034058D01*
X004704Y034024D01*
X004660Y033993D01*
X004615Y033964D01*
X004610Y033972D01*
X004658Y034002D01*
X004704Y034036D01*
X004747Y034072D01*
X004788Y034112D01*
X004826Y034154D01*
X004861Y034198D01*
X004893Y034245D01*
X004921Y034294D01*
X004946Y034345D01*
X004968Y034398D01*
X004985Y034451D01*
X004999Y034506D01*
X005009Y034562D01*
X005016Y034618D01*
X005018Y034675D01*
X005009Y034675D01*
X005007Y034619D01*
X005001Y034563D01*
X004991Y034508D01*
X004977Y034454D01*
X004959Y034401D01*
X004938Y034349D01*
X004913Y034298D01*
X004885Y034250D01*
X004854Y034204D01*
X004819Y034159D01*
X004782Y034118D01*
X004741Y034079D01*
X004699Y034043D01*
X004653Y034010D01*
X004606Y033980D01*
X004601Y033988D01*
X004648Y034017D01*
X004693Y034050D01*
X004735Y034086D01*
X004775Y034124D01*
X004812Y034165D01*
X004847Y034209D01*
X004878Y034255D01*
X004905Y034303D01*
X004930Y034352D01*
X004951Y034404D01*
X004968Y034456D01*
X004982Y034510D01*
X004992Y034565D01*
X004998Y034620D01*
X005000Y034675D01*
X004991Y034675D01*
X004989Y034620D01*
X004983Y034566D01*
X004973Y034512D01*
X004959Y034459D01*
X004942Y034407D01*
X004922Y034356D01*
X004897Y034307D01*
X004870Y034260D01*
X004839Y034214D01*
X004806Y034171D01*
X004769Y034130D01*
X004729Y034092D01*
X004687Y034057D01*
X004643Y034025D01*
X004597Y033996D01*
X004592Y034004D01*
X004638Y034032D01*
X004682Y034064D01*
X004723Y034099D01*
X004762Y034137D01*
X004799Y034177D01*
X004832Y034219D01*
X004862Y034264D01*
X004890Y034311D01*
X004913Y034360D01*
X004934Y034410D01*
X004951Y034461D01*
X004964Y034514D01*
X004974Y034567D01*
X004980Y034621D01*
X004982Y034675D01*
X004973Y034675D01*
X004971Y034622D01*
X004965Y034568D01*
X004955Y034516D01*
X004942Y034464D01*
X004925Y034413D01*
X004905Y034363D01*
X004882Y034315D01*
X004855Y034269D01*
X004825Y034225D01*
X004792Y034183D01*
X004756Y034143D01*
X004717Y034106D01*
X004676Y034071D01*
X004633Y034040D01*
X004588Y034011D01*
X004583Y034019D01*
X004628Y034047D01*
X004671Y034078D01*
X004711Y034112D01*
X004749Y034149D01*
X004785Y034188D01*
X004817Y034230D01*
X004847Y034274D01*
X004874Y034320D01*
X004897Y034367D01*
X004917Y034416D01*
X004934Y034466D01*
X004947Y034518D01*
X004956Y034570D01*
X004962Y034622D01*
X004964Y034675D01*
X005044Y034684D02*
X004954Y034684D01*
X004955Y034685D02*
X004953Y034739D01*
X004947Y034792D01*
X004937Y034845D01*
X004923Y034897D01*
X004906Y034948D01*
X004885Y034998D01*
X004861Y035046D01*
X004833Y035092D01*
X004802Y035136D01*
X004768Y035177D01*
X004731Y035217D01*
X004692Y035253D01*
X004749Y035321D01*
X004750Y035322D01*
X004791Y035284D01*
X004829Y035244D01*
X004865Y035201D01*
X004898Y035156D01*
X004928Y035109D01*
X004954Y035061D01*
X004978Y035010D01*
X004998Y034958D01*
X005014Y034905D01*
X005028Y034851D01*
X005037Y034796D01*
X005043Y034741D01*
X005045Y034685D01*
X005036Y034685D01*
X005034Y034740D01*
X005028Y034795D01*
X005019Y034849D01*
X005006Y034903D01*
X004989Y034955D01*
X004970Y035007D01*
X004946Y035057D01*
X004920Y035105D01*
X004890Y035151D01*
X004858Y035196D01*
X004823Y035238D01*
X004784Y035278D01*
X004744Y035315D01*
X004738Y035308D01*
X004778Y035271D01*
X004816Y035232D01*
X004851Y035190D01*
X004883Y035146D01*
X004912Y035100D01*
X004938Y035052D01*
X004961Y035003D01*
X004981Y034952D01*
X004997Y034900D01*
X005010Y034847D01*
X005019Y034794D01*
X005025Y034739D01*
X005027Y034685D01*
X005018Y034685D01*
X005016Y034739D01*
X005010Y034792D01*
X005001Y034845D01*
X004988Y034898D01*
X004972Y034949D01*
X004953Y035000D01*
X004930Y035048D01*
X004905Y035096D01*
X004876Y035141D01*
X004844Y035185D01*
X004809Y035226D01*
X004772Y035265D01*
X004732Y035301D01*
X004726Y035294D01*
X004766Y035258D01*
X004803Y035220D01*
X004837Y035179D01*
X004868Y035136D01*
X004897Y035091D01*
X004922Y035044D01*
X004945Y034996D01*
X004964Y034946D01*
X004980Y034895D01*
X004992Y034844D01*
X005001Y034791D01*
X005007Y034738D01*
X005009Y034685D01*
X005000Y034685D01*
X004998Y034738D01*
X004992Y034790D01*
X004983Y034842D01*
X004971Y034893D01*
X004955Y034943D01*
X004936Y034993D01*
X004914Y035040D01*
X004889Y035087D01*
X004861Y035131D01*
X004830Y035173D01*
X004796Y035214D01*
X004759Y035252D01*
X004721Y035287D01*
X004715Y035281D01*
X004753Y035245D01*
X004789Y035208D01*
X004823Y035168D01*
X004853Y035126D01*
X004881Y035082D01*
X004906Y035036D01*
X004928Y034989D01*
X004947Y034940D01*
X004962Y034891D01*
X004975Y034840D01*
X004983Y034789D01*
X004989Y034737D01*
X004991Y034685D01*
X004982Y034685D01*
X004980Y034741D01*
X004973Y034796D01*
X004963Y034851D01*
X004949Y034905D01*
X004931Y034958D01*
X004909Y035009D01*
X004884Y035059D01*
X004855Y035107D01*
X004823Y035152D01*
X004788Y035195D01*
X004750Y035236D01*
X004709Y035274D01*
X004703Y035267D01*
X004744Y035230D01*
X004781Y035189D01*
X004816Y035147D01*
X004848Y035102D01*
X004876Y035054D01*
X004901Y035005D01*
X004923Y034954D01*
X004940Y034902D01*
X004954Y034849D01*
X004964Y034795D01*
X004971Y034740D01*
X004973Y034685D01*
X004964Y034685D01*
X004962Y034739D01*
X004956Y034793D01*
X004946Y034847D01*
X004932Y034900D01*
X004914Y034951D01*
X004893Y035001D01*
X004868Y035050D01*
X004840Y035097D01*
X004809Y035141D01*
X004775Y035183D01*
X004737Y035223D01*
X004697Y035260D01*
X003656Y035325D02*
X003713Y035256D01*
X003713Y035257D02*
X003673Y035220D01*
X003635Y035181D01*
X003601Y035139D01*
X003569Y035095D01*
X003541Y035049D01*
X003516Y035000D01*
X003495Y034950D01*
X003477Y034899D01*
X003464Y034846D01*
X003454Y034793D01*
X003447Y034739D01*
X003445Y034685D01*
X003356Y034684D01*
X003355Y034685D01*
X003357Y034741D01*
X003363Y034797D01*
X003373Y034852D01*
X003386Y034907D01*
X003403Y034960D01*
X003423Y035013D01*
X003447Y035064D01*
X003474Y035113D01*
X003505Y035160D01*
X003538Y035205D01*
X003574Y035248D01*
X003613Y035288D01*
X003655Y035326D01*
X003661Y035319D01*
X003620Y035282D01*
X003581Y035242D01*
X003545Y035200D01*
X003512Y035155D01*
X003482Y035108D01*
X003455Y035060D01*
X003432Y035009D01*
X003411Y034957D01*
X003395Y034904D01*
X003382Y034850D01*
X003372Y034796D01*
X003366Y034741D01*
X003364Y034685D01*
X003373Y034685D01*
X003375Y034740D01*
X003381Y034795D01*
X003390Y034849D01*
X003403Y034902D01*
X003420Y034954D01*
X003440Y035006D01*
X003463Y035055D01*
X003490Y035104D01*
X003519Y035150D01*
X003552Y035194D01*
X003588Y035236D01*
X003626Y035275D01*
X003667Y035312D01*
X003672Y035305D01*
X003632Y035269D01*
X003594Y035230D01*
X003559Y035188D01*
X003527Y035145D01*
X003497Y035099D01*
X003471Y035051D01*
X003448Y035002D01*
X003428Y034952D01*
X003412Y034900D01*
X003399Y034847D01*
X003390Y034793D01*
X003384Y034739D01*
X003382Y034685D01*
X003391Y034685D01*
X003393Y034739D01*
X003399Y034792D01*
X003408Y034845D01*
X003421Y034897D01*
X003437Y034949D01*
X003456Y034999D01*
X003479Y035047D01*
X003505Y035094D01*
X003534Y035140D01*
X003566Y035183D01*
X003601Y035224D01*
X003638Y035262D01*
X003678Y035298D01*
X003684Y035291D01*
X003645Y035256D01*
X003608Y035218D01*
X003573Y035177D01*
X003542Y035134D01*
X003513Y035090D01*
X003487Y035043D01*
X003465Y034995D01*
X003445Y034946D01*
X003429Y034895D01*
X003417Y034843D01*
X003408Y034791D01*
X003402Y034738D01*
X003400Y034685D01*
X003409Y034685D01*
X003411Y034737D01*
X003417Y034790D01*
X003426Y034841D01*
X003438Y034892D01*
X003454Y034943D01*
X003473Y034992D01*
X003495Y035039D01*
X003521Y035085D01*
X003549Y035129D01*
X003580Y035171D01*
X003614Y035212D01*
X003651Y035249D01*
X003690Y035284D01*
X003696Y035278D01*
X003657Y035243D01*
X003621Y035205D01*
X003587Y035166D01*
X003556Y035124D01*
X003528Y035080D01*
X003503Y035035D01*
X003481Y034988D01*
X003462Y034940D01*
X003447Y034890D01*
X003434Y034840D01*
X003426Y034788D01*
X003420Y034737D01*
X003418Y034685D01*
X003427Y034685D01*
X003429Y034736D01*
X003434Y034787D01*
X003443Y034838D01*
X003455Y034888D01*
X003471Y034937D01*
X003489Y034984D01*
X003511Y035031D01*
X003536Y035076D01*
X003564Y035119D01*
X003594Y035160D01*
X003627Y035199D01*
X003663Y035236D01*
X003701Y035271D01*
X003707Y035264D01*
X003666Y035227D01*
X003628Y035187D01*
X003594Y035145D01*
X003562Y035100D01*
X003533Y035053D01*
X003508Y035004D01*
X003487Y034953D01*
X003469Y034902D01*
X003455Y034848D01*
X003445Y034794D01*
X003438Y034740D01*
X003436Y034685D01*
X006873Y033949D02*
X006828Y034027D01*
X006829Y034027D02*
X006873Y034055D01*
X006915Y034086D01*
X006955Y034119D01*
X006993Y034155D01*
X007028Y034194D01*
X007060Y034235D01*
X007090Y034279D01*
X007116Y034324D01*
X007139Y034371D01*
X007159Y034419D01*
X007175Y034469D01*
X007188Y034519D01*
X007197Y034571D01*
X007203Y034623D01*
X007205Y034675D01*
X007294Y034676D01*
X007295Y034675D01*
X007293Y034620D01*
X007287Y034566D01*
X007278Y034511D01*
X007265Y034458D01*
X007249Y034406D01*
X007230Y034354D01*
X007207Y034304D01*
X007181Y034256D01*
X007152Y034209D01*
X007120Y034165D01*
X007085Y034122D01*
X007047Y034082D01*
X007007Y034045D01*
X006965Y034010D01*
X006920Y033978D01*
X006874Y033949D01*
X006869Y033957D01*
X006915Y033985D01*
X006959Y034017D01*
X007001Y034052D01*
X007041Y034089D01*
X007078Y034128D01*
X007113Y034170D01*
X007144Y034214D01*
X007173Y034260D01*
X007199Y034308D01*
X007221Y034358D01*
X007241Y034408D01*
X007257Y034460D01*
X007269Y034513D01*
X007278Y034567D01*
X007284Y034621D01*
X007286Y034675D01*
X007277Y034675D01*
X007275Y034621D01*
X007269Y034568D01*
X007260Y034515D01*
X007248Y034463D01*
X007232Y034411D01*
X007213Y034361D01*
X007191Y034312D01*
X007165Y034265D01*
X007137Y034219D01*
X007105Y034176D01*
X007071Y034134D01*
X007035Y034095D01*
X006995Y034058D01*
X006954Y034024D01*
X006910Y033993D01*
X006865Y033964D01*
X006860Y033972D01*
X006908Y034002D01*
X006954Y034036D01*
X006997Y034072D01*
X007038Y034112D01*
X007076Y034154D01*
X007111Y034198D01*
X007143Y034245D01*
X007171Y034294D01*
X007196Y034345D01*
X007218Y034398D01*
X007235Y034451D01*
X007249Y034506D01*
X007259Y034562D01*
X007266Y034618D01*
X007268Y034675D01*
X007259Y034675D01*
X007257Y034619D01*
X007251Y034563D01*
X007241Y034508D01*
X007227Y034454D01*
X007209Y034401D01*
X007188Y034349D01*
X007163Y034298D01*
X007135Y034250D01*
X007104Y034204D01*
X007069Y034159D01*
X007032Y034118D01*
X006991Y034079D01*
X006949Y034043D01*
X006903Y034010D01*
X006856Y033980D01*
X006851Y033988D01*
X006898Y034017D01*
X006943Y034050D01*
X006985Y034086D01*
X007025Y034124D01*
X007062Y034165D01*
X007097Y034209D01*
X007128Y034255D01*
X007155Y034303D01*
X007180Y034352D01*
X007201Y034404D01*
X007218Y034456D01*
X007232Y034510D01*
X007242Y034565D01*
X007248Y034620D01*
X007250Y034675D01*
X007241Y034675D01*
X007239Y034620D01*
X007233Y034566D01*
X007223Y034512D01*
X007209Y034459D01*
X007192Y034407D01*
X007172Y034356D01*
X007147Y034307D01*
X007120Y034260D01*
X007089Y034214D01*
X007056Y034171D01*
X007019Y034130D01*
X006979Y034092D01*
X006937Y034057D01*
X006893Y034025D01*
X006847Y033996D01*
X006842Y034004D01*
X006888Y034032D01*
X006932Y034064D01*
X006973Y034099D01*
X007012Y034137D01*
X007049Y034177D01*
X007082Y034219D01*
X007112Y034264D01*
X007140Y034311D01*
X007163Y034360D01*
X007184Y034410D01*
X007201Y034461D01*
X007214Y034514D01*
X007224Y034567D01*
X007230Y034621D01*
X007232Y034675D01*
X007223Y034675D01*
X007221Y034622D01*
X007215Y034568D01*
X007205Y034516D01*
X007192Y034464D01*
X007175Y034413D01*
X007155Y034363D01*
X007132Y034315D01*
X007105Y034269D01*
X007075Y034225D01*
X007042Y034183D01*
X007006Y034143D01*
X006967Y034106D01*
X006926Y034071D01*
X006883Y034040D01*
X006838Y034011D01*
X006833Y034019D01*
X006878Y034047D01*
X006921Y034078D01*
X006961Y034112D01*
X006999Y034149D01*
X007035Y034188D01*
X007067Y034230D01*
X007097Y034274D01*
X007124Y034320D01*
X007147Y034367D01*
X007167Y034416D01*
X007184Y034466D01*
X007197Y034518D01*
X007206Y034570D01*
X007212Y034622D01*
X007214Y034675D01*
X005606Y034675D02*
X005696Y034675D01*
X005695Y034675D02*
X005697Y034621D01*
X005703Y034568D01*
X005713Y034515D01*
X005727Y034463D01*
X005744Y034412D01*
X005765Y034363D01*
X005789Y034315D01*
X005817Y034269D01*
X005848Y034225D01*
X005882Y034183D01*
X005918Y034144D01*
X005958Y034107D01*
X006000Y034074D01*
X006044Y034043D01*
X006090Y034016D01*
X006048Y033937D01*
X005999Y033965D01*
X005953Y033997D01*
X005908Y034032D01*
X005866Y034069D01*
X005826Y034110D01*
X005790Y034153D01*
X005756Y034198D01*
X005725Y034245D01*
X005698Y034295D01*
X005674Y034346D01*
X005653Y034398D01*
X005636Y034452D01*
X005623Y034507D01*
X005613Y034562D01*
X005607Y034619D01*
X005605Y034675D01*
X005614Y034675D01*
X005616Y034619D01*
X005622Y034564D01*
X005632Y034509D01*
X005645Y034454D01*
X005662Y034401D01*
X005682Y034349D01*
X005706Y034299D01*
X005733Y034250D01*
X005763Y034203D01*
X005797Y034158D01*
X005833Y034116D01*
X005872Y034076D01*
X005914Y034039D01*
X005958Y034004D01*
X006004Y033973D01*
X006052Y033945D01*
X006056Y033953D01*
X006009Y033981D01*
X005963Y034012D01*
X005920Y034046D01*
X005878Y034082D01*
X005840Y034122D01*
X005804Y034164D01*
X005771Y034208D01*
X005741Y034254D01*
X005714Y034303D01*
X005691Y034353D01*
X005670Y034404D01*
X005654Y034457D01*
X005641Y034510D01*
X005631Y034565D01*
X005625Y034620D01*
X005623Y034675D01*
X005632Y034675D01*
X005634Y034620D01*
X005640Y034566D01*
X005649Y034512D01*
X005662Y034459D01*
X005679Y034407D01*
X005699Y034356D01*
X005722Y034307D01*
X005749Y034259D01*
X005778Y034213D01*
X005811Y034169D01*
X005846Y034128D01*
X005885Y034089D01*
X005925Y034052D01*
X005968Y034019D01*
X006014Y033988D01*
X006061Y033961D01*
X006065Y033969D01*
X006018Y033996D01*
X005974Y034026D01*
X005931Y034059D01*
X005891Y034095D01*
X005853Y034134D01*
X005818Y034175D01*
X005786Y034218D01*
X005756Y034264D01*
X005730Y034311D01*
X005707Y034360D01*
X005687Y034410D01*
X005671Y034462D01*
X005658Y034514D01*
X005649Y034567D01*
X005643Y034621D01*
X005641Y034675D01*
X005650Y034675D01*
X005652Y034622D01*
X005658Y034569D01*
X005667Y034516D01*
X005680Y034464D01*
X005696Y034413D01*
X005715Y034363D01*
X005738Y034315D01*
X005764Y034268D01*
X005793Y034224D01*
X005825Y034181D01*
X005860Y034140D01*
X005897Y034102D01*
X005937Y034066D01*
X005979Y034033D01*
X006023Y034003D01*
X006069Y033976D01*
X006073Y033984D01*
X006028Y034011D01*
X005984Y034041D01*
X005943Y034073D01*
X005903Y034108D01*
X005866Y034146D01*
X005832Y034186D01*
X005800Y034229D01*
X005772Y034273D01*
X005746Y034319D01*
X005724Y034367D01*
X005704Y034416D01*
X005688Y034466D01*
X005676Y034518D01*
X005667Y034570D01*
X005661Y034622D01*
X005659Y034675D01*
X005668Y034675D01*
X005670Y034619D01*
X005677Y034564D01*
X005687Y034509D01*
X005701Y034455D01*
X005719Y034403D01*
X005740Y034351D01*
X005766Y034302D01*
X005794Y034254D01*
X005826Y034208D01*
X005861Y034165D01*
X005899Y034125D01*
X005940Y034087D01*
X005984Y034052D01*
X006030Y034021D01*
X006078Y033992D01*
X006082Y034000D01*
X006034Y034028D01*
X005989Y034059D01*
X005946Y034094D01*
X005906Y034131D01*
X005868Y034171D01*
X005833Y034214D01*
X005802Y034259D01*
X005773Y034306D01*
X005749Y034355D01*
X005727Y034406D01*
X005710Y034458D01*
X005696Y034511D01*
X005686Y034565D01*
X005679Y034620D01*
X005677Y034675D01*
X005686Y034675D01*
X005688Y034621D01*
X005694Y034567D01*
X005704Y034513D01*
X005718Y034461D01*
X005736Y034409D01*
X005757Y034359D01*
X005781Y034310D01*
X005809Y034264D01*
X005841Y034219D01*
X005875Y034177D01*
X005912Y034138D01*
X005952Y034101D01*
X005994Y034067D01*
X006039Y034036D01*
X006086Y034008D01*
X005906Y035325D02*
X005963Y035256D01*
X005963Y035257D02*
X005923Y035220D01*
X005885Y035181D01*
X005851Y035139D01*
X005819Y035095D01*
X005791Y035049D01*
X005766Y035000D01*
X005745Y034950D01*
X005727Y034899D01*
X005714Y034846D01*
X005704Y034793D01*
X005697Y034739D01*
X005695Y034685D01*
X005606Y034684D01*
X005605Y034685D01*
X005607Y034741D01*
X005613Y034797D01*
X005623Y034852D01*
X005636Y034907D01*
X005653Y034960D01*
X005673Y035013D01*
X005697Y035064D01*
X005724Y035113D01*
X005755Y035160D01*
X005788Y035205D01*
X005824Y035248D01*
X005863Y035288D01*
X005905Y035326D01*
X005911Y035319D01*
X005870Y035282D01*
X005831Y035242D01*
X005795Y035200D01*
X005762Y035155D01*
X005732Y035108D01*
X005705Y035060D01*
X005682Y035009D01*
X005661Y034957D01*
X005645Y034904D01*
X005632Y034850D01*
X005622Y034796D01*
X005616Y034741D01*
X005614Y034685D01*
X005623Y034685D01*
X005625Y034740D01*
X005631Y034795D01*
X005640Y034849D01*
X005653Y034902D01*
X005670Y034954D01*
X005690Y035006D01*
X005713Y035055D01*
X005740Y035104D01*
X005769Y035150D01*
X005802Y035194D01*
X005838Y035236D01*
X005876Y035275D01*
X005917Y035312D01*
X005922Y035305D01*
X005882Y035269D01*
X005844Y035230D01*
X005809Y035188D01*
X005777Y035145D01*
X005747Y035099D01*
X005721Y035051D01*
X005698Y035002D01*
X005678Y034952D01*
X005662Y034900D01*
X005649Y034847D01*
X005640Y034793D01*
X005634Y034739D01*
X005632Y034685D01*
X005641Y034685D01*
X005643Y034739D01*
X005649Y034792D01*
X005658Y034845D01*
X005671Y034897D01*
X005687Y034949D01*
X005706Y034999D01*
X005729Y035047D01*
X005755Y035094D01*
X005784Y035140D01*
X005816Y035183D01*
X005851Y035224D01*
X005888Y035262D01*
X005928Y035298D01*
X005934Y035291D01*
X005895Y035256D01*
X005858Y035218D01*
X005823Y035177D01*
X005792Y035134D01*
X005763Y035090D01*
X005737Y035043D01*
X005715Y034995D01*
X005695Y034946D01*
X005679Y034895D01*
X005667Y034843D01*
X005658Y034791D01*
X005652Y034738D01*
X005650Y034685D01*
X005659Y034685D01*
X005661Y034737D01*
X005667Y034790D01*
X005676Y034841D01*
X005688Y034892D01*
X005704Y034943D01*
X005723Y034992D01*
X005745Y035039D01*
X005771Y035085D01*
X005799Y035129D01*
X005830Y035171D01*
X005864Y035212D01*
X005901Y035249D01*
X005940Y035284D01*
X005946Y035278D01*
X005907Y035243D01*
X005871Y035205D01*
X005837Y035166D01*
X005806Y035124D01*
X005778Y035080D01*
X005753Y035035D01*
X005731Y034988D01*
X005712Y034940D01*
X005697Y034890D01*
X005684Y034840D01*
X005676Y034788D01*
X005670Y034737D01*
X005668Y034685D01*
X005677Y034685D01*
X005679Y034736D01*
X005684Y034787D01*
X005693Y034838D01*
X005705Y034888D01*
X005721Y034937D01*
X005739Y034984D01*
X005761Y035031D01*
X005786Y035076D01*
X005814Y035119D01*
X005844Y035160D01*
X005877Y035199D01*
X005913Y035236D01*
X005951Y035271D01*
X005957Y035264D01*
X005916Y035227D01*
X005878Y035187D01*
X005844Y035145D01*
X005812Y035100D01*
X005783Y035053D01*
X005758Y035004D01*
X005737Y034953D01*
X005719Y034902D01*
X005705Y034848D01*
X005695Y034794D01*
X005688Y034740D01*
X005686Y034685D01*
X007294Y034684D02*
X007204Y034684D01*
X007205Y034685D02*
X007203Y034739D01*
X007197Y034792D01*
X007187Y034845D01*
X007173Y034897D01*
X007156Y034948D01*
X007135Y034998D01*
X007111Y035046D01*
X007083Y035092D01*
X007052Y035136D01*
X007018Y035177D01*
X006981Y035217D01*
X006942Y035253D01*
X006999Y035321D01*
X007000Y035322D01*
X007041Y035284D01*
X007079Y035244D01*
X007115Y035201D01*
X007148Y035156D01*
X007178Y035109D01*
X007204Y035061D01*
X007228Y035010D01*
X007248Y034958D01*
X007264Y034905D01*
X007278Y034851D01*
X007287Y034796D01*
X007293Y034741D01*
X007295Y034685D01*
X007286Y034685D01*
X007284Y034740D01*
X007278Y034795D01*
X007269Y034849D01*
X007256Y034903D01*
X007239Y034955D01*
X007220Y035007D01*
X007196Y035057D01*
X007170Y035105D01*
X007140Y035151D01*
X007108Y035196D01*
X007073Y035238D01*
X007034Y035278D01*
X006994Y035315D01*
X006988Y035308D01*
X007028Y035271D01*
X007066Y035232D01*
X007101Y035190D01*
X007133Y035146D01*
X007162Y035100D01*
X007188Y035052D01*
X007211Y035003D01*
X007231Y034952D01*
X007247Y034900D01*
X007260Y034847D01*
X007269Y034794D01*
X007275Y034739D01*
X007277Y034685D01*
X007268Y034685D01*
X007266Y034739D01*
X007260Y034792D01*
X007251Y034845D01*
X007238Y034898D01*
X007222Y034949D01*
X007203Y035000D01*
X007180Y035048D01*
X007155Y035096D01*
X007126Y035141D01*
X007094Y035185D01*
X007059Y035226D01*
X007022Y035265D01*
X006982Y035301D01*
X006976Y035294D01*
X007016Y035258D01*
X007053Y035220D01*
X007087Y035179D01*
X007118Y035136D01*
X007147Y035091D01*
X007172Y035044D01*
X007195Y034996D01*
X007214Y034946D01*
X007230Y034895D01*
X007242Y034844D01*
X007251Y034791D01*
X007257Y034738D01*
X007259Y034685D01*
X007250Y034685D01*
X007248Y034738D01*
X007242Y034790D01*
X007233Y034842D01*
X007221Y034893D01*
X007205Y034943D01*
X007186Y034993D01*
X007164Y035040D01*
X007139Y035087D01*
X007111Y035131D01*
X007080Y035173D01*
X007046Y035214D01*
X007009Y035252D01*
X006971Y035287D01*
X006965Y035281D01*
X007003Y035245D01*
X007039Y035208D01*
X007073Y035168D01*
X007103Y035126D01*
X007131Y035082D01*
X007156Y035036D01*
X007178Y034989D01*
X007197Y034940D01*
X007212Y034891D01*
X007225Y034840D01*
X007233Y034789D01*
X007239Y034737D01*
X007241Y034685D01*
X007232Y034685D01*
X007230Y034741D01*
X007223Y034796D01*
X007213Y034851D01*
X007199Y034905D01*
X007181Y034958D01*
X007159Y035009D01*
X007134Y035059D01*
X007105Y035107D01*
X007073Y035152D01*
X007038Y035195D01*
X007000Y035236D01*
X006959Y035274D01*
X006953Y035267D01*
X006994Y035230D01*
X007031Y035189D01*
X007066Y035147D01*
X007098Y035102D01*
X007126Y035054D01*
X007151Y035005D01*
X007173Y034954D01*
X007190Y034902D01*
X007204Y034849D01*
X007214Y034795D01*
X007221Y034740D01*
X007223Y034685D01*
X007214Y034685D01*
X007212Y034739D01*
X007206Y034793D01*
X007196Y034847D01*
X007182Y034900D01*
X007164Y034951D01*
X007143Y035001D01*
X007118Y035050D01*
X007090Y035097D01*
X007059Y035141D01*
X007025Y035183D01*
X006987Y035223D01*
X006947Y035260D01*
X007856Y034675D02*
X007946Y034675D01*
X007945Y034675D02*
X007947Y034621D01*
X007953Y034568D01*
X007963Y034515D01*
X007977Y034463D01*
X007994Y034412D01*
X008015Y034363D01*
X008039Y034315D01*
X008067Y034269D01*
X008098Y034225D01*
X008132Y034183D01*
X008168Y034144D01*
X008208Y034107D01*
X008250Y034074D01*
X008294Y034043D01*
X008340Y034016D01*
X008298Y033937D01*
X008249Y033965D01*
X008203Y033997D01*
X008158Y034032D01*
X008116Y034069D01*
X008076Y034110D01*
X008040Y034153D01*
X008006Y034198D01*
X007975Y034245D01*
X007948Y034295D01*
X007924Y034346D01*
X007903Y034398D01*
X007886Y034452D01*
X007873Y034507D01*
X007863Y034562D01*
X007857Y034619D01*
X007855Y034675D01*
X007864Y034675D01*
X007866Y034619D01*
X007872Y034564D01*
X007882Y034509D01*
X007895Y034454D01*
X007912Y034401D01*
X007932Y034349D01*
X007956Y034299D01*
X007983Y034250D01*
X008013Y034203D01*
X008047Y034158D01*
X008083Y034116D01*
X008122Y034076D01*
X008164Y034039D01*
X008208Y034004D01*
X008254Y033973D01*
X008302Y033945D01*
X008306Y033953D01*
X008259Y033981D01*
X008213Y034012D01*
X008170Y034046D01*
X008128Y034082D01*
X008090Y034122D01*
X008054Y034164D01*
X008021Y034208D01*
X007991Y034254D01*
X007964Y034303D01*
X007941Y034353D01*
X007920Y034404D01*
X007904Y034457D01*
X007891Y034510D01*
X007881Y034565D01*
X007875Y034620D01*
X007873Y034675D01*
X007882Y034675D01*
X007884Y034620D01*
X007890Y034566D01*
X007899Y034512D01*
X007912Y034459D01*
X007929Y034407D01*
X007949Y034356D01*
X007972Y034307D01*
X007999Y034259D01*
X008028Y034213D01*
X008061Y034169D01*
X008096Y034128D01*
X008135Y034089D01*
X008175Y034052D01*
X008218Y034019D01*
X008264Y033988D01*
X008311Y033961D01*
X008315Y033969D01*
X008268Y033996D01*
X008224Y034026D01*
X008181Y034059D01*
X008141Y034095D01*
X008103Y034134D01*
X008068Y034175D01*
X008036Y034218D01*
X008006Y034264D01*
X007980Y034311D01*
X007957Y034360D01*
X007937Y034410D01*
X007921Y034462D01*
X007908Y034514D01*
X007899Y034567D01*
X007893Y034621D01*
X007891Y034675D01*
X007900Y034675D01*
X007902Y034622D01*
X007908Y034569D01*
X007917Y034516D01*
X007930Y034464D01*
X007946Y034413D01*
X007965Y034363D01*
X007988Y034315D01*
X008014Y034268D01*
X008043Y034224D01*
X008075Y034181D01*
X008110Y034140D01*
X008147Y034102D01*
X008187Y034066D01*
X008229Y034033D01*
X008273Y034003D01*
X008319Y033976D01*
X008323Y033984D01*
X008278Y034011D01*
X008234Y034041D01*
X008193Y034073D01*
X008153Y034108D01*
X008116Y034146D01*
X008082Y034186D01*
X008050Y034229D01*
X008022Y034273D01*
X007996Y034319D01*
X007974Y034367D01*
X007954Y034416D01*
X007938Y034466D01*
X007926Y034518D01*
X007917Y034570D01*
X007911Y034622D01*
X007909Y034675D01*
X007918Y034675D01*
X007920Y034619D01*
X007927Y034564D01*
X007937Y034509D01*
X007951Y034455D01*
X007969Y034403D01*
X007990Y034351D01*
X008016Y034302D01*
X008044Y034254D01*
X008076Y034208D01*
X008111Y034165D01*
X008149Y034125D01*
X008190Y034087D01*
X008234Y034052D01*
X008280Y034021D01*
X008328Y033992D01*
X008332Y034000D01*
X008284Y034028D01*
X008239Y034059D01*
X008196Y034094D01*
X008156Y034131D01*
X008118Y034171D01*
X008083Y034214D01*
X008052Y034259D01*
X008023Y034306D01*
X007999Y034355D01*
X007977Y034406D01*
X007960Y034458D01*
X007946Y034511D01*
X007936Y034565D01*
X007929Y034620D01*
X007927Y034675D01*
X007936Y034675D01*
X007938Y034621D01*
X007944Y034567D01*
X007954Y034513D01*
X007968Y034461D01*
X007986Y034409D01*
X008007Y034359D01*
X008031Y034310D01*
X008059Y034264D01*
X008091Y034219D01*
X008125Y034177D01*
X008162Y034138D01*
X008202Y034101D01*
X008244Y034067D01*
X008289Y034036D01*
X008336Y034008D01*
X009123Y033949D02*
X009078Y034027D01*
X009079Y034027D02*
X009123Y034055D01*
X009165Y034086D01*
X009205Y034119D01*
X009243Y034155D01*
X009278Y034194D01*
X009310Y034235D01*
X009340Y034279D01*
X009366Y034324D01*
X009389Y034371D01*
X009409Y034419D01*
X009425Y034469D01*
X009438Y034519D01*
X009447Y034571D01*
X009453Y034623D01*
X009455Y034675D01*
X009544Y034676D01*
X009545Y034675D01*
X009543Y034620D01*
X009537Y034566D01*
X009528Y034511D01*
X009515Y034458D01*
X009499Y034406D01*
X009480Y034354D01*
X009457Y034304D01*
X009431Y034256D01*
X009402Y034209D01*
X009370Y034165D01*
X009335Y034122D01*
X009297Y034082D01*
X009257Y034045D01*
X009215Y034010D01*
X009170Y033978D01*
X009124Y033949D01*
X009119Y033957D01*
X009165Y033985D01*
X009209Y034017D01*
X009251Y034052D01*
X009291Y034089D01*
X009328Y034128D01*
X009363Y034170D01*
X009394Y034214D01*
X009423Y034260D01*
X009449Y034308D01*
X009471Y034358D01*
X009491Y034408D01*
X009507Y034460D01*
X009519Y034513D01*
X009528Y034567D01*
X009534Y034621D01*
X009536Y034675D01*
X009527Y034675D01*
X009525Y034621D01*
X009519Y034568D01*
X009510Y034515D01*
X009498Y034463D01*
X009482Y034411D01*
X009463Y034361D01*
X009441Y034312D01*
X009415Y034265D01*
X009387Y034219D01*
X009355Y034176D01*
X009321Y034134D01*
X009285Y034095D01*
X009245Y034058D01*
X009204Y034024D01*
X009160Y033993D01*
X009115Y033964D01*
X009110Y033972D01*
X009158Y034002D01*
X009204Y034036D01*
X009247Y034072D01*
X009288Y034112D01*
X009326Y034154D01*
X009361Y034198D01*
X009393Y034245D01*
X009421Y034294D01*
X009446Y034345D01*
X009468Y034398D01*
X009485Y034451D01*
X009499Y034506D01*
X009509Y034562D01*
X009516Y034618D01*
X009518Y034675D01*
X009509Y034675D01*
X009507Y034619D01*
X009501Y034563D01*
X009491Y034508D01*
X009477Y034454D01*
X009459Y034401D01*
X009438Y034349D01*
X009413Y034298D01*
X009385Y034250D01*
X009354Y034204D01*
X009319Y034159D01*
X009282Y034118D01*
X009241Y034079D01*
X009199Y034043D01*
X009153Y034010D01*
X009106Y033980D01*
X009101Y033988D01*
X009148Y034017D01*
X009193Y034050D01*
X009235Y034086D01*
X009275Y034124D01*
X009312Y034165D01*
X009347Y034209D01*
X009378Y034255D01*
X009405Y034303D01*
X009430Y034352D01*
X009451Y034404D01*
X009468Y034456D01*
X009482Y034510D01*
X009492Y034565D01*
X009498Y034620D01*
X009500Y034675D01*
X009491Y034675D01*
X009489Y034620D01*
X009483Y034566D01*
X009473Y034512D01*
X009459Y034459D01*
X009442Y034407D01*
X009422Y034356D01*
X009397Y034307D01*
X009370Y034260D01*
X009339Y034214D01*
X009306Y034171D01*
X009269Y034130D01*
X009229Y034092D01*
X009187Y034057D01*
X009143Y034025D01*
X009097Y033996D01*
X009092Y034004D01*
X009138Y034032D01*
X009182Y034064D01*
X009223Y034099D01*
X009262Y034137D01*
X009299Y034177D01*
X009332Y034219D01*
X009362Y034264D01*
X009390Y034311D01*
X009413Y034360D01*
X009434Y034410D01*
X009451Y034461D01*
X009464Y034514D01*
X009474Y034567D01*
X009480Y034621D01*
X009482Y034675D01*
X009473Y034675D01*
X009471Y034622D01*
X009465Y034568D01*
X009455Y034516D01*
X009442Y034464D01*
X009425Y034413D01*
X009405Y034363D01*
X009382Y034315D01*
X009355Y034269D01*
X009325Y034225D01*
X009292Y034183D01*
X009256Y034143D01*
X009217Y034106D01*
X009176Y034071D01*
X009133Y034040D01*
X009088Y034011D01*
X009083Y034019D01*
X009128Y034047D01*
X009171Y034078D01*
X009211Y034112D01*
X009249Y034149D01*
X009285Y034188D01*
X009317Y034230D01*
X009347Y034274D01*
X009374Y034320D01*
X009397Y034367D01*
X009417Y034416D01*
X009434Y034466D01*
X009447Y034518D01*
X009456Y034570D01*
X009462Y034622D01*
X009464Y034675D01*
X009544Y034684D02*
X009454Y034684D01*
X009455Y034685D02*
X009453Y034739D01*
X009447Y034792D01*
X009437Y034845D01*
X009423Y034897D01*
X009406Y034948D01*
X009385Y034998D01*
X009361Y035046D01*
X009333Y035092D01*
X009302Y035136D01*
X009268Y035177D01*
X009231Y035217D01*
X009192Y035253D01*
X009249Y035321D01*
X009250Y035322D01*
X009291Y035284D01*
X009329Y035244D01*
X009365Y035201D01*
X009398Y035156D01*
X009428Y035109D01*
X009454Y035061D01*
X009478Y035010D01*
X009498Y034958D01*
X009514Y034905D01*
X009528Y034851D01*
X009537Y034796D01*
X009543Y034741D01*
X009545Y034685D01*
X009536Y034685D01*
X009534Y034740D01*
X009528Y034795D01*
X009519Y034849D01*
X009506Y034903D01*
X009489Y034955D01*
X009470Y035007D01*
X009446Y035057D01*
X009420Y035105D01*
X009390Y035151D01*
X009358Y035196D01*
X009323Y035238D01*
X009284Y035278D01*
X009244Y035315D01*
X009238Y035308D01*
X009278Y035271D01*
X009316Y035232D01*
X009351Y035190D01*
X009383Y035146D01*
X009412Y035100D01*
X009438Y035052D01*
X009461Y035003D01*
X009481Y034952D01*
X009497Y034900D01*
X009510Y034847D01*
X009519Y034794D01*
X009525Y034739D01*
X009527Y034685D01*
X009518Y034685D01*
X009516Y034739D01*
X009510Y034792D01*
X009501Y034845D01*
X009488Y034898D01*
X009472Y034949D01*
X009453Y035000D01*
X009430Y035048D01*
X009405Y035096D01*
X009376Y035141D01*
X009344Y035185D01*
X009309Y035226D01*
X009272Y035265D01*
X009232Y035301D01*
X009226Y035294D01*
X009266Y035258D01*
X009303Y035220D01*
X009337Y035179D01*
X009368Y035136D01*
X009397Y035091D01*
X009422Y035044D01*
X009445Y034996D01*
X009464Y034946D01*
X009480Y034895D01*
X009492Y034844D01*
X009501Y034791D01*
X009507Y034738D01*
X009509Y034685D01*
X009500Y034685D01*
X009498Y034738D01*
X009492Y034790D01*
X009483Y034842D01*
X009471Y034893D01*
X009455Y034943D01*
X009436Y034993D01*
X009414Y035040D01*
X009389Y035087D01*
X009361Y035131D01*
X009330Y035173D01*
X009296Y035214D01*
X009259Y035252D01*
X009221Y035287D01*
X009215Y035281D01*
X009253Y035245D01*
X009289Y035208D01*
X009323Y035168D01*
X009353Y035126D01*
X009381Y035082D01*
X009406Y035036D01*
X009428Y034989D01*
X009447Y034940D01*
X009462Y034891D01*
X009475Y034840D01*
X009483Y034789D01*
X009489Y034737D01*
X009491Y034685D01*
X009482Y034685D01*
X009480Y034741D01*
X009473Y034796D01*
X009463Y034851D01*
X009449Y034905D01*
X009431Y034958D01*
X009409Y035009D01*
X009384Y035059D01*
X009355Y035107D01*
X009323Y035152D01*
X009288Y035195D01*
X009250Y035236D01*
X009209Y035274D01*
X009203Y035267D01*
X009244Y035230D01*
X009281Y035189D01*
X009316Y035147D01*
X009348Y035102D01*
X009376Y035054D01*
X009401Y035005D01*
X009423Y034954D01*
X009440Y034902D01*
X009454Y034849D01*
X009464Y034795D01*
X009471Y034740D01*
X009473Y034685D01*
X009464Y034685D01*
X009462Y034739D01*
X009456Y034793D01*
X009446Y034847D01*
X009432Y034900D01*
X009414Y034951D01*
X009393Y035001D01*
X009368Y035050D01*
X009340Y035097D01*
X009309Y035141D01*
X009275Y035183D01*
X009237Y035223D01*
X009197Y035260D01*
X008156Y035325D02*
X008213Y035256D01*
X008213Y035257D02*
X008173Y035220D01*
X008135Y035181D01*
X008101Y035139D01*
X008069Y035095D01*
X008041Y035049D01*
X008016Y035000D01*
X007995Y034950D01*
X007977Y034899D01*
X007964Y034846D01*
X007954Y034793D01*
X007947Y034739D01*
X007945Y034685D01*
X007856Y034684D01*
X007855Y034685D01*
X007857Y034741D01*
X007863Y034797D01*
X007873Y034852D01*
X007886Y034907D01*
X007903Y034960D01*
X007923Y035013D01*
X007947Y035064D01*
X007974Y035113D01*
X008005Y035160D01*
X008038Y035205D01*
X008074Y035248D01*
X008113Y035288D01*
X008155Y035326D01*
X008161Y035319D01*
X008120Y035282D01*
X008081Y035242D01*
X008045Y035200D01*
X008012Y035155D01*
X007982Y035108D01*
X007955Y035060D01*
X007932Y035009D01*
X007911Y034957D01*
X007895Y034904D01*
X007882Y034850D01*
X007872Y034796D01*
X007866Y034741D01*
X007864Y034685D01*
X007873Y034685D01*
X007875Y034740D01*
X007881Y034795D01*
X007890Y034849D01*
X007903Y034902D01*
X007920Y034954D01*
X007940Y035006D01*
X007963Y035055D01*
X007990Y035104D01*
X008019Y035150D01*
X008052Y035194D01*
X008088Y035236D01*
X008126Y035275D01*
X008167Y035312D01*
X008172Y035305D01*
X008132Y035269D01*
X008094Y035230D01*
X008059Y035188D01*
X008027Y035145D01*
X007997Y035099D01*
X007971Y035051D01*
X007948Y035002D01*
X007928Y034952D01*
X007912Y034900D01*
X007899Y034847D01*
X007890Y034793D01*
X007884Y034739D01*
X007882Y034685D01*
X007891Y034685D01*
X007893Y034739D01*
X007899Y034792D01*
X007908Y034845D01*
X007921Y034897D01*
X007937Y034949D01*
X007956Y034999D01*
X007979Y035047D01*
X008005Y035094D01*
X008034Y035140D01*
X008066Y035183D01*
X008101Y035224D01*
X008138Y035262D01*
X008178Y035298D01*
X008184Y035291D01*
X008145Y035256D01*
X008108Y035218D01*
X008073Y035177D01*
X008042Y035134D01*
X008013Y035090D01*
X007987Y035043D01*
X007965Y034995D01*
X007945Y034946D01*
X007929Y034895D01*
X007917Y034843D01*
X007908Y034791D01*
X007902Y034738D01*
X007900Y034685D01*
X007909Y034685D01*
X007911Y034737D01*
X007917Y034790D01*
X007926Y034841D01*
X007938Y034892D01*
X007954Y034943D01*
X007973Y034992D01*
X007995Y035039D01*
X008021Y035085D01*
X008049Y035129D01*
X008080Y035171D01*
X008114Y035212D01*
X008151Y035249D01*
X008190Y035284D01*
X008196Y035278D01*
X008157Y035243D01*
X008121Y035205D01*
X008087Y035166D01*
X008056Y035124D01*
X008028Y035080D01*
X008003Y035035D01*
X007981Y034988D01*
X007962Y034940D01*
X007947Y034890D01*
X007934Y034840D01*
X007926Y034788D01*
X007920Y034737D01*
X007918Y034685D01*
X007927Y034685D01*
X007929Y034736D01*
X007934Y034787D01*
X007943Y034838D01*
X007955Y034888D01*
X007971Y034937D01*
X007989Y034984D01*
X008011Y035031D01*
X008036Y035076D01*
X008064Y035119D01*
X008094Y035160D01*
X008127Y035199D01*
X008163Y035236D01*
X008201Y035271D01*
X008207Y035264D01*
X008166Y035227D01*
X008128Y035187D01*
X008094Y035145D01*
X008062Y035100D01*
X008033Y035053D01*
X008008Y035004D01*
X007987Y034953D01*
X007969Y034902D01*
X007955Y034848D01*
X007945Y034794D01*
X007938Y034740D01*
X007936Y034685D01*
X011373Y033949D02*
X011328Y034027D01*
X011329Y034027D02*
X011373Y034055D01*
X011415Y034086D01*
X011455Y034119D01*
X011493Y034155D01*
X011528Y034194D01*
X011560Y034235D01*
X011590Y034279D01*
X011616Y034324D01*
X011639Y034371D01*
X011659Y034419D01*
X011675Y034469D01*
X011688Y034519D01*
X011697Y034571D01*
X011703Y034623D01*
X011705Y034675D01*
X011794Y034676D01*
X011795Y034675D01*
X011793Y034620D01*
X011787Y034566D01*
X011778Y034511D01*
X011765Y034458D01*
X011749Y034406D01*
X011730Y034354D01*
X011707Y034304D01*
X011681Y034256D01*
X011652Y034209D01*
X011620Y034165D01*
X011585Y034122D01*
X011547Y034082D01*
X011507Y034045D01*
X011465Y034010D01*
X011420Y033978D01*
X011374Y033949D01*
X011369Y033957D01*
X011415Y033985D01*
X011459Y034017D01*
X011501Y034052D01*
X011541Y034089D01*
X011578Y034128D01*
X011613Y034170D01*
X011644Y034214D01*
X011673Y034260D01*
X011699Y034308D01*
X011721Y034358D01*
X011741Y034408D01*
X011757Y034460D01*
X011769Y034513D01*
X011778Y034567D01*
X011784Y034621D01*
X011786Y034675D01*
X011777Y034675D01*
X011775Y034621D01*
X011769Y034568D01*
X011760Y034515D01*
X011748Y034463D01*
X011732Y034411D01*
X011713Y034361D01*
X011691Y034312D01*
X011665Y034265D01*
X011637Y034219D01*
X011605Y034176D01*
X011571Y034134D01*
X011535Y034095D01*
X011495Y034058D01*
X011454Y034024D01*
X011410Y033993D01*
X011365Y033964D01*
X011360Y033972D01*
X011408Y034002D01*
X011454Y034036D01*
X011497Y034072D01*
X011538Y034112D01*
X011576Y034154D01*
X011611Y034198D01*
X011643Y034245D01*
X011671Y034294D01*
X011696Y034345D01*
X011718Y034398D01*
X011735Y034451D01*
X011749Y034506D01*
X011759Y034562D01*
X011766Y034618D01*
X011768Y034675D01*
X011759Y034675D01*
X011757Y034619D01*
X011751Y034563D01*
X011741Y034508D01*
X011727Y034454D01*
X011709Y034401D01*
X011688Y034349D01*
X011663Y034298D01*
X011635Y034250D01*
X011604Y034204D01*
X011569Y034159D01*
X011532Y034118D01*
X011491Y034079D01*
X011449Y034043D01*
X011403Y034010D01*
X011356Y033980D01*
X011351Y033988D01*
X011398Y034017D01*
X011443Y034050D01*
X011485Y034086D01*
X011525Y034124D01*
X011562Y034165D01*
X011597Y034209D01*
X011628Y034255D01*
X011655Y034303D01*
X011680Y034352D01*
X011701Y034404D01*
X011718Y034456D01*
X011732Y034510D01*
X011742Y034565D01*
X011748Y034620D01*
X011750Y034675D01*
X011741Y034675D01*
X011739Y034620D01*
X011733Y034566D01*
X011723Y034512D01*
X011709Y034459D01*
X011692Y034407D01*
X011672Y034356D01*
X011647Y034307D01*
X011620Y034260D01*
X011589Y034214D01*
X011556Y034171D01*
X011519Y034130D01*
X011479Y034092D01*
X011437Y034057D01*
X011393Y034025D01*
X011347Y033996D01*
X011342Y034004D01*
X011388Y034032D01*
X011432Y034064D01*
X011473Y034099D01*
X011512Y034137D01*
X011549Y034177D01*
X011582Y034219D01*
X011612Y034264D01*
X011640Y034311D01*
X011663Y034360D01*
X011684Y034410D01*
X011701Y034461D01*
X011714Y034514D01*
X011724Y034567D01*
X011730Y034621D01*
X011732Y034675D01*
X011723Y034675D01*
X011721Y034622D01*
X011715Y034568D01*
X011705Y034516D01*
X011692Y034464D01*
X011675Y034413D01*
X011655Y034363D01*
X011632Y034315D01*
X011605Y034269D01*
X011575Y034225D01*
X011542Y034183D01*
X011506Y034143D01*
X011467Y034106D01*
X011426Y034071D01*
X011383Y034040D01*
X011338Y034011D01*
X011333Y034019D01*
X011378Y034047D01*
X011421Y034078D01*
X011461Y034112D01*
X011499Y034149D01*
X011535Y034188D01*
X011567Y034230D01*
X011597Y034274D01*
X011624Y034320D01*
X011647Y034367D01*
X011667Y034416D01*
X011684Y034466D01*
X011697Y034518D01*
X011706Y034570D01*
X011712Y034622D01*
X011714Y034675D01*
X010106Y034675D02*
X010196Y034675D01*
X010195Y034675D02*
X010197Y034621D01*
X010203Y034568D01*
X010213Y034515D01*
X010227Y034463D01*
X010244Y034412D01*
X010265Y034363D01*
X010289Y034315D01*
X010317Y034269D01*
X010348Y034225D01*
X010382Y034183D01*
X010418Y034144D01*
X010458Y034107D01*
X010500Y034074D01*
X010544Y034043D01*
X010590Y034016D01*
X010548Y033937D01*
X010499Y033965D01*
X010453Y033997D01*
X010408Y034032D01*
X010366Y034069D01*
X010326Y034110D01*
X010290Y034153D01*
X010256Y034198D01*
X010225Y034245D01*
X010198Y034295D01*
X010174Y034346D01*
X010153Y034398D01*
X010136Y034452D01*
X010123Y034507D01*
X010113Y034562D01*
X010107Y034619D01*
X010105Y034675D01*
X010114Y034675D01*
X010116Y034619D01*
X010122Y034564D01*
X010132Y034509D01*
X010145Y034454D01*
X010162Y034401D01*
X010182Y034349D01*
X010206Y034299D01*
X010233Y034250D01*
X010263Y034203D01*
X010297Y034158D01*
X010333Y034116D01*
X010372Y034076D01*
X010414Y034039D01*
X010458Y034004D01*
X010504Y033973D01*
X010552Y033945D01*
X010556Y033953D01*
X010509Y033981D01*
X010463Y034012D01*
X010420Y034046D01*
X010378Y034082D01*
X010340Y034122D01*
X010304Y034164D01*
X010271Y034208D01*
X010241Y034254D01*
X010214Y034303D01*
X010191Y034353D01*
X010170Y034404D01*
X010154Y034457D01*
X010141Y034510D01*
X010131Y034565D01*
X010125Y034620D01*
X010123Y034675D01*
X010132Y034675D01*
X010134Y034620D01*
X010140Y034566D01*
X010149Y034512D01*
X010162Y034459D01*
X010179Y034407D01*
X010199Y034356D01*
X010222Y034307D01*
X010249Y034259D01*
X010278Y034213D01*
X010311Y034169D01*
X010346Y034128D01*
X010385Y034089D01*
X010425Y034052D01*
X010468Y034019D01*
X010514Y033988D01*
X010561Y033961D01*
X010565Y033969D01*
X010518Y033996D01*
X010474Y034026D01*
X010431Y034059D01*
X010391Y034095D01*
X010353Y034134D01*
X010318Y034175D01*
X010286Y034218D01*
X010256Y034264D01*
X010230Y034311D01*
X010207Y034360D01*
X010187Y034410D01*
X010171Y034462D01*
X010158Y034514D01*
X010149Y034567D01*
X010143Y034621D01*
X010141Y034675D01*
X010150Y034675D01*
X010152Y034622D01*
X010158Y034569D01*
X010167Y034516D01*
X010180Y034464D01*
X010196Y034413D01*
X010215Y034363D01*
X010238Y034315D01*
X010264Y034268D01*
X010293Y034224D01*
X010325Y034181D01*
X010360Y034140D01*
X010397Y034102D01*
X010437Y034066D01*
X010479Y034033D01*
X010523Y034003D01*
X010569Y033976D01*
X010573Y033984D01*
X010528Y034011D01*
X010484Y034041D01*
X010443Y034073D01*
X010403Y034108D01*
X010366Y034146D01*
X010332Y034186D01*
X010300Y034229D01*
X010272Y034273D01*
X010246Y034319D01*
X010224Y034367D01*
X010204Y034416D01*
X010188Y034466D01*
X010176Y034518D01*
X010167Y034570D01*
X010161Y034622D01*
X010159Y034675D01*
X010168Y034675D01*
X010170Y034619D01*
X010177Y034564D01*
X010187Y034509D01*
X010201Y034455D01*
X010219Y034403D01*
X010240Y034351D01*
X010266Y034302D01*
X010294Y034254D01*
X010326Y034208D01*
X010361Y034165D01*
X010399Y034125D01*
X010440Y034087D01*
X010484Y034052D01*
X010530Y034021D01*
X010578Y033992D01*
X010582Y034000D01*
X010534Y034028D01*
X010489Y034059D01*
X010446Y034094D01*
X010406Y034131D01*
X010368Y034171D01*
X010333Y034214D01*
X010302Y034259D01*
X010273Y034306D01*
X010249Y034355D01*
X010227Y034406D01*
X010210Y034458D01*
X010196Y034511D01*
X010186Y034565D01*
X010179Y034620D01*
X010177Y034675D01*
X010186Y034675D01*
X010188Y034621D01*
X010194Y034567D01*
X010204Y034513D01*
X010218Y034461D01*
X010236Y034409D01*
X010257Y034359D01*
X010281Y034310D01*
X010309Y034264D01*
X010341Y034219D01*
X010375Y034177D01*
X010412Y034138D01*
X010452Y034101D01*
X010494Y034067D01*
X010539Y034036D01*
X010586Y034008D01*
X010406Y035325D02*
X010463Y035256D01*
X010463Y035257D02*
X010423Y035220D01*
X010385Y035181D01*
X010351Y035139D01*
X010319Y035095D01*
X010291Y035049D01*
X010266Y035000D01*
X010245Y034950D01*
X010227Y034899D01*
X010214Y034846D01*
X010204Y034793D01*
X010197Y034739D01*
X010195Y034685D01*
X010106Y034684D01*
X010105Y034685D01*
X010107Y034741D01*
X010113Y034797D01*
X010123Y034852D01*
X010136Y034907D01*
X010153Y034960D01*
X010173Y035013D01*
X010197Y035064D01*
X010224Y035113D01*
X010255Y035160D01*
X010288Y035205D01*
X010324Y035248D01*
X010363Y035288D01*
X010405Y035326D01*
X010411Y035319D01*
X010370Y035282D01*
X010331Y035242D01*
X010295Y035200D01*
X010262Y035155D01*
X010232Y035108D01*
X010205Y035060D01*
X010182Y035009D01*
X010161Y034957D01*
X010145Y034904D01*
X010132Y034850D01*
X010122Y034796D01*
X010116Y034741D01*
X010114Y034685D01*
X010123Y034685D01*
X010125Y034740D01*
X010131Y034795D01*
X010140Y034849D01*
X010153Y034902D01*
X010170Y034954D01*
X010190Y035006D01*
X010213Y035055D01*
X010240Y035104D01*
X010269Y035150D01*
X010302Y035194D01*
X010338Y035236D01*
X010376Y035275D01*
X010417Y035312D01*
X010422Y035305D01*
X010382Y035269D01*
X010344Y035230D01*
X010309Y035188D01*
X010277Y035145D01*
X010247Y035099D01*
X010221Y035051D01*
X010198Y035002D01*
X010178Y034952D01*
X010162Y034900D01*
X010149Y034847D01*
X010140Y034793D01*
X010134Y034739D01*
X010132Y034685D01*
X010141Y034685D01*
X010143Y034739D01*
X010149Y034792D01*
X010158Y034845D01*
X010171Y034897D01*
X010187Y034949D01*
X010206Y034999D01*
X010229Y035047D01*
X010255Y035094D01*
X010284Y035140D01*
X010316Y035183D01*
X010351Y035224D01*
X010388Y035262D01*
X010428Y035298D01*
X010434Y035291D01*
X010395Y035256D01*
X010358Y035218D01*
X010323Y035177D01*
X010292Y035134D01*
X010263Y035090D01*
X010237Y035043D01*
X010215Y034995D01*
X010195Y034946D01*
X010179Y034895D01*
X010167Y034843D01*
X010158Y034791D01*
X010152Y034738D01*
X010150Y034685D01*
X010159Y034685D01*
X010161Y034737D01*
X010167Y034790D01*
X010176Y034841D01*
X010188Y034892D01*
X010204Y034943D01*
X010223Y034992D01*
X010245Y035039D01*
X010271Y035085D01*
X010299Y035129D01*
X010330Y035171D01*
X010364Y035212D01*
X010401Y035249D01*
X010440Y035284D01*
X010446Y035278D01*
X010407Y035243D01*
X010371Y035205D01*
X010337Y035166D01*
X010306Y035124D01*
X010278Y035080D01*
X010253Y035035D01*
X010231Y034988D01*
X010212Y034940D01*
X010197Y034890D01*
X010184Y034840D01*
X010176Y034788D01*
X010170Y034737D01*
X010168Y034685D01*
X010177Y034685D01*
X010179Y034736D01*
X010184Y034787D01*
X010193Y034838D01*
X010205Y034888D01*
X010221Y034937D01*
X010239Y034984D01*
X010261Y035031D01*
X010286Y035076D01*
X010314Y035119D01*
X010344Y035160D01*
X010377Y035199D01*
X010413Y035236D01*
X010451Y035271D01*
X010457Y035264D01*
X010416Y035227D01*
X010378Y035187D01*
X010344Y035145D01*
X010312Y035100D01*
X010283Y035053D01*
X010258Y035004D01*
X010237Y034953D01*
X010219Y034902D01*
X010205Y034848D01*
X010195Y034794D01*
X010188Y034740D01*
X010186Y034685D01*
X011794Y034684D02*
X011704Y034684D01*
X011705Y034685D02*
X011703Y034739D01*
X011697Y034792D01*
X011687Y034845D01*
X011673Y034897D01*
X011656Y034948D01*
X011635Y034998D01*
X011611Y035046D01*
X011583Y035092D01*
X011552Y035136D01*
X011518Y035177D01*
X011481Y035217D01*
X011442Y035253D01*
X011499Y035321D01*
X011500Y035322D01*
X011541Y035284D01*
X011579Y035244D01*
X011615Y035201D01*
X011648Y035156D01*
X011678Y035109D01*
X011704Y035061D01*
X011728Y035010D01*
X011748Y034958D01*
X011764Y034905D01*
X011778Y034851D01*
X011787Y034796D01*
X011793Y034741D01*
X011795Y034685D01*
X011786Y034685D01*
X011784Y034740D01*
X011778Y034795D01*
X011769Y034849D01*
X011756Y034903D01*
X011739Y034955D01*
X011720Y035007D01*
X011696Y035057D01*
X011670Y035105D01*
X011640Y035151D01*
X011608Y035196D01*
X011573Y035238D01*
X011534Y035278D01*
X011494Y035315D01*
X011488Y035308D01*
X011528Y035271D01*
X011566Y035232D01*
X011601Y035190D01*
X011633Y035146D01*
X011662Y035100D01*
X011688Y035052D01*
X011711Y035003D01*
X011731Y034952D01*
X011747Y034900D01*
X011760Y034847D01*
X011769Y034794D01*
X011775Y034739D01*
X011777Y034685D01*
X011768Y034685D01*
X011766Y034739D01*
X011760Y034792D01*
X011751Y034845D01*
X011738Y034898D01*
X011722Y034949D01*
X011703Y035000D01*
X011680Y035048D01*
X011655Y035096D01*
X011626Y035141D01*
X011594Y035185D01*
X011559Y035226D01*
X011522Y035265D01*
X011482Y035301D01*
X011476Y035294D01*
X011516Y035258D01*
X011553Y035220D01*
X011587Y035179D01*
X011618Y035136D01*
X011647Y035091D01*
X011672Y035044D01*
X011695Y034996D01*
X011714Y034946D01*
X011730Y034895D01*
X011742Y034844D01*
X011751Y034791D01*
X011757Y034738D01*
X011759Y034685D01*
X011750Y034685D01*
X011748Y034738D01*
X011742Y034790D01*
X011733Y034842D01*
X011721Y034893D01*
X011705Y034943D01*
X011686Y034993D01*
X011664Y035040D01*
X011639Y035087D01*
X011611Y035131D01*
X011580Y035173D01*
X011546Y035214D01*
X011509Y035252D01*
X011471Y035287D01*
X011465Y035281D01*
X011503Y035245D01*
X011539Y035208D01*
X011573Y035168D01*
X011603Y035126D01*
X011631Y035082D01*
X011656Y035036D01*
X011678Y034989D01*
X011697Y034940D01*
X011712Y034891D01*
X011725Y034840D01*
X011733Y034789D01*
X011739Y034737D01*
X011741Y034685D01*
X011732Y034685D01*
X011730Y034741D01*
X011723Y034796D01*
X011713Y034851D01*
X011699Y034905D01*
X011681Y034958D01*
X011659Y035009D01*
X011634Y035059D01*
X011605Y035107D01*
X011573Y035152D01*
X011538Y035195D01*
X011500Y035236D01*
X011459Y035274D01*
X011453Y035267D01*
X011494Y035230D01*
X011531Y035189D01*
X011566Y035147D01*
X011598Y035102D01*
X011626Y035054D01*
X011651Y035005D01*
X011673Y034954D01*
X011690Y034902D01*
X011704Y034849D01*
X011714Y034795D01*
X011721Y034740D01*
X011723Y034685D01*
X011714Y034685D01*
X011712Y034739D01*
X011706Y034793D01*
X011696Y034847D01*
X011682Y034900D01*
X011664Y034951D01*
X011643Y035001D01*
X011618Y035050D01*
X011590Y035097D01*
X011559Y035141D01*
X011525Y035183D01*
X011487Y035223D01*
X011447Y035260D01*
X010470Y026632D02*
X010470Y026532D01*
X010395Y026607D01*
X010545Y026607D01*
X010520Y026485D02*
X010395Y026485D01*
X010395Y026385D02*
X010520Y026385D01*
X010545Y026410D01*
X010545Y026460D01*
X010520Y026485D01*
X008355Y026490D02*
X008205Y026490D01*
X008205Y026590D01*
X008255Y026638D02*
X008205Y026688D01*
X008355Y026688D01*
X008355Y026638D02*
X008355Y026738D01*
X008280Y026540D02*
X008280Y026490D01*
X018230Y013638D02*
X018205Y013613D01*
X018205Y013538D01*
X018355Y013538D01*
X018355Y013613D01*
X018330Y013638D01*
X018230Y013638D01*
X018205Y013490D02*
X018355Y013490D01*
X018205Y013390D01*
X018355Y013390D01*
X018330Y013343D02*
X018280Y013343D01*
X018280Y013293D01*
X018330Y013243D02*
X018355Y013268D01*
X018355Y013318D01*
X018330Y013343D01*
X018330Y013243D02*
X018230Y013243D01*
X018205Y013268D01*
X018205Y013318D01*
X018230Y013343D01*
X012755Y012874D02*
X012755Y012774D01*
X012755Y012824D02*
X012605Y012824D01*
X012655Y012774D01*
X012630Y012726D02*
X012605Y012726D01*
X012630Y012726D02*
X012680Y012676D01*
X012755Y012676D01*
X012680Y012676D02*
X012630Y012626D01*
X012605Y012626D01*
D15*
X009800Y018205D02*
X009875Y018280D01*
X009875Y018355D01*
X009800Y018430D01*
X009425Y018430D01*
X009425Y018355D02*
X009425Y018505D01*
X009575Y018665D02*
X009425Y018816D01*
X009875Y018816D01*
X009875Y018966D02*
X009875Y018665D01*
X011575Y022703D02*
X011575Y022928D01*
X011650Y023003D01*
X011800Y023003D01*
X011875Y022928D01*
X011875Y022703D01*
X012025Y022703D02*
X011575Y022703D01*
X011875Y022853D02*
X012025Y023003D01*
X012025Y023163D02*
X012025Y023464D01*
X011950Y023624D02*
X012025Y023699D01*
X012025Y023849D01*
X011950Y023924D01*
X011875Y023924D01*
X011800Y023849D01*
X011800Y023699D01*
X011725Y023624D01*
X011650Y023624D01*
X011575Y023699D01*
X011575Y023849D01*
X011650Y023924D01*
X011575Y024084D02*
X012025Y024084D01*
X012025Y024384D01*
X011800Y024234D02*
X011800Y024084D01*
X011575Y024084D02*
X011575Y024384D01*
X011575Y024545D02*
X011575Y024845D01*
X011575Y024695D02*
X012025Y024695D01*
X011575Y023464D02*
X011575Y023163D01*
X012025Y023163D01*
X011800Y023163D02*
X011800Y023314D01*
X006920Y025940D02*
X006920Y030680D01*
X000500Y030680D01*
X000500Y025940D01*
X006920Y025940D01*
X006275Y035455D02*
X005825Y035455D01*
X005825Y035680D01*
X005900Y035755D01*
X006050Y035755D01*
X006125Y035680D01*
X006125Y035455D01*
X006125Y035605D02*
X006275Y035755D01*
X006275Y035915D02*
X005825Y036216D01*
X005825Y035915D02*
X006275Y036216D01*
X008075Y036216D02*
X008525Y035915D01*
X008525Y036216D02*
X008075Y035915D01*
X008075Y035755D02*
X008075Y035455D01*
X008075Y035605D02*
X008525Y035605D01*
X010325Y035680D02*
X010400Y035755D01*
X010550Y035755D01*
X010625Y035680D01*
X010625Y035455D01*
X010775Y035455D02*
X010325Y035455D01*
X010325Y035680D01*
X010400Y035915D02*
X010700Y035915D01*
X010775Y035990D01*
X010775Y036141D01*
X010700Y036216D01*
X010400Y036216D01*
X010325Y036141D01*
X010325Y035990D01*
X010400Y035915D01*
X010325Y036376D02*
X010775Y036376D01*
X010625Y036526D01*
X010775Y036676D01*
X010325Y036676D01*
X010325Y036836D02*
X010775Y036836D01*
X010775Y037136D01*
X010775Y037297D02*
X010325Y037297D01*
X010325Y037522D01*
X010400Y037597D01*
X010550Y037597D01*
X010625Y037522D01*
X010625Y037297D01*
X010625Y037447D02*
X010775Y037597D01*
X010325Y037136D02*
X010325Y036836D01*
X010550Y036836D02*
X010550Y036986D01*
X004025Y036986D02*
X003575Y036986D01*
X003575Y036836D02*
X003575Y037136D01*
X003575Y037297D02*
X003950Y037297D01*
X004025Y037372D01*
X004025Y037522D01*
X003950Y037597D01*
X003575Y037597D01*
X003650Y037757D02*
X003725Y037757D01*
X003800Y037832D01*
X003800Y037982D01*
X003875Y038057D01*
X003950Y038057D01*
X004025Y037982D01*
X004025Y037832D01*
X003950Y037757D01*
X003650Y037757D02*
X003575Y037832D01*
X003575Y037982D01*
X003650Y038057D01*
X003725Y036676D02*
X004025Y036676D01*
X003800Y036676D02*
X003800Y036376D01*
X003725Y036376D02*
X003575Y036526D01*
X003725Y036676D01*
X003725Y036376D02*
X004025Y036376D01*
X004025Y036066D02*
X003575Y036066D01*
X003575Y036216D02*
X003575Y035915D01*
X003650Y035755D02*
X003575Y035680D01*
X003575Y035530D01*
X003650Y035455D01*
X003725Y035455D01*
X003800Y035530D01*
X003800Y035680D01*
X003875Y035755D01*
X003950Y035755D01*
X004025Y035680D01*
X004025Y035530D01*
X003950Y035455D01*
D16*
X004720Y033047D02*
X004796Y033047D01*
X005103Y032740D01*
X005180Y032740D01*
X005180Y032586D02*
X005027Y032433D01*
X005027Y032509D02*
X005027Y032279D01*
X005180Y032279D02*
X004720Y032279D01*
X004720Y032509D01*
X004796Y032586D01*
X004950Y032586D01*
X005027Y032509D01*
X004720Y032740D02*
X004720Y033047D01*
X006970Y032970D02*
X006970Y032816D01*
X007046Y032740D01*
X007046Y032586D02*
X007200Y032586D01*
X007277Y032509D01*
X007277Y032279D01*
X007430Y032279D02*
X006970Y032279D01*
X006970Y032509D01*
X007046Y032586D01*
X007277Y032433D02*
X007430Y032586D01*
X007430Y032740D02*
X007123Y033047D01*
X007046Y033047D01*
X006970Y032970D01*
X007430Y033047D02*
X007430Y032740D01*
X009220Y032893D02*
X009680Y032893D01*
X009680Y032740D02*
X009680Y033047D01*
X009373Y032740D02*
X009220Y032893D01*
X009296Y032586D02*
X009450Y032586D01*
X009527Y032509D01*
X009527Y032279D01*
X009680Y032279D02*
X009220Y032279D01*
X009220Y032509D01*
X009296Y032586D01*
X009527Y032433D02*
X009680Y032586D01*
X011470Y032509D02*
X011546Y032586D01*
X011700Y032586D01*
X011777Y032509D01*
X011777Y032279D01*
X011930Y032279D02*
X011470Y032279D01*
X011470Y032509D01*
X011777Y032433D02*
X011930Y032586D01*
X011853Y032740D02*
X011930Y032816D01*
X011930Y032970D01*
X011853Y033047D01*
X011777Y033047D01*
X011700Y032970D01*
X011700Y032740D01*
X011853Y032740D01*
X011700Y032740D02*
X011546Y032893D01*
X011470Y033047D01*
X008994Y029259D02*
X008994Y028952D01*
X008994Y029105D02*
X008534Y029105D01*
X008687Y028952D01*
X008611Y028798D02*
X008534Y028722D01*
X008534Y028568D01*
X008611Y028492D01*
X008918Y028492D01*
X008994Y028568D01*
X008994Y028722D01*
X008918Y028798D01*
X007213Y023767D02*
X007290Y023691D01*
X007290Y023537D01*
X007213Y023460D01*
X007290Y023307D02*
X007137Y023153D01*
X007137Y023230D02*
X007137Y023000D01*
X007290Y023000D02*
X006830Y023000D01*
X006830Y023230D01*
X006906Y023307D01*
X007060Y023307D01*
X007137Y023230D01*
X006906Y023460D02*
X006830Y023537D01*
X006830Y023691D01*
X006906Y023767D01*
X006983Y023767D01*
X007060Y023691D01*
X007137Y023767D01*
X007213Y023767D01*
X007060Y023691D02*
X007060Y023614D01*
X014562Y024306D02*
X014639Y024229D01*
X014946Y024229D01*
X015023Y024306D01*
X015023Y024459D01*
X014946Y024536D01*
X014792Y024690D02*
X014792Y024997D01*
X014562Y024920D02*
X015023Y024920D01*
X014792Y024690D02*
X014562Y024920D01*
X014639Y024536D02*
X014562Y024459D01*
X014562Y024306D01*
X019820Y021320D02*
X019820Y021166D01*
X019896Y021090D01*
X019973Y021090D01*
X020050Y021166D01*
X020050Y021320D01*
X020127Y021397D01*
X020203Y021397D01*
X020280Y021320D01*
X020280Y021166D01*
X020203Y021090D01*
X020127Y021090D01*
X020050Y021166D01*
X020050Y021320D02*
X019973Y021397D01*
X019896Y021397D01*
X019820Y021320D01*
X019896Y020936D02*
X020050Y020936D01*
X020127Y020859D01*
X020127Y020629D01*
X020280Y020629D02*
X019820Y020629D01*
X019820Y020859D01*
X019896Y020936D01*
X020127Y020783D02*
X020280Y020936D01*
X020203Y019297D02*
X019896Y019297D01*
X019820Y019220D01*
X019820Y019066D01*
X019896Y018990D01*
X019973Y018990D01*
X020050Y019066D01*
X020050Y019297D01*
X020203Y019297D02*
X020280Y019220D01*
X020280Y019066D01*
X020203Y018990D01*
X020280Y018836D02*
X020127Y018683D01*
X020127Y018759D02*
X020127Y018529D01*
X020280Y018529D02*
X019820Y018529D01*
X019820Y018759D01*
X019896Y018836D01*
X020050Y018836D01*
X020127Y018759D01*
X020945Y017617D02*
X020945Y017310D01*
X021175Y017310D01*
X021098Y017464D01*
X021098Y017541D01*
X021175Y017617D01*
X021328Y017617D01*
X021405Y017541D01*
X021405Y017387D01*
X021328Y017310D01*
X021328Y017157D02*
X021405Y017080D01*
X021405Y016927D01*
X021328Y016850D01*
X021021Y016850D01*
X020945Y016927D01*
X020945Y017080D01*
X021021Y017157D01*
X019930Y016101D02*
X019930Y015948D01*
X019853Y015871D01*
X019777Y015871D01*
X019700Y015948D01*
X019700Y016101D01*
X019777Y016178D01*
X019853Y016178D01*
X019930Y016101D01*
X019700Y016101D02*
X019623Y016178D01*
X019546Y016178D01*
X019470Y016101D01*
X019470Y015948D01*
X019546Y015871D01*
X019623Y015871D01*
X019700Y015948D01*
X019623Y015717D02*
X019546Y015717D01*
X019470Y015641D01*
X019470Y015487D01*
X019546Y015410D01*
X019546Y015257D02*
X019470Y015180D01*
X019470Y015027D01*
X019546Y014950D01*
X019853Y014950D01*
X019930Y015027D01*
X019930Y015180D01*
X019853Y015257D01*
X019930Y015410D02*
X019623Y015717D01*
X019930Y015717D02*
X019930Y015410D01*
X016780Y016877D02*
X016780Y017030D01*
X016703Y017107D01*
X016703Y017260D02*
X016627Y017260D01*
X016550Y017337D01*
X016550Y017491D01*
X016627Y017567D01*
X016703Y017567D01*
X016780Y017491D01*
X016780Y017337D01*
X016703Y017260D01*
X016550Y017337D02*
X016473Y017260D01*
X016396Y017260D01*
X016320Y017337D01*
X016320Y017491D01*
X016396Y017567D01*
X016473Y017567D01*
X016550Y017491D01*
X016396Y017107D02*
X016320Y017030D01*
X016320Y016877D01*
X016396Y016800D01*
X016703Y016800D01*
X016780Y016877D01*
X011030Y014991D02*
X011030Y014837D01*
X010953Y014760D01*
X010800Y014760D01*
X010800Y014991D01*
X010877Y015067D01*
X010953Y015067D01*
X011030Y014991D01*
X010800Y014760D02*
X010646Y014914D01*
X010570Y015067D01*
X010646Y014607D02*
X010570Y014530D01*
X010570Y014377D01*
X010646Y014300D01*
X010953Y014300D01*
X011030Y014377D01*
X011030Y014530D01*
X010953Y014607D01*
X010798Y011585D02*
X010645Y011585D01*
X010568Y011509D01*
X010414Y011509D02*
X010338Y011585D01*
X010184Y011585D01*
X010108Y011509D01*
X010108Y011202D01*
X010184Y011125D01*
X010338Y011125D01*
X010414Y011202D01*
X010568Y011125D02*
X010875Y011432D01*
X010875Y011509D01*
X010798Y011585D01*
X010875Y011125D02*
X010568Y011125D01*
X008513Y009515D02*
X008513Y009208D01*
X008206Y009515D01*
X008129Y009515D01*
X008052Y009438D01*
X008052Y009285D01*
X008129Y009208D01*
X008052Y008901D02*
X008513Y008901D01*
X008513Y008748D02*
X008513Y009055D01*
X008206Y008748D02*
X008052Y008901D01*
X008129Y008594D02*
X008282Y008594D01*
X008359Y008518D01*
X008359Y008288D01*
X008359Y008441D02*
X008513Y008594D01*
X008513Y008288D02*
X008052Y008288D01*
X008052Y008518D01*
X008129Y008594D01*
X016893Y007952D02*
X016893Y007645D01*
X016970Y007568D01*
X017123Y007568D01*
X017200Y007645D01*
X017353Y007568D02*
X017660Y007875D01*
X017660Y007952D01*
X017584Y008029D01*
X017430Y008029D01*
X017353Y007952D01*
X017200Y007952D02*
X017123Y008029D01*
X016970Y008029D01*
X016893Y007952D01*
X017353Y007568D02*
X017660Y007568D01*
X017814Y007645D02*
X017891Y007568D01*
X018044Y007568D01*
X018121Y007645D01*
X018121Y007952D01*
X018044Y008029D01*
X017891Y008029D01*
X017814Y007952D01*
X017814Y007875D01*
X017891Y007799D01*
X018121Y007799D01*
X022095Y009043D02*
X022171Y008967D01*
X022478Y008967D01*
X022555Y009043D01*
X022555Y009197D01*
X022478Y009274D01*
X022478Y009427D02*
X022555Y009427D01*
X022478Y009427D02*
X022171Y009734D01*
X022095Y009734D01*
X022095Y009427D01*
X022171Y009274D02*
X022095Y009197D01*
X022095Y009043D01*
X027530Y009150D02*
X027606Y009073D01*
X027913Y009073D01*
X027990Y009150D01*
X027990Y009304D01*
X027913Y009380D01*
X027990Y009534D02*
X027530Y009534D01*
X027990Y009841D01*
X027530Y009841D01*
X027683Y009994D02*
X027530Y010148D01*
X027990Y010148D01*
X027990Y010301D02*
X027990Y009994D01*
X028451Y010440D02*
X028569Y010440D01*
X028549Y010820D02*
X028431Y010820D01*
X027970Y010750D02*
X027970Y010904D01*
X027893Y010980D01*
X027970Y011134D02*
X027510Y011134D01*
X027970Y011441D01*
X027510Y011441D01*
X027586Y011594D02*
X027510Y011671D01*
X027510Y011824D01*
X027586Y011901D01*
X027663Y011901D01*
X027970Y011594D01*
X027970Y011901D01*
X027853Y012273D02*
X027546Y012273D01*
X027470Y012350D01*
X027470Y012504D01*
X027546Y012580D01*
X027470Y012734D02*
X027930Y013041D01*
X027470Y013041D01*
X027546Y013194D02*
X027470Y013271D01*
X027470Y013424D01*
X027546Y013501D01*
X027623Y013501D01*
X027700Y013424D01*
X027777Y013501D01*
X027853Y013501D01*
X027930Y013424D01*
X027930Y013271D01*
X027853Y013194D01*
X027700Y013348D02*
X027700Y013424D01*
X027793Y013873D02*
X027486Y013873D01*
X027410Y013950D01*
X027410Y014104D01*
X027486Y014180D01*
X027410Y014334D02*
X027870Y014641D01*
X027410Y014641D01*
X027640Y014794D02*
X027640Y015101D01*
X027870Y015024D02*
X027410Y015024D01*
X027640Y014794D01*
X027870Y014334D02*
X027410Y014334D01*
X027793Y014180D02*
X027870Y014104D01*
X027870Y013950D01*
X027793Y013873D01*
X028331Y014020D02*
X028449Y014020D01*
X028391Y013640D02*
X028509Y013640D01*
X027930Y012734D02*
X027470Y012734D01*
X027853Y012580D02*
X027930Y012504D01*
X027930Y012350D01*
X027853Y012273D01*
X028391Y012420D02*
X028509Y012420D01*
X028549Y012040D02*
X028431Y012040D01*
X027586Y010980D02*
X027510Y010904D01*
X027510Y010750D01*
X027586Y010673D01*
X027893Y010673D01*
X027970Y010750D01*
X027606Y009380D02*
X027530Y009304D01*
X027530Y009150D01*
X028451Y009220D02*
X028569Y009220D01*
X028449Y015240D02*
X028331Y015240D01*
X032468Y028180D02*
X032391Y028257D01*
X032391Y028564D01*
X032468Y028640D01*
X032622Y028640D01*
X032698Y028564D01*
X032852Y028564D02*
X032928Y028640D01*
X033082Y028640D01*
X033159Y028564D01*
X033159Y028487D01*
X033082Y028410D01*
X033159Y028333D01*
X033159Y028257D01*
X033082Y028180D01*
X032928Y028180D01*
X032852Y028257D01*
X032698Y028257D02*
X032622Y028180D01*
X032468Y028180D01*
X033005Y028410D02*
X033082Y028410D01*
X033312Y028410D02*
X033466Y028487D01*
X033542Y028487D01*
X033619Y028410D01*
X033619Y028257D01*
X033542Y028180D01*
X033389Y028180D01*
X033312Y028257D01*
X033312Y028410D02*
X033312Y028640D01*
X033619Y028640D01*
X035235Y029757D02*
X035312Y029680D01*
X035465Y029680D01*
X035542Y029757D01*
X035695Y029757D02*
X035772Y029680D01*
X035926Y029680D01*
X036002Y029757D01*
X036002Y029833D01*
X035926Y029910D01*
X035849Y029910D01*
X035926Y029910D02*
X036002Y029987D01*
X036002Y030064D01*
X035926Y030140D01*
X035772Y030140D01*
X035695Y030064D01*
X035542Y030064D02*
X035465Y030140D01*
X035312Y030140D01*
X035235Y030064D01*
X035235Y029757D01*
X036156Y029680D02*
X036463Y029680D01*
X036309Y029680D02*
X036309Y030140D01*
X036156Y029987D01*
X030180Y031396D02*
X030180Y031549D01*
X030103Y031626D01*
X030103Y031779D02*
X030180Y031856D01*
X030180Y032009D01*
X030103Y032086D01*
X030027Y032086D01*
X029950Y032009D01*
X029950Y031933D01*
X029950Y032009D02*
X029873Y032086D01*
X029796Y032086D01*
X029720Y032009D01*
X029720Y031856D01*
X029796Y031779D01*
X029796Y031626D02*
X029720Y031549D01*
X029720Y031396D01*
X029796Y031319D01*
X030103Y031319D01*
X030180Y031396D01*
X030180Y032240D02*
X029873Y032547D01*
X029796Y032547D01*
X029720Y032470D01*
X029720Y032316D01*
X029796Y032240D01*
X030180Y032240D02*
X030180Y032547D01*
X028680Y033777D02*
X028680Y033930D01*
X028603Y034007D01*
X028603Y034160D02*
X028680Y034237D01*
X028680Y034391D01*
X028603Y034467D01*
X028527Y034467D01*
X028450Y034391D01*
X028450Y034314D01*
X028450Y034391D02*
X028373Y034467D01*
X028296Y034467D01*
X028220Y034391D01*
X028220Y034237D01*
X028296Y034160D01*
X028296Y034007D02*
X028220Y033930D01*
X028220Y033777D01*
X028296Y033700D01*
X028603Y033700D01*
X028680Y033777D01*
X028450Y034621D02*
X028450Y034928D01*
X028680Y034851D02*
X028220Y034851D01*
X028450Y034621D01*
D17*
X012202Y029927D02*
X012202Y025833D01*
X009898Y025833D01*
X009898Y029927D01*
X012202Y029927D01*
X011637Y026217D02*
X011639Y026243D01*
X011645Y026269D01*
X011654Y026294D01*
X011667Y026317D01*
X011683Y026338D01*
X011702Y026356D01*
X011724Y026372D01*
X011747Y026384D01*
X011772Y026392D01*
X011798Y026397D01*
X011825Y026398D01*
X011851Y026395D01*
X011876Y026388D01*
X011901Y026378D01*
X011923Y026364D01*
X011944Y026347D01*
X011961Y026328D01*
X011976Y026306D01*
X011987Y026282D01*
X011995Y026256D01*
X011999Y026230D01*
X011999Y026204D01*
X011995Y026178D01*
X011987Y026152D01*
X011976Y026128D01*
X011961Y026106D01*
X011944Y026087D01*
X011923Y026070D01*
X011901Y026056D01*
X011876Y026046D01*
X011851Y026039D01*
X011825Y026036D01*
X011798Y026037D01*
X011772Y026042D01*
X011747Y026050D01*
X011724Y026062D01*
X011702Y026078D01*
X011683Y026096D01*
X011667Y026117D01*
X011654Y026140D01*
X011645Y026165D01*
X011639Y026191D01*
X011637Y026217D01*
X010500Y024980D02*
X010400Y024980D01*
X010400Y025080D01*
X009800Y025080D01*
X009800Y024980D01*
X009700Y024980D01*
X008900Y024630D02*
X008900Y024280D01*
X008900Y023330D01*
X008900Y022930D01*
X009700Y022580D02*
X009800Y022580D01*
X009800Y022480D01*
X010400Y022480D01*
X010400Y022580D01*
X010500Y022580D01*
X011300Y022930D02*
X011300Y023280D01*
X011300Y024280D01*
X011300Y024630D01*
X010000Y023780D02*
X010002Y023800D01*
X010008Y023818D01*
X010017Y023836D01*
X010029Y023851D01*
X010044Y023863D01*
X010062Y023872D01*
X010080Y023878D01*
X010100Y023880D01*
X010120Y023878D01*
X010138Y023872D01*
X010156Y023863D01*
X010171Y023851D01*
X010183Y023836D01*
X010192Y023818D01*
X010198Y023800D01*
X010200Y023780D01*
X010198Y023760D01*
X010192Y023742D01*
X010183Y023724D01*
X010171Y023709D01*
X010156Y023697D01*
X010138Y023688D01*
X010120Y023682D01*
X010100Y023680D01*
X010080Y023682D01*
X010062Y023688D01*
X010044Y023697D01*
X010029Y023709D01*
X010017Y023724D01*
X010008Y023742D01*
X010002Y023760D01*
X010000Y023780D01*
X009400Y023780D02*
X009402Y023832D01*
X009408Y023884D01*
X009418Y023936D01*
X009431Y023986D01*
X009448Y024036D01*
X009469Y024084D01*
X009494Y024130D01*
X009522Y024174D01*
X009553Y024216D01*
X009587Y024256D01*
X009624Y024293D01*
X009664Y024327D01*
X009706Y024358D01*
X009750Y024386D01*
X009796Y024411D01*
X009844Y024432D01*
X009894Y024449D01*
X009944Y024462D01*
X009996Y024472D01*
X010048Y024478D01*
X010100Y024480D01*
X010152Y024478D01*
X010204Y024472D01*
X010256Y024462D01*
X010306Y024449D01*
X010356Y024432D01*
X010404Y024411D01*
X010450Y024386D01*
X010494Y024358D01*
X010536Y024327D01*
X010576Y024293D01*
X010613Y024256D01*
X010647Y024216D01*
X010678Y024174D01*
X010706Y024130D01*
X010731Y024084D01*
X010752Y024036D01*
X010769Y023986D01*
X010782Y023936D01*
X010792Y023884D01*
X010798Y023832D01*
X010800Y023780D01*
X010798Y023728D01*
X010792Y023676D01*
X010782Y023624D01*
X010769Y023574D01*
X010752Y023524D01*
X010731Y023476D01*
X010706Y023430D01*
X010678Y023386D01*
X010647Y023344D01*
X010613Y023304D01*
X010576Y023267D01*
X010536Y023233D01*
X010494Y023202D01*
X010450Y023174D01*
X010404Y023149D01*
X010356Y023128D01*
X010306Y023111D01*
X010256Y023098D01*
X010204Y023088D01*
X010152Y023082D01*
X010100Y023080D01*
X010048Y023082D01*
X009996Y023088D01*
X009944Y023098D01*
X009894Y023111D01*
X009844Y023128D01*
X009796Y023149D01*
X009750Y023174D01*
X009706Y023202D01*
X009664Y023233D01*
X009624Y023267D01*
X009587Y023304D01*
X009553Y023344D01*
X009522Y023386D01*
X009494Y023430D01*
X009469Y023476D01*
X009448Y023524D01*
X009431Y023574D01*
X009418Y023624D01*
X009408Y023676D01*
X009402Y023728D01*
X009400Y023780D01*
X009303Y012838D02*
X009183Y012838D01*
X009183Y012398D01*
X009303Y012398D01*
X009303Y012838D01*
X009043Y012838D02*
X009043Y012398D01*
X008923Y012398D01*
X008923Y012838D01*
X009043Y012838D01*
X008803Y012838D02*
X008673Y012838D01*
X008683Y012398D01*
X008803Y012398D01*
X008803Y012838D01*
X008543Y012838D02*
X008543Y012398D01*
X008423Y012398D01*
X008423Y012838D01*
X008543Y012838D01*
X008303Y012838D02*
X008303Y012398D01*
X008183Y012398D01*
X008173Y012838D01*
X008303Y012838D01*
X008043Y012838D02*
X007923Y012838D01*
X007923Y012398D01*
X008043Y012398D01*
X008043Y012838D01*
X007793Y012838D02*
X007803Y012398D01*
X007683Y012398D01*
X007673Y012838D01*
X007793Y012838D01*
X007543Y012838D02*
X007423Y012838D01*
X007423Y012398D01*
X007543Y012398D01*
X007543Y012838D01*
X007303Y012838D02*
X007303Y012398D01*
X007183Y012398D01*
X007173Y012838D01*
X007303Y012838D01*
X007043Y012838D02*
X007043Y012398D01*
X006923Y012398D01*
X006923Y012838D01*
X007043Y012838D01*
X006803Y012838D02*
X006683Y012838D01*
X006683Y012398D01*
X006803Y012398D01*
X006803Y012838D01*
X006543Y012838D02*
X006543Y012398D01*
X006423Y012398D01*
X006423Y012838D01*
X006543Y012838D01*
X006143Y012398D02*
X009583Y012398D01*
X009583Y011738D01*
X009583Y011498D01*
X009583Y010838D01*
X006143Y010838D01*
X006143Y012398D01*
X006423Y010838D02*
X006423Y010398D01*
X006543Y010398D01*
X006543Y010838D01*
X006423Y010838D01*
X006683Y010838D02*
X006683Y010398D01*
X006803Y010398D01*
X006803Y010838D01*
X006683Y010838D01*
X006923Y010838D02*
X006923Y010398D01*
X007053Y010398D01*
X007043Y010838D01*
X006923Y010838D01*
X007183Y010838D02*
X007183Y010398D01*
X007303Y010398D01*
X007303Y010838D01*
X007183Y010838D01*
X007423Y010838D02*
X007423Y010398D01*
X007553Y010398D01*
X007543Y010838D01*
X007423Y010838D01*
X007683Y010838D02*
X007683Y010398D01*
X007803Y010398D01*
X007803Y010838D01*
X007683Y010838D01*
X007923Y010838D02*
X007933Y010398D01*
X008053Y010398D01*
X008043Y010838D01*
X007923Y010838D01*
X008183Y010838D02*
X008183Y010398D01*
X008303Y010398D01*
X008303Y010838D01*
X008183Y010838D01*
X008423Y010838D02*
X008423Y010398D01*
X008553Y010398D01*
X008543Y010838D01*
X008423Y010838D01*
X008683Y010838D02*
X008683Y010398D01*
X008803Y010398D01*
X008803Y010838D01*
X008683Y010838D01*
X008923Y010838D02*
X008923Y010398D01*
X009043Y010398D01*
X009043Y010838D01*
X008923Y010838D01*
X009183Y010838D02*
X009183Y010398D01*
X009303Y010398D01*
X009303Y010838D01*
X009183Y010838D01*
D18*
X009000Y023330D02*
X008900Y023330D01*
X009000Y023330D02*
X009000Y024280D01*
X008900Y024280D01*
X011200Y024280D02*
X011200Y023280D01*
X011300Y023280D01*
X011300Y024280D02*
X011200Y024280D01*
D19*
X025700Y035180D03*
X025700Y037680D03*
D20*
X036463Y009080D03*
D21*
X038625Y009080D03*
D22*
X013900Y001880D03*
X009900Y001880D03*
D23*
X011900Y000880D03*
X011900Y002880D03*
D24*
X002363Y020118D03*
X002363Y024118D03*
D25*
X007456Y013193D02*
X007378Y013114D01*
X007378Y012958D01*
X007456Y012879D01*
X007848Y012879D01*
X007691Y012733D02*
X007848Y012576D01*
X007378Y012576D01*
X007378Y012733D02*
X007378Y012419D01*
X007456Y013193D02*
X007848Y013193D01*
X009166Y013203D02*
X009480Y012889D01*
X009480Y013046D02*
X009166Y013046D01*
X009166Y012889D02*
X009480Y013203D01*
X009323Y013203D02*
X009323Y012889D01*
M02*
