G75*
%MOIN*%
%OFA0B0*%
%FSLAX24Y24*%
%IPPOS*%
%LPD*%
%AMOC8*
5,1,8,0,0,1.08239X$1,22.5*
%
%ADD10C,0.0160*%
%ADD11C,0.0000*%
%ADD12C,0.2020*%
%ADD13R,0.0158X0.0631*%
%ADD14R,0.0631X0.0158*%
%ADD15OC8,0.0780*%
%ADD16R,0.0709X0.0316*%
%ADD17R,0.0827X0.0670*%
%ADD18R,0.0749X0.0670*%
%ADD19C,0.0780*%
%ADD20C,0.0640*%
%ADD21R,0.0590X0.0177*%
%ADD22OC8,0.0634*%
%ADD23C,0.1542*%
%ADD24R,0.0670X0.0749*%
%ADD25R,0.0749X0.0434*%
%ADD26R,0.0180X0.0670*%
%ADD27R,0.0355X0.0276*%
%ADD28R,0.0355X0.0237*%
D10*
X000400Y000180D02*
X039400Y000180D01*
X039400Y039180D01*
X000400Y039180D01*
X000400Y000180D01*
D11*
X001410Y002180D02*
X001412Y002243D01*
X001418Y002305D01*
X001428Y002367D01*
X001442Y002429D01*
X001459Y002489D01*
X001481Y002548D01*
X001506Y002605D01*
X001535Y002661D01*
X001567Y002715D01*
X001603Y002767D01*
X001642Y002816D01*
X001684Y002863D01*
X001728Y002907D01*
X001776Y002948D01*
X001826Y002986D01*
X001878Y003021D01*
X001932Y003053D01*
X001989Y003081D01*
X002047Y003105D01*
X002106Y003125D01*
X002167Y003142D01*
X002228Y003155D01*
X002290Y003164D01*
X002353Y003169D01*
X002416Y003170D01*
X002478Y003167D01*
X002541Y003160D01*
X002603Y003149D01*
X002664Y003134D01*
X002724Y003116D01*
X002782Y003093D01*
X002840Y003067D01*
X002895Y003037D01*
X002948Y003004D01*
X003000Y002968D01*
X003048Y002928D01*
X003094Y002886D01*
X003138Y002840D01*
X003178Y002792D01*
X003215Y002741D01*
X003249Y002689D01*
X003280Y002634D01*
X003307Y002577D01*
X003330Y002519D01*
X003350Y002459D01*
X003366Y002398D01*
X003378Y002336D01*
X003386Y002274D01*
X003390Y002211D01*
X003390Y002149D01*
X003386Y002086D01*
X003378Y002024D01*
X003366Y001962D01*
X003350Y001901D01*
X003330Y001841D01*
X003307Y001783D01*
X003280Y001726D01*
X003249Y001671D01*
X003215Y001619D01*
X003178Y001568D01*
X003138Y001520D01*
X003094Y001474D01*
X003048Y001432D01*
X003000Y001392D01*
X002948Y001356D01*
X002895Y001323D01*
X002840Y001293D01*
X002782Y001267D01*
X002724Y001244D01*
X002664Y001226D01*
X002603Y001211D01*
X002541Y001200D01*
X002478Y001193D01*
X002416Y001190D01*
X002353Y001191D01*
X002290Y001196D01*
X002228Y001205D01*
X002167Y001218D01*
X002106Y001235D01*
X002047Y001255D01*
X001989Y001279D01*
X001932Y001307D01*
X001878Y001339D01*
X001826Y001374D01*
X001776Y001412D01*
X001728Y001453D01*
X001684Y001497D01*
X001642Y001544D01*
X001603Y001593D01*
X001567Y001645D01*
X001535Y001699D01*
X001506Y001755D01*
X001481Y001812D01*
X001459Y001871D01*
X001442Y001931D01*
X001428Y001993D01*
X001418Y002055D01*
X001412Y002117D01*
X001410Y002180D01*
X001410Y037180D02*
X001412Y037243D01*
X001418Y037305D01*
X001428Y037367D01*
X001442Y037429D01*
X001459Y037489D01*
X001481Y037548D01*
X001506Y037605D01*
X001535Y037661D01*
X001567Y037715D01*
X001603Y037767D01*
X001642Y037816D01*
X001684Y037863D01*
X001728Y037907D01*
X001776Y037948D01*
X001826Y037986D01*
X001878Y038021D01*
X001932Y038053D01*
X001989Y038081D01*
X002047Y038105D01*
X002106Y038125D01*
X002167Y038142D01*
X002228Y038155D01*
X002290Y038164D01*
X002353Y038169D01*
X002416Y038170D01*
X002478Y038167D01*
X002541Y038160D01*
X002603Y038149D01*
X002664Y038134D01*
X002724Y038116D01*
X002782Y038093D01*
X002840Y038067D01*
X002895Y038037D01*
X002948Y038004D01*
X003000Y037968D01*
X003048Y037928D01*
X003094Y037886D01*
X003138Y037840D01*
X003178Y037792D01*
X003215Y037741D01*
X003249Y037689D01*
X003280Y037634D01*
X003307Y037577D01*
X003330Y037519D01*
X003350Y037459D01*
X003366Y037398D01*
X003378Y037336D01*
X003386Y037274D01*
X003390Y037211D01*
X003390Y037149D01*
X003386Y037086D01*
X003378Y037024D01*
X003366Y036962D01*
X003350Y036901D01*
X003330Y036841D01*
X003307Y036783D01*
X003280Y036726D01*
X003249Y036671D01*
X003215Y036619D01*
X003178Y036568D01*
X003138Y036520D01*
X003094Y036474D01*
X003048Y036432D01*
X003000Y036392D01*
X002948Y036356D01*
X002895Y036323D01*
X002840Y036293D01*
X002782Y036267D01*
X002724Y036244D01*
X002664Y036226D01*
X002603Y036211D01*
X002541Y036200D01*
X002478Y036193D01*
X002416Y036190D01*
X002353Y036191D01*
X002290Y036196D01*
X002228Y036205D01*
X002167Y036218D01*
X002106Y036235D01*
X002047Y036255D01*
X001989Y036279D01*
X001932Y036307D01*
X001878Y036339D01*
X001826Y036374D01*
X001776Y036412D01*
X001728Y036453D01*
X001684Y036497D01*
X001642Y036544D01*
X001603Y036593D01*
X001567Y036645D01*
X001535Y036699D01*
X001506Y036755D01*
X001481Y036812D01*
X001459Y036871D01*
X001442Y036931D01*
X001428Y036993D01*
X001418Y037055D01*
X001412Y037117D01*
X001410Y037180D01*
X036410Y037180D02*
X036412Y037243D01*
X036418Y037305D01*
X036428Y037367D01*
X036442Y037429D01*
X036459Y037489D01*
X036481Y037548D01*
X036506Y037605D01*
X036535Y037661D01*
X036567Y037715D01*
X036603Y037767D01*
X036642Y037816D01*
X036684Y037863D01*
X036728Y037907D01*
X036776Y037948D01*
X036826Y037986D01*
X036878Y038021D01*
X036932Y038053D01*
X036989Y038081D01*
X037047Y038105D01*
X037106Y038125D01*
X037167Y038142D01*
X037228Y038155D01*
X037290Y038164D01*
X037353Y038169D01*
X037416Y038170D01*
X037478Y038167D01*
X037541Y038160D01*
X037603Y038149D01*
X037664Y038134D01*
X037724Y038116D01*
X037782Y038093D01*
X037840Y038067D01*
X037895Y038037D01*
X037948Y038004D01*
X038000Y037968D01*
X038048Y037928D01*
X038094Y037886D01*
X038138Y037840D01*
X038178Y037792D01*
X038215Y037741D01*
X038249Y037689D01*
X038280Y037634D01*
X038307Y037577D01*
X038330Y037519D01*
X038350Y037459D01*
X038366Y037398D01*
X038378Y037336D01*
X038386Y037274D01*
X038390Y037211D01*
X038390Y037149D01*
X038386Y037086D01*
X038378Y037024D01*
X038366Y036962D01*
X038350Y036901D01*
X038330Y036841D01*
X038307Y036783D01*
X038280Y036726D01*
X038249Y036671D01*
X038215Y036619D01*
X038178Y036568D01*
X038138Y036520D01*
X038094Y036474D01*
X038048Y036432D01*
X038000Y036392D01*
X037948Y036356D01*
X037895Y036323D01*
X037840Y036293D01*
X037782Y036267D01*
X037724Y036244D01*
X037664Y036226D01*
X037603Y036211D01*
X037541Y036200D01*
X037478Y036193D01*
X037416Y036190D01*
X037353Y036191D01*
X037290Y036196D01*
X037228Y036205D01*
X037167Y036218D01*
X037106Y036235D01*
X037047Y036255D01*
X036989Y036279D01*
X036932Y036307D01*
X036878Y036339D01*
X036826Y036374D01*
X036776Y036412D01*
X036728Y036453D01*
X036684Y036497D01*
X036642Y036544D01*
X036603Y036593D01*
X036567Y036645D01*
X036535Y036699D01*
X036506Y036755D01*
X036481Y036812D01*
X036459Y036871D01*
X036442Y036931D01*
X036428Y036993D01*
X036418Y037055D01*
X036412Y037117D01*
X036410Y037180D01*
X036410Y002180D02*
X036412Y002243D01*
X036418Y002305D01*
X036428Y002367D01*
X036442Y002429D01*
X036459Y002489D01*
X036481Y002548D01*
X036506Y002605D01*
X036535Y002661D01*
X036567Y002715D01*
X036603Y002767D01*
X036642Y002816D01*
X036684Y002863D01*
X036728Y002907D01*
X036776Y002948D01*
X036826Y002986D01*
X036878Y003021D01*
X036932Y003053D01*
X036989Y003081D01*
X037047Y003105D01*
X037106Y003125D01*
X037167Y003142D01*
X037228Y003155D01*
X037290Y003164D01*
X037353Y003169D01*
X037416Y003170D01*
X037478Y003167D01*
X037541Y003160D01*
X037603Y003149D01*
X037664Y003134D01*
X037724Y003116D01*
X037782Y003093D01*
X037840Y003067D01*
X037895Y003037D01*
X037948Y003004D01*
X038000Y002968D01*
X038048Y002928D01*
X038094Y002886D01*
X038138Y002840D01*
X038178Y002792D01*
X038215Y002741D01*
X038249Y002689D01*
X038280Y002634D01*
X038307Y002577D01*
X038330Y002519D01*
X038350Y002459D01*
X038366Y002398D01*
X038378Y002336D01*
X038386Y002274D01*
X038390Y002211D01*
X038390Y002149D01*
X038386Y002086D01*
X038378Y002024D01*
X038366Y001962D01*
X038350Y001901D01*
X038330Y001841D01*
X038307Y001783D01*
X038280Y001726D01*
X038249Y001671D01*
X038215Y001619D01*
X038178Y001568D01*
X038138Y001520D01*
X038094Y001474D01*
X038048Y001432D01*
X038000Y001392D01*
X037948Y001356D01*
X037895Y001323D01*
X037840Y001293D01*
X037782Y001267D01*
X037724Y001244D01*
X037664Y001226D01*
X037603Y001211D01*
X037541Y001200D01*
X037478Y001193D01*
X037416Y001190D01*
X037353Y001191D01*
X037290Y001196D01*
X037228Y001205D01*
X037167Y001218D01*
X037106Y001235D01*
X037047Y001255D01*
X036989Y001279D01*
X036932Y001307D01*
X036878Y001339D01*
X036826Y001374D01*
X036776Y001412D01*
X036728Y001453D01*
X036684Y001497D01*
X036642Y001544D01*
X036603Y001593D01*
X036567Y001645D01*
X036535Y001699D01*
X036506Y001755D01*
X036481Y001812D01*
X036459Y001871D01*
X036442Y001931D01*
X036428Y001993D01*
X036418Y002055D01*
X036412Y002117D01*
X036410Y002180D01*
D12*
X037400Y002180D03*
X002400Y002180D03*
X002400Y037180D03*
X037400Y037180D03*
D13*
X019062Y014830D03*
X018865Y014830D03*
X018669Y014830D03*
X018472Y014830D03*
X018275Y014830D03*
X018078Y014830D03*
X017881Y014830D03*
X017684Y014830D03*
X017487Y014830D03*
X017291Y014830D03*
X017094Y014830D03*
X016897Y014830D03*
X016700Y014830D03*
X016503Y014830D03*
X016306Y014830D03*
X016109Y014830D03*
X015913Y014830D03*
X015716Y014830D03*
X015519Y014830D03*
X015322Y014830D03*
X015125Y014830D03*
X014928Y014830D03*
X014731Y014830D03*
X014535Y014830D03*
X014338Y014830D03*
X014338Y008530D03*
X014535Y008530D03*
X014731Y008530D03*
X014928Y008530D03*
X015125Y008530D03*
X015322Y008530D03*
X015519Y008530D03*
X015716Y008530D03*
X015913Y008530D03*
X016109Y008530D03*
X016306Y008530D03*
X016503Y008530D03*
X016700Y008530D03*
X016897Y008530D03*
X017094Y008530D03*
X017291Y008530D03*
X017487Y008530D03*
X017684Y008530D03*
X017881Y008530D03*
X018078Y008530D03*
X018275Y008530D03*
X018472Y008530D03*
X018669Y008530D03*
X018865Y008530D03*
X019062Y008530D03*
D14*
X019850Y009318D03*
X019850Y009515D03*
X019850Y009711D03*
X019850Y009908D03*
X019850Y010105D03*
X019850Y010302D03*
X019850Y010499D03*
X019850Y010696D03*
X019850Y010893D03*
X019850Y011089D03*
X019850Y011286D03*
X019850Y011483D03*
X019850Y011680D03*
X019850Y011877D03*
X019850Y012074D03*
X019850Y012271D03*
X019850Y012467D03*
X019850Y012664D03*
X019850Y012861D03*
X019850Y013058D03*
X019850Y013255D03*
X019850Y013452D03*
X019850Y013649D03*
X019850Y013845D03*
X019850Y014042D03*
X013550Y014042D03*
X013550Y013845D03*
X013550Y013649D03*
X013550Y013452D03*
X013550Y013255D03*
X013550Y013058D03*
X013550Y012861D03*
X013550Y012664D03*
X013550Y012467D03*
X013550Y012271D03*
X013550Y012074D03*
X013550Y011877D03*
X013550Y011680D03*
X013550Y011483D03*
X013550Y011286D03*
X013550Y011089D03*
X013550Y010893D03*
X013550Y010696D03*
X013550Y010499D03*
X013550Y010302D03*
X013550Y010105D03*
X013550Y009908D03*
X013550Y009711D03*
X013550Y009515D03*
X013550Y009318D03*
D15*
X014650Y004630D03*
X014650Y003630D03*
X015650Y003630D03*
X015650Y004630D03*
X016650Y004630D03*
X016650Y003630D03*
X017650Y003630D03*
X017650Y004630D03*
X018650Y004630D03*
X018650Y003630D03*
X019650Y003630D03*
X019650Y004630D03*
X020650Y004630D03*
X020650Y003630D03*
X021650Y003630D03*
X021650Y004630D03*
X022650Y004630D03*
X022650Y003630D03*
X023650Y003630D03*
X023650Y004630D03*
X024650Y004630D03*
X024650Y003630D03*
X025650Y003630D03*
X025650Y004630D03*
X026650Y004630D03*
X026650Y003630D03*
X027650Y003630D03*
X027650Y004630D03*
X028650Y004630D03*
X028650Y003630D03*
X029650Y003630D03*
X029650Y004630D03*
X033500Y011580D03*
X033500Y012580D03*
X033500Y013580D03*
X033500Y014580D03*
X033500Y015580D03*
X033500Y016580D03*
X033500Y017580D03*
X033500Y018580D03*
X033500Y019580D03*
X033500Y020580D03*
X033500Y021580D03*
X033500Y022580D03*
X033500Y023580D03*
X033500Y024580D03*
X033500Y025580D03*
X033500Y026580D03*
X034500Y026580D03*
X035500Y026580D03*
X035500Y025580D03*
X035500Y024580D03*
X034500Y024580D03*
X034500Y025580D03*
X034500Y023580D03*
X034500Y022580D03*
X035500Y022580D03*
X035500Y023580D03*
X035500Y021580D03*
X035500Y020580D03*
X034500Y020580D03*
X034500Y021580D03*
X034500Y019580D03*
X034500Y018580D03*
X035500Y018580D03*
X035500Y019580D03*
X035500Y017580D03*
X035500Y016580D03*
X034500Y016580D03*
X034500Y017580D03*
X034500Y015580D03*
X034500Y014580D03*
X035500Y014580D03*
X035500Y015580D03*
X035500Y013580D03*
X034500Y013580D03*
X034500Y012580D03*
X034500Y011580D03*
X035500Y011580D03*
X035500Y012580D03*
X023200Y032180D03*
X022200Y032180D03*
X022200Y033180D03*
X022200Y034180D03*
X023200Y034180D03*
X023200Y033180D03*
X021200Y033180D03*
X021200Y034180D03*
X020200Y034180D03*
X020200Y033180D03*
X020200Y032180D03*
X021200Y032180D03*
X019200Y032180D03*
X019200Y033180D03*
X019200Y034180D03*
X018200Y034180D03*
X018200Y033180D03*
X017200Y033180D03*
X017200Y034180D03*
X016200Y034180D03*
X016200Y033180D03*
X015200Y033180D03*
X015200Y034180D03*
X014200Y034180D03*
X014200Y033180D03*
X013200Y033180D03*
X013200Y034180D03*
X013200Y032180D03*
X014200Y032180D03*
X015200Y032180D03*
X016200Y032180D03*
X017200Y032180D03*
X018200Y032180D03*
X011650Y020680D03*
X011650Y019680D03*
X011650Y018680D03*
X010650Y018680D03*
X010650Y019680D03*
X010650Y020680D03*
X005363Y019118D03*
X005363Y018118D03*
X004363Y018118D03*
X004363Y019118D03*
X004363Y017118D03*
X005363Y017118D03*
X005363Y016118D03*
X005363Y015118D03*
X004363Y015118D03*
X004363Y016118D03*
X004363Y014118D03*
X005363Y014118D03*
X005363Y013118D03*
X004363Y013118D03*
X004363Y012118D03*
X005363Y012118D03*
X005363Y011118D03*
X004363Y011118D03*
X004363Y010118D03*
X005363Y010118D03*
X005363Y009118D03*
X004363Y009118D03*
X004363Y008118D03*
X005363Y008118D03*
X005363Y007118D03*
X004363Y007118D03*
X004363Y006118D03*
X005363Y006118D03*
X005363Y005118D03*
X004363Y005118D03*
X004363Y004118D03*
X005363Y004118D03*
D16*
X012100Y012093D03*
X012100Y012566D03*
X012100Y013038D03*
D17*
X009033Y009319D03*
X009033Y008216D03*
X019300Y018379D03*
X019300Y019481D03*
X019300Y020479D03*
X019300Y021581D03*
X010950Y032129D03*
X010950Y033231D03*
X008700Y033231D03*
X008700Y032129D03*
X006450Y032129D03*
X006450Y033231D03*
X004200Y033231D03*
X004200Y032129D03*
X007810Y024031D03*
X007810Y022929D03*
D18*
X008014Y028341D03*
X008014Y029444D03*
X014043Y025181D03*
X014043Y024079D03*
X017300Y017831D03*
X017300Y016729D03*
X020450Y015981D03*
X020450Y014879D03*
X021925Y016779D03*
X021925Y017881D03*
X021575Y009919D03*
X021575Y008816D03*
X011550Y014229D03*
X011550Y015331D03*
X029200Y031629D03*
X029200Y032731D03*
X029200Y033629D03*
X029200Y034731D03*
D19*
X010950Y035180D03*
X010950Y034180D03*
X008700Y034180D03*
X008700Y035180D03*
X006450Y035180D03*
X006450Y034180D03*
X004200Y034180D03*
X004200Y035180D03*
D20*
X009210Y025360D02*
X009210Y024760D01*
X010990Y024760D02*
X010990Y025360D01*
X010990Y022800D02*
X010990Y022200D01*
X009210Y022200D02*
X009210Y022800D01*
D21*
X009611Y026217D03*
X009611Y026473D03*
X009611Y026728D03*
X009611Y026984D03*
X009611Y027240D03*
X009611Y027496D03*
X009611Y027752D03*
X009611Y028008D03*
X009611Y028264D03*
X009611Y028520D03*
X009611Y028776D03*
X009611Y029032D03*
X009611Y029287D03*
X009611Y029543D03*
X012489Y029543D03*
X012489Y029287D03*
X012489Y029032D03*
X012489Y028776D03*
X012489Y028520D03*
X012489Y028264D03*
X012489Y028008D03*
X012489Y027752D03*
X012489Y027496D03*
X012489Y027240D03*
X012489Y026984D03*
X012489Y026728D03*
X012489Y026473D03*
X012489Y026217D03*
D22*
X006400Y027820D03*
X005620Y027820D03*
X005620Y028800D03*
X006400Y028800D03*
D23*
X005301Y030680D02*
X003799Y030680D01*
X003799Y025940D02*
X005301Y025940D01*
D24*
X010036Y010605D03*
X011139Y010605D03*
X016822Y007048D03*
X017924Y007048D03*
X032701Y029160D03*
X033804Y029160D03*
X035164Y029160D03*
X036266Y029160D03*
D25*
X007700Y026731D03*
X007700Y025629D03*
D26*
X007743Y012658D03*
X007983Y012658D03*
X008243Y012658D03*
X008483Y012658D03*
X008743Y012658D03*
X008983Y012658D03*
X009243Y012658D03*
X007483Y012658D03*
X007243Y012658D03*
X006983Y012658D03*
X006743Y012658D03*
X006483Y012658D03*
X006483Y010578D03*
X006743Y010578D03*
X006983Y010578D03*
X007243Y010578D03*
X007483Y010578D03*
X007743Y010578D03*
X007983Y010578D03*
X008243Y010578D03*
X008483Y010578D03*
X008743Y010578D03*
X008983Y010578D03*
X009243Y010578D03*
D27*
X028095Y014128D03*
X028155Y013532D03*
X028745Y013532D03*
X028685Y014128D03*
X028685Y015132D03*
X028095Y015132D03*
X028155Y012528D03*
X028745Y012528D03*
X028785Y011932D03*
X028195Y011932D03*
X028195Y010928D03*
X028785Y010928D03*
X028805Y010332D03*
X028215Y010332D03*
X028215Y009328D03*
X028805Y009328D03*
D28*
X028805Y009673D03*
X028805Y009987D03*
X028215Y009987D03*
X028215Y009673D03*
X028195Y011273D03*
X028195Y011587D03*
X028785Y011587D03*
X028785Y011273D03*
X028745Y012873D03*
X028745Y013187D03*
X028155Y013187D03*
X028155Y012873D03*
X028095Y014473D03*
X028095Y014787D03*
X028685Y014787D03*
X028685Y014473D03*
M02*
