G75*
%MOIN*%
%OFA0B0*%
%FSLAX24Y24*%
%IPPOS*%
%LPD*%
%AMOC8*
5,1,8,0,0,1.08239X$1,22.5*
%
%ADD10OC8,0.0740*%
%ADD11R,0.0591X0.0512*%
%ADD12R,0.0512X0.0591*%
%ADD13C,0.0740*%
%ADD14C,0.0640*%
%ADD15OC8,0.0660*%
%ADD16OC8,0.0700*%
%ADD17OC8,0.0634*%
%ADD18C,0.1502*%
%ADD19OC8,0.0555*%
%ADD20C,0.0555*%
%ADD21C,0.0160*%
%ADD22C,0.0436*%
%ADD23C,0.0400*%
%ADD24C,0.0100*%
%ADD25C,0.0320*%
%ADD26C,0.0120*%
%ADD27C,0.0560*%
%ADD28C,0.0500*%
%ADD29C,0.0400*%
D10*
X017450Y030180D03*
X017450Y031180D03*
X017450Y032180D03*
X018450Y032180D03*
X018450Y031180D03*
X018450Y030180D03*
D11*
X020750Y024515D03*
X020750Y023845D03*
X027000Y024845D03*
X027000Y025515D03*
X027000Y022515D03*
X027000Y021845D03*
D12*
X022835Y019680D03*
X022165Y019680D03*
X023165Y026180D03*
X023835Y026180D03*
X042665Y026180D03*
X043335Y026180D03*
X043335Y025180D03*
X042665Y025180D03*
X042665Y024180D03*
X043335Y024180D03*
X043335Y023180D03*
X042665Y023180D03*
X042665Y022180D03*
X043335Y022180D03*
X043335Y021180D03*
X042665Y021180D03*
X042665Y020180D03*
X043335Y020180D03*
X043335Y019180D03*
X042665Y019180D03*
X042665Y018180D03*
X043335Y018180D03*
X043335Y017180D03*
X042665Y017180D03*
X042665Y016180D03*
X043335Y016180D03*
X043335Y015180D03*
X042665Y015180D03*
X042665Y014180D03*
X043335Y014180D03*
X043335Y013180D03*
X042665Y013180D03*
X042665Y012180D03*
X043335Y012180D03*
X043335Y011180D03*
X042665Y011180D03*
D13*
X017000Y045680D03*
X017000Y046680D03*
X015000Y046680D03*
X015000Y045680D03*
X013000Y045680D03*
X013000Y046680D03*
X011000Y046680D03*
X011000Y045680D03*
D14*
X003890Y031280D02*
X003890Y030640D01*
X002110Y030640D02*
X002110Y031280D01*
X002110Y028720D02*
X002110Y028080D01*
X003890Y028080D02*
X003890Y028720D01*
D15*
X020000Y043680D03*
X020000Y044680D03*
X020000Y045680D03*
X021000Y045680D03*
X021000Y044680D03*
X021000Y043680D03*
X022000Y043680D03*
X022000Y044680D03*
X022000Y045680D03*
X023000Y045680D03*
X023000Y044680D03*
X023000Y043680D03*
X024000Y043680D03*
X024000Y044680D03*
X024000Y045680D03*
X025000Y045680D03*
X025000Y044680D03*
X025000Y043680D03*
X026000Y043680D03*
X026000Y044680D03*
X026000Y045680D03*
X027000Y045680D03*
X027000Y044680D03*
X027000Y043680D03*
X028000Y043680D03*
X028000Y044680D03*
X028000Y045680D03*
X029000Y045680D03*
X029000Y044680D03*
X029000Y043680D03*
X030000Y043680D03*
X030000Y044680D03*
X030000Y045680D03*
D16*
X044500Y026180D03*
X044500Y025180D03*
X044500Y024180D03*
X044500Y023180D03*
X044500Y022180D03*
X044500Y021180D03*
X044500Y020180D03*
X044500Y019180D03*
X044500Y018180D03*
X044500Y017180D03*
X044500Y016180D03*
X044500Y015180D03*
X044500Y014180D03*
X044500Y013180D03*
X044500Y012180D03*
X044500Y011180D03*
X045500Y011180D03*
X045500Y012180D03*
X045500Y013180D03*
X045500Y014180D03*
X045500Y015180D03*
X045500Y016180D03*
X045500Y017180D03*
X045500Y018180D03*
X045500Y019180D03*
X045500Y020180D03*
X045500Y021180D03*
X045500Y022180D03*
X045500Y023180D03*
X045500Y024180D03*
X045500Y025180D03*
X045500Y026180D03*
X046500Y026180D03*
X046500Y025180D03*
X046500Y024180D03*
X046500Y023180D03*
X046500Y022180D03*
X046500Y021180D03*
X046500Y020180D03*
X046500Y019180D03*
X046500Y018180D03*
X046500Y017180D03*
X046500Y016180D03*
X046500Y015180D03*
X046500Y014180D03*
X046500Y013180D03*
X046500Y012180D03*
X046500Y011180D03*
D17*
X006400Y042320D03*
X005620Y042320D03*
X005620Y043300D03*
X006400Y043300D03*
D18*
X005301Y045180D02*
X003799Y045180D01*
X003799Y040440D02*
X005301Y040440D01*
D19*
X005500Y020680D03*
X005500Y019680D03*
X005500Y018680D03*
X005500Y017680D03*
X005500Y016680D03*
X005500Y015680D03*
X005500Y014680D03*
X005500Y013680D03*
X005500Y012680D03*
X005500Y011680D03*
X005500Y010680D03*
X005500Y009680D03*
X005500Y008680D03*
X005500Y007680D03*
X005500Y006680D03*
X005500Y005680D03*
X004500Y005680D03*
X004500Y006680D03*
X004500Y007680D03*
X004500Y008680D03*
X004500Y009680D03*
X004500Y010680D03*
X004500Y011680D03*
X004500Y012680D03*
X004500Y013680D03*
X004500Y014680D03*
X004500Y015680D03*
X004500Y016680D03*
X004500Y017680D03*
X004500Y018680D03*
X004500Y019680D03*
X004500Y020680D03*
X011000Y005180D03*
X011000Y004180D03*
X011000Y003180D03*
X011000Y002180D03*
X012000Y002180D03*
X012000Y003180D03*
X012000Y004180D03*
X012000Y005180D03*
X013000Y005180D03*
X013000Y004180D03*
X013000Y003180D03*
X013000Y002180D03*
X014000Y002180D03*
X014000Y003180D03*
X014000Y004180D03*
X014000Y005180D03*
X028000Y004680D03*
X028000Y003680D03*
X029000Y003680D03*
X029000Y004680D03*
X030000Y004680D03*
X030000Y003680D03*
X031000Y003680D03*
X031000Y004680D03*
X032000Y004680D03*
X032000Y003680D03*
X033000Y003680D03*
X033000Y004680D03*
X034000Y004680D03*
X034000Y003680D03*
X035000Y003680D03*
X035000Y004680D03*
X036000Y004680D03*
X036000Y003680D03*
X037000Y003680D03*
X038000Y003680D03*
X038000Y004680D03*
X037000Y004680D03*
X039000Y004680D03*
X039000Y003680D03*
X040000Y003680D03*
X040000Y004680D03*
X041000Y004680D03*
X041000Y003680D03*
X042000Y003680D03*
X042000Y004680D03*
X043000Y004680D03*
X043000Y003680D03*
D20*
X015650Y023903D02*
X015650Y024457D01*
X014650Y024457D02*
X014650Y023903D01*
X013650Y023903D02*
X013650Y024457D01*
X012650Y024457D02*
X012650Y023903D01*
X011650Y023903D02*
X011650Y024457D01*
X010650Y024457D02*
X010650Y023903D01*
D21*
X013650Y018180D02*
X015500Y018180D01*
X019000Y021802D01*
X006152Y037680D02*
X002500Y037680D01*
X006152Y037680D02*
X006152Y038180D01*
X006407Y039680D02*
X007414Y039680D01*
X006407Y039680D02*
X006407Y041180D01*
X005000Y041680D01*
X005000Y043300D01*
X005620Y043300D01*
X041500Y027680D02*
X041500Y009680D01*
X048000Y009680D01*
X048000Y027680D01*
X041500Y027680D01*
X041500Y027601D02*
X048000Y027601D01*
X048000Y027442D02*
X041500Y027442D01*
X041500Y027284D02*
X048000Y027284D01*
X048000Y027125D02*
X041500Y027125D01*
X041500Y026967D02*
X048000Y026967D01*
X048000Y026808D02*
X041500Y026808D01*
X041500Y026650D02*
X042364Y026650D01*
X042386Y026655D02*
X042340Y026643D01*
X042299Y026619D01*
X042265Y026586D01*
X042242Y026545D01*
X042229Y026499D01*
X042229Y026228D01*
X042617Y026228D01*
X042617Y026132D01*
X042229Y026132D01*
X042229Y025861D01*
X042242Y025815D01*
X042265Y025774D01*
X042299Y025741D01*
X042340Y025717D01*
X042386Y025705D01*
X042617Y025705D01*
X042617Y026132D01*
X042713Y026132D01*
X042713Y025705D01*
X042945Y025705D01*
X042991Y025717D01*
X043009Y025728D01*
X043012Y025725D01*
X043657Y025725D01*
X043751Y025818D01*
X043751Y025820D01*
X044139Y025820D01*
X044279Y025680D01*
X044139Y025540D01*
X043751Y025540D01*
X043751Y025542D01*
X043657Y025635D01*
X043012Y025635D01*
X043009Y025632D01*
X042991Y025643D01*
X042945Y025655D01*
X042713Y025655D01*
X042713Y025228D01*
X042617Y025228D01*
X042617Y025132D01*
X042229Y025132D01*
X042229Y024861D01*
X042242Y024815D01*
X042265Y024774D01*
X042299Y024741D01*
X042340Y024717D01*
X042386Y024705D01*
X042617Y024705D01*
X042617Y025132D01*
X042713Y025132D01*
X042713Y024705D01*
X042945Y024705D01*
X042991Y024717D01*
X043009Y024728D01*
X043012Y024725D01*
X043657Y024725D01*
X043751Y024818D01*
X043751Y024820D01*
X044139Y024820D01*
X044279Y024680D01*
X044139Y024540D01*
X043751Y024540D01*
X043751Y024542D01*
X043657Y024635D01*
X043012Y024635D01*
X043009Y024632D01*
X042991Y024643D01*
X042945Y024655D01*
X042713Y024655D01*
X042713Y024228D01*
X042617Y024228D01*
X042617Y024132D01*
X042229Y024132D01*
X042229Y023861D01*
X042242Y023815D01*
X042265Y023774D01*
X042299Y023741D01*
X042340Y023717D01*
X042386Y023705D01*
X042617Y023705D01*
X042617Y024132D01*
X042713Y024132D01*
X042713Y023705D01*
X042945Y023705D01*
X042991Y023717D01*
X043009Y023728D01*
X043012Y023725D01*
X043657Y023725D01*
X043751Y023818D01*
X043751Y023820D01*
X044139Y023820D01*
X044279Y023680D01*
X044139Y023540D01*
X043751Y023540D01*
X043751Y023542D01*
X043657Y023635D01*
X043012Y023635D01*
X043009Y023632D01*
X042991Y023643D01*
X042945Y023655D01*
X042713Y023655D01*
X042713Y023228D01*
X042617Y023228D01*
X042617Y023132D01*
X042229Y023132D01*
X042229Y022861D01*
X042242Y022815D01*
X042265Y022774D01*
X042299Y022741D01*
X042340Y022717D01*
X042386Y022705D01*
X042617Y022705D01*
X042617Y023132D01*
X042713Y023132D01*
X042713Y022705D01*
X042945Y022705D01*
X042991Y022717D01*
X043009Y022728D01*
X043012Y022725D01*
X043657Y022725D01*
X043751Y022818D01*
X043751Y022820D01*
X044139Y022820D01*
X044279Y022680D01*
X044139Y022540D01*
X043751Y022540D01*
X043751Y022542D01*
X043657Y022635D01*
X043012Y022635D01*
X043009Y022632D01*
X042991Y022643D01*
X042945Y022655D01*
X042713Y022655D01*
X042713Y022228D01*
X042617Y022228D01*
X042617Y022132D01*
X042229Y022132D01*
X042229Y021861D01*
X042242Y021815D01*
X042265Y021774D01*
X042299Y021741D01*
X042340Y021717D01*
X042386Y021705D01*
X042617Y021705D01*
X042617Y022132D01*
X042713Y022132D01*
X042713Y021705D01*
X042945Y021705D01*
X042991Y021717D01*
X043009Y021728D01*
X043012Y021725D01*
X043657Y021725D01*
X043751Y021818D01*
X043751Y021820D01*
X044139Y021820D01*
X044279Y021680D01*
X044139Y021540D01*
X043751Y021540D01*
X043751Y021542D01*
X043657Y021635D01*
X043012Y021635D01*
X043009Y021632D01*
X042991Y021643D01*
X042945Y021655D01*
X042713Y021655D01*
X042713Y021228D01*
X042617Y021228D01*
X042617Y021132D01*
X042229Y021132D01*
X042229Y020861D01*
X042242Y020815D01*
X042265Y020774D01*
X042299Y020741D01*
X042340Y020717D01*
X042386Y020705D01*
X042617Y020705D01*
X042617Y021132D01*
X042713Y021132D01*
X042713Y020705D01*
X042945Y020705D01*
X042991Y020717D01*
X043009Y020728D01*
X043012Y020725D01*
X043657Y020725D01*
X043751Y020818D01*
X043751Y020820D01*
X044139Y020820D01*
X044279Y020680D01*
X044139Y020540D01*
X043751Y020540D01*
X043751Y020542D01*
X043657Y020635D01*
X043012Y020635D01*
X043009Y020632D01*
X042991Y020643D01*
X042945Y020655D01*
X042713Y020655D01*
X042713Y020228D01*
X042617Y020228D01*
X042617Y020132D01*
X042229Y020132D01*
X042229Y019861D01*
X042242Y019815D01*
X042265Y019774D01*
X042299Y019741D01*
X042340Y019717D01*
X042386Y019705D01*
X042617Y019705D01*
X042617Y020132D01*
X042713Y020132D01*
X042713Y019705D01*
X042945Y019705D01*
X042991Y019717D01*
X043009Y019728D01*
X043012Y019725D01*
X043657Y019725D01*
X043751Y019818D01*
X043751Y019820D01*
X044139Y019820D01*
X044279Y019680D01*
X044139Y019540D01*
X043751Y019540D01*
X043751Y019542D01*
X043657Y019635D01*
X043012Y019635D01*
X043009Y019632D01*
X042991Y019643D01*
X042945Y019655D01*
X042713Y019655D01*
X042713Y019228D01*
X042617Y019228D01*
X042617Y019132D01*
X042229Y019132D01*
X042229Y018861D01*
X042242Y018815D01*
X042265Y018774D01*
X042299Y018741D01*
X042340Y018717D01*
X042386Y018705D01*
X042617Y018705D01*
X042617Y019132D01*
X042713Y019132D01*
X042713Y018705D01*
X042945Y018705D01*
X042991Y018717D01*
X043009Y018728D01*
X043012Y018725D01*
X043657Y018725D01*
X043751Y018818D01*
X043751Y018820D01*
X044139Y018820D01*
X044279Y018680D01*
X044139Y018540D01*
X043751Y018540D01*
X043751Y018542D01*
X043657Y018635D01*
X043012Y018635D01*
X043009Y018632D01*
X042991Y018643D01*
X042945Y018655D01*
X042713Y018655D01*
X042713Y018228D01*
X042617Y018228D01*
X042617Y018132D01*
X042229Y018132D01*
X042229Y017861D01*
X042242Y017815D01*
X042265Y017774D01*
X042299Y017741D01*
X042340Y017717D01*
X042386Y017705D01*
X042617Y017705D01*
X042617Y018132D01*
X042713Y018132D01*
X042713Y017705D01*
X042945Y017705D01*
X042991Y017717D01*
X043009Y017728D01*
X043012Y017725D01*
X043657Y017725D01*
X043751Y017818D01*
X043751Y017820D01*
X044139Y017820D01*
X044279Y017680D01*
X044139Y017540D01*
X043751Y017540D01*
X043751Y017542D01*
X043657Y017635D01*
X043012Y017635D01*
X043009Y017632D01*
X042991Y017643D01*
X042945Y017655D01*
X042713Y017655D01*
X042713Y017228D01*
X042617Y017228D01*
X042617Y017132D01*
X042229Y017132D01*
X042229Y016861D01*
X042242Y016815D01*
X042265Y016774D01*
X042299Y016741D01*
X042340Y016717D01*
X042386Y016705D01*
X042617Y016705D01*
X042617Y017132D01*
X042713Y017132D01*
X042713Y016705D01*
X042945Y016705D01*
X042991Y016717D01*
X043009Y016728D01*
X043012Y016725D01*
X043657Y016725D01*
X043751Y016818D01*
X043751Y016820D01*
X044139Y016820D01*
X044279Y016680D01*
X044139Y016540D01*
X043751Y016540D01*
X043751Y016542D01*
X043657Y016635D01*
X043012Y016635D01*
X043009Y016632D01*
X042991Y016643D01*
X042945Y016655D01*
X042713Y016655D01*
X042713Y016228D01*
X042617Y016228D01*
X042617Y016132D01*
X042229Y016132D01*
X042229Y015861D01*
X042242Y015815D01*
X042265Y015774D01*
X042299Y015741D01*
X042340Y015717D01*
X042386Y015705D01*
X042617Y015705D01*
X042617Y016132D01*
X042713Y016132D01*
X042713Y015705D01*
X042945Y015705D01*
X042991Y015717D01*
X043009Y015728D01*
X043012Y015725D01*
X043657Y015725D01*
X043751Y015818D01*
X043751Y015820D01*
X044139Y015820D01*
X044279Y015680D01*
X044139Y015540D01*
X043751Y015540D01*
X043751Y015542D01*
X043657Y015635D01*
X043012Y015635D01*
X043009Y015632D01*
X042991Y015643D01*
X042945Y015655D01*
X042713Y015655D01*
X042713Y015228D01*
X042617Y015228D01*
X042617Y015132D01*
X042229Y015132D01*
X042229Y014861D01*
X042242Y014815D01*
X042265Y014774D01*
X042299Y014741D01*
X042340Y014717D01*
X042386Y014705D01*
X042617Y014705D01*
X042617Y015132D01*
X042713Y015132D01*
X042713Y014705D01*
X042945Y014705D01*
X042991Y014717D01*
X043009Y014728D01*
X043012Y014725D01*
X043657Y014725D01*
X043751Y014818D01*
X043751Y014820D01*
X044139Y014820D01*
X044279Y014680D01*
X044139Y014540D01*
X043751Y014540D01*
X043751Y014542D01*
X043657Y014635D01*
X043012Y014635D01*
X043009Y014632D01*
X042991Y014643D01*
X042945Y014655D01*
X042713Y014655D01*
X042713Y014228D01*
X042617Y014228D01*
X042617Y014132D01*
X042229Y014132D01*
X042229Y013861D01*
X042242Y013815D01*
X042265Y013774D01*
X042299Y013741D01*
X042340Y013717D01*
X042386Y013705D01*
X042617Y013705D01*
X042617Y014132D01*
X042713Y014132D01*
X042713Y013705D01*
X042945Y013705D01*
X042991Y013717D01*
X043009Y013728D01*
X043012Y013725D01*
X043657Y013725D01*
X043751Y013818D01*
X043751Y013820D01*
X044139Y013820D01*
X044279Y013680D01*
X044139Y013540D01*
X043751Y013540D01*
X043751Y013542D01*
X043657Y013635D01*
X043012Y013635D01*
X043009Y013632D01*
X042991Y013643D01*
X042945Y013655D01*
X042713Y013655D01*
X042713Y013228D01*
X042617Y013228D01*
X042617Y013132D01*
X042229Y013132D01*
X042229Y012861D01*
X042242Y012815D01*
X042265Y012774D01*
X042299Y012741D01*
X042340Y012717D01*
X042386Y012705D01*
X042617Y012705D01*
X042617Y013132D01*
X042713Y013132D01*
X042713Y012705D01*
X042945Y012705D01*
X042991Y012717D01*
X043009Y012728D01*
X043012Y012725D01*
X043657Y012725D01*
X043751Y012818D01*
X043751Y012820D01*
X044139Y012820D01*
X044279Y012680D01*
X044139Y012540D01*
X043751Y012540D01*
X043751Y012542D01*
X043657Y012635D01*
X043012Y012635D01*
X043009Y012632D01*
X042991Y012643D01*
X042945Y012655D01*
X042713Y012655D01*
X042713Y012228D01*
X042617Y012228D01*
X042617Y012132D01*
X042229Y012132D01*
X042229Y011861D01*
X042242Y011815D01*
X042265Y011774D01*
X042299Y011741D01*
X042340Y011717D01*
X042386Y011705D01*
X042617Y011705D01*
X042617Y012132D01*
X042713Y012132D01*
X042713Y011705D01*
X042945Y011705D01*
X042991Y011717D01*
X043009Y011728D01*
X043012Y011725D01*
X043657Y011725D01*
X043751Y011818D01*
X043751Y011820D01*
X044139Y011820D01*
X044279Y011680D01*
X044139Y011540D01*
X043751Y011540D01*
X043751Y011542D01*
X043657Y011635D01*
X043012Y011635D01*
X043009Y011632D01*
X042991Y011643D01*
X042945Y011655D01*
X042713Y011655D01*
X042713Y011228D01*
X042617Y011228D01*
X042617Y011132D01*
X042229Y011132D01*
X042229Y010861D01*
X042242Y010815D01*
X042265Y010774D01*
X042299Y010741D01*
X042340Y010717D01*
X042386Y010705D01*
X042617Y010705D01*
X042617Y011132D01*
X042713Y011132D01*
X042713Y010705D01*
X042945Y010705D01*
X042991Y010717D01*
X043009Y010728D01*
X043012Y010725D01*
X043657Y010725D01*
X043751Y010818D01*
X043751Y010820D01*
X044139Y010820D01*
X044289Y010670D01*
X044711Y010670D01*
X045000Y010959D01*
X045289Y010670D01*
X045711Y010670D01*
X045986Y010945D01*
X046280Y010650D01*
X046500Y010650D01*
X046720Y010650D01*
X047030Y010960D01*
X047030Y011180D01*
X047030Y011400D01*
X046750Y011680D01*
X047030Y011960D01*
X047030Y012180D01*
X047030Y012400D01*
X046750Y012680D01*
X047030Y012960D01*
X047030Y013180D01*
X047030Y013400D01*
X046750Y013680D01*
X047030Y013960D01*
X047030Y014180D01*
X047030Y014400D01*
X046750Y014680D01*
X047030Y014960D01*
X047030Y015180D01*
X047030Y015400D01*
X046750Y015680D01*
X047030Y015960D01*
X047030Y016180D01*
X047030Y016400D01*
X046750Y016680D01*
X047030Y016960D01*
X047030Y017180D01*
X047030Y017400D01*
X046750Y017680D01*
X047030Y017960D01*
X047030Y018180D01*
X047030Y018400D01*
X046750Y018680D01*
X047030Y018960D01*
X047030Y019180D01*
X047030Y019400D01*
X046750Y019680D01*
X047030Y019960D01*
X047030Y020180D01*
X047030Y020400D01*
X046750Y020680D01*
X047030Y020960D01*
X047030Y021180D01*
X047030Y021400D01*
X046750Y021680D01*
X047030Y021960D01*
X047030Y022180D01*
X047030Y022400D01*
X046750Y022680D01*
X047030Y022960D01*
X047030Y023180D01*
X047030Y023400D01*
X046750Y023680D01*
X047030Y023960D01*
X047030Y024180D01*
X047030Y024400D01*
X046750Y024680D01*
X047030Y024960D01*
X047030Y025180D01*
X047030Y025400D01*
X046750Y025680D01*
X047030Y025960D01*
X047030Y026180D01*
X047030Y026400D01*
X046720Y026710D01*
X046500Y026710D01*
X046500Y026180D01*
X046500Y026180D01*
X047030Y026180D01*
X046500Y026180D01*
X046500Y026180D01*
X046500Y026710D01*
X046280Y026710D01*
X045986Y026415D01*
X045711Y026690D01*
X045289Y026690D01*
X045000Y026401D01*
X044711Y026690D01*
X044289Y026690D01*
X044139Y026540D01*
X043751Y026540D01*
X043751Y026542D01*
X043657Y026635D01*
X043012Y026635D01*
X043009Y026632D01*
X042991Y026643D01*
X042945Y026655D01*
X042713Y026655D01*
X042713Y026228D01*
X042617Y026228D01*
X042617Y026655D01*
X042386Y026655D01*
X042229Y026491D02*
X041500Y026491D01*
X041500Y026333D02*
X042229Y026333D01*
X042229Y026016D02*
X041500Y026016D01*
X041500Y026174D02*
X042617Y026174D01*
X042617Y026016D02*
X042713Y026016D01*
X042713Y025857D02*
X042617Y025857D01*
X042617Y025655D02*
X042386Y025655D01*
X042340Y025643D01*
X042299Y025619D01*
X042265Y025586D01*
X042242Y025545D01*
X042229Y025499D01*
X042229Y025228D01*
X042617Y025228D01*
X042617Y025655D01*
X042617Y025540D02*
X042713Y025540D01*
X042713Y025382D02*
X042617Y025382D01*
X042617Y025223D02*
X041500Y025223D01*
X041500Y025065D02*
X042229Y025065D01*
X042229Y024906D02*
X041500Y024906D01*
X041500Y024748D02*
X042292Y024748D01*
X042340Y024643D02*
X042299Y024619D01*
X042265Y024586D01*
X042242Y024545D01*
X042229Y024499D01*
X042229Y024228D01*
X042617Y024228D01*
X042617Y024655D01*
X042386Y024655D01*
X042340Y024643D01*
X042269Y024589D02*
X041500Y024589D01*
X041500Y024431D02*
X042229Y024431D01*
X042229Y024272D02*
X041500Y024272D01*
X041500Y024114D02*
X042229Y024114D01*
X042229Y023955D02*
X041500Y023955D01*
X041500Y023797D02*
X042253Y023797D01*
X042340Y023643D02*
X042299Y023619D01*
X042265Y023586D01*
X042242Y023545D01*
X042229Y023499D01*
X042229Y023228D01*
X042617Y023228D01*
X042617Y023655D01*
X042386Y023655D01*
X042340Y023643D01*
X042331Y023638D02*
X041500Y023638D01*
X041500Y023480D02*
X042229Y023480D01*
X042229Y023321D02*
X041500Y023321D01*
X041500Y023163D02*
X042617Y023163D01*
X042617Y023321D02*
X042713Y023321D01*
X042713Y023480D02*
X042617Y023480D01*
X042617Y023638D02*
X042713Y023638D01*
X042713Y023797D02*
X042617Y023797D01*
X042617Y023955D02*
X042713Y023955D01*
X042713Y024114D02*
X042617Y024114D01*
X042617Y024272D02*
X042713Y024272D01*
X042713Y024431D02*
X042617Y024431D01*
X042617Y024589D02*
X042713Y024589D01*
X042713Y024748D02*
X042617Y024748D01*
X042617Y024906D02*
X042713Y024906D01*
X042713Y025065D02*
X042617Y025065D01*
X042229Y025382D02*
X041500Y025382D01*
X041500Y025540D02*
X042240Y025540D01*
X042231Y025857D02*
X041500Y025857D01*
X041500Y025699D02*
X044260Y025699D01*
X044139Y025540D02*
X043751Y025540D01*
X043680Y024748D02*
X044211Y024748D01*
X044188Y024589D02*
X043703Y024589D01*
X043729Y023797D02*
X044162Y023797D01*
X044237Y023638D02*
X042999Y023638D01*
X042713Y023004D02*
X042617Y023004D01*
X042617Y022846D02*
X042713Y022846D01*
X042617Y022655D02*
X042386Y022655D01*
X042340Y022643D01*
X042299Y022619D01*
X042265Y022586D01*
X042242Y022545D01*
X042229Y022499D01*
X042229Y022228D01*
X042617Y022228D01*
X042617Y022655D01*
X042617Y022529D02*
X042713Y022529D01*
X042713Y022370D02*
X042617Y022370D01*
X042617Y022212D02*
X041500Y022212D01*
X041500Y022370D02*
X042229Y022370D01*
X042237Y022529D02*
X041500Y022529D01*
X041500Y022687D02*
X044272Y022687D01*
X044223Y021736D02*
X043668Y021736D01*
X043715Y021578D02*
X044176Y021578D01*
X044174Y020785D02*
X043717Y020785D01*
X043666Y020627D02*
X044225Y020627D01*
X044274Y019676D02*
X041500Y019676D01*
X041500Y019834D02*
X042237Y019834D01*
X042229Y019993D02*
X041500Y019993D01*
X041500Y020151D02*
X042617Y020151D01*
X042617Y020228D02*
X042229Y020228D01*
X042229Y020499D01*
X042242Y020545D01*
X042265Y020586D01*
X042299Y020619D01*
X042340Y020643D01*
X042386Y020655D01*
X042617Y020655D01*
X042617Y020228D01*
X042617Y020310D02*
X042713Y020310D01*
X042713Y020468D02*
X042617Y020468D01*
X042617Y020627D02*
X042713Y020627D01*
X042713Y020785D02*
X042617Y020785D01*
X042617Y020944D02*
X042713Y020944D01*
X042713Y021102D02*
X042617Y021102D01*
X042617Y021228D02*
X042229Y021228D01*
X042229Y021499D01*
X042242Y021545D01*
X042265Y021586D01*
X042299Y021619D01*
X042340Y021643D01*
X042386Y021655D01*
X042617Y021655D01*
X042617Y021228D01*
X042617Y021261D02*
X042713Y021261D01*
X042713Y021419D02*
X042617Y021419D01*
X042617Y021578D02*
X042713Y021578D01*
X042713Y021736D02*
X042617Y021736D01*
X042617Y021895D02*
X042713Y021895D01*
X042713Y022053D02*
X042617Y022053D01*
X042229Y022053D02*
X041500Y022053D01*
X041500Y021895D02*
X042229Y021895D01*
X042307Y021736D02*
X041500Y021736D01*
X041500Y021578D02*
X042261Y021578D01*
X042229Y021419D02*
X041500Y021419D01*
X041500Y021261D02*
X042229Y021261D01*
X042229Y021102D02*
X041500Y021102D01*
X041500Y020944D02*
X042229Y020944D01*
X042259Y020785D02*
X041500Y020785D01*
X041500Y020627D02*
X042311Y020627D01*
X042229Y020468D02*
X041500Y020468D01*
X041500Y020310D02*
X042229Y020310D01*
X042617Y019993D02*
X042713Y019993D01*
X042713Y019834D02*
X042617Y019834D01*
X042617Y019655D02*
X042386Y019655D01*
X042340Y019643D01*
X042299Y019619D01*
X042265Y019586D01*
X042242Y019545D01*
X042229Y019499D01*
X042229Y019228D01*
X042617Y019228D01*
X042617Y019655D01*
X042617Y019517D02*
X042713Y019517D01*
X042713Y019359D02*
X042617Y019359D01*
X042617Y019200D02*
X041500Y019200D01*
X041500Y019042D02*
X042229Y019042D01*
X042229Y018883D02*
X041500Y018883D01*
X041500Y018725D02*
X042327Y018725D01*
X042340Y018643D02*
X042299Y018619D01*
X042265Y018586D01*
X042242Y018545D01*
X042229Y018499D01*
X042229Y018228D01*
X042617Y018228D01*
X042617Y018655D01*
X042386Y018655D01*
X042340Y018643D01*
X042254Y018566D02*
X041500Y018566D01*
X041500Y018408D02*
X042229Y018408D01*
X042229Y018249D02*
X041500Y018249D01*
X041500Y018091D02*
X042229Y018091D01*
X042229Y017932D02*
X041500Y017932D01*
X041500Y017774D02*
X042266Y017774D01*
X042340Y017643D02*
X042299Y017619D01*
X042265Y017586D01*
X042242Y017545D01*
X042229Y017499D01*
X042229Y017228D01*
X042617Y017228D01*
X042617Y017655D01*
X042386Y017655D01*
X042340Y017643D01*
X042295Y017615D02*
X041500Y017615D01*
X041500Y017457D02*
X042229Y017457D01*
X042229Y017298D02*
X041500Y017298D01*
X041500Y017140D02*
X042617Y017140D01*
X042617Y017298D02*
X042713Y017298D01*
X042713Y017457D02*
X042617Y017457D01*
X042617Y017615D02*
X042713Y017615D01*
X042713Y017774D02*
X042617Y017774D01*
X042617Y017932D02*
X042713Y017932D01*
X042713Y018091D02*
X042617Y018091D01*
X042617Y018249D02*
X042713Y018249D01*
X042713Y018408D02*
X042617Y018408D01*
X042617Y018566D02*
X042713Y018566D01*
X042713Y018725D02*
X042617Y018725D01*
X042617Y018883D02*
X042713Y018883D01*
X042713Y019042D02*
X042617Y019042D01*
X042229Y019359D02*
X041500Y019359D01*
X041500Y019517D02*
X042234Y019517D01*
X043004Y018725D02*
X044234Y018725D01*
X044165Y018566D02*
X043726Y018566D01*
X043706Y017774D02*
X044185Y017774D01*
X044214Y017615D02*
X043677Y017615D01*
X044263Y016664D02*
X041500Y016664D01*
X041500Y016506D02*
X042231Y016506D01*
X042229Y016499D02*
X042229Y016228D01*
X042617Y016228D01*
X042617Y016655D01*
X042386Y016655D01*
X042340Y016643D01*
X042299Y016619D01*
X042265Y016586D01*
X042242Y016545D01*
X042229Y016499D01*
X042229Y016347D02*
X041500Y016347D01*
X041500Y016189D02*
X042617Y016189D01*
X042617Y016347D02*
X042713Y016347D01*
X042713Y016506D02*
X042617Y016506D01*
X042617Y016823D02*
X042713Y016823D01*
X042713Y016981D02*
X042617Y016981D01*
X042229Y016981D02*
X041500Y016981D01*
X041500Y016823D02*
X042240Y016823D01*
X042229Y016030D02*
X041500Y016030D01*
X041500Y015872D02*
X042229Y015872D01*
X042355Y015713D02*
X041500Y015713D01*
X041500Y015555D02*
X042247Y015555D01*
X042242Y015545D02*
X042229Y015499D01*
X042229Y015228D01*
X042617Y015228D01*
X042617Y015655D01*
X042386Y015655D01*
X042340Y015643D01*
X042299Y015619D01*
X042265Y015586D01*
X042242Y015545D01*
X042229Y015396D02*
X041500Y015396D01*
X041500Y015238D02*
X042229Y015238D01*
X042229Y015079D02*
X041500Y015079D01*
X041500Y014921D02*
X042229Y014921D01*
X042278Y014762D02*
X041500Y014762D01*
X041500Y014604D02*
X042283Y014604D01*
X042299Y014619D02*
X042265Y014586D01*
X042242Y014545D01*
X042229Y014499D01*
X042229Y014228D01*
X042617Y014228D01*
X042617Y014655D01*
X042386Y014655D01*
X042340Y014643D01*
X042299Y014619D01*
X042229Y014445D02*
X041500Y014445D01*
X041500Y014287D02*
X042229Y014287D01*
X042229Y014128D02*
X041500Y014128D01*
X041500Y013970D02*
X042229Y013970D01*
X042244Y013811D02*
X041500Y013811D01*
X041500Y013653D02*
X042375Y013653D01*
X042386Y013655D02*
X042340Y013643D01*
X042299Y013619D01*
X042265Y013586D01*
X042242Y013545D01*
X042229Y013499D01*
X042229Y013228D01*
X042617Y013228D01*
X042617Y013655D01*
X042386Y013655D01*
X042229Y013494D02*
X041500Y013494D01*
X041500Y013336D02*
X042229Y013336D01*
X042229Y013019D02*
X041500Y013019D01*
X041500Y013177D02*
X042617Y013177D01*
X042617Y013019D02*
X042713Y013019D01*
X042713Y012860D02*
X042617Y012860D01*
X042617Y012655D02*
X042386Y012655D01*
X042340Y012643D01*
X042299Y012619D01*
X042265Y012586D01*
X042242Y012545D01*
X042229Y012499D01*
X042229Y012228D01*
X042617Y012228D01*
X042617Y012655D01*
X042617Y012543D02*
X042713Y012543D01*
X042713Y012385D02*
X042617Y012385D01*
X042617Y012226D02*
X041500Y012226D01*
X041500Y012068D02*
X042229Y012068D01*
X042229Y011909D02*
X041500Y011909D01*
X041500Y011751D02*
X042289Y011751D01*
X042340Y011643D02*
X042299Y011619D01*
X042265Y011586D01*
X042242Y011545D01*
X042229Y011499D01*
X042229Y011228D01*
X042617Y011228D01*
X042617Y011655D01*
X042386Y011655D01*
X042340Y011643D01*
X042272Y011592D02*
X041500Y011592D01*
X041500Y011434D02*
X042229Y011434D01*
X042229Y011275D02*
X041500Y011275D01*
X041500Y011117D02*
X042229Y011117D01*
X042229Y010958D02*
X041500Y010958D01*
X041500Y010800D02*
X042251Y010800D01*
X042617Y010800D02*
X042713Y010800D01*
X042713Y010958D02*
X042617Y010958D01*
X042617Y011117D02*
X042713Y011117D01*
X042713Y011275D02*
X042617Y011275D01*
X042617Y011434D02*
X042713Y011434D01*
X042713Y011592D02*
X042617Y011592D01*
X042617Y011751D02*
X042713Y011751D01*
X042713Y011909D02*
X042617Y011909D01*
X042617Y012068D02*
X042713Y012068D01*
X042229Y012385D02*
X041500Y012385D01*
X041500Y012543D02*
X042241Y012543D01*
X042230Y012860D02*
X041500Y012860D01*
X041500Y012702D02*
X044257Y012702D01*
X044142Y012543D02*
X043749Y012543D01*
X043683Y011751D02*
X044208Y011751D01*
X044191Y011592D02*
X043700Y011592D01*
X043732Y010800D02*
X044159Y010800D01*
X044841Y010800D02*
X045159Y010800D01*
X045001Y010958D02*
X044999Y010958D01*
X045841Y010800D02*
X046131Y010800D01*
X046500Y010800D02*
X046500Y010800D01*
X046500Y010650D02*
X046500Y011180D01*
X047030Y011180D01*
X046500Y011180D01*
X046500Y011180D01*
X046500Y011180D01*
X046500Y012180D01*
X047030Y012180D01*
X046500Y012180D01*
X046500Y012180D01*
X046500Y012180D01*
X046500Y013180D01*
X047030Y013180D01*
X046500Y013180D01*
X046500Y013180D01*
X046500Y013180D01*
X046500Y014180D01*
X047030Y014180D01*
X046500Y014180D01*
X046500Y014180D01*
X046500Y014180D01*
X046500Y015180D01*
X047030Y015180D01*
X046500Y015180D01*
X046500Y015180D01*
X046500Y015180D01*
X046500Y016180D01*
X047030Y016180D01*
X046500Y016180D01*
X046500Y016180D01*
X046500Y016180D01*
X046500Y017180D01*
X047030Y017180D01*
X046500Y017180D01*
X046500Y017180D01*
X046500Y017180D01*
X046500Y018180D01*
X047030Y018180D01*
X046500Y018180D01*
X046500Y018180D01*
X046500Y018180D01*
X046500Y019180D01*
X047030Y019180D01*
X046500Y019180D01*
X046500Y019180D01*
X046500Y019180D01*
X046500Y019650D01*
X046500Y020180D01*
X047030Y020180D01*
X046500Y020180D01*
X046500Y020180D01*
X046500Y020180D01*
X046500Y020710D01*
X046500Y021180D01*
X047030Y021180D01*
X046500Y021180D01*
X046500Y021180D01*
X046500Y021180D01*
X046500Y021650D01*
X046500Y022180D01*
X047030Y022180D01*
X046500Y022180D01*
X046500Y022180D01*
X046500Y022180D01*
X046500Y022650D01*
X046500Y023180D01*
X047030Y023180D01*
X046500Y023180D01*
X046500Y023180D01*
X046500Y023180D01*
X046500Y023650D01*
X046500Y024180D01*
X047030Y024180D01*
X046500Y024180D01*
X046500Y024180D01*
X046500Y024180D01*
X046500Y024650D01*
X046500Y025180D01*
X047030Y025180D01*
X046500Y025180D01*
X046500Y025180D01*
X046500Y025180D01*
X046500Y025650D01*
X046500Y026180D01*
X046500Y026180D01*
X046500Y025180D01*
X046500Y025180D01*
X046500Y024180D01*
X046500Y024180D01*
X046500Y023180D01*
X046500Y023180D01*
X046500Y022180D01*
X046500Y022180D01*
X046500Y021180D01*
X046500Y021180D01*
X046500Y020180D01*
X046500Y020180D01*
X046500Y019180D01*
X046500Y019180D01*
X046500Y018710D01*
X046500Y018180D01*
X046500Y018180D01*
X046500Y017710D01*
X046500Y017180D01*
X046500Y017180D01*
X046500Y016650D01*
X046500Y016180D01*
X046500Y016180D01*
X046500Y015710D01*
X046500Y015180D01*
X046500Y015180D01*
X046500Y014710D01*
X046500Y014180D01*
X046500Y014180D01*
X046500Y013710D01*
X046500Y013180D01*
X046500Y013180D01*
X046500Y012710D01*
X046500Y012180D01*
X046500Y012180D01*
X046500Y011710D01*
X046500Y011180D01*
X046500Y011180D01*
X046500Y010650D01*
X046500Y010958D02*
X046500Y010958D01*
X046500Y011117D02*
X046500Y011117D01*
X046500Y011275D02*
X046500Y011275D01*
X046500Y011434D02*
X046500Y011434D01*
X046500Y011592D02*
X046500Y011592D01*
X046500Y011751D02*
X046500Y011751D01*
X046500Y011909D02*
X046500Y011909D01*
X046500Y012068D02*
X046500Y012068D01*
X046500Y012226D02*
X046500Y012226D01*
X046500Y012385D02*
X046500Y012385D01*
X046500Y012543D02*
X046500Y012543D01*
X046500Y012702D02*
X046500Y012702D01*
X046500Y012860D02*
X046500Y012860D01*
X046500Y013019D02*
X046500Y013019D01*
X046500Y013177D02*
X046500Y013177D01*
X046500Y013336D02*
X046500Y013336D01*
X046500Y013494D02*
X046500Y013494D01*
X046500Y013653D02*
X046500Y013653D01*
X046500Y013811D02*
X046500Y013811D01*
X046500Y013970D02*
X046500Y013970D01*
X046500Y014128D02*
X046500Y014128D01*
X046500Y014287D02*
X046500Y014287D01*
X046500Y014445D02*
X046500Y014445D01*
X046500Y014604D02*
X046500Y014604D01*
X046500Y014762D02*
X046500Y014762D01*
X046500Y014921D02*
X046500Y014921D01*
X046500Y015079D02*
X046500Y015079D01*
X046500Y015238D02*
X046500Y015238D01*
X046500Y015396D02*
X046500Y015396D01*
X046500Y015555D02*
X046500Y015555D01*
X046500Y015713D02*
X046500Y015713D01*
X046500Y015872D02*
X046500Y015872D01*
X046500Y016030D02*
X046500Y016030D01*
X046500Y016189D02*
X046500Y016189D01*
X046500Y016347D02*
X046500Y016347D01*
X046500Y016506D02*
X046500Y016506D01*
X046500Y016664D02*
X046500Y016664D01*
X046500Y016823D02*
X046500Y016823D01*
X046500Y016981D02*
X046500Y016981D01*
X046500Y017140D02*
X046500Y017140D01*
X046500Y017298D02*
X046500Y017298D01*
X046500Y017457D02*
X046500Y017457D01*
X046500Y017615D02*
X046500Y017615D01*
X046500Y017774D02*
X046500Y017774D01*
X046500Y017932D02*
X046500Y017932D01*
X046500Y018091D02*
X046500Y018091D01*
X046500Y018249D02*
X046500Y018249D01*
X046500Y018408D02*
X046500Y018408D01*
X046500Y018566D02*
X046500Y018566D01*
X046500Y018725D02*
X046500Y018725D01*
X046500Y018883D02*
X046500Y018883D01*
X046500Y019042D02*
X046500Y019042D01*
X046500Y019200D02*
X046500Y019200D01*
X046500Y019359D02*
X046500Y019359D01*
X046500Y019517D02*
X046500Y019517D01*
X046500Y019676D02*
X046500Y019676D01*
X046500Y019834D02*
X046500Y019834D01*
X046500Y019993D02*
X046500Y019993D01*
X046500Y020151D02*
X046500Y020151D01*
X046500Y020310D02*
X046500Y020310D01*
X046500Y020468D02*
X046500Y020468D01*
X046500Y020627D02*
X046500Y020627D01*
X046500Y020785D02*
X046500Y020785D01*
X046500Y020944D02*
X046500Y020944D01*
X046500Y021102D02*
X046500Y021102D01*
X046500Y021261D02*
X046500Y021261D01*
X046500Y021419D02*
X046500Y021419D01*
X046500Y021578D02*
X046500Y021578D01*
X046500Y021736D02*
X046500Y021736D01*
X046500Y021895D02*
X046500Y021895D01*
X046500Y022053D02*
X046500Y022053D01*
X046500Y022212D02*
X046500Y022212D01*
X046500Y022370D02*
X046500Y022370D01*
X046500Y022529D02*
X046500Y022529D01*
X046500Y022687D02*
X046500Y022687D01*
X046500Y022846D02*
X046500Y022846D01*
X046500Y023004D02*
X046500Y023004D01*
X046500Y023163D02*
X046500Y023163D01*
X046500Y023321D02*
X046500Y023321D01*
X046500Y023480D02*
X046500Y023480D01*
X046500Y023638D02*
X046500Y023638D01*
X046500Y023797D02*
X046500Y023797D01*
X046500Y023955D02*
X046500Y023955D01*
X046500Y024114D02*
X046500Y024114D01*
X046500Y024272D02*
X046500Y024272D01*
X046500Y024431D02*
X046500Y024431D01*
X046500Y024589D02*
X046500Y024589D01*
X046500Y024748D02*
X046500Y024748D01*
X046500Y024906D02*
X046500Y024906D01*
X046500Y025065D02*
X046500Y025065D01*
X046500Y025223D02*
X046500Y025223D01*
X046500Y025382D02*
X046500Y025382D01*
X046500Y025540D02*
X046500Y025540D01*
X046500Y025699D02*
X046500Y025699D01*
X046500Y025857D02*
X046500Y025857D01*
X046500Y026016D02*
X046500Y026016D01*
X046500Y026174D02*
X046500Y026174D01*
X046500Y026333D02*
X046500Y026333D01*
X046500Y026491D02*
X046500Y026491D01*
X046500Y026650D02*
X046500Y026650D01*
X046220Y026650D02*
X045752Y026650D01*
X045910Y026491D02*
X046062Y026491D01*
X045248Y026650D02*
X044752Y026650D01*
X044910Y026491D02*
X045090Y026491D01*
X044248Y026650D02*
X042966Y026650D01*
X042713Y026650D02*
X042617Y026650D01*
X042617Y026491D02*
X042713Y026491D01*
X042713Y026333D02*
X042617Y026333D01*
X042229Y023004D02*
X041500Y023004D01*
X041500Y022846D02*
X042234Y022846D01*
X046757Y022687D02*
X048000Y022687D01*
X048000Y022529D02*
X046901Y022529D01*
X047030Y022370D02*
X048000Y022370D01*
X048000Y022212D02*
X047030Y022212D01*
X047030Y022053D02*
X048000Y022053D01*
X048000Y021895D02*
X046964Y021895D01*
X046806Y021736D02*
X048000Y021736D01*
X048000Y021578D02*
X046852Y021578D01*
X047010Y021419D02*
X048000Y021419D01*
X048000Y021261D02*
X047030Y021261D01*
X047030Y021102D02*
X048000Y021102D01*
X048000Y020944D02*
X047013Y020944D01*
X046855Y020785D02*
X048000Y020785D01*
X048000Y020627D02*
X046803Y020627D01*
X046961Y020468D02*
X048000Y020468D01*
X048000Y020310D02*
X047030Y020310D01*
X047030Y020151D02*
X048000Y020151D01*
X048000Y019993D02*
X047030Y019993D01*
X046904Y019834D02*
X048000Y019834D01*
X048000Y019676D02*
X046754Y019676D01*
X046913Y019517D02*
X048000Y019517D01*
X048000Y019359D02*
X047030Y019359D01*
X047030Y019200D02*
X048000Y019200D01*
X048000Y019042D02*
X047030Y019042D01*
X046953Y018883D02*
X048000Y018883D01*
X048000Y018725D02*
X046794Y018725D01*
X046864Y018566D02*
X048000Y018566D01*
X048000Y018408D02*
X047022Y018408D01*
X047030Y018249D02*
X048000Y018249D01*
X048000Y018091D02*
X047030Y018091D01*
X047002Y017932D02*
X048000Y017932D01*
X048000Y017774D02*
X046843Y017774D01*
X046815Y017615D02*
X048000Y017615D01*
X048000Y017457D02*
X046973Y017457D01*
X047030Y017298D02*
X048000Y017298D01*
X048000Y017140D02*
X047030Y017140D01*
X047030Y016981D02*
X048000Y016981D01*
X048000Y016823D02*
X046892Y016823D01*
X046766Y016664D02*
X048000Y016664D01*
X048000Y016506D02*
X046924Y016506D01*
X047030Y016347D02*
X048000Y016347D01*
X048000Y016189D02*
X047030Y016189D01*
X047030Y016030D02*
X048000Y016030D01*
X048000Y015872D02*
X046941Y015872D01*
X046783Y015713D02*
X048000Y015713D01*
X048000Y015555D02*
X046875Y015555D01*
X047030Y015396D02*
X048000Y015396D01*
X048000Y015238D02*
X047030Y015238D01*
X047030Y015079D02*
X048000Y015079D01*
X048000Y014921D02*
X046990Y014921D01*
X046832Y014762D02*
X048000Y014762D01*
X048000Y014604D02*
X046826Y014604D01*
X046985Y014445D02*
X048000Y014445D01*
X048000Y014287D02*
X047030Y014287D01*
X047030Y014128D02*
X048000Y014128D01*
X048000Y013970D02*
X047030Y013970D01*
X046881Y013811D02*
X048000Y013811D01*
X048000Y013653D02*
X046777Y013653D01*
X046936Y013494D02*
X048000Y013494D01*
X048000Y013336D02*
X047030Y013336D01*
X047030Y013177D02*
X048000Y013177D01*
X048000Y013019D02*
X047030Y013019D01*
X046930Y012860D02*
X048000Y012860D01*
X048000Y012702D02*
X046771Y012702D01*
X046887Y012543D02*
X048000Y012543D01*
X048000Y012385D02*
X047030Y012385D01*
X047030Y012226D02*
X048000Y012226D01*
X048000Y012068D02*
X047030Y012068D01*
X046979Y011909D02*
X048000Y011909D01*
X048000Y011751D02*
X046820Y011751D01*
X046838Y011592D02*
X048000Y011592D01*
X048000Y011434D02*
X046996Y011434D01*
X047030Y011275D02*
X048000Y011275D01*
X048000Y011117D02*
X047030Y011117D01*
X047028Y010958D02*
X048000Y010958D01*
X048000Y010800D02*
X046869Y010800D01*
X048000Y010641D02*
X041500Y010641D01*
X041500Y010483D02*
X048000Y010483D01*
X048000Y010324D02*
X041500Y010324D01*
X041500Y010166D02*
X048000Y010166D01*
X048000Y010007D02*
X041500Y010007D01*
X041500Y009849D02*
X048000Y009849D01*
X048000Y009690D02*
X041500Y009690D01*
X042617Y013336D02*
X042713Y013336D01*
X042713Y013494D02*
X042617Y013494D01*
X042617Y013653D02*
X042713Y013653D01*
X042713Y013811D02*
X042617Y013811D01*
X042617Y013970D02*
X042713Y013970D01*
X042713Y014128D02*
X042617Y014128D01*
X042617Y014287D02*
X042713Y014287D01*
X042713Y014445D02*
X042617Y014445D01*
X042617Y014604D02*
X042713Y014604D01*
X042713Y014762D02*
X042617Y014762D01*
X042617Y014921D02*
X042713Y014921D01*
X042713Y015079D02*
X042617Y015079D01*
X042617Y015238D02*
X042713Y015238D01*
X042713Y015396D02*
X042617Y015396D01*
X042617Y015555D02*
X042713Y015555D01*
X042713Y015713D02*
X042617Y015713D01*
X042617Y015872D02*
X042713Y015872D01*
X042713Y016030D02*
X042617Y016030D01*
X042976Y015713D02*
X044246Y015713D01*
X044153Y015555D02*
X043738Y015555D01*
X043694Y014762D02*
X044197Y014762D01*
X044202Y014604D02*
X043689Y014604D01*
X043743Y013811D02*
X044148Y013811D01*
X044251Y013653D02*
X042955Y013653D01*
X046915Y022846D02*
X048000Y022846D01*
X048000Y023004D02*
X047030Y023004D01*
X047030Y023163D02*
X048000Y023163D01*
X048000Y023321D02*
X047030Y023321D01*
X046950Y023480D02*
X048000Y023480D01*
X048000Y023638D02*
X046791Y023638D01*
X046866Y023797D02*
X048000Y023797D01*
X048000Y023955D02*
X047025Y023955D01*
X047030Y024114D02*
X048000Y024114D01*
X048000Y024272D02*
X047030Y024272D01*
X046999Y024431D02*
X048000Y024431D01*
X048000Y024589D02*
X046840Y024589D01*
X046817Y024748D02*
X048000Y024748D01*
X048000Y024906D02*
X046976Y024906D01*
X047030Y025065D02*
X048000Y025065D01*
X048000Y025223D02*
X047030Y025223D01*
X047030Y025382D02*
X048000Y025382D01*
X048000Y025540D02*
X046889Y025540D01*
X046768Y025699D02*
X048000Y025699D01*
X048000Y025857D02*
X046927Y025857D01*
X047030Y026016D02*
X048000Y026016D01*
X048000Y026174D02*
X047030Y026174D01*
X047030Y026333D02*
X048000Y026333D01*
X048000Y026491D02*
X046938Y026491D01*
X046780Y026650D02*
X048000Y026650D01*
D22*
X047500Y027180D03*
X046000Y029180D03*
X046000Y029680D03*
X045500Y029680D03*
X045500Y029180D03*
X043500Y027180D03*
X042500Y027180D03*
X026000Y025542D03*
X025500Y024180D03*
X024000Y023680D03*
X024000Y022680D03*
X023000Y022680D03*
X023000Y023680D03*
X021500Y024558D03*
X022000Y025680D03*
X024091Y025180D03*
X025500Y027680D03*
X022150Y029180D03*
X022000Y030180D03*
X020500Y028680D03*
X019900Y028680D03*
X019000Y028180D03*
X020500Y027680D03*
X021500Y022680D03*
X021500Y021680D03*
X023106Y021180D03*
X025500Y021605D03*
X024000Y018180D03*
X019000Y021802D03*
X013650Y018180D03*
X014500Y013680D03*
X014500Y012680D03*
X016000Y012680D03*
X016000Y013680D03*
X014000Y010680D03*
X010500Y011180D03*
X010620Y013180D03*
X008000Y006680D03*
X008000Y006180D03*
X007500Y006180D03*
X007500Y006680D03*
X008500Y021680D03*
X008500Y022180D03*
X009000Y022180D03*
X009000Y021680D03*
X002500Y032680D03*
X004104Y036680D03*
X005380Y038180D03*
X006152Y038180D03*
X007414Y039680D03*
X010500Y042680D03*
X014000Y045180D03*
X016000Y042680D03*
X010000Y033680D03*
X002500Y037680D03*
X006000Y046680D03*
X006000Y047180D03*
X006500Y047180D03*
X006500Y046680D03*
X037500Y043680D03*
X037500Y043180D03*
X038000Y043180D03*
X038000Y043680D03*
X042500Y010180D03*
X043500Y010180D03*
X047500Y010180D03*
D23*
X044500Y011180D02*
X043335Y011180D01*
X043335Y012180D02*
X044500Y012180D01*
X044500Y013180D02*
X043335Y013180D01*
X043335Y014180D02*
X044500Y014180D01*
X044500Y015180D02*
X043335Y015180D01*
X043335Y016180D02*
X044500Y016180D01*
X044500Y017180D02*
X043335Y017180D01*
X043335Y018180D02*
X044500Y018180D01*
X044500Y019180D02*
X043335Y019180D01*
X043335Y020180D02*
X044500Y020180D01*
X044500Y021180D02*
X043335Y021180D01*
X043335Y022180D02*
X044500Y022180D01*
X044500Y023180D02*
X043335Y023180D01*
X043335Y024180D02*
X044500Y024180D01*
X044500Y025180D02*
X043335Y025180D01*
X043335Y026180D02*
X044500Y026180D01*
X034500Y043180D02*
X030363Y043180D01*
X030610Y043427D01*
X030610Y043933D01*
X030363Y044180D01*
X030610Y044427D01*
X030610Y044933D01*
X030377Y045166D01*
X030630Y045419D01*
X030630Y045680D01*
X030630Y045941D01*
X030261Y046310D01*
X030000Y046310D01*
X030000Y045680D01*
X030630Y045680D01*
X030000Y045680D01*
X030000Y045680D01*
X030000Y045680D01*
X030000Y045680D01*
X029000Y045680D01*
X029000Y045680D01*
X029000Y045680D01*
X029000Y046310D01*
X029261Y046310D01*
X029500Y046071D01*
X029739Y046310D01*
X030000Y046310D01*
X030000Y045680D01*
X030000Y045290D01*
X030000Y045290D01*
X030000Y045680D01*
X030000Y045680D01*
X029370Y045680D01*
X029000Y045680D01*
X029000Y045680D01*
X028000Y045680D01*
X028000Y045680D01*
X028000Y045680D01*
X028000Y046310D01*
X028261Y046310D01*
X028500Y046071D01*
X028739Y046310D01*
X029000Y046310D01*
X029000Y045680D01*
X029000Y045290D01*
X029000Y045290D01*
X029000Y045680D01*
X029000Y045680D01*
X028370Y045680D01*
X028000Y045680D01*
X028000Y045680D01*
X027000Y045680D01*
X027000Y045680D01*
X027000Y045680D01*
X027000Y046310D01*
X027261Y046310D01*
X027500Y046071D01*
X027739Y046310D01*
X028000Y046310D01*
X028000Y045680D01*
X028000Y045290D01*
X028000Y045290D01*
X028000Y045680D01*
X028000Y045680D01*
X027370Y045680D01*
X027000Y045680D01*
X027000Y045680D01*
X026000Y045680D01*
X026000Y045680D01*
X026000Y045680D01*
X026000Y046310D01*
X026261Y046310D01*
X026500Y046071D01*
X026739Y046310D01*
X027000Y046310D01*
X027000Y045680D01*
X027000Y045290D01*
X027000Y045290D01*
X027000Y045680D01*
X027000Y045680D01*
X026630Y045680D01*
X026000Y045680D01*
X026000Y045680D01*
X025000Y045680D01*
X025000Y045680D01*
X025000Y045680D01*
X025000Y046310D01*
X025261Y046310D01*
X025500Y046071D01*
X025739Y046310D01*
X026000Y046310D01*
X026000Y045680D01*
X026000Y045290D01*
X026000Y045290D01*
X026000Y045680D01*
X026000Y045680D01*
X025370Y045680D01*
X025000Y045680D01*
X025000Y045680D01*
X024000Y045680D01*
X024000Y045680D01*
X024000Y045680D01*
X024000Y046310D01*
X024261Y046310D01*
X024500Y046071D01*
X024739Y046310D01*
X025000Y046310D01*
X025000Y045680D01*
X025000Y045290D01*
X025000Y045290D01*
X025000Y045680D01*
X025000Y045680D01*
X024370Y045680D01*
X024000Y045680D01*
X024000Y045680D01*
X023000Y045680D01*
X023000Y045680D01*
X023000Y045680D01*
X023000Y046310D01*
X023261Y046310D01*
X023500Y046071D01*
X023739Y046310D01*
X024000Y046310D01*
X024000Y045680D01*
X024000Y045290D01*
X024000Y045290D01*
X024000Y045680D01*
X024000Y045680D01*
X023370Y045680D01*
X023000Y045680D01*
X023000Y045680D01*
X022000Y045680D01*
X022000Y045680D01*
X022000Y045680D01*
X022000Y046310D01*
X022261Y046310D01*
X022500Y046071D01*
X022739Y046310D01*
X023000Y046310D01*
X023000Y045680D01*
X023000Y045290D01*
X023000Y045290D01*
X023000Y045680D01*
X023000Y045680D01*
X022370Y045680D01*
X022000Y045680D01*
X022000Y045680D01*
X021000Y045680D01*
X021000Y045680D01*
X021000Y045680D01*
X021000Y046310D01*
X021261Y046310D01*
X021500Y046071D01*
X021739Y046310D01*
X022000Y046310D01*
X022000Y045680D01*
X022000Y045290D01*
X022000Y045290D01*
X022000Y045680D01*
X022000Y045680D01*
X021630Y045680D01*
X021000Y045680D01*
X021000Y045680D01*
X020630Y045680D01*
X020000Y045680D01*
X020000Y045680D01*
X020000Y045680D01*
X020000Y046310D01*
X020261Y046310D01*
X020500Y046071D01*
X020739Y046310D01*
X021000Y046310D01*
X021000Y045680D01*
X021000Y045290D01*
X021000Y045290D01*
X021000Y045680D01*
X021000Y045680D01*
X020000Y045680D01*
X020000Y045680D01*
X019500Y045680D01*
X019500Y045680D01*
X020000Y045680D01*
X020000Y045290D01*
X020000Y045290D01*
X020000Y045680D01*
X020000Y045680D01*
X020000Y046310D01*
X019739Y046310D01*
X019500Y046071D01*
X019500Y049680D01*
X034500Y049680D01*
X034500Y043180D01*
X034500Y043218D02*
X030401Y043218D01*
X030610Y043617D02*
X034500Y043617D01*
X034500Y044015D02*
X030528Y044015D01*
X030596Y044414D02*
X034500Y044414D01*
X034500Y044812D02*
X030610Y044812D01*
X030421Y045211D02*
X034500Y045211D01*
X034500Y045609D02*
X030630Y045609D01*
X030563Y046008D02*
X034500Y046008D01*
X034500Y046406D02*
X019500Y046406D01*
X019500Y046805D02*
X034500Y046805D01*
X034500Y047203D02*
X019500Y047203D01*
X019500Y047602D02*
X034500Y047602D01*
X034500Y048000D02*
X019500Y048000D01*
X019500Y048399D02*
X034500Y048399D01*
X034500Y048797D02*
X019500Y048797D01*
X019500Y049196D02*
X034500Y049196D01*
X034500Y049594D02*
X019500Y049594D01*
X020000Y046008D02*
X020000Y046008D01*
X020000Y045609D02*
X020000Y045609D01*
X021000Y045609D02*
X021000Y045609D01*
X021000Y046008D02*
X021000Y046008D01*
X022000Y046008D02*
X022000Y046008D01*
X022000Y045609D02*
X022000Y045609D01*
X023000Y045609D02*
X023000Y045609D01*
X023000Y046008D02*
X023000Y046008D01*
X024000Y046008D02*
X024000Y046008D01*
X024000Y045609D02*
X024000Y045609D01*
X025000Y045609D02*
X025000Y045609D01*
X025000Y046008D02*
X025000Y046008D01*
X026000Y046008D02*
X026000Y046008D01*
X026000Y045609D02*
X026000Y045609D01*
X027000Y045609D02*
X027000Y045609D01*
X027000Y046008D02*
X027000Y046008D01*
X028000Y046008D02*
X028000Y046008D01*
X028000Y045609D02*
X028000Y045609D01*
X029000Y045609D02*
X029000Y045609D01*
X029000Y046008D02*
X029000Y046008D01*
X030000Y046008D02*
X030000Y046008D01*
X030000Y045609D02*
X030000Y045609D01*
X015000Y043845D02*
X014000Y043845D01*
X014000Y045180D01*
X014000Y043845D02*
X014000Y043680D01*
D24*
X000750Y049930D02*
X000750Y000430D01*
X010283Y000430D01*
X010220Y000493D01*
X010170Y000614D01*
X010170Y005746D01*
X010220Y005867D01*
X010313Y005960D01*
X010434Y006010D01*
X014780Y006010D01*
X014780Y012089D01*
X014577Y012292D01*
X014423Y012292D01*
X014280Y012351D01*
X014171Y012460D01*
X014112Y012603D01*
X014112Y012757D01*
X014171Y012900D01*
X014231Y012960D01*
X010949Y012960D01*
X010840Y012851D01*
X010697Y012792D01*
X010543Y012792D01*
X010400Y012851D01*
X010291Y012960D01*
X010232Y013103D01*
X010232Y013257D01*
X010291Y013400D01*
X010400Y013509D01*
X010543Y013568D01*
X010697Y013568D01*
X010840Y013509D01*
X010949Y013400D01*
X014231Y013400D01*
X014171Y013460D01*
X014112Y013603D01*
X014112Y013757D01*
X014171Y013900D01*
X014280Y014009D01*
X014423Y014068D01*
X014577Y014068D01*
X014780Y014271D01*
X014780Y017771D01*
X014909Y017900D01*
X015899Y017900D01*
X018425Y020847D01*
X015713Y018040D01*
X015712Y018038D01*
X015678Y018005D01*
X015645Y017971D01*
X015643Y017970D01*
X015642Y017968D01*
X015598Y017950D01*
X015554Y017931D01*
X015552Y017931D01*
X015550Y017930D01*
X015502Y017930D01*
X015455Y017929D01*
X015452Y017930D01*
X013949Y017930D01*
X013870Y017851D01*
X013727Y017792D01*
X013573Y017792D01*
X013430Y017851D01*
X013321Y017960D01*
X013262Y018103D01*
X013262Y018257D01*
X013321Y018400D01*
X013430Y018509D01*
X013573Y018568D01*
X013727Y018568D01*
X013870Y018509D01*
X013949Y018430D01*
X015394Y018430D01*
X018612Y021760D01*
X018612Y021879D01*
X018671Y022022D01*
X018780Y022131D01*
X018923Y022190D01*
X019077Y022190D01*
X019220Y022131D01*
X019270Y022081D01*
X019270Y024960D01*
X017909Y024960D01*
X017780Y025089D01*
X010409Y032460D01*
X002829Y032460D01*
X002720Y032351D01*
X002577Y032292D01*
X002423Y032292D01*
X002280Y032351D01*
X002171Y032460D01*
X002112Y032603D01*
X002112Y032757D01*
X002171Y032900D01*
X002280Y033009D01*
X002423Y033068D01*
X002577Y033068D01*
X002720Y033009D01*
X002829Y032900D01*
X010469Y032900D01*
X010077Y033292D01*
X009923Y033292D01*
X009780Y033351D01*
X009671Y033460D01*
X009612Y033603D01*
X009612Y033757D01*
X009671Y033900D01*
X009780Y034009D01*
X009923Y034068D01*
X010077Y034068D01*
X010220Y034009D01*
X010329Y033900D01*
X010388Y033757D01*
X010388Y033603D01*
X016091Y027900D01*
X018731Y027900D01*
X018671Y027960D01*
X016409Y027960D01*
X014909Y029460D01*
X014780Y029589D01*
X014780Y032589D01*
X010909Y036460D01*
X010780Y036589D01*
X010780Y042089D01*
X010577Y042292D01*
X010423Y042292D01*
X010280Y042351D01*
X010171Y042460D01*
X010112Y042603D01*
X010112Y042757D01*
X010171Y042900D01*
X010280Y043009D01*
X010423Y043068D01*
X010577Y043068D01*
X010720Y043009D01*
X010829Y042900D01*
X010888Y042757D01*
X010888Y042603D01*
X011220Y042271D01*
X011220Y036771D01*
X015220Y032771D01*
X015220Y029771D01*
X016591Y028400D01*
X018671Y028400D01*
X018780Y028509D01*
X018923Y028568D01*
X019077Y028568D01*
X019220Y028509D01*
X019329Y028400D01*
X019388Y028257D01*
X019388Y028103D01*
X019329Y027960D01*
X019269Y027900D01*
X020171Y027900D01*
X020280Y028009D01*
X020290Y028013D01*
X019988Y028296D01*
X019977Y028292D01*
X019823Y028292D01*
X019680Y028351D01*
X019349Y028351D01*
X019388Y028253D02*
X020034Y028253D01*
X020139Y028154D02*
X019388Y028154D01*
X019369Y028056D02*
X020244Y028056D01*
X020228Y027957D02*
X019326Y027957D01*
X019000Y028180D02*
X016500Y028180D01*
X015000Y029680D01*
X015000Y032680D01*
X011000Y036680D01*
X011000Y042180D01*
X010500Y042680D01*
X010142Y042831D02*
X007720Y042831D01*
X007720Y042929D02*
X010200Y042929D01*
X010325Y043028D02*
X007720Y043028D01*
X007720Y043126D02*
X015780Y043126D01*
X015780Y043028D02*
X010675Y043028D01*
X010800Y042929D02*
X015700Y042929D01*
X015671Y042900D02*
X015612Y042757D01*
X015612Y042603D01*
X015671Y042460D01*
X015780Y042351D01*
X015923Y042292D01*
X016077Y042292D01*
X016220Y042351D01*
X016329Y042460D01*
X016388Y042603D01*
X016388Y042757D01*
X016329Y042900D01*
X016220Y043009D01*
X016220Y045771D01*
X015504Y046487D01*
X015540Y046573D01*
X015540Y046787D01*
X015458Y046986D01*
X015306Y047138D01*
X015107Y047220D01*
X014893Y047220D01*
X014694Y047138D01*
X014542Y046986D01*
X014460Y046787D01*
X014460Y046573D01*
X014542Y046374D01*
X014694Y046222D01*
X014796Y046180D01*
X014694Y046138D01*
X014542Y045986D01*
X014460Y045787D01*
X014460Y045573D01*
X014542Y045374D01*
X014694Y045222D01*
X014893Y045140D01*
X015107Y045140D01*
X015306Y045222D01*
X015458Y045374D01*
X015540Y045573D01*
X015540Y045787D01*
X015511Y045858D01*
X015780Y045589D01*
X015780Y043009D01*
X015671Y042900D01*
X015642Y042831D02*
X010858Y042831D01*
X010888Y042732D02*
X015612Y042732D01*
X015612Y042634D02*
X010888Y042634D01*
X010956Y042535D02*
X015640Y042535D01*
X015695Y042437D02*
X011055Y042437D01*
X011153Y042338D02*
X015811Y042338D01*
X016189Y042338D02*
X050250Y042338D01*
X050250Y042240D02*
X011220Y042240D01*
X011220Y042141D02*
X050250Y042141D01*
X050250Y042043D02*
X011220Y042043D01*
X011220Y041944D02*
X050250Y041944D01*
X050250Y041846D02*
X011220Y041846D01*
X011220Y041747D02*
X050250Y041747D01*
X050250Y041649D02*
X011220Y041649D01*
X011220Y041550D02*
X050250Y041550D01*
X050250Y041452D02*
X011220Y041452D01*
X011220Y041353D02*
X050250Y041353D01*
X050250Y041255D02*
X011220Y041255D01*
X011220Y041156D02*
X050250Y041156D01*
X050250Y041058D02*
X011220Y041058D01*
X011220Y040959D02*
X050250Y040959D01*
X050250Y040861D02*
X011220Y040861D01*
X011220Y040762D02*
X050250Y040762D01*
X050250Y040664D02*
X011220Y040664D01*
X011220Y040565D02*
X050250Y040565D01*
X050250Y040467D02*
X011220Y040467D01*
X011220Y040368D02*
X050250Y040368D01*
X050250Y040270D02*
X011220Y040270D01*
X011220Y040171D02*
X050250Y040171D01*
X050250Y040073D02*
X011220Y040073D01*
X011220Y039974D02*
X050250Y039974D01*
X050250Y039876D02*
X011220Y039876D01*
X011220Y039777D02*
X050250Y039777D01*
X050250Y039679D02*
X011220Y039679D01*
X011220Y039580D02*
X050250Y039580D01*
X050250Y039482D02*
X011220Y039482D01*
X011220Y039383D02*
X050250Y039383D01*
X050250Y039285D02*
X011220Y039285D01*
X011220Y039186D02*
X050250Y039186D01*
X050250Y039088D02*
X011220Y039088D01*
X011220Y038989D02*
X050250Y038989D01*
X050250Y038891D02*
X011220Y038891D01*
X011220Y038792D02*
X050250Y038792D01*
X050250Y038694D02*
X011220Y038694D01*
X011220Y038595D02*
X050250Y038595D01*
X050250Y038497D02*
X011220Y038497D01*
X011220Y038398D02*
X050250Y038398D01*
X050250Y038300D02*
X011220Y038300D01*
X011220Y038201D02*
X050250Y038201D01*
X050250Y038103D02*
X011220Y038103D01*
X011220Y038004D02*
X050250Y038004D01*
X050250Y037906D02*
X011220Y037906D01*
X011220Y037807D02*
X050250Y037807D01*
X050250Y037709D02*
X011220Y037709D01*
X011220Y037610D02*
X050250Y037610D01*
X050250Y037512D02*
X011220Y037512D01*
X011220Y037413D02*
X050250Y037413D01*
X050250Y037315D02*
X011220Y037315D01*
X011220Y037216D02*
X050250Y037216D01*
X050250Y037118D02*
X011220Y037118D01*
X011220Y037019D02*
X050250Y037019D01*
X050250Y036921D02*
X011220Y036921D01*
X011220Y036822D02*
X050250Y036822D01*
X050250Y036724D02*
X011268Y036724D01*
X011366Y036625D02*
X050250Y036625D01*
X050250Y036527D02*
X011465Y036527D01*
X011563Y036428D02*
X050250Y036428D01*
X050250Y036330D02*
X011662Y036330D01*
X011760Y036231D02*
X050250Y036231D01*
X050250Y036133D02*
X011859Y036133D01*
X011957Y036034D02*
X050250Y036034D01*
X050250Y035936D02*
X012056Y035936D01*
X012154Y035837D02*
X050250Y035837D01*
X050250Y035739D02*
X012253Y035739D01*
X012351Y035640D02*
X050250Y035640D01*
X050250Y035542D02*
X012450Y035542D01*
X012548Y035443D02*
X050250Y035443D01*
X050250Y035345D02*
X012647Y035345D01*
X012745Y035246D02*
X050250Y035246D01*
X050250Y035148D02*
X012844Y035148D01*
X012942Y035049D02*
X050250Y035049D01*
X050250Y034951D02*
X013041Y034951D01*
X013139Y034852D02*
X050250Y034852D01*
X050250Y034754D02*
X013238Y034754D01*
X013336Y034655D02*
X050250Y034655D01*
X050250Y034557D02*
X013435Y034557D01*
X013533Y034458D02*
X050250Y034458D01*
X050250Y034360D02*
X013632Y034360D01*
X013730Y034261D02*
X050250Y034261D01*
X050250Y034163D02*
X013829Y034163D01*
X013927Y034064D02*
X050250Y034064D01*
X050250Y033966D02*
X014026Y033966D01*
X014124Y033867D02*
X050250Y033867D01*
X050250Y033769D02*
X014223Y033769D01*
X014321Y033670D02*
X050250Y033670D01*
X050250Y033572D02*
X014420Y033572D01*
X014518Y033473D02*
X050250Y033473D01*
X050250Y033375D02*
X014617Y033375D01*
X014715Y033276D02*
X050250Y033276D01*
X050250Y033178D02*
X014814Y033178D01*
X014912Y033079D02*
X050250Y033079D01*
X050250Y032981D02*
X015011Y032981D01*
X015109Y032882D02*
X050250Y032882D01*
X050250Y032784D02*
X015208Y032784D01*
X015220Y032685D02*
X017191Y032685D01*
X017226Y032720D02*
X016910Y032404D01*
X016910Y031956D01*
X017186Y031680D01*
X016910Y031404D01*
X016910Y030956D01*
X016913Y030954D01*
X016280Y030321D01*
X015220Y030321D01*
X015220Y030223D02*
X016280Y030223D01*
X016280Y030321D02*
X016280Y029589D01*
X016409Y029460D01*
X016909Y028960D01*
X019631Y028960D01*
X019571Y028900D01*
X019512Y028757D01*
X019512Y028603D01*
X019571Y028460D01*
X019680Y028351D01*
X019582Y028450D02*
X019279Y028450D01*
X019126Y028548D02*
X019535Y028548D01*
X019512Y028647D02*
X016345Y028647D01*
X016443Y028548D02*
X018874Y028548D01*
X018721Y028450D02*
X016542Y028450D01*
X016246Y028745D02*
X019512Y028745D01*
X019548Y028844D02*
X016148Y028844D01*
X016049Y028942D02*
X019613Y028942D01*
X019900Y028680D02*
X021500Y027180D01*
X021500Y025680D01*
X022000Y025680D01*
X022000Y025180D02*
X022000Y024680D01*
X022500Y024180D01*
X025500Y024180D01*
X026000Y025515D02*
X026000Y025542D01*
X026000Y025515D02*
X027000Y025515D01*
X027000Y025680D01*
X028000Y025680D01*
X027730Y025692D02*
X041250Y025692D01*
X041250Y025790D02*
X027730Y025790D01*
X027730Y025889D02*
X041250Y025889D01*
X041250Y025987D02*
X027730Y025987D01*
X027730Y026086D02*
X041250Y026086D01*
X041250Y026184D02*
X027730Y026184D01*
X027730Y026283D02*
X041250Y026283D01*
X041250Y026381D02*
X027730Y026381D01*
X027730Y026480D02*
X041250Y026480D01*
X041250Y026578D02*
X027730Y026578D01*
X027730Y026677D02*
X041250Y026677D01*
X041250Y026775D02*
X027730Y026775D01*
X027730Y026874D02*
X041250Y026874D01*
X041250Y026972D02*
X027730Y026972D01*
X027730Y027071D02*
X041250Y027071D01*
X041250Y027169D02*
X027730Y027169D01*
X027730Y027268D02*
X041250Y027268D01*
X041250Y027366D02*
X027639Y027366D01*
X027595Y027410D02*
X025779Y027410D01*
X025829Y027460D01*
X025888Y027603D01*
X025888Y027757D01*
X025829Y027900D01*
X025720Y028009D01*
X025577Y028068D01*
X025423Y028068D01*
X025280Y028009D01*
X025171Y027900D01*
X021591Y027900D01*
X020888Y028603D01*
X020888Y028757D01*
X020829Y028900D01*
X020769Y028960D01*
X021821Y028960D01*
X021930Y028851D01*
X022073Y028792D01*
X022227Y028792D01*
X022370Y028851D01*
X022479Y028960D01*
X022538Y029103D01*
X022538Y029257D01*
X022479Y029400D01*
X022370Y029509D01*
X022227Y029568D01*
X022073Y029568D01*
X021930Y029509D01*
X021821Y029400D01*
X017091Y029400D01*
X016720Y029771D01*
X016720Y030139D01*
X016930Y030349D01*
X016930Y030230D01*
X017400Y030230D01*
X017400Y030130D01*
X017500Y030130D01*
X017500Y029660D01*
X017665Y029660D01*
X017936Y029930D01*
X018226Y029640D01*
X018674Y029640D01*
X018990Y029956D01*
X018990Y029960D01*
X021671Y029960D01*
X021780Y029851D01*
X021923Y029792D01*
X022077Y029792D01*
X022220Y029851D01*
X022329Y029960D01*
X022388Y030103D01*
X022388Y030257D01*
X022329Y030400D01*
X022220Y030509D01*
X022077Y030568D01*
X021923Y030568D01*
X021780Y030509D01*
X021671Y030400D01*
X018990Y030400D01*
X018990Y030404D01*
X018714Y030680D01*
X018990Y030956D01*
X018990Y031404D01*
X018714Y031680D01*
X018990Y031956D01*
X018990Y032404D01*
X018674Y032720D01*
X018226Y032720D01*
X017950Y032444D01*
X017674Y032720D01*
X017226Y032720D01*
X017093Y032587D02*
X015220Y032587D01*
X015220Y032488D02*
X016994Y032488D01*
X016910Y032390D02*
X015220Y032390D01*
X015220Y032291D02*
X016910Y032291D01*
X016910Y032193D02*
X015220Y032193D01*
X015220Y032094D02*
X016910Y032094D01*
X016910Y031996D02*
X015220Y031996D01*
X015220Y031897D02*
X016969Y031897D01*
X017068Y031799D02*
X015220Y031799D01*
X015220Y031700D02*
X017166Y031700D01*
X017108Y031602D02*
X015220Y031602D01*
X015220Y031503D02*
X017009Y031503D01*
X016911Y031405D02*
X015220Y031405D01*
X015220Y031306D02*
X016910Y031306D01*
X016910Y031208D02*
X015220Y031208D01*
X015220Y031109D02*
X016910Y031109D01*
X016910Y031011D02*
X015220Y031011D01*
X015220Y030912D02*
X016871Y030912D01*
X016772Y030814D02*
X015220Y030814D01*
X015220Y030715D02*
X016674Y030715D01*
X016575Y030617D02*
X015220Y030617D01*
X015220Y030518D02*
X016477Y030518D01*
X016378Y030420D02*
X015220Y030420D01*
X015220Y030124D02*
X016280Y030124D01*
X016280Y030026D02*
X015220Y030026D01*
X015220Y029927D02*
X016280Y029927D01*
X016280Y029829D02*
X015220Y029829D01*
X015261Y029730D02*
X016280Y029730D01*
X016280Y029632D02*
X015360Y029632D01*
X015458Y029533D02*
X016336Y029533D01*
X016434Y029435D02*
X015557Y029435D01*
X015655Y029336D02*
X016533Y029336D01*
X016631Y029238D02*
X015754Y029238D01*
X015852Y029139D02*
X016730Y029139D01*
X016828Y029041D02*
X015951Y029041D01*
X015624Y028745D02*
X015246Y028745D01*
X015345Y028647D02*
X015722Y028647D01*
X015821Y028548D02*
X015443Y028548D01*
X015542Y028450D02*
X015919Y028450D01*
X016018Y028351D02*
X015640Y028351D01*
X015739Y028253D02*
X016116Y028253D01*
X016215Y028154D02*
X015837Y028154D01*
X015936Y028056D02*
X016313Y028056D01*
X016034Y027957D02*
X018674Y027957D01*
X017000Y029180D02*
X016500Y029680D01*
X016500Y030230D01*
X017450Y031180D01*
X017400Y030223D02*
X016804Y030223D01*
X016720Y030124D02*
X016930Y030124D01*
X016930Y030130D02*
X016930Y029965D01*
X017235Y029660D01*
X017400Y029660D01*
X017400Y030130D01*
X016930Y030130D01*
X016930Y030026D02*
X016720Y030026D01*
X016720Y029927D02*
X016968Y029927D01*
X017066Y029829D02*
X016720Y029829D01*
X016761Y029730D02*
X017165Y029730D01*
X017400Y029730D02*
X017500Y029730D01*
X017500Y029829D02*
X017400Y029829D01*
X017400Y029927D02*
X017500Y029927D01*
X017500Y030026D02*
X017400Y030026D01*
X017400Y030124D02*
X017500Y030124D01*
X017834Y029829D02*
X018038Y029829D01*
X017939Y029927D02*
X017932Y029927D01*
X017735Y029730D02*
X018136Y029730D01*
X018450Y030180D02*
X022000Y030180D01*
X022356Y030026D02*
X050250Y030026D01*
X050250Y030124D02*
X022388Y030124D01*
X022388Y030223D02*
X050250Y030223D01*
X050250Y030321D02*
X022362Y030321D01*
X022309Y030420D02*
X050250Y030420D01*
X050250Y030518D02*
X022198Y030518D01*
X021802Y030518D02*
X018876Y030518D01*
X018974Y030420D02*
X021691Y030420D01*
X021704Y029927D02*
X018961Y029927D01*
X018862Y029829D02*
X021834Y029829D01*
X022166Y029829D02*
X050250Y029829D01*
X050250Y029927D02*
X022296Y029927D01*
X022312Y029533D02*
X050250Y029533D01*
X050250Y029435D02*
X022444Y029435D01*
X022505Y029336D02*
X050250Y029336D01*
X050250Y029238D02*
X022538Y029238D01*
X022538Y029139D02*
X050250Y029139D01*
X050250Y029041D02*
X022512Y029041D01*
X022461Y028942D02*
X050250Y028942D01*
X050250Y028844D02*
X022352Y028844D01*
X022150Y029180D02*
X017000Y029180D01*
X017057Y029435D02*
X021856Y029435D01*
X021988Y029533D02*
X016958Y029533D01*
X016860Y029632D02*
X050250Y029632D01*
X050250Y029730D02*
X018764Y029730D01*
X018777Y030617D02*
X050250Y030617D01*
X050250Y030715D02*
X018749Y030715D01*
X018847Y030814D02*
X050250Y030814D01*
X050250Y030912D02*
X018946Y030912D01*
X018990Y031011D02*
X050250Y031011D01*
X050250Y031109D02*
X018990Y031109D01*
X018990Y031208D02*
X050250Y031208D01*
X050250Y031306D02*
X018990Y031306D01*
X018989Y031405D02*
X050250Y031405D01*
X050250Y031503D02*
X018891Y031503D01*
X018792Y031602D02*
X050250Y031602D01*
X050250Y031700D02*
X018734Y031700D01*
X018832Y031799D02*
X050250Y031799D01*
X050250Y031897D02*
X018931Y031897D01*
X018990Y031996D02*
X050250Y031996D01*
X050250Y032094D02*
X018990Y032094D01*
X018990Y032193D02*
X050250Y032193D01*
X050250Y032291D02*
X018990Y032291D01*
X018990Y032390D02*
X050250Y032390D01*
X050250Y032488D02*
X018906Y032488D01*
X018807Y032587D02*
X050250Y032587D01*
X050250Y032685D02*
X018709Y032685D01*
X018191Y032685D02*
X017709Y032685D01*
X017807Y032587D02*
X018093Y032587D01*
X017994Y032488D02*
X017906Y032488D01*
X016930Y030321D02*
X016902Y030321D01*
X015427Y028942D02*
X015049Y028942D01*
X015148Y028844D02*
X015525Y028844D01*
X015328Y029041D02*
X014951Y029041D01*
X014852Y029139D02*
X015230Y029139D01*
X015131Y029238D02*
X014754Y029238D01*
X014655Y029336D02*
X015033Y029336D01*
X014934Y029435D02*
X014557Y029435D01*
X014458Y029533D02*
X014836Y029533D01*
X014780Y029632D02*
X014360Y029632D01*
X014261Y029730D02*
X014780Y029730D01*
X014780Y029829D02*
X014163Y029829D01*
X014064Y029927D02*
X014780Y029927D01*
X014780Y030026D02*
X013966Y030026D01*
X013867Y030124D02*
X014780Y030124D01*
X014780Y030223D02*
X013769Y030223D01*
X013670Y030321D02*
X014780Y030321D01*
X014780Y030420D02*
X013572Y030420D01*
X013473Y030518D02*
X014780Y030518D01*
X014780Y030617D02*
X013375Y030617D01*
X013276Y030715D02*
X014780Y030715D01*
X014780Y030814D02*
X013178Y030814D01*
X013079Y030912D02*
X014780Y030912D01*
X014780Y031011D02*
X012981Y031011D01*
X012882Y031109D02*
X014780Y031109D01*
X014780Y031208D02*
X012784Y031208D01*
X012685Y031306D02*
X014780Y031306D01*
X014780Y031405D02*
X012587Y031405D01*
X012488Y031503D02*
X014780Y031503D01*
X014780Y031602D02*
X012390Y031602D01*
X012291Y031700D02*
X014780Y031700D01*
X014780Y031799D02*
X012193Y031799D01*
X012094Y031897D02*
X014780Y031897D01*
X014780Y031996D02*
X011996Y031996D01*
X011897Y032094D02*
X014780Y032094D01*
X014780Y032193D02*
X011799Y032193D01*
X011700Y032291D02*
X014780Y032291D01*
X014780Y032390D02*
X011602Y032390D01*
X011503Y032488D02*
X014780Y032488D01*
X014780Y032587D02*
X011405Y032587D01*
X011306Y032685D02*
X014684Y032685D01*
X014585Y032784D02*
X011208Y032784D01*
X011109Y032882D02*
X014487Y032882D01*
X014388Y032981D02*
X011011Y032981D01*
X010912Y033079D02*
X014290Y033079D01*
X014191Y033178D02*
X010814Y033178D01*
X010715Y033276D02*
X014093Y033276D01*
X013994Y033375D02*
X010617Y033375D01*
X010518Y033473D02*
X013896Y033473D01*
X013797Y033572D02*
X010420Y033572D01*
X010388Y033670D02*
X013699Y033670D01*
X013600Y033769D02*
X010383Y033769D01*
X010343Y033867D02*
X013502Y033867D01*
X013403Y033966D02*
X010263Y033966D01*
X010087Y034064D02*
X013305Y034064D01*
X013206Y034163D02*
X000750Y034163D01*
X000750Y034261D02*
X013108Y034261D01*
X013009Y034360D02*
X000750Y034360D01*
X000750Y034458D02*
X012911Y034458D01*
X012812Y034557D02*
X000750Y034557D01*
X000750Y034655D02*
X012714Y034655D01*
X012615Y034754D02*
X000750Y034754D01*
X000750Y034852D02*
X012517Y034852D01*
X012418Y034951D02*
X000750Y034951D01*
X000750Y035049D02*
X012320Y035049D01*
X012221Y035148D02*
X000750Y035148D01*
X000750Y035246D02*
X012123Y035246D01*
X012024Y035345D02*
X000750Y035345D01*
X000750Y035443D02*
X011926Y035443D01*
X011827Y035542D02*
X000750Y035542D01*
X000750Y035640D02*
X011729Y035640D01*
X011630Y035739D02*
X000750Y035739D01*
X000750Y035837D02*
X011532Y035837D01*
X011433Y035936D02*
X000750Y035936D01*
X000750Y036034D02*
X011335Y036034D01*
X011236Y036133D02*
X000750Y036133D01*
X000750Y036231D02*
X011138Y036231D01*
X011039Y036330D02*
X000750Y036330D01*
X000750Y036428D02*
X010941Y036428D01*
X010842Y036527D02*
X000750Y036527D01*
X000750Y036625D02*
X010780Y036625D01*
X010780Y036724D02*
X000750Y036724D01*
X000750Y036822D02*
X010780Y036822D01*
X010780Y036921D02*
X000750Y036921D01*
X000750Y037019D02*
X010780Y037019D01*
X010780Y037118D02*
X000750Y037118D01*
X000750Y037216D02*
X010780Y037216D01*
X010780Y037315D02*
X002632Y037315D01*
X002577Y037292D02*
X002720Y037351D01*
X002799Y037430D01*
X006201Y037430D01*
X006293Y037468D01*
X006364Y037538D01*
X006402Y037630D01*
X006402Y037881D01*
X006481Y037960D01*
X006540Y038103D01*
X006540Y038257D01*
X006481Y038400D01*
X006371Y038509D01*
X006229Y038568D01*
X006074Y038568D01*
X005932Y038509D01*
X005823Y038400D01*
X005763Y038257D01*
X005763Y038103D01*
X005823Y037960D01*
X005853Y037930D01*
X002799Y037930D01*
X002720Y038009D01*
X002577Y038068D01*
X002423Y038068D01*
X002280Y038009D01*
X002171Y037900D01*
X002112Y037757D01*
X002112Y037603D01*
X002171Y037460D01*
X002280Y037351D01*
X002423Y037292D01*
X002577Y037292D01*
X002368Y037315D02*
X000750Y037315D01*
X000750Y037413D02*
X002218Y037413D01*
X002150Y037512D02*
X000750Y037512D01*
X000750Y037610D02*
X002112Y037610D01*
X002112Y037709D02*
X000750Y037709D01*
X000750Y037807D02*
X002133Y037807D01*
X002177Y037906D02*
X000750Y037906D01*
X000750Y038004D02*
X002275Y038004D01*
X002725Y038004D02*
X005804Y038004D01*
X005764Y038103D02*
X000750Y038103D01*
X000750Y038201D02*
X005763Y038201D01*
X005781Y038300D02*
X000750Y038300D01*
X000750Y038398D02*
X005822Y038398D01*
X005919Y038497D02*
X000750Y038497D01*
X000750Y038595D02*
X010780Y038595D01*
X010780Y038497D02*
X006384Y038497D01*
X006481Y038398D02*
X010780Y038398D01*
X010780Y038300D02*
X006522Y038300D01*
X006540Y038201D02*
X010780Y038201D01*
X010780Y038103D02*
X006540Y038103D01*
X006499Y038004D02*
X010780Y038004D01*
X010780Y037906D02*
X006426Y037906D01*
X006402Y037807D02*
X010780Y037807D01*
X010780Y037709D02*
X006402Y037709D01*
X006393Y037610D02*
X010780Y037610D01*
X010780Y037512D02*
X006337Y037512D01*
X006358Y039430D02*
X007115Y039430D01*
X007194Y039351D01*
X007336Y039292D01*
X007491Y039292D01*
X007633Y039351D01*
X007743Y039460D01*
X007802Y039603D01*
X007802Y039757D01*
X007743Y039900D01*
X007633Y040009D01*
X007491Y040068D01*
X007336Y040068D01*
X007194Y040009D01*
X007115Y039930D01*
X006657Y039930D01*
X006657Y041137D01*
X006660Y041143D01*
X006657Y041186D01*
X006657Y041230D01*
X006655Y041236D01*
X006655Y041242D01*
X006636Y041282D01*
X006619Y041322D01*
X006615Y041326D01*
X006612Y041332D01*
X006580Y041361D01*
X006549Y041392D01*
X006543Y041394D01*
X006538Y041399D01*
X006497Y041413D01*
X006457Y041430D01*
X006451Y041430D01*
X006366Y041460D01*
X007591Y041460D01*
X007720Y041589D01*
X007720Y041771D01*
X007720Y044271D01*
X007591Y044400D01*
X005824Y044400D01*
X006082Y044658D01*
X006222Y044997D01*
X006222Y045363D01*
X006082Y045702D01*
X005823Y045961D01*
X005484Y046101D01*
X003616Y046101D01*
X003277Y045961D01*
X003018Y045702D01*
X002878Y045363D01*
X002878Y044997D01*
X003018Y044658D01*
X003277Y044399D01*
X003616Y044259D01*
X004280Y044259D01*
X004280Y041589D01*
X004409Y041460D01*
X004872Y041460D01*
X004910Y041447D01*
X004950Y041430D01*
X004957Y041430D01*
X005151Y041361D01*
X003616Y041361D01*
X003277Y041221D01*
X003018Y040962D01*
X002878Y040623D01*
X002878Y040257D01*
X003018Y039918D01*
X003277Y039659D01*
X003616Y039519D01*
X005484Y039519D01*
X005823Y039659D01*
X006082Y039918D01*
X006157Y040100D01*
X006157Y039630D01*
X006196Y039538D01*
X006266Y039468D01*
X006358Y039430D01*
X006252Y039482D02*
X000750Y039482D01*
X000750Y039580D02*
X003468Y039580D01*
X003257Y039679D02*
X000750Y039679D01*
X000750Y039777D02*
X003159Y039777D01*
X003060Y039876D02*
X000750Y039876D01*
X000750Y039974D02*
X002995Y039974D01*
X002954Y040073D02*
X000750Y040073D01*
X000750Y040171D02*
X002913Y040171D01*
X002878Y040270D02*
X000750Y040270D01*
X000750Y040368D02*
X002878Y040368D01*
X002878Y040467D02*
X000750Y040467D01*
X000750Y040565D02*
X002878Y040565D01*
X002894Y040664D02*
X000750Y040664D01*
X000750Y040762D02*
X002935Y040762D01*
X002976Y040861D02*
X000750Y040861D01*
X000750Y040959D02*
X003017Y040959D01*
X003114Y041058D02*
X000750Y041058D01*
X000750Y041156D02*
X003212Y041156D01*
X003358Y041255D02*
X000750Y041255D01*
X000750Y041353D02*
X003596Y041353D01*
X004280Y041649D02*
X000750Y041649D01*
X000750Y041747D02*
X004280Y041747D01*
X004280Y041846D02*
X000750Y041846D01*
X000750Y041944D02*
X004280Y041944D01*
X004280Y042043D02*
X000750Y042043D01*
X000750Y042141D02*
X004280Y042141D01*
X004280Y042240D02*
X000750Y042240D01*
X000750Y042338D02*
X004280Y042338D01*
X004280Y042437D02*
X000750Y042437D01*
X000750Y042535D02*
X004280Y042535D01*
X004280Y042634D02*
X000750Y042634D01*
X000750Y042732D02*
X004280Y042732D01*
X004280Y042831D02*
X000750Y042831D01*
X000750Y042929D02*
X004280Y042929D01*
X004280Y043028D02*
X000750Y043028D01*
X000750Y043126D02*
X004280Y043126D01*
X004280Y043225D02*
X000750Y043225D01*
X000750Y043323D02*
X004280Y043323D01*
X004280Y043422D02*
X000750Y043422D01*
X000750Y043520D02*
X004280Y043520D01*
X004280Y043619D02*
X000750Y043619D01*
X000750Y043717D02*
X004280Y043717D01*
X004280Y043816D02*
X000750Y043816D01*
X000750Y043914D02*
X004280Y043914D01*
X004280Y044013D02*
X000750Y044013D01*
X000750Y044111D02*
X004280Y044111D01*
X004280Y044210D02*
X000750Y044210D01*
X000750Y044308D02*
X003497Y044308D01*
X003269Y044407D02*
X000750Y044407D01*
X000750Y044505D02*
X003171Y044505D01*
X003072Y044604D02*
X000750Y044604D01*
X000750Y044702D02*
X003000Y044702D01*
X002959Y044801D02*
X000750Y044801D01*
X000750Y044899D02*
X002918Y044899D01*
X002878Y044998D02*
X000750Y044998D01*
X000750Y045096D02*
X002878Y045096D01*
X002878Y045195D02*
X000750Y045195D01*
X000750Y045293D02*
X002878Y045293D01*
X002889Y045392D02*
X000750Y045392D01*
X000750Y045490D02*
X002930Y045490D01*
X002971Y045589D02*
X000750Y045589D01*
X000750Y045687D02*
X003012Y045687D01*
X003102Y045786D02*
X000750Y045786D01*
X000750Y045884D02*
X003200Y045884D01*
X003329Y045983D02*
X000750Y045983D01*
X000750Y046081D02*
X003567Y046081D01*
X003448Y046599D02*
X003712Y046752D01*
X003928Y046968D01*
X004081Y047232D01*
X004160Y047527D01*
X004160Y047833D01*
X004081Y048128D01*
X003928Y048392D01*
X003712Y048608D01*
X003448Y048761D01*
X003153Y048840D01*
X002847Y048840D01*
X002552Y048761D01*
X002288Y048608D01*
X002072Y048392D01*
X001919Y048128D01*
X001840Y047833D01*
X001840Y047527D01*
X001919Y047232D01*
X002072Y046968D01*
X002288Y046752D01*
X002552Y046599D01*
X002847Y046520D01*
X003153Y046520D01*
X003448Y046599D01*
X003353Y046574D02*
X010460Y046574D01*
X010460Y046573D02*
X010542Y046374D01*
X010694Y046222D01*
X010796Y046180D01*
X010694Y046138D01*
X010542Y045986D01*
X010460Y045787D01*
X010460Y045573D01*
X010542Y045374D01*
X010694Y045222D01*
X010893Y045140D01*
X011107Y045140D01*
X011306Y045222D01*
X011458Y045374D01*
X011540Y045573D01*
X011540Y045787D01*
X011458Y045986D01*
X011306Y046138D01*
X011204Y046180D01*
X011306Y046222D01*
X011458Y046374D01*
X011540Y046573D01*
X011540Y046787D01*
X011458Y046986D01*
X011306Y047138D01*
X011107Y047220D01*
X010893Y047220D01*
X010694Y047138D01*
X010542Y046986D01*
X010460Y046787D01*
X010460Y046573D01*
X010460Y046672D02*
X003574Y046672D01*
X003731Y046771D02*
X010460Y046771D01*
X010494Y046869D02*
X003830Y046869D01*
X003928Y046968D02*
X010535Y046968D01*
X010622Y047066D02*
X003985Y047066D01*
X004042Y047165D02*
X010759Y047165D01*
X011241Y047165D02*
X012759Y047165D01*
X012694Y047138D02*
X012542Y046986D01*
X012460Y046787D01*
X012460Y046573D01*
X012542Y046374D01*
X012694Y046222D01*
X012796Y046180D01*
X012694Y046138D01*
X012542Y045986D01*
X012460Y045787D01*
X012460Y045573D01*
X012542Y045374D01*
X012694Y045222D01*
X012893Y045140D01*
X013107Y045140D01*
X013306Y045222D01*
X013458Y045374D01*
X013540Y045573D01*
X013540Y045787D01*
X013458Y045986D01*
X013306Y046138D01*
X013204Y046180D01*
X013306Y046222D01*
X013458Y046374D01*
X013540Y046573D01*
X013540Y046787D01*
X013458Y046986D01*
X013306Y047138D01*
X013107Y047220D01*
X012893Y047220D01*
X012694Y047138D01*
X012622Y047066D02*
X011378Y047066D01*
X011465Y046968D02*
X012535Y046968D01*
X012494Y046869D02*
X011506Y046869D01*
X011540Y046771D02*
X012460Y046771D01*
X012460Y046672D02*
X011540Y046672D01*
X011540Y046574D02*
X012460Y046574D01*
X012500Y046475D02*
X011500Y046475D01*
X011459Y046377D02*
X012541Y046377D01*
X012638Y046278D02*
X011362Y046278D01*
X011205Y046180D02*
X012795Y046180D01*
X012637Y046081D02*
X011363Y046081D01*
X011459Y045983D02*
X012541Y045983D01*
X012500Y045884D02*
X011500Y045884D01*
X011540Y045786D02*
X012460Y045786D01*
X012460Y045687D02*
X011540Y045687D01*
X011540Y045589D02*
X012460Y045589D01*
X012494Y045490D02*
X011506Y045490D01*
X011465Y045392D02*
X012535Y045392D01*
X012623Y045293D02*
X011377Y045293D01*
X011239Y045195D02*
X012761Y045195D01*
X013239Y045195D02*
X014761Y045195D01*
X014623Y045293D02*
X013377Y045293D01*
X013465Y045392D02*
X014535Y045392D01*
X014494Y045490D02*
X013506Y045490D01*
X013540Y045589D02*
X014460Y045589D01*
X014460Y045687D02*
X013540Y045687D01*
X013540Y045786D02*
X014460Y045786D01*
X014500Y045884D02*
X013500Y045884D01*
X013459Y045983D02*
X014541Y045983D01*
X014637Y046081D02*
X013363Y046081D01*
X013205Y046180D02*
X014795Y046180D01*
X014638Y046278D02*
X013362Y046278D01*
X013459Y046377D02*
X014541Y046377D01*
X014500Y046475D02*
X013500Y046475D01*
X013540Y046574D02*
X014460Y046574D01*
X014460Y046672D02*
X013540Y046672D01*
X013540Y046771D02*
X014460Y046771D01*
X014494Y046869D02*
X013506Y046869D01*
X013465Y046968D02*
X014535Y046968D01*
X014622Y047066D02*
X013378Y047066D01*
X013241Y047165D02*
X014759Y047165D01*
X015241Y047165D02*
X016759Y047165D01*
X016694Y047138D02*
X016893Y047220D01*
X017107Y047220D01*
X017306Y047138D01*
X017458Y046986D01*
X017540Y046787D01*
X017540Y046573D01*
X017458Y046374D01*
X017306Y046222D01*
X017204Y046180D01*
X017306Y046138D01*
X017458Y045986D01*
X017540Y045787D01*
X017540Y045573D01*
X017458Y045374D01*
X017306Y045222D01*
X017107Y045140D01*
X016893Y045140D01*
X016694Y045222D01*
X016542Y045374D01*
X016460Y045573D01*
X016460Y045787D01*
X016542Y045986D01*
X016694Y046138D01*
X016796Y046180D01*
X016694Y046222D01*
X016542Y046374D01*
X016460Y046573D01*
X016460Y046787D01*
X016542Y046986D01*
X016694Y047138D01*
X016622Y047066D02*
X015378Y047066D01*
X015465Y046968D02*
X016535Y046968D01*
X016494Y046869D02*
X015506Y046869D01*
X015540Y046771D02*
X016460Y046771D01*
X016460Y046672D02*
X015540Y046672D01*
X015540Y046574D02*
X016460Y046574D01*
X016500Y046475D02*
X015516Y046475D01*
X015615Y046377D02*
X016541Y046377D01*
X016638Y046278D02*
X015713Y046278D01*
X015812Y046180D02*
X016795Y046180D01*
X016637Y046081D02*
X015910Y046081D01*
X016009Y045983D02*
X016541Y045983D01*
X016500Y045884D02*
X016107Y045884D01*
X016206Y045786D02*
X016460Y045786D01*
X016460Y045687D02*
X016220Y045687D01*
X016220Y045589D02*
X016460Y045589D01*
X016494Y045490D02*
X016220Y045490D01*
X016220Y045392D02*
X016535Y045392D01*
X016623Y045293D02*
X016220Y045293D01*
X016220Y045195D02*
X016761Y045195D01*
X017239Y045195D02*
X019130Y045195D01*
X019130Y045293D02*
X017377Y045293D01*
X017465Y045392D02*
X019130Y045392D01*
X019130Y045490D02*
X017506Y045490D01*
X017540Y045589D02*
X019130Y045589D01*
X019130Y045687D02*
X017540Y045687D01*
X017540Y045786D02*
X019130Y045786D01*
X019130Y045884D02*
X017500Y045884D01*
X017459Y045983D02*
X019130Y045983D01*
X019130Y046081D02*
X017363Y046081D01*
X017205Y046180D02*
X019130Y046180D01*
X019130Y046278D02*
X017362Y046278D01*
X017459Y046377D02*
X019130Y046377D01*
X019130Y046475D02*
X017500Y046475D01*
X017540Y046574D02*
X019130Y046574D01*
X019130Y046672D02*
X017540Y046672D01*
X017540Y046771D02*
X019130Y046771D01*
X019130Y046869D02*
X017506Y046869D01*
X017465Y046968D02*
X019130Y046968D01*
X019130Y047066D02*
X017378Y047066D01*
X017241Y047165D02*
X019130Y047165D01*
X019130Y047263D02*
X004089Y047263D01*
X004116Y047362D02*
X019130Y047362D01*
X019130Y047460D02*
X004142Y047460D01*
X004160Y047559D02*
X019130Y047559D01*
X019130Y047657D02*
X004160Y047657D01*
X004160Y047756D02*
X019130Y047756D01*
X019130Y047854D02*
X004154Y047854D01*
X004128Y047953D02*
X019130Y047953D01*
X019130Y048051D02*
X004101Y048051D01*
X004068Y048150D02*
X019130Y048150D01*
X019130Y048248D02*
X004011Y048248D01*
X003955Y048347D02*
X019130Y048347D01*
X019130Y048445D02*
X003875Y048445D01*
X003777Y048544D02*
X019130Y048544D01*
X019130Y048642D02*
X003654Y048642D01*
X003483Y048741D02*
X019130Y048741D01*
X019130Y048839D02*
X003156Y048839D01*
X002844Y048839D02*
X000750Y048839D01*
X000750Y048741D02*
X002517Y048741D01*
X002346Y048642D02*
X000750Y048642D01*
X000750Y048544D02*
X002223Y048544D01*
X002125Y048445D02*
X000750Y048445D01*
X000750Y048347D02*
X002045Y048347D01*
X001989Y048248D02*
X000750Y048248D01*
X000750Y048150D02*
X001932Y048150D01*
X001899Y048051D02*
X000750Y048051D01*
X000750Y047953D02*
X001872Y047953D01*
X001846Y047854D02*
X000750Y047854D01*
X000750Y047756D02*
X001840Y047756D01*
X001840Y047657D02*
X000750Y047657D01*
X000750Y047559D02*
X001840Y047559D01*
X001858Y047460D02*
X000750Y047460D01*
X000750Y047362D02*
X001884Y047362D01*
X001911Y047263D02*
X000750Y047263D01*
X000750Y047165D02*
X001958Y047165D01*
X002015Y047066D02*
X000750Y047066D01*
X000750Y046968D02*
X002072Y046968D01*
X002170Y046869D02*
X000750Y046869D01*
X000750Y046771D02*
X002269Y046771D01*
X002426Y046672D02*
X000750Y046672D01*
X000750Y046574D02*
X002647Y046574D01*
X000750Y046475D02*
X010500Y046475D01*
X010541Y046377D02*
X000750Y046377D01*
X000750Y046278D02*
X010638Y046278D01*
X010795Y046180D02*
X000750Y046180D01*
X000750Y048938D02*
X019130Y048938D01*
X019130Y049036D02*
X000750Y049036D01*
X000750Y049135D02*
X019130Y049135D01*
X019130Y049233D02*
X000750Y049233D01*
X000750Y049332D02*
X019130Y049332D01*
X019130Y049430D02*
X000750Y049430D01*
X000750Y049529D02*
X019130Y049529D01*
X019130Y049627D02*
X000750Y049627D01*
X000750Y049726D02*
X019130Y049726D01*
X019130Y049754D02*
X019130Y043106D01*
X019186Y042970D01*
X019290Y042866D01*
X019426Y042810D01*
X034574Y042810D01*
X034710Y042866D01*
X034814Y042970D01*
X034870Y043106D01*
X034870Y049754D01*
X034814Y049890D01*
X034773Y049930D01*
X050250Y049930D01*
X050250Y000430D01*
X017217Y000430D01*
X017280Y000493D01*
X017330Y000614D01*
X017330Y005746D01*
X017280Y005867D01*
X017187Y005960D01*
X017066Y006010D01*
X015720Y006010D01*
X015720Y012089D01*
X015923Y012292D01*
X016077Y012292D01*
X016220Y012351D01*
X016329Y012460D01*
X016388Y012603D01*
X016388Y012757D01*
X016329Y012900D01*
X016269Y012960D01*
X024091Y012960D01*
X024220Y013089D01*
X024220Y017851D01*
X024329Y017960D01*
X024388Y018103D01*
X024388Y018257D01*
X024329Y018400D01*
X024220Y018509D01*
X024077Y018568D01*
X023923Y018568D01*
X023780Y018509D01*
X023671Y018400D01*
X023612Y018257D01*
X023612Y018103D01*
X023671Y017960D01*
X023780Y017851D01*
X023780Y013400D01*
X016269Y013400D01*
X016329Y013460D01*
X016388Y013603D01*
X016388Y013757D01*
X016329Y013900D01*
X016220Y014009D01*
X016077Y014068D01*
X015923Y014068D01*
X015720Y014271D01*
X015720Y016960D01*
X015919Y016960D01*
X015926Y016954D01*
X016008Y016960D01*
X016091Y016960D01*
X016098Y016967D01*
X016108Y016968D01*
X016162Y017030D01*
X016220Y017089D01*
X016220Y017099D01*
X019101Y020460D01*
X019270Y020460D01*
X019270Y019085D01*
X019405Y018950D01*
X027595Y018950D01*
X027730Y019085D01*
X027730Y027275D01*
X027595Y027410D01*
X025888Y027662D02*
X041250Y027662D01*
X041250Y027730D02*
X041250Y009630D01*
X041288Y009538D01*
X041358Y009468D01*
X041450Y009430D01*
X041550Y009430D01*
X047950Y009430D01*
X048050Y009430D01*
X048142Y009468D01*
X048212Y009538D01*
X048250Y009630D01*
X048250Y027730D01*
X048212Y027822D01*
X048142Y027892D01*
X048050Y027930D01*
X041450Y027930D01*
X041358Y027892D01*
X041288Y027822D01*
X041250Y027730D01*
X041263Y027760D02*
X025887Y027760D01*
X025846Y027859D02*
X041325Y027859D01*
X041250Y027563D02*
X025872Y027563D01*
X025831Y027465D02*
X041250Y027465D01*
X041250Y025593D02*
X027730Y025593D01*
X027730Y025495D02*
X041250Y025495D01*
X041250Y025396D02*
X027730Y025396D01*
X027730Y025298D02*
X041250Y025298D01*
X041250Y025199D02*
X027730Y025199D01*
X027730Y025101D02*
X041250Y025101D01*
X041250Y025002D02*
X027730Y025002D01*
X027730Y024904D02*
X041250Y024904D01*
X041250Y024805D02*
X027730Y024805D01*
X027730Y024707D02*
X041250Y024707D01*
X041250Y024608D02*
X027730Y024608D01*
X027730Y024510D02*
X041250Y024510D01*
X041250Y024411D02*
X027730Y024411D01*
X027730Y024313D02*
X041250Y024313D01*
X041250Y024214D02*
X027730Y024214D01*
X027730Y024116D02*
X041250Y024116D01*
X041250Y024017D02*
X027730Y024017D01*
X027730Y023919D02*
X041250Y023919D01*
X041250Y023820D02*
X027730Y023820D01*
X027730Y023722D02*
X041250Y023722D01*
X041250Y023623D02*
X027730Y023623D01*
X027730Y023525D02*
X041250Y023525D01*
X041250Y023426D02*
X027730Y023426D01*
X027730Y023328D02*
X041250Y023328D01*
X041250Y023229D02*
X027730Y023229D01*
X027730Y023131D02*
X041250Y023131D01*
X041250Y023032D02*
X027730Y023032D01*
X027730Y022934D02*
X041250Y022934D01*
X041250Y022835D02*
X027730Y022835D01*
X027730Y022737D02*
X041250Y022737D01*
X041250Y022638D02*
X027730Y022638D01*
X027730Y022540D02*
X041250Y022540D01*
X041250Y022441D02*
X027730Y022441D01*
X027730Y022343D02*
X041250Y022343D01*
X041250Y022244D02*
X027730Y022244D01*
X027730Y022146D02*
X041250Y022146D01*
X041250Y022047D02*
X027730Y022047D01*
X027730Y021949D02*
X041250Y021949D01*
X041250Y021850D02*
X027730Y021850D01*
X027730Y021752D02*
X041250Y021752D01*
X041250Y021653D02*
X027730Y021653D01*
X027730Y021555D02*
X041250Y021555D01*
X041250Y021456D02*
X027730Y021456D01*
X027730Y021358D02*
X041250Y021358D01*
X041250Y021259D02*
X027730Y021259D01*
X027730Y021161D02*
X041250Y021161D01*
X041250Y021062D02*
X027730Y021062D01*
X027730Y020964D02*
X041250Y020964D01*
X041250Y020865D02*
X027730Y020865D01*
X027730Y020767D02*
X041250Y020767D01*
X041250Y020668D02*
X027730Y020668D01*
X027730Y020570D02*
X041250Y020570D01*
X041250Y020471D02*
X027730Y020471D01*
X027730Y020373D02*
X041250Y020373D01*
X041250Y020274D02*
X027730Y020274D01*
X027730Y020176D02*
X041250Y020176D01*
X041250Y020077D02*
X027730Y020077D01*
X027730Y019979D02*
X041250Y019979D01*
X041250Y019880D02*
X027730Y019880D01*
X027730Y019782D02*
X041250Y019782D01*
X041250Y019683D02*
X027730Y019683D01*
X027730Y019585D02*
X041250Y019585D01*
X041250Y019486D02*
X027730Y019486D01*
X027730Y019388D02*
X041250Y019388D01*
X041250Y019289D02*
X027730Y019289D01*
X027730Y019191D02*
X041250Y019191D01*
X041250Y019092D02*
X027730Y019092D01*
X027639Y018994D02*
X041250Y018994D01*
X041250Y018895D02*
X017760Y018895D01*
X017844Y018994D02*
X019361Y018994D01*
X019270Y019092D02*
X017929Y019092D01*
X018013Y019191D02*
X019270Y019191D01*
X019270Y019289D02*
X018098Y019289D01*
X018182Y019388D02*
X019270Y019388D01*
X019270Y019486D02*
X018266Y019486D01*
X018351Y019585D02*
X019270Y019585D01*
X019270Y019683D02*
X018435Y019683D01*
X018520Y019782D02*
X019270Y019782D01*
X019270Y019880D02*
X018604Y019880D01*
X018689Y019979D02*
X019270Y019979D01*
X019270Y020077D02*
X018773Y020077D01*
X018857Y020176D02*
X019270Y020176D01*
X019270Y020274D02*
X018942Y020274D01*
X019026Y020373D02*
X019270Y020373D01*
X019000Y020680D02*
X020500Y020680D01*
X021500Y021680D01*
X021500Y022680D02*
X020000Y021180D01*
X019000Y021180D01*
X016000Y017680D01*
X015000Y017680D01*
X015000Y014180D01*
X014500Y013680D01*
X014112Y013675D02*
X006250Y013675D01*
X006250Y013773D02*
X014118Y013773D01*
X014159Y013872D02*
X006250Y013872D01*
X006250Y013970D02*
X014241Y013970D01*
X014577Y014069D02*
X006250Y014069D01*
X006250Y014167D02*
X014676Y014167D01*
X014774Y014266D02*
X006250Y014266D01*
X006250Y014364D02*
X014780Y014364D01*
X014780Y014463D02*
X006250Y014463D01*
X006250Y014561D02*
X014780Y014561D01*
X014780Y014660D02*
X006250Y014660D01*
X006250Y014758D02*
X014780Y014758D01*
X014780Y014857D02*
X006250Y014857D01*
X006250Y014955D02*
X014780Y014955D01*
X014780Y015054D02*
X006250Y015054D01*
X006250Y015152D02*
X014780Y015152D01*
X014780Y015251D02*
X006250Y015251D01*
X006250Y015349D02*
X014780Y015349D01*
X014780Y015448D02*
X006250Y015448D01*
X006250Y015546D02*
X014780Y015546D01*
X014780Y015645D02*
X006250Y015645D01*
X006250Y015743D02*
X014780Y015743D01*
X014780Y015842D02*
X006250Y015842D01*
X006250Y015940D02*
X014780Y015940D01*
X014780Y016039D02*
X006250Y016039D01*
X006250Y016137D02*
X014780Y016137D01*
X014780Y016236D02*
X006250Y016236D01*
X006250Y016334D02*
X014780Y016334D01*
X014780Y016433D02*
X006250Y016433D01*
X006250Y016531D02*
X014780Y016531D01*
X014780Y016630D02*
X006250Y016630D01*
X006250Y016728D02*
X014780Y016728D01*
X014780Y016827D02*
X006250Y016827D01*
X006250Y016925D02*
X014780Y016925D01*
X014780Y017024D02*
X006250Y017024D01*
X006250Y017122D02*
X014780Y017122D01*
X014780Y017221D02*
X006250Y017221D01*
X006250Y017319D02*
X014780Y017319D01*
X014780Y017418D02*
X006250Y017418D01*
X006250Y017516D02*
X014780Y017516D01*
X014780Y017615D02*
X006250Y017615D01*
X006250Y017713D02*
X014780Y017713D01*
X014820Y017812D02*
X013775Y017812D01*
X013929Y017910D02*
X015907Y017910D01*
X015992Y018009D02*
X015682Y018009D01*
X015777Y018107D02*
X016076Y018107D01*
X016161Y018206D02*
X015872Y018206D01*
X015968Y018304D02*
X016245Y018304D01*
X016330Y018403D02*
X016063Y018403D01*
X016158Y018501D02*
X016414Y018501D01*
X016498Y018600D02*
X016253Y018600D01*
X016348Y018698D02*
X016583Y018698D01*
X016667Y018797D02*
X016443Y018797D01*
X016539Y018895D02*
X016752Y018895D01*
X016836Y018994D02*
X016634Y018994D01*
X016729Y019092D02*
X016921Y019092D01*
X017005Y019191D02*
X016824Y019191D01*
X016919Y019289D02*
X017089Y019289D01*
X017015Y019388D02*
X017174Y019388D01*
X017110Y019486D02*
X017258Y019486D01*
X017205Y019585D02*
X017343Y019585D01*
X017300Y019683D02*
X017427Y019683D01*
X017395Y019782D02*
X017512Y019782D01*
X017490Y019880D02*
X017596Y019880D01*
X017586Y019979D02*
X017680Y019979D01*
X017681Y020077D02*
X017765Y020077D01*
X017776Y020176D02*
X017849Y020176D01*
X017871Y020274D02*
X017934Y020274D01*
X017966Y020373D02*
X018018Y020373D01*
X018061Y020471D02*
X018103Y020471D01*
X018157Y020570D02*
X018187Y020570D01*
X018252Y020668D02*
X018271Y020668D01*
X018347Y020767D02*
X018356Y020767D01*
X018032Y021161D02*
X006250Y021161D01*
X006250Y021259D02*
X018128Y021259D01*
X018223Y021358D02*
X006250Y021358D01*
X006250Y021456D02*
X018318Y021456D01*
X018413Y021555D02*
X006250Y021555D01*
X006250Y021653D02*
X018508Y021653D01*
X018604Y021752D02*
X006250Y021752D01*
X006250Y021850D02*
X018612Y021850D01*
X018641Y021949D02*
X006250Y021949D01*
X006250Y022047D02*
X018696Y022047D01*
X018815Y022146D02*
X006250Y022146D01*
X006250Y022244D02*
X019270Y022244D01*
X019270Y022146D02*
X019185Y022146D01*
X019270Y022343D02*
X006250Y022343D01*
X006250Y022441D02*
X019270Y022441D01*
X019270Y022540D02*
X006250Y022540D01*
X006250Y022638D02*
X019270Y022638D01*
X019270Y022737D02*
X006250Y022737D01*
X006250Y022835D02*
X019270Y022835D01*
X019270Y022934D02*
X006250Y022934D01*
X006250Y023032D02*
X009837Y023032D01*
X009780Y023089D02*
X009909Y022960D01*
X016391Y022960D01*
X016520Y023089D01*
X016520Y025271D01*
X016391Y025400D01*
X016209Y025400D01*
X009909Y025400D01*
X009780Y025271D01*
X009780Y023089D01*
X009780Y023131D02*
X006250Y023131D01*
X006250Y023229D02*
X009780Y023229D01*
X009780Y023328D02*
X006250Y023328D01*
X006250Y023426D02*
X009780Y023426D01*
X009780Y023525D02*
X006250Y023525D01*
X006250Y023623D02*
X009780Y023623D01*
X009780Y023722D02*
X006250Y023722D01*
X006250Y023820D02*
X009780Y023820D01*
X009780Y023919D02*
X006250Y023919D01*
X006250Y024017D02*
X009780Y024017D01*
X009780Y024116D02*
X006250Y024116D01*
X006250Y024214D02*
X009780Y024214D01*
X009780Y024313D02*
X006250Y024313D01*
X006250Y024411D02*
X009780Y024411D01*
X009780Y024510D02*
X006250Y024510D01*
X006250Y024608D02*
X009780Y024608D01*
X009780Y024707D02*
X006250Y024707D01*
X006250Y024805D02*
X009780Y024805D01*
X009780Y024904D02*
X006250Y024904D01*
X006250Y025002D02*
X009780Y025002D01*
X009780Y025101D02*
X006250Y025101D01*
X006250Y025199D02*
X009780Y025199D01*
X009806Y025298D02*
X006250Y025298D01*
X006250Y025396D02*
X009905Y025396D01*
X010000Y025180D02*
X016300Y025180D01*
X016300Y023180D01*
X010000Y023180D01*
X010000Y025180D01*
X010000Y025101D02*
X016300Y025101D01*
X016300Y025002D02*
X010000Y025002D01*
X010000Y024904D02*
X016300Y024904D01*
X016300Y024805D02*
X015876Y024805D01*
X015881Y024803D02*
X015731Y024865D01*
X015569Y024865D01*
X015419Y024803D01*
X015305Y024688D01*
X015243Y024539D01*
X015243Y023821D01*
X015305Y023672D01*
X015419Y023557D01*
X015569Y023495D01*
X015731Y023495D01*
X015881Y023557D01*
X015995Y023672D01*
X016057Y023821D01*
X016057Y024539D01*
X015995Y024688D01*
X015881Y024803D01*
X015977Y024707D02*
X016300Y024707D01*
X016300Y024608D02*
X016029Y024608D01*
X016057Y024510D02*
X016300Y024510D01*
X016300Y024411D02*
X016057Y024411D01*
X016057Y024313D02*
X016300Y024313D01*
X016300Y024214D02*
X016057Y024214D01*
X016057Y024116D02*
X016300Y024116D01*
X016300Y024017D02*
X016057Y024017D01*
X016057Y023919D02*
X016300Y023919D01*
X016300Y023820D02*
X016057Y023820D01*
X016016Y023722D02*
X016300Y023722D01*
X016300Y023623D02*
X015947Y023623D01*
X015802Y023525D02*
X016300Y023525D01*
X016300Y023426D02*
X010000Y023426D01*
X010000Y023328D02*
X016300Y023328D01*
X016300Y023229D02*
X010000Y023229D01*
X010000Y023525D02*
X010498Y023525D01*
X010569Y023495D02*
X010731Y023495D01*
X010881Y023557D01*
X010995Y023672D01*
X011057Y023821D01*
X011057Y024539D01*
X010995Y024688D01*
X010881Y024803D01*
X010731Y024865D01*
X010569Y024865D01*
X010419Y024803D01*
X010305Y024688D01*
X010243Y024539D01*
X010243Y023821D01*
X010305Y023672D01*
X010419Y023557D01*
X010569Y023495D01*
X010802Y023525D02*
X011498Y023525D01*
X011569Y023495D02*
X011731Y023495D01*
X011881Y023557D01*
X011995Y023672D01*
X012057Y023821D01*
X012057Y024539D01*
X011995Y024688D01*
X011881Y024803D01*
X011731Y024865D01*
X011569Y024865D01*
X011419Y024803D01*
X011305Y024688D01*
X011243Y024539D01*
X011243Y023821D01*
X011305Y023672D01*
X011419Y023557D01*
X011569Y023495D01*
X011802Y023525D02*
X012498Y023525D01*
X012569Y023495D02*
X012731Y023495D01*
X012881Y023557D01*
X012995Y023672D01*
X013057Y023821D01*
X013057Y024539D01*
X012995Y024688D01*
X012881Y024803D01*
X012731Y024865D01*
X012569Y024865D01*
X012419Y024803D01*
X012305Y024688D01*
X012243Y024539D01*
X012243Y023821D01*
X012305Y023672D01*
X012419Y023557D01*
X012569Y023495D01*
X012802Y023525D02*
X013498Y023525D01*
X013569Y023495D02*
X013731Y023495D01*
X013881Y023557D01*
X013995Y023672D01*
X014057Y023821D01*
X014057Y024539D01*
X013995Y024688D01*
X013881Y024803D01*
X013731Y024865D01*
X013569Y024865D01*
X013419Y024803D01*
X013305Y024688D01*
X013243Y024539D01*
X013243Y023821D01*
X013305Y023672D01*
X013419Y023557D01*
X013569Y023495D01*
X013802Y023525D02*
X014498Y023525D01*
X014569Y023495D02*
X014731Y023495D01*
X014881Y023557D01*
X014995Y023672D01*
X015057Y023821D01*
X015057Y024539D01*
X014995Y024688D01*
X014881Y024803D01*
X014731Y024865D01*
X014569Y024865D01*
X014419Y024803D01*
X014305Y024688D01*
X014243Y024539D01*
X014243Y023821D01*
X014305Y023672D01*
X014419Y023557D01*
X014569Y023495D01*
X014802Y023525D02*
X015498Y023525D01*
X015353Y023623D02*
X014947Y023623D01*
X015016Y023722D02*
X015284Y023722D01*
X015243Y023820D02*
X015057Y023820D01*
X015057Y023919D02*
X015243Y023919D01*
X015243Y024017D02*
X015057Y024017D01*
X015057Y024116D02*
X015243Y024116D01*
X015243Y024214D02*
X015057Y024214D01*
X015057Y024313D02*
X015243Y024313D01*
X015243Y024411D02*
X015057Y024411D01*
X015057Y024510D02*
X015243Y024510D01*
X015271Y024608D02*
X015029Y024608D01*
X014977Y024707D02*
X015323Y024707D01*
X015424Y024805D02*
X014876Y024805D01*
X014424Y024805D02*
X013876Y024805D01*
X013977Y024707D02*
X014323Y024707D01*
X014271Y024608D02*
X014029Y024608D01*
X014057Y024510D02*
X014243Y024510D01*
X014243Y024411D02*
X014057Y024411D01*
X014057Y024313D02*
X014243Y024313D01*
X014243Y024214D02*
X014057Y024214D01*
X014057Y024116D02*
X014243Y024116D01*
X014243Y024017D02*
X014057Y024017D01*
X014057Y023919D02*
X014243Y023919D01*
X014243Y023820D02*
X014057Y023820D01*
X014016Y023722D02*
X014284Y023722D01*
X014353Y023623D02*
X013947Y023623D01*
X013353Y023623D02*
X012947Y023623D01*
X013016Y023722D02*
X013284Y023722D01*
X013243Y023820D02*
X013057Y023820D01*
X013057Y023919D02*
X013243Y023919D01*
X013243Y024017D02*
X013057Y024017D01*
X013057Y024116D02*
X013243Y024116D01*
X013243Y024214D02*
X013057Y024214D01*
X013057Y024313D02*
X013243Y024313D01*
X013243Y024411D02*
X013057Y024411D01*
X013057Y024510D02*
X013243Y024510D01*
X013271Y024608D02*
X013029Y024608D01*
X012977Y024707D02*
X013323Y024707D01*
X013424Y024805D02*
X012876Y024805D01*
X012424Y024805D02*
X011876Y024805D01*
X011977Y024707D02*
X012323Y024707D01*
X012271Y024608D02*
X012029Y024608D01*
X012057Y024510D02*
X012243Y024510D01*
X012243Y024411D02*
X012057Y024411D01*
X012057Y024313D02*
X012243Y024313D01*
X012243Y024214D02*
X012057Y024214D01*
X012057Y024116D02*
X012243Y024116D01*
X012243Y024017D02*
X012057Y024017D01*
X012057Y023919D02*
X012243Y023919D01*
X012243Y023820D02*
X012057Y023820D01*
X012016Y023722D02*
X012284Y023722D01*
X012353Y023623D02*
X011947Y023623D01*
X011353Y023623D02*
X010947Y023623D01*
X011016Y023722D02*
X011284Y023722D01*
X011243Y023820D02*
X011057Y023820D01*
X011057Y023919D02*
X011243Y023919D01*
X011243Y024017D02*
X011057Y024017D01*
X011057Y024116D02*
X011243Y024116D01*
X011243Y024214D02*
X011057Y024214D01*
X011057Y024313D02*
X011243Y024313D01*
X011243Y024411D02*
X011057Y024411D01*
X011057Y024510D02*
X011243Y024510D01*
X011271Y024608D02*
X011029Y024608D01*
X010977Y024707D02*
X011323Y024707D01*
X011424Y024805D02*
X010876Y024805D01*
X010424Y024805D02*
X010000Y024805D01*
X010000Y024707D02*
X010323Y024707D01*
X010271Y024608D02*
X010000Y024608D01*
X010000Y024510D02*
X010243Y024510D01*
X010243Y024411D02*
X010000Y024411D01*
X010000Y024313D02*
X010243Y024313D01*
X010243Y024214D02*
X010000Y024214D01*
X010000Y024116D02*
X010243Y024116D01*
X010243Y024017D02*
X010000Y024017D01*
X010000Y023919D02*
X010243Y023919D01*
X010243Y023820D02*
X010000Y023820D01*
X010000Y023722D02*
X010284Y023722D01*
X010353Y023623D02*
X010000Y023623D01*
X006250Y025495D02*
X017374Y025495D01*
X017276Y025593D02*
X006250Y025593D01*
X006250Y025692D02*
X017177Y025692D01*
X017079Y025790D02*
X006250Y025790D01*
X006250Y025889D02*
X016980Y025889D01*
X016882Y025987D02*
X006250Y025987D01*
X006250Y026086D02*
X016783Y026086D01*
X016685Y026184D02*
X006250Y026184D01*
X006250Y026230D02*
X006250Y005910D01*
X006270Y005910D01*
X006270Y006775D01*
X006405Y006910D01*
X010270Y010775D01*
X010270Y010861D01*
X010171Y010960D01*
X010112Y011103D01*
X010112Y011257D01*
X010171Y011400D01*
X010280Y011509D01*
X010423Y011568D01*
X010577Y011568D01*
X010720Y011509D01*
X010829Y011400D01*
X010888Y011257D01*
X010888Y011103D01*
X010829Y010960D01*
X010730Y010861D01*
X010730Y010585D01*
X006730Y006585D01*
X006730Y005585D01*
X006595Y005450D01*
X006250Y005450D01*
X006250Y005130D01*
X006212Y005038D01*
X006142Y004968D01*
X006050Y004930D01*
X000950Y004930D01*
X000858Y004968D01*
X000788Y005038D01*
X000750Y005130D01*
X000750Y026230D01*
X000788Y026322D01*
X000858Y026392D01*
X000950Y026430D01*
X006050Y026430D01*
X006142Y026392D01*
X006212Y026322D01*
X006250Y026230D01*
X006228Y026283D02*
X016586Y026283D01*
X016488Y026381D02*
X006152Y026381D01*
X004305Y027802D02*
X004168Y027665D01*
X003987Y027590D01*
X003793Y027590D01*
X003612Y027665D01*
X003475Y027802D01*
X003400Y027983D01*
X003400Y028817D01*
X003475Y028998D01*
X003612Y029135D01*
X003793Y029210D01*
X003987Y029210D01*
X004168Y029135D01*
X004305Y028998D01*
X004380Y028817D01*
X004380Y027983D01*
X004305Y027802D01*
X004263Y027760D02*
X015109Y027760D01*
X015207Y027662D02*
X004160Y027662D01*
X004329Y027859D02*
X015010Y027859D01*
X014912Y027957D02*
X004369Y027957D01*
X004380Y028056D02*
X014813Y028056D01*
X014715Y028154D02*
X004380Y028154D01*
X004380Y028253D02*
X014616Y028253D01*
X014518Y028351D02*
X004380Y028351D01*
X004380Y028450D02*
X014419Y028450D01*
X014321Y028548D02*
X004380Y028548D01*
X004380Y028647D02*
X014222Y028647D01*
X014124Y028745D02*
X004380Y028745D01*
X004369Y028844D02*
X014025Y028844D01*
X013927Y028942D02*
X004328Y028942D01*
X004262Y029041D02*
X013828Y029041D01*
X013730Y029139D02*
X004159Y029139D01*
X003621Y029139D02*
X002379Y029139D01*
X002388Y029135D02*
X002207Y029210D01*
X002013Y029210D01*
X001832Y029135D01*
X001695Y028998D01*
X001620Y028817D01*
X001620Y027983D01*
X001695Y027802D01*
X001832Y027665D01*
X002013Y027590D01*
X002207Y027590D01*
X002388Y027665D01*
X002525Y027802D01*
X002600Y027983D01*
X002600Y028817D01*
X002525Y028998D01*
X002388Y029135D01*
X002482Y029041D02*
X003518Y029041D01*
X003452Y028942D02*
X002548Y028942D01*
X002589Y028844D02*
X003411Y028844D01*
X003400Y028745D02*
X002600Y028745D01*
X002600Y028647D02*
X003400Y028647D01*
X003400Y028548D02*
X002600Y028548D01*
X002600Y028450D02*
X003400Y028450D01*
X003400Y028351D02*
X002600Y028351D01*
X002600Y028253D02*
X003400Y028253D01*
X003400Y028154D02*
X002600Y028154D01*
X002600Y028056D02*
X003400Y028056D01*
X003411Y027957D02*
X002589Y027957D01*
X002549Y027859D02*
X003451Y027859D01*
X003517Y027760D02*
X002483Y027760D01*
X002380Y027662D02*
X003620Y027662D01*
X001840Y027662D02*
X000750Y027662D01*
X000750Y027760D02*
X001737Y027760D01*
X001671Y027859D02*
X000750Y027859D01*
X000750Y027957D02*
X001631Y027957D01*
X001620Y028056D02*
X000750Y028056D01*
X000750Y028154D02*
X001620Y028154D01*
X001620Y028253D02*
X000750Y028253D01*
X000750Y028351D02*
X001620Y028351D01*
X001620Y028450D02*
X000750Y028450D01*
X000750Y028548D02*
X001620Y028548D01*
X001620Y028647D02*
X000750Y028647D01*
X000750Y028745D02*
X001620Y028745D01*
X001631Y028844D02*
X000750Y028844D01*
X000750Y028942D02*
X001672Y028942D01*
X001738Y029041D02*
X000750Y029041D01*
X000750Y029139D02*
X001841Y029139D01*
X002013Y030150D02*
X002207Y030150D01*
X002388Y030225D01*
X002525Y030362D01*
X002600Y030543D01*
X002600Y031377D01*
X002525Y031558D01*
X002388Y031695D01*
X002207Y031770D01*
X002013Y031770D01*
X001832Y031695D01*
X001695Y031558D01*
X001620Y031377D01*
X001620Y030543D01*
X001695Y030362D01*
X001832Y030225D01*
X002013Y030150D01*
X001837Y030223D02*
X000750Y030223D01*
X000750Y030321D02*
X001736Y030321D01*
X001671Y030420D02*
X000750Y030420D01*
X000750Y030518D02*
X001630Y030518D01*
X001620Y030617D02*
X000750Y030617D01*
X000750Y030715D02*
X001620Y030715D01*
X001620Y030814D02*
X000750Y030814D01*
X000750Y030912D02*
X001620Y030912D01*
X001620Y031011D02*
X000750Y031011D01*
X000750Y031109D02*
X001620Y031109D01*
X001620Y031208D02*
X000750Y031208D01*
X000750Y031306D02*
X001620Y031306D01*
X001631Y031405D02*
X000750Y031405D01*
X000750Y031503D02*
X001672Y031503D01*
X001739Y031602D02*
X000750Y031602D01*
X000750Y031700D02*
X001844Y031700D01*
X002376Y031700D02*
X003624Y031700D01*
X003612Y031695D02*
X003475Y031558D01*
X003400Y031377D01*
X003400Y030543D01*
X003475Y030362D01*
X003612Y030225D01*
X003793Y030150D01*
X003987Y030150D01*
X004168Y030225D01*
X004305Y030362D01*
X004380Y030543D01*
X004380Y031377D01*
X004305Y031558D01*
X004168Y031695D01*
X003987Y031770D01*
X003793Y031770D01*
X003612Y031695D01*
X003519Y031602D02*
X002481Y031602D01*
X002548Y031503D02*
X003452Y031503D01*
X003411Y031405D02*
X002589Y031405D01*
X002600Y031306D02*
X003400Y031306D01*
X003400Y031208D02*
X002600Y031208D01*
X002600Y031109D02*
X003400Y031109D01*
X003400Y031011D02*
X002600Y031011D01*
X002600Y030912D02*
X003400Y030912D01*
X003400Y030814D02*
X002600Y030814D01*
X002600Y030715D02*
X003400Y030715D01*
X003400Y030617D02*
X002600Y030617D01*
X002590Y030518D02*
X003410Y030518D01*
X003451Y030420D02*
X002549Y030420D01*
X002484Y030321D02*
X003516Y030321D01*
X003617Y030223D02*
X002383Y030223D01*
X000750Y030124D02*
X012745Y030124D01*
X012843Y030026D02*
X000750Y030026D01*
X000750Y029927D02*
X012942Y029927D01*
X013040Y029829D02*
X000750Y029829D01*
X000750Y029730D02*
X013139Y029730D01*
X013237Y029632D02*
X000750Y029632D01*
X000750Y029533D02*
X013336Y029533D01*
X013434Y029435D02*
X000750Y029435D01*
X000750Y029336D02*
X013533Y029336D01*
X013631Y029238D02*
X000750Y029238D01*
X000750Y027563D02*
X015306Y027563D01*
X015404Y027465D02*
X000750Y027465D01*
X000750Y027366D02*
X015503Y027366D01*
X015601Y027268D02*
X000750Y027268D01*
X000750Y027169D02*
X015700Y027169D01*
X015798Y027071D02*
X000750Y027071D01*
X000750Y026972D02*
X015897Y026972D01*
X015995Y026874D02*
X000750Y026874D01*
X000750Y026775D02*
X016094Y026775D01*
X016192Y026677D02*
X000750Y026677D01*
X000750Y026578D02*
X016291Y026578D01*
X016389Y026480D02*
X000750Y026480D01*
X000750Y026381D02*
X000848Y026381D01*
X000772Y026283D02*
X000750Y026283D01*
X000750Y026184D02*
X000750Y026184D01*
X000750Y026086D02*
X000750Y026086D01*
X000750Y025987D02*
X000750Y025987D01*
X000750Y025889D02*
X000750Y025889D01*
X000750Y025790D02*
X000750Y025790D01*
X000750Y025692D02*
X000750Y025692D01*
X000750Y025593D02*
X000750Y025593D01*
X000750Y025495D02*
X000750Y025495D01*
X000750Y025396D02*
X000750Y025396D01*
X000750Y025298D02*
X000750Y025298D01*
X000750Y025199D02*
X000750Y025199D01*
X000750Y025101D02*
X000750Y025101D01*
X000750Y025002D02*
X000750Y025002D01*
X000750Y024904D02*
X000750Y024904D01*
X000750Y024805D02*
X000750Y024805D01*
X000750Y024707D02*
X000750Y024707D01*
X000750Y024608D02*
X000750Y024608D01*
X000750Y024510D02*
X000750Y024510D01*
X000750Y024411D02*
X000750Y024411D01*
X000750Y024313D02*
X000750Y024313D01*
X000750Y024214D02*
X000750Y024214D01*
X000750Y024116D02*
X000750Y024116D01*
X000750Y024017D02*
X000750Y024017D01*
X000750Y023919D02*
X000750Y023919D01*
X000750Y023820D02*
X000750Y023820D01*
X000750Y023722D02*
X000750Y023722D01*
X000750Y023623D02*
X000750Y023623D01*
X000750Y023525D02*
X000750Y023525D01*
X000750Y023426D02*
X000750Y023426D01*
X000750Y023328D02*
X000750Y023328D01*
X000750Y023229D02*
X000750Y023229D01*
X000750Y023131D02*
X000750Y023131D01*
X000750Y023032D02*
X000750Y023032D01*
X000750Y022934D02*
X000750Y022934D01*
X000750Y022835D02*
X000750Y022835D01*
X000750Y022737D02*
X000750Y022737D01*
X000750Y022638D02*
X000750Y022638D01*
X000750Y022540D02*
X000750Y022540D01*
X000750Y022441D02*
X000750Y022441D01*
X000750Y022343D02*
X000750Y022343D01*
X000750Y022244D02*
X000750Y022244D01*
X000750Y022146D02*
X000750Y022146D01*
X000750Y022047D02*
X000750Y022047D01*
X000750Y021949D02*
X000750Y021949D01*
X000750Y021850D02*
X000750Y021850D01*
X000750Y021752D02*
X000750Y021752D01*
X000750Y021653D02*
X000750Y021653D01*
X000750Y021555D02*
X000750Y021555D01*
X000750Y021456D02*
X000750Y021456D01*
X000750Y021358D02*
X000750Y021358D01*
X000750Y021259D02*
X000750Y021259D01*
X000750Y021161D02*
X000750Y021161D01*
X000750Y021062D02*
X000750Y021062D01*
X000750Y020964D02*
X000750Y020964D01*
X000750Y020865D02*
X000750Y020865D01*
X000750Y020767D02*
X000750Y020767D01*
X000750Y020668D02*
X000750Y020668D01*
X000750Y020570D02*
X000750Y020570D01*
X000750Y020471D02*
X000750Y020471D01*
X000750Y020373D02*
X000750Y020373D01*
X000750Y020274D02*
X000750Y020274D01*
X000750Y020176D02*
X000750Y020176D01*
X000750Y020077D02*
X000750Y020077D01*
X000750Y019979D02*
X000750Y019979D01*
X000750Y019880D02*
X000750Y019880D01*
X000750Y019782D02*
X000750Y019782D01*
X000750Y019683D02*
X000750Y019683D01*
X000750Y019585D02*
X000750Y019585D01*
X000750Y019486D02*
X000750Y019486D01*
X000750Y019388D02*
X000750Y019388D01*
X000750Y019289D02*
X000750Y019289D01*
X000750Y019191D02*
X000750Y019191D01*
X000750Y019092D02*
X000750Y019092D01*
X000750Y018994D02*
X000750Y018994D01*
X000750Y018895D02*
X000750Y018895D01*
X000750Y018797D02*
X000750Y018797D01*
X000750Y018698D02*
X000750Y018698D01*
X000750Y018600D02*
X000750Y018600D01*
X000750Y018501D02*
X000750Y018501D01*
X000750Y018403D02*
X000750Y018403D01*
X000750Y018304D02*
X000750Y018304D01*
X000750Y018206D02*
X000750Y018206D01*
X000750Y018107D02*
X000750Y018107D01*
X000750Y018009D02*
X000750Y018009D01*
X000750Y017910D02*
X000750Y017910D01*
X000750Y017812D02*
X000750Y017812D01*
X000750Y017713D02*
X000750Y017713D01*
X000750Y017615D02*
X000750Y017615D01*
X000750Y017516D02*
X000750Y017516D01*
X000750Y017418D02*
X000750Y017418D01*
X000750Y017319D02*
X000750Y017319D01*
X000750Y017221D02*
X000750Y017221D01*
X000750Y017122D02*
X000750Y017122D01*
X000750Y017024D02*
X000750Y017024D01*
X000750Y016925D02*
X000750Y016925D01*
X000750Y016827D02*
X000750Y016827D01*
X000750Y016728D02*
X000750Y016728D01*
X000750Y016630D02*
X000750Y016630D01*
X000750Y016531D02*
X000750Y016531D01*
X000750Y016433D02*
X000750Y016433D01*
X000750Y016334D02*
X000750Y016334D01*
X000750Y016236D02*
X000750Y016236D01*
X000750Y016137D02*
X000750Y016137D01*
X000750Y016039D02*
X000750Y016039D01*
X000750Y015940D02*
X000750Y015940D01*
X000750Y015842D02*
X000750Y015842D01*
X000750Y015743D02*
X000750Y015743D01*
X000750Y015645D02*
X000750Y015645D01*
X000750Y015546D02*
X000750Y015546D01*
X000750Y015448D02*
X000750Y015448D01*
X000750Y015349D02*
X000750Y015349D01*
X000750Y015251D02*
X000750Y015251D01*
X000750Y015152D02*
X000750Y015152D01*
X000750Y015054D02*
X000750Y015054D01*
X000750Y014955D02*
X000750Y014955D01*
X000750Y014857D02*
X000750Y014857D01*
X000750Y014758D02*
X000750Y014758D01*
X000750Y014660D02*
X000750Y014660D01*
X000750Y014561D02*
X000750Y014561D01*
X000750Y014463D02*
X000750Y014463D01*
X000750Y014364D02*
X000750Y014364D01*
X000750Y014266D02*
X000750Y014266D01*
X000750Y014167D02*
X000750Y014167D01*
X000750Y014069D02*
X000750Y014069D01*
X000750Y013970D02*
X000750Y013970D01*
X000750Y013872D02*
X000750Y013872D01*
X000750Y013773D02*
X000750Y013773D01*
X000750Y013675D02*
X000750Y013675D01*
X000750Y013576D02*
X000750Y013576D01*
X000750Y013478D02*
X000750Y013478D01*
X000750Y013379D02*
X000750Y013379D01*
X000750Y013281D02*
X000750Y013281D01*
X000750Y013182D02*
X000750Y013182D01*
X000750Y013084D02*
X000750Y013084D01*
X000750Y012985D02*
X000750Y012985D01*
X000750Y012887D02*
X000750Y012887D01*
X000750Y012788D02*
X000750Y012788D01*
X000750Y012690D02*
X000750Y012690D01*
X000750Y012591D02*
X000750Y012591D01*
X000750Y012493D02*
X000750Y012493D01*
X000750Y012394D02*
X000750Y012394D01*
X000750Y012296D02*
X000750Y012296D01*
X000750Y012197D02*
X000750Y012197D01*
X000750Y012099D02*
X000750Y012099D01*
X000750Y012000D02*
X000750Y012000D01*
X000750Y011902D02*
X000750Y011902D01*
X000750Y011803D02*
X000750Y011803D01*
X000750Y011705D02*
X000750Y011705D01*
X000750Y011606D02*
X000750Y011606D01*
X000750Y011508D02*
X000750Y011508D01*
X000750Y011409D02*
X000750Y011409D01*
X000750Y011311D02*
X000750Y011311D01*
X000750Y011212D02*
X000750Y011212D01*
X000750Y011114D02*
X000750Y011114D01*
X000750Y011015D02*
X000750Y011015D01*
X000750Y010917D02*
X000750Y010917D01*
X000750Y010818D02*
X000750Y010818D01*
X000750Y010720D02*
X000750Y010720D01*
X000750Y010621D02*
X000750Y010621D01*
X000750Y010523D02*
X000750Y010523D01*
X000750Y010424D02*
X000750Y010424D01*
X000750Y010326D02*
X000750Y010326D01*
X000750Y010227D02*
X000750Y010227D01*
X000750Y010129D02*
X000750Y010129D01*
X000750Y010030D02*
X000750Y010030D01*
X000750Y009932D02*
X000750Y009932D01*
X000750Y009833D02*
X000750Y009833D01*
X000750Y009735D02*
X000750Y009735D01*
X000750Y009636D02*
X000750Y009636D01*
X000750Y009538D02*
X000750Y009538D01*
X000750Y009439D02*
X000750Y009439D01*
X000750Y009341D02*
X000750Y009341D01*
X000750Y009242D02*
X000750Y009242D01*
X000750Y009144D02*
X000750Y009144D01*
X000750Y009045D02*
X000750Y009045D01*
X000750Y008947D02*
X000750Y008947D01*
X000750Y008848D02*
X000750Y008848D01*
X000750Y008750D02*
X000750Y008750D01*
X000750Y008651D02*
X000750Y008651D01*
X000750Y008553D02*
X000750Y008553D01*
X000750Y008454D02*
X000750Y008454D01*
X000750Y008356D02*
X000750Y008356D01*
X000750Y008257D02*
X000750Y008257D01*
X000750Y008159D02*
X000750Y008159D01*
X000750Y008060D02*
X000750Y008060D01*
X000750Y007962D02*
X000750Y007962D01*
X000750Y007863D02*
X000750Y007863D01*
X000750Y007765D02*
X000750Y007765D01*
X000750Y007666D02*
X000750Y007666D01*
X000750Y007568D02*
X000750Y007568D01*
X000750Y007469D02*
X000750Y007469D01*
X000750Y007371D02*
X000750Y007371D01*
X000750Y007272D02*
X000750Y007272D01*
X000750Y007174D02*
X000750Y007174D01*
X000750Y007075D02*
X000750Y007075D01*
X000750Y006977D02*
X000750Y006977D01*
X000750Y006878D02*
X000750Y006878D01*
X000750Y006780D02*
X000750Y006780D01*
X000750Y006681D02*
X000750Y006681D01*
X000750Y006583D02*
X000750Y006583D01*
X000750Y006484D02*
X000750Y006484D01*
X000750Y006386D02*
X000750Y006386D01*
X000750Y006287D02*
X000750Y006287D01*
X000750Y006189D02*
X000750Y006189D01*
X000750Y006090D02*
X000750Y006090D01*
X000750Y005992D02*
X000750Y005992D01*
X000750Y005893D02*
X000750Y005893D01*
X000750Y005795D02*
X000750Y005795D01*
X000750Y005696D02*
X000750Y005696D01*
X000750Y005598D02*
X000750Y005598D01*
X000750Y005499D02*
X000750Y005499D01*
X000750Y005401D02*
X000750Y005401D01*
X000750Y005302D02*
X000750Y005302D01*
X000750Y005204D02*
X000750Y005204D01*
X000750Y005105D02*
X000760Y005105D01*
X000750Y005007D02*
X000820Y005007D01*
X000750Y004908D02*
X010170Y004908D01*
X010170Y004810D02*
X000750Y004810D01*
X000750Y004711D02*
X010170Y004711D01*
X010170Y004613D02*
X000750Y004613D01*
X000750Y004514D02*
X010170Y004514D01*
X010170Y004416D02*
X000750Y004416D01*
X000750Y004317D02*
X010170Y004317D01*
X010170Y004219D02*
X000750Y004219D01*
X000750Y004120D02*
X010170Y004120D01*
X010170Y004022D02*
X000750Y004022D01*
X000750Y003923D02*
X010170Y003923D01*
X010170Y003825D02*
X003211Y003825D01*
X003153Y003840D02*
X002847Y003840D01*
X002552Y003761D01*
X002288Y003608D01*
X002072Y003392D01*
X001919Y003128D01*
X001840Y002833D01*
X001840Y002527D01*
X001919Y002232D01*
X002072Y001968D01*
X002288Y001752D01*
X002552Y001599D01*
X002847Y001520D01*
X003153Y001520D01*
X003448Y001599D01*
X003712Y001752D01*
X003928Y001968D01*
X004081Y002232D01*
X004160Y002527D01*
X004160Y002833D01*
X004081Y003128D01*
X003928Y003392D01*
X003712Y003608D01*
X003448Y003761D01*
X003153Y003840D01*
X002789Y003825D02*
X000750Y003825D01*
X000750Y003726D02*
X002492Y003726D01*
X002321Y003628D02*
X000750Y003628D01*
X000750Y003529D02*
X002209Y003529D01*
X002110Y003431D02*
X000750Y003431D01*
X000750Y003332D02*
X002037Y003332D01*
X001980Y003234D02*
X000750Y003234D01*
X000750Y003135D02*
X001923Y003135D01*
X001895Y003037D02*
X000750Y003037D01*
X000750Y002938D02*
X001868Y002938D01*
X001842Y002840D02*
X000750Y002840D01*
X000750Y002741D02*
X001840Y002741D01*
X001840Y002643D02*
X000750Y002643D01*
X000750Y002544D02*
X001840Y002544D01*
X001862Y002446D02*
X000750Y002446D01*
X000750Y002347D02*
X001888Y002347D01*
X001915Y002249D02*
X000750Y002249D01*
X000750Y002150D02*
X001967Y002150D01*
X002023Y002052D02*
X000750Y002052D01*
X000750Y001953D02*
X002087Y001953D01*
X002185Y001855D02*
X000750Y001855D01*
X000750Y001756D02*
X002284Y001756D01*
X002451Y001658D02*
X000750Y001658D01*
X000750Y001559D02*
X002702Y001559D01*
X003298Y001559D02*
X010170Y001559D01*
X010170Y001461D02*
X000750Y001461D01*
X000750Y001362D02*
X010170Y001362D01*
X010170Y001264D02*
X000750Y001264D01*
X000750Y001165D02*
X010170Y001165D01*
X010170Y001067D02*
X000750Y001067D01*
X000750Y000968D02*
X010170Y000968D01*
X010170Y000870D02*
X000750Y000870D01*
X000750Y000771D02*
X010170Y000771D01*
X010170Y000673D02*
X000750Y000673D01*
X000750Y000574D02*
X010187Y000574D01*
X010238Y000476D02*
X000750Y000476D01*
X003549Y001658D02*
X010170Y001658D01*
X010170Y001756D02*
X003716Y001756D01*
X003815Y001855D02*
X010170Y001855D01*
X010170Y001953D02*
X003913Y001953D01*
X003977Y002052D02*
X010170Y002052D01*
X010170Y002150D02*
X004033Y002150D01*
X004085Y002249D02*
X010170Y002249D01*
X010170Y002347D02*
X004112Y002347D01*
X004138Y002446D02*
X010170Y002446D01*
X010170Y002544D02*
X004160Y002544D01*
X004160Y002643D02*
X010170Y002643D01*
X010170Y002741D02*
X004160Y002741D01*
X004158Y002840D02*
X010170Y002840D01*
X010170Y002938D02*
X004132Y002938D01*
X004105Y003037D02*
X010170Y003037D01*
X010170Y003135D02*
X004077Y003135D01*
X004020Y003234D02*
X010170Y003234D01*
X010170Y003332D02*
X003963Y003332D01*
X003890Y003431D02*
X010170Y003431D01*
X010170Y003529D02*
X003791Y003529D01*
X003679Y003628D02*
X010170Y003628D01*
X010170Y003726D02*
X003508Y003726D01*
X006180Y005007D02*
X010170Y005007D01*
X010170Y005105D02*
X006240Y005105D01*
X006250Y005204D02*
X010170Y005204D01*
X010170Y005302D02*
X006250Y005302D01*
X006250Y005401D02*
X010170Y005401D01*
X010170Y005499D02*
X006644Y005499D01*
X006730Y005598D02*
X010170Y005598D01*
X010170Y005696D02*
X006730Y005696D01*
X006730Y005795D02*
X010190Y005795D01*
X010246Y005893D02*
X006730Y005893D01*
X006730Y005992D02*
X010390Y005992D01*
X008304Y008159D02*
X014780Y008159D01*
X014780Y008257D02*
X008402Y008257D01*
X008501Y008356D02*
X014780Y008356D01*
X014780Y008454D02*
X008599Y008454D01*
X008698Y008553D02*
X014780Y008553D01*
X014780Y008651D02*
X008796Y008651D01*
X008895Y008750D02*
X014780Y008750D01*
X014780Y008848D02*
X008993Y008848D01*
X009092Y008947D02*
X014780Y008947D01*
X014780Y009045D02*
X009190Y009045D01*
X009289Y009144D02*
X014780Y009144D01*
X014780Y009242D02*
X009387Y009242D01*
X009486Y009341D02*
X014780Y009341D01*
X014780Y009439D02*
X009584Y009439D01*
X009683Y009538D02*
X014780Y009538D01*
X014780Y009636D02*
X009781Y009636D01*
X009880Y009735D02*
X014780Y009735D01*
X014780Y009833D02*
X009978Y009833D01*
X010077Y009932D02*
X014780Y009932D01*
X014780Y010030D02*
X010175Y010030D01*
X010274Y010129D02*
X014780Y010129D01*
X014780Y010227D02*
X010372Y010227D01*
X010471Y010326D02*
X014780Y010326D01*
X014780Y010424D02*
X010569Y010424D01*
X010668Y010523D02*
X014780Y010523D01*
X014780Y010621D02*
X010730Y010621D01*
X010730Y010720D02*
X014780Y010720D01*
X014780Y010818D02*
X010730Y010818D01*
X010785Y010917D02*
X014780Y010917D01*
X014780Y011015D02*
X010852Y011015D01*
X010888Y011114D02*
X014780Y011114D01*
X014780Y011212D02*
X010888Y011212D01*
X010866Y011311D02*
X014780Y011311D01*
X014780Y011409D02*
X010820Y011409D01*
X010721Y011508D02*
X014780Y011508D01*
X014780Y011606D02*
X006250Y011606D01*
X006250Y011508D02*
X010279Y011508D01*
X010180Y011409D02*
X006250Y011409D01*
X006250Y011311D02*
X010134Y011311D01*
X010112Y011212D02*
X006250Y011212D01*
X006250Y011114D02*
X010112Y011114D01*
X010148Y011015D02*
X006250Y011015D01*
X006250Y010917D02*
X010215Y010917D01*
X010270Y010818D02*
X006250Y010818D01*
X006250Y010720D02*
X010214Y010720D01*
X010116Y010621D02*
X006250Y010621D01*
X006250Y010523D02*
X010017Y010523D01*
X009919Y010424D02*
X006250Y010424D01*
X006250Y010326D02*
X009820Y010326D01*
X009722Y010227D02*
X006250Y010227D01*
X006250Y010129D02*
X009623Y010129D01*
X009525Y010030D02*
X006250Y010030D01*
X006250Y009932D02*
X009426Y009932D01*
X009328Y009833D02*
X006250Y009833D01*
X006250Y009735D02*
X009229Y009735D01*
X009131Y009636D02*
X006250Y009636D01*
X006250Y009538D02*
X009032Y009538D01*
X008934Y009439D02*
X006250Y009439D01*
X006250Y009341D02*
X008835Y009341D01*
X008737Y009242D02*
X006250Y009242D01*
X006250Y009144D02*
X008638Y009144D01*
X008540Y009045D02*
X006250Y009045D01*
X006250Y008947D02*
X008441Y008947D01*
X008343Y008848D02*
X006250Y008848D01*
X006250Y008750D02*
X008244Y008750D01*
X008146Y008651D02*
X006250Y008651D01*
X006250Y008553D02*
X008047Y008553D01*
X007949Y008454D02*
X006250Y008454D01*
X006250Y008356D02*
X007850Y008356D01*
X007752Y008257D02*
X006250Y008257D01*
X006250Y008159D02*
X007653Y008159D01*
X007555Y008060D02*
X006250Y008060D01*
X006250Y007962D02*
X007456Y007962D01*
X007358Y007863D02*
X006250Y007863D01*
X006250Y007765D02*
X007259Y007765D01*
X007161Y007666D02*
X006250Y007666D01*
X006250Y007568D02*
X007062Y007568D01*
X006964Y007469D02*
X006250Y007469D01*
X006250Y007371D02*
X006865Y007371D01*
X006767Y007272D02*
X006250Y007272D01*
X006250Y007174D02*
X006668Y007174D01*
X006570Y007075D02*
X006250Y007075D01*
X006250Y006977D02*
X006471Y006977D01*
X006373Y006878D02*
X006250Y006878D01*
X006250Y006780D02*
X006274Y006780D01*
X006270Y006681D02*
X006250Y006681D01*
X006250Y006583D02*
X006270Y006583D01*
X006270Y006484D02*
X006250Y006484D01*
X006250Y006386D02*
X006270Y006386D01*
X006270Y006287D02*
X006250Y006287D01*
X006250Y006189D02*
X006270Y006189D01*
X006270Y006090D02*
X006250Y006090D01*
X006250Y005992D02*
X006270Y005992D01*
X006730Y006090D02*
X014780Y006090D01*
X014780Y006189D02*
X006730Y006189D01*
X006730Y006287D02*
X014780Y006287D01*
X014780Y006386D02*
X006730Y006386D01*
X006730Y006484D02*
X014780Y006484D01*
X014780Y006583D02*
X006730Y006583D01*
X006826Y006681D02*
X014780Y006681D01*
X014780Y006780D02*
X006925Y006780D01*
X007023Y006878D02*
X014780Y006878D01*
X014780Y006977D02*
X007122Y006977D01*
X007220Y007075D02*
X014780Y007075D01*
X014780Y007174D02*
X007319Y007174D01*
X007417Y007272D02*
X014780Y007272D01*
X014780Y007371D02*
X007516Y007371D01*
X007614Y007469D02*
X014780Y007469D01*
X014780Y007568D02*
X007713Y007568D01*
X007811Y007666D02*
X014780Y007666D01*
X014780Y007765D02*
X007910Y007765D01*
X008008Y007863D02*
X014780Y007863D01*
X014780Y007962D02*
X008107Y007962D01*
X008205Y008060D02*
X014780Y008060D01*
X015720Y008060D02*
X050250Y008060D01*
X050250Y007962D02*
X015720Y007962D01*
X015720Y007863D02*
X050250Y007863D01*
X050250Y007765D02*
X015720Y007765D01*
X015720Y007666D02*
X050250Y007666D01*
X050250Y007568D02*
X015720Y007568D01*
X015720Y007469D02*
X050250Y007469D01*
X050250Y007371D02*
X015720Y007371D01*
X015720Y007272D02*
X050250Y007272D01*
X050250Y007174D02*
X015720Y007174D01*
X015720Y007075D02*
X050250Y007075D01*
X050250Y006977D02*
X015720Y006977D01*
X015720Y006878D02*
X050250Y006878D01*
X050250Y006780D02*
X015720Y006780D01*
X015720Y006681D02*
X050250Y006681D01*
X050250Y006583D02*
X015720Y006583D01*
X015720Y006484D02*
X050250Y006484D01*
X050250Y006386D02*
X015720Y006386D01*
X015720Y006287D02*
X050250Y006287D01*
X050250Y006189D02*
X015720Y006189D01*
X015720Y006090D02*
X050250Y006090D01*
X050250Y005992D02*
X017110Y005992D01*
X017254Y005893D02*
X050250Y005893D01*
X050250Y005795D02*
X017310Y005795D01*
X017330Y005696D02*
X050250Y005696D01*
X050250Y005598D02*
X017330Y005598D01*
X017330Y005499D02*
X050250Y005499D01*
X050250Y005401D02*
X017330Y005401D01*
X017330Y005302D02*
X050250Y005302D01*
X050250Y005204D02*
X017330Y005204D01*
X017330Y005105D02*
X027792Y005105D01*
X027815Y005127D02*
X027553Y004865D01*
X027553Y004495D01*
X027815Y004233D01*
X028185Y004233D01*
X028447Y004495D01*
X028447Y004865D01*
X028185Y005127D01*
X027815Y005127D01*
X027694Y005007D02*
X017330Y005007D01*
X017330Y004908D02*
X027595Y004908D01*
X027553Y004810D02*
X017330Y004810D01*
X017330Y004711D02*
X027553Y004711D01*
X027553Y004613D02*
X017330Y004613D01*
X017330Y004514D02*
X027553Y004514D01*
X027632Y004416D02*
X017330Y004416D01*
X017330Y004317D02*
X027730Y004317D01*
X027815Y004127D02*
X027553Y003865D01*
X027553Y003495D01*
X027815Y003233D01*
X028185Y003233D01*
X028447Y003495D01*
X028447Y003865D01*
X028185Y004127D01*
X027815Y004127D01*
X027807Y004120D02*
X017330Y004120D01*
X017330Y004022D02*
X027709Y004022D01*
X027610Y003923D02*
X017330Y003923D01*
X017330Y003825D02*
X027553Y003825D01*
X027553Y003726D02*
X017330Y003726D01*
X017330Y003628D02*
X027553Y003628D01*
X027553Y003529D02*
X017330Y003529D01*
X017330Y003431D02*
X027617Y003431D01*
X027715Y003332D02*
X017330Y003332D01*
X017330Y003234D02*
X027814Y003234D01*
X028186Y003234D02*
X028814Y003234D01*
X028815Y003233D02*
X029185Y003233D01*
X029447Y003495D01*
X029447Y003865D01*
X029185Y004127D01*
X028815Y004127D01*
X028553Y003865D01*
X028553Y003495D01*
X028815Y003233D01*
X028715Y003332D02*
X028285Y003332D01*
X028383Y003431D02*
X028617Y003431D01*
X028553Y003529D02*
X028447Y003529D01*
X028447Y003628D02*
X028553Y003628D01*
X028553Y003726D02*
X028447Y003726D01*
X028447Y003825D02*
X028553Y003825D01*
X028610Y003923D02*
X028390Y003923D01*
X028291Y004022D02*
X028709Y004022D01*
X028807Y004120D02*
X028193Y004120D01*
X028270Y004317D02*
X028730Y004317D01*
X028815Y004233D02*
X029185Y004233D01*
X029447Y004495D01*
X029447Y004865D01*
X029185Y005127D01*
X028815Y005127D01*
X028553Y004865D01*
X028553Y004495D01*
X028815Y004233D01*
X028632Y004416D02*
X028368Y004416D01*
X028447Y004514D02*
X028553Y004514D01*
X028553Y004613D02*
X028447Y004613D01*
X028447Y004711D02*
X028553Y004711D01*
X028553Y004810D02*
X028447Y004810D01*
X028405Y004908D02*
X028595Y004908D01*
X028694Y005007D02*
X028306Y005007D01*
X028208Y005105D02*
X028792Y005105D01*
X029208Y005105D02*
X029792Y005105D01*
X029815Y005127D02*
X029553Y004865D01*
X029553Y004495D01*
X029815Y004233D01*
X030185Y004233D01*
X030447Y004495D01*
X030447Y004865D01*
X030185Y005127D01*
X029815Y005127D01*
X029694Y005007D02*
X029306Y005007D01*
X029405Y004908D02*
X029595Y004908D01*
X029553Y004810D02*
X029447Y004810D01*
X029447Y004711D02*
X029553Y004711D01*
X029553Y004613D02*
X029447Y004613D01*
X029447Y004514D02*
X029553Y004514D01*
X029632Y004416D02*
X029368Y004416D01*
X029270Y004317D02*
X029730Y004317D01*
X029815Y004127D02*
X029553Y003865D01*
X029553Y003495D01*
X029815Y003233D01*
X030185Y003233D01*
X030447Y003495D01*
X030447Y003865D01*
X030185Y004127D01*
X029815Y004127D01*
X029807Y004120D02*
X029193Y004120D01*
X029291Y004022D02*
X029709Y004022D01*
X029610Y003923D02*
X029390Y003923D01*
X029447Y003825D02*
X029553Y003825D01*
X029553Y003726D02*
X029447Y003726D01*
X029447Y003628D02*
X029553Y003628D01*
X029553Y003529D02*
X029447Y003529D01*
X029383Y003431D02*
X029617Y003431D01*
X029715Y003332D02*
X029285Y003332D01*
X029186Y003234D02*
X029814Y003234D01*
X030186Y003234D02*
X030814Y003234D01*
X030815Y003233D02*
X031185Y003233D01*
X031447Y003495D01*
X031447Y003865D01*
X031185Y004127D01*
X030815Y004127D01*
X030553Y003865D01*
X030553Y003495D01*
X030815Y003233D01*
X030715Y003332D02*
X030285Y003332D01*
X030383Y003431D02*
X030617Y003431D01*
X030553Y003529D02*
X030447Y003529D01*
X030447Y003628D02*
X030553Y003628D01*
X030553Y003726D02*
X030447Y003726D01*
X030447Y003825D02*
X030553Y003825D01*
X030610Y003923D02*
X030390Y003923D01*
X030291Y004022D02*
X030709Y004022D01*
X030807Y004120D02*
X030193Y004120D01*
X030270Y004317D02*
X030730Y004317D01*
X030815Y004233D02*
X031185Y004233D01*
X031447Y004495D01*
X031447Y004865D01*
X031185Y005127D01*
X030815Y005127D01*
X030553Y004865D01*
X030553Y004495D01*
X030815Y004233D01*
X030632Y004416D02*
X030368Y004416D01*
X030447Y004514D02*
X030553Y004514D01*
X030553Y004613D02*
X030447Y004613D01*
X030447Y004711D02*
X030553Y004711D01*
X030553Y004810D02*
X030447Y004810D01*
X030405Y004908D02*
X030595Y004908D01*
X030694Y005007D02*
X030306Y005007D01*
X030208Y005105D02*
X030792Y005105D01*
X031208Y005105D02*
X031792Y005105D01*
X031815Y005127D02*
X031553Y004865D01*
X031553Y004495D01*
X031815Y004233D01*
X032185Y004233D01*
X032447Y004495D01*
X032447Y004865D01*
X032185Y005127D01*
X031815Y005127D01*
X031694Y005007D02*
X031306Y005007D01*
X031405Y004908D02*
X031595Y004908D01*
X031553Y004810D02*
X031447Y004810D01*
X031447Y004711D02*
X031553Y004711D01*
X031553Y004613D02*
X031447Y004613D01*
X031447Y004514D02*
X031553Y004514D01*
X031632Y004416D02*
X031368Y004416D01*
X031270Y004317D02*
X031730Y004317D01*
X031815Y004127D02*
X031553Y003865D01*
X031553Y003495D01*
X031815Y003233D01*
X032185Y003233D01*
X032447Y003495D01*
X032447Y003865D01*
X032185Y004127D01*
X031815Y004127D01*
X031807Y004120D02*
X031193Y004120D01*
X031291Y004022D02*
X031709Y004022D01*
X031610Y003923D02*
X031390Y003923D01*
X031447Y003825D02*
X031553Y003825D01*
X031553Y003726D02*
X031447Y003726D01*
X031447Y003628D02*
X031553Y003628D01*
X031553Y003529D02*
X031447Y003529D01*
X031383Y003431D02*
X031617Y003431D01*
X031715Y003332D02*
X031285Y003332D01*
X031186Y003234D02*
X031814Y003234D01*
X032186Y003234D02*
X032814Y003234D01*
X032815Y003233D02*
X033185Y003233D01*
X033447Y003495D01*
X033447Y003865D01*
X033185Y004127D01*
X032815Y004127D01*
X032553Y003865D01*
X032553Y003495D01*
X032815Y003233D01*
X032715Y003332D02*
X032285Y003332D01*
X032383Y003431D02*
X032617Y003431D01*
X032553Y003529D02*
X032447Y003529D01*
X032447Y003628D02*
X032553Y003628D01*
X032553Y003726D02*
X032447Y003726D01*
X032447Y003825D02*
X032553Y003825D01*
X032610Y003923D02*
X032390Y003923D01*
X032291Y004022D02*
X032709Y004022D01*
X032807Y004120D02*
X032193Y004120D01*
X032270Y004317D02*
X032730Y004317D01*
X032815Y004233D02*
X033185Y004233D01*
X033447Y004495D01*
X033447Y004865D01*
X033185Y005127D01*
X032815Y005127D01*
X032553Y004865D01*
X032553Y004495D01*
X032815Y004233D01*
X032632Y004416D02*
X032368Y004416D01*
X032447Y004514D02*
X032553Y004514D01*
X032553Y004613D02*
X032447Y004613D01*
X032447Y004711D02*
X032553Y004711D01*
X032553Y004810D02*
X032447Y004810D01*
X032405Y004908D02*
X032595Y004908D01*
X032694Y005007D02*
X032306Y005007D01*
X032208Y005105D02*
X032792Y005105D01*
X033208Y005105D02*
X033792Y005105D01*
X033815Y005127D02*
X033553Y004865D01*
X033553Y004495D01*
X033815Y004233D01*
X034185Y004233D01*
X034447Y004495D01*
X034447Y004865D01*
X034185Y005127D01*
X033815Y005127D01*
X033694Y005007D02*
X033306Y005007D01*
X033405Y004908D02*
X033595Y004908D01*
X033553Y004810D02*
X033447Y004810D01*
X033447Y004711D02*
X033553Y004711D01*
X033553Y004613D02*
X033447Y004613D01*
X033447Y004514D02*
X033553Y004514D01*
X033632Y004416D02*
X033368Y004416D01*
X033270Y004317D02*
X033730Y004317D01*
X033815Y004127D02*
X033553Y003865D01*
X033553Y003495D01*
X033815Y003233D01*
X034185Y003233D01*
X034447Y003495D01*
X034447Y003865D01*
X034185Y004127D01*
X033815Y004127D01*
X033807Y004120D02*
X033193Y004120D01*
X033291Y004022D02*
X033709Y004022D01*
X033610Y003923D02*
X033390Y003923D01*
X033447Y003825D02*
X033553Y003825D01*
X033553Y003726D02*
X033447Y003726D01*
X033447Y003628D02*
X033553Y003628D01*
X033553Y003529D02*
X033447Y003529D01*
X033383Y003431D02*
X033617Y003431D01*
X033715Y003332D02*
X033285Y003332D01*
X033186Y003234D02*
X033814Y003234D01*
X034186Y003234D02*
X034814Y003234D01*
X034815Y003233D02*
X035185Y003233D01*
X035447Y003495D01*
X035447Y003865D01*
X035185Y004127D01*
X034815Y004127D01*
X034553Y003865D01*
X034553Y003495D01*
X034815Y003233D01*
X034715Y003332D02*
X034285Y003332D01*
X034383Y003431D02*
X034617Y003431D01*
X034553Y003529D02*
X034447Y003529D01*
X034447Y003628D02*
X034553Y003628D01*
X034553Y003726D02*
X034447Y003726D01*
X034447Y003825D02*
X034553Y003825D01*
X034610Y003923D02*
X034390Y003923D01*
X034291Y004022D02*
X034709Y004022D01*
X034807Y004120D02*
X034193Y004120D01*
X034270Y004317D02*
X034730Y004317D01*
X034815Y004233D02*
X035185Y004233D01*
X035447Y004495D01*
X035447Y004865D01*
X035185Y005127D01*
X034815Y005127D01*
X034553Y004865D01*
X034553Y004495D01*
X034815Y004233D01*
X034632Y004416D02*
X034368Y004416D01*
X034447Y004514D02*
X034553Y004514D01*
X034553Y004613D02*
X034447Y004613D01*
X034447Y004711D02*
X034553Y004711D01*
X034553Y004810D02*
X034447Y004810D01*
X034405Y004908D02*
X034595Y004908D01*
X034694Y005007D02*
X034306Y005007D01*
X034208Y005105D02*
X034792Y005105D01*
X035208Y005105D02*
X035792Y005105D01*
X035815Y005127D02*
X035553Y004865D01*
X035553Y004495D01*
X035815Y004233D01*
X036185Y004233D01*
X036447Y004495D01*
X036447Y004865D01*
X036185Y005127D01*
X035815Y005127D01*
X035694Y005007D02*
X035306Y005007D01*
X035405Y004908D02*
X035595Y004908D01*
X035553Y004810D02*
X035447Y004810D01*
X035447Y004711D02*
X035553Y004711D01*
X035553Y004613D02*
X035447Y004613D01*
X035447Y004514D02*
X035553Y004514D01*
X035632Y004416D02*
X035368Y004416D01*
X035270Y004317D02*
X035730Y004317D01*
X035815Y004127D02*
X035553Y003865D01*
X035553Y003495D01*
X035815Y003233D01*
X036185Y003233D01*
X036447Y003495D01*
X036447Y003865D01*
X036185Y004127D01*
X035815Y004127D01*
X035807Y004120D02*
X035193Y004120D01*
X035291Y004022D02*
X035709Y004022D01*
X035610Y003923D02*
X035390Y003923D01*
X035447Y003825D02*
X035553Y003825D01*
X035553Y003726D02*
X035447Y003726D01*
X035447Y003628D02*
X035553Y003628D01*
X035553Y003529D02*
X035447Y003529D01*
X035383Y003431D02*
X035617Y003431D01*
X035715Y003332D02*
X035285Y003332D01*
X035186Y003234D02*
X035814Y003234D01*
X036186Y003234D02*
X036814Y003234D01*
X036815Y003233D02*
X037185Y003233D01*
X037447Y003495D01*
X037447Y003865D01*
X037185Y004127D01*
X036815Y004127D01*
X036553Y003865D01*
X036553Y003495D01*
X036815Y003233D01*
X036715Y003332D02*
X036285Y003332D01*
X036383Y003431D02*
X036617Y003431D01*
X036553Y003529D02*
X036447Y003529D01*
X036447Y003628D02*
X036553Y003628D01*
X036553Y003726D02*
X036447Y003726D01*
X036447Y003825D02*
X036553Y003825D01*
X036610Y003923D02*
X036390Y003923D01*
X036291Y004022D02*
X036709Y004022D01*
X036807Y004120D02*
X036193Y004120D01*
X036270Y004317D02*
X036730Y004317D01*
X036815Y004233D02*
X037185Y004233D01*
X037447Y004495D01*
X037447Y004865D01*
X037185Y005127D01*
X036815Y005127D01*
X036553Y004865D01*
X036553Y004495D01*
X036815Y004233D01*
X036632Y004416D02*
X036368Y004416D01*
X036447Y004514D02*
X036553Y004514D01*
X036553Y004613D02*
X036447Y004613D01*
X036447Y004711D02*
X036553Y004711D01*
X036553Y004810D02*
X036447Y004810D01*
X036405Y004908D02*
X036595Y004908D01*
X036694Y005007D02*
X036306Y005007D01*
X036208Y005105D02*
X036792Y005105D01*
X037208Y005105D02*
X037792Y005105D01*
X037815Y005127D02*
X037553Y004865D01*
X037553Y004495D01*
X037815Y004233D01*
X038185Y004233D01*
X038447Y004495D01*
X038447Y004865D01*
X038185Y005127D01*
X037815Y005127D01*
X037694Y005007D02*
X037306Y005007D01*
X037405Y004908D02*
X037595Y004908D01*
X037553Y004810D02*
X037447Y004810D01*
X037447Y004711D02*
X037553Y004711D01*
X037553Y004613D02*
X037447Y004613D01*
X037447Y004514D02*
X037553Y004514D01*
X037632Y004416D02*
X037368Y004416D01*
X037270Y004317D02*
X037730Y004317D01*
X037815Y004127D02*
X037553Y003865D01*
X037553Y003495D01*
X037815Y003233D01*
X038185Y003233D01*
X038447Y003495D01*
X038447Y003865D01*
X038185Y004127D01*
X037815Y004127D01*
X037807Y004120D02*
X037193Y004120D01*
X037291Y004022D02*
X037709Y004022D01*
X037610Y003923D02*
X037390Y003923D01*
X037447Y003825D02*
X037553Y003825D01*
X037553Y003726D02*
X037447Y003726D01*
X037447Y003628D02*
X037553Y003628D01*
X037553Y003529D02*
X037447Y003529D01*
X037383Y003431D02*
X037617Y003431D01*
X037715Y003332D02*
X037285Y003332D01*
X037186Y003234D02*
X037814Y003234D01*
X038186Y003234D02*
X038814Y003234D01*
X038815Y003233D02*
X039185Y003233D01*
X039447Y003495D01*
X039447Y003865D01*
X039185Y004127D01*
X038815Y004127D01*
X038553Y003865D01*
X038553Y003495D01*
X038815Y003233D01*
X038715Y003332D02*
X038285Y003332D01*
X038383Y003431D02*
X038617Y003431D01*
X038553Y003529D02*
X038447Y003529D01*
X038447Y003628D02*
X038553Y003628D01*
X038553Y003726D02*
X038447Y003726D01*
X038447Y003825D02*
X038553Y003825D01*
X038610Y003923D02*
X038390Y003923D01*
X038291Y004022D02*
X038709Y004022D01*
X038807Y004120D02*
X038193Y004120D01*
X038270Y004317D02*
X038730Y004317D01*
X038815Y004233D02*
X039185Y004233D01*
X039447Y004495D01*
X039447Y004865D01*
X039185Y005127D01*
X038815Y005127D01*
X038553Y004865D01*
X038553Y004495D01*
X038815Y004233D01*
X038632Y004416D02*
X038368Y004416D01*
X038447Y004514D02*
X038553Y004514D01*
X038553Y004613D02*
X038447Y004613D01*
X038447Y004711D02*
X038553Y004711D01*
X038553Y004810D02*
X038447Y004810D01*
X038405Y004908D02*
X038595Y004908D01*
X038694Y005007D02*
X038306Y005007D01*
X038208Y005105D02*
X038792Y005105D01*
X039208Y005105D02*
X039792Y005105D01*
X039815Y005127D02*
X039553Y004865D01*
X039553Y004495D01*
X039815Y004233D01*
X040185Y004233D01*
X040447Y004495D01*
X040447Y004865D01*
X040185Y005127D01*
X039815Y005127D01*
X039694Y005007D02*
X039306Y005007D01*
X039405Y004908D02*
X039595Y004908D01*
X039553Y004810D02*
X039447Y004810D01*
X039447Y004711D02*
X039553Y004711D01*
X039553Y004613D02*
X039447Y004613D01*
X039447Y004514D02*
X039553Y004514D01*
X039632Y004416D02*
X039368Y004416D01*
X039270Y004317D02*
X039730Y004317D01*
X039815Y004127D02*
X039553Y003865D01*
X039553Y003495D01*
X039815Y003233D01*
X040185Y003233D01*
X040447Y003495D01*
X040447Y003865D01*
X040185Y004127D01*
X039815Y004127D01*
X039807Y004120D02*
X039193Y004120D01*
X039291Y004022D02*
X039709Y004022D01*
X039610Y003923D02*
X039390Y003923D01*
X039447Y003825D02*
X039553Y003825D01*
X039553Y003726D02*
X039447Y003726D01*
X039447Y003628D02*
X039553Y003628D01*
X039553Y003529D02*
X039447Y003529D01*
X039383Y003431D02*
X039617Y003431D01*
X039715Y003332D02*
X039285Y003332D01*
X039186Y003234D02*
X039814Y003234D01*
X040186Y003234D02*
X040814Y003234D01*
X040815Y003233D02*
X041185Y003233D01*
X041447Y003495D01*
X041447Y003865D01*
X041185Y004127D01*
X040815Y004127D01*
X040553Y003865D01*
X040553Y003495D01*
X040815Y003233D01*
X040715Y003332D02*
X040285Y003332D01*
X040383Y003431D02*
X040617Y003431D01*
X040553Y003529D02*
X040447Y003529D01*
X040447Y003628D02*
X040553Y003628D01*
X040553Y003726D02*
X040447Y003726D01*
X040447Y003825D02*
X040553Y003825D01*
X040610Y003923D02*
X040390Y003923D01*
X040291Y004022D02*
X040709Y004022D01*
X040807Y004120D02*
X040193Y004120D01*
X040270Y004317D02*
X040730Y004317D01*
X040815Y004233D02*
X041185Y004233D01*
X041447Y004495D01*
X041447Y004865D01*
X041185Y005127D01*
X040815Y005127D01*
X040553Y004865D01*
X040553Y004495D01*
X040815Y004233D01*
X040632Y004416D02*
X040368Y004416D01*
X040447Y004514D02*
X040553Y004514D01*
X040553Y004613D02*
X040447Y004613D01*
X040447Y004711D02*
X040553Y004711D01*
X040553Y004810D02*
X040447Y004810D01*
X040405Y004908D02*
X040595Y004908D01*
X040694Y005007D02*
X040306Y005007D01*
X040208Y005105D02*
X040792Y005105D01*
X041208Y005105D02*
X041792Y005105D01*
X041815Y005127D02*
X041553Y004865D01*
X041553Y004495D01*
X041815Y004233D01*
X042185Y004233D01*
X042447Y004495D01*
X042447Y004865D01*
X042185Y005127D01*
X041815Y005127D01*
X041694Y005007D02*
X041306Y005007D01*
X041405Y004908D02*
X041595Y004908D01*
X041553Y004810D02*
X041447Y004810D01*
X041447Y004711D02*
X041553Y004711D01*
X041553Y004613D02*
X041447Y004613D01*
X041447Y004514D02*
X041553Y004514D01*
X041632Y004416D02*
X041368Y004416D01*
X041270Y004317D02*
X041730Y004317D01*
X041815Y004127D02*
X041553Y003865D01*
X041553Y003495D01*
X041815Y003233D01*
X042185Y003233D01*
X042447Y003495D01*
X042447Y003865D01*
X042185Y004127D01*
X041815Y004127D01*
X041807Y004120D02*
X041193Y004120D01*
X041291Y004022D02*
X041709Y004022D01*
X041610Y003923D02*
X041390Y003923D01*
X041447Y003825D02*
X041553Y003825D01*
X041553Y003726D02*
X041447Y003726D01*
X041447Y003628D02*
X041553Y003628D01*
X041553Y003529D02*
X041447Y003529D01*
X041383Y003431D02*
X041617Y003431D01*
X041715Y003332D02*
X041285Y003332D01*
X041186Y003234D02*
X041814Y003234D01*
X042186Y003234D02*
X042814Y003234D01*
X042815Y003233D02*
X043185Y003233D01*
X043447Y003495D01*
X043447Y003865D01*
X043185Y004127D01*
X042815Y004127D01*
X042553Y003865D01*
X042553Y003495D01*
X042815Y003233D01*
X042715Y003332D02*
X042285Y003332D01*
X042383Y003431D02*
X042617Y003431D01*
X042553Y003529D02*
X042447Y003529D01*
X042447Y003628D02*
X042553Y003628D01*
X042553Y003726D02*
X042447Y003726D01*
X042447Y003825D02*
X042553Y003825D01*
X042610Y003923D02*
X042390Y003923D01*
X042291Y004022D02*
X042709Y004022D01*
X042807Y004120D02*
X042193Y004120D01*
X042270Y004317D02*
X042730Y004317D01*
X042815Y004233D02*
X043185Y004233D01*
X043447Y004495D01*
X043447Y004865D01*
X043185Y005127D01*
X042815Y005127D01*
X042553Y004865D01*
X042553Y004495D01*
X042815Y004233D01*
X042632Y004416D02*
X042368Y004416D01*
X042447Y004514D02*
X042553Y004514D01*
X042553Y004613D02*
X042447Y004613D01*
X042447Y004711D02*
X042553Y004711D01*
X042553Y004810D02*
X042447Y004810D01*
X042405Y004908D02*
X042595Y004908D01*
X042694Y005007D02*
X042306Y005007D01*
X042208Y005105D02*
X042792Y005105D01*
X043208Y005105D02*
X050250Y005105D01*
X050250Y005007D02*
X043306Y005007D01*
X043405Y004908D02*
X050250Y004908D01*
X050250Y004810D02*
X043447Y004810D01*
X043447Y004711D02*
X050250Y004711D01*
X050250Y004613D02*
X043447Y004613D01*
X043447Y004514D02*
X050250Y004514D01*
X050250Y004416D02*
X043368Y004416D01*
X043270Y004317D02*
X050250Y004317D01*
X050250Y004219D02*
X017330Y004219D01*
X017330Y003135D02*
X046923Y003135D01*
X046919Y003128D02*
X046840Y002833D01*
X046840Y002527D01*
X046919Y002232D01*
X047072Y001968D01*
X047288Y001752D01*
X047552Y001599D01*
X047847Y001520D01*
X048153Y001520D01*
X048448Y001599D01*
X048712Y001752D01*
X048928Y001968D01*
X049081Y002232D01*
X049160Y002527D01*
X049160Y002833D01*
X049081Y003128D01*
X048928Y003392D01*
X048712Y003608D01*
X048448Y003761D01*
X048153Y003840D01*
X047847Y003840D01*
X047552Y003761D01*
X047288Y003608D01*
X047072Y003392D01*
X046919Y003128D01*
X046895Y003037D02*
X017330Y003037D01*
X017330Y002938D02*
X046868Y002938D01*
X046842Y002840D02*
X017330Y002840D01*
X017330Y002741D02*
X046840Y002741D01*
X046840Y002643D02*
X017330Y002643D01*
X017330Y002544D02*
X046840Y002544D01*
X046862Y002446D02*
X017330Y002446D01*
X017330Y002347D02*
X046888Y002347D01*
X046915Y002249D02*
X017330Y002249D01*
X017330Y002150D02*
X046967Y002150D01*
X047023Y002052D02*
X017330Y002052D01*
X017330Y001953D02*
X047087Y001953D01*
X047185Y001855D02*
X017330Y001855D01*
X017330Y001756D02*
X047284Y001756D01*
X047451Y001658D02*
X017330Y001658D01*
X017330Y001559D02*
X047702Y001559D01*
X048298Y001559D02*
X050250Y001559D01*
X050250Y001461D02*
X017330Y001461D01*
X017330Y001362D02*
X050250Y001362D01*
X050250Y001264D02*
X017330Y001264D01*
X017330Y001165D02*
X050250Y001165D01*
X050250Y001067D02*
X017330Y001067D01*
X017330Y000968D02*
X050250Y000968D01*
X050250Y000870D02*
X017330Y000870D01*
X017330Y000771D02*
X050250Y000771D01*
X050250Y000673D02*
X017330Y000673D01*
X017313Y000574D02*
X050250Y000574D01*
X050250Y000476D02*
X017262Y000476D01*
X015500Y002180D02*
X015500Y012180D01*
X016000Y012680D01*
X016388Y012690D02*
X041250Y012690D01*
X041250Y012788D02*
X016375Y012788D01*
X016335Y012887D02*
X041250Y012887D01*
X041250Y012985D02*
X024116Y012985D01*
X024215Y013084D02*
X041250Y013084D01*
X041250Y013182D02*
X024220Y013182D01*
X024220Y013281D02*
X041250Y013281D01*
X041250Y013379D02*
X024220Y013379D01*
X024220Y013478D02*
X041250Y013478D01*
X041250Y013576D02*
X024220Y013576D01*
X024220Y013675D02*
X041250Y013675D01*
X041250Y013773D02*
X024220Y013773D01*
X024220Y013872D02*
X041250Y013872D01*
X041250Y013970D02*
X024220Y013970D01*
X024220Y014069D02*
X041250Y014069D01*
X041250Y014167D02*
X024220Y014167D01*
X024220Y014266D02*
X041250Y014266D01*
X041250Y014364D02*
X024220Y014364D01*
X024220Y014463D02*
X041250Y014463D01*
X041250Y014561D02*
X024220Y014561D01*
X024220Y014660D02*
X041250Y014660D01*
X041250Y014758D02*
X024220Y014758D01*
X024220Y014857D02*
X041250Y014857D01*
X041250Y014955D02*
X024220Y014955D01*
X024220Y015054D02*
X041250Y015054D01*
X041250Y015152D02*
X024220Y015152D01*
X024220Y015251D02*
X041250Y015251D01*
X041250Y015349D02*
X024220Y015349D01*
X024220Y015448D02*
X041250Y015448D01*
X041250Y015546D02*
X024220Y015546D01*
X024220Y015645D02*
X041250Y015645D01*
X041250Y015743D02*
X024220Y015743D01*
X024220Y015842D02*
X041250Y015842D01*
X041250Y015940D02*
X024220Y015940D01*
X024220Y016039D02*
X041250Y016039D01*
X041250Y016137D02*
X024220Y016137D01*
X024220Y016236D02*
X041250Y016236D01*
X041250Y016334D02*
X024220Y016334D01*
X024220Y016433D02*
X041250Y016433D01*
X041250Y016531D02*
X024220Y016531D01*
X024220Y016630D02*
X041250Y016630D01*
X041250Y016728D02*
X024220Y016728D01*
X024220Y016827D02*
X041250Y016827D01*
X041250Y016925D02*
X024220Y016925D01*
X024220Y017024D02*
X041250Y017024D01*
X041250Y017122D02*
X024220Y017122D01*
X024220Y017221D02*
X041250Y017221D01*
X041250Y017319D02*
X024220Y017319D01*
X024220Y017418D02*
X041250Y017418D01*
X041250Y017516D02*
X024220Y017516D01*
X024220Y017615D02*
X041250Y017615D01*
X041250Y017713D02*
X024220Y017713D01*
X024220Y017812D02*
X041250Y017812D01*
X041250Y017910D02*
X024279Y017910D01*
X024349Y018009D02*
X041250Y018009D01*
X041250Y018107D02*
X024388Y018107D01*
X024388Y018206D02*
X041250Y018206D01*
X041250Y018304D02*
X024369Y018304D01*
X024326Y018403D02*
X041250Y018403D01*
X041250Y018501D02*
X024228Y018501D01*
X024000Y018180D02*
X024000Y013180D01*
X010620Y013180D01*
X010232Y013182D02*
X006250Y013182D01*
X006250Y013084D02*
X010240Y013084D01*
X010281Y012985D02*
X006250Y012985D01*
X006250Y012887D02*
X010365Y012887D01*
X010242Y013281D02*
X006250Y013281D01*
X006250Y013379D02*
X010282Y013379D01*
X010369Y013478D02*
X006250Y013478D01*
X006250Y013576D02*
X014123Y013576D01*
X014164Y013478D02*
X010871Y013478D01*
X010875Y012887D02*
X014165Y012887D01*
X014125Y012788D02*
X006250Y012788D01*
X006250Y012690D02*
X014112Y012690D01*
X014117Y012591D02*
X006250Y012591D01*
X006250Y012493D02*
X014158Y012493D01*
X014237Y012394D02*
X006250Y012394D01*
X006250Y012296D02*
X014414Y012296D01*
X014672Y012197D02*
X006250Y012197D01*
X006250Y012099D02*
X014770Y012099D01*
X014780Y012000D02*
X006250Y012000D01*
X006250Y011902D02*
X014780Y011902D01*
X014780Y011803D02*
X006250Y011803D01*
X006250Y011705D02*
X014780Y011705D01*
X015000Y012180D02*
X014500Y012680D01*
X015000Y012180D02*
X015000Y003180D01*
X014000Y003180D01*
X014000Y002180D02*
X015500Y002180D01*
X015720Y008159D02*
X050250Y008159D01*
X050250Y008257D02*
X015720Y008257D01*
X015720Y008356D02*
X050250Y008356D01*
X050250Y008454D02*
X015720Y008454D01*
X015720Y008553D02*
X050250Y008553D01*
X050250Y008651D02*
X015720Y008651D01*
X015720Y008750D02*
X050250Y008750D01*
X050250Y008848D02*
X015720Y008848D01*
X015720Y008947D02*
X050250Y008947D01*
X050250Y009045D02*
X015720Y009045D01*
X015720Y009144D02*
X050250Y009144D01*
X050250Y009242D02*
X015720Y009242D01*
X015720Y009341D02*
X050250Y009341D01*
X050250Y009439D02*
X048072Y009439D01*
X048211Y009538D02*
X050250Y009538D01*
X050250Y009636D02*
X048250Y009636D01*
X048250Y009735D02*
X050250Y009735D01*
X050250Y009833D02*
X048250Y009833D01*
X048250Y009932D02*
X050250Y009932D01*
X050250Y010030D02*
X048250Y010030D01*
X048250Y010129D02*
X050250Y010129D01*
X050250Y010227D02*
X048250Y010227D01*
X048250Y010326D02*
X050250Y010326D01*
X050250Y010424D02*
X048250Y010424D01*
X048250Y010523D02*
X050250Y010523D01*
X050250Y010621D02*
X048250Y010621D01*
X048250Y010720D02*
X050250Y010720D01*
X050250Y010818D02*
X048250Y010818D01*
X048250Y010917D02*
X050250Y010917D01*
X050250Y011015D02*
X048250Y011015D01*
X048250Y011114D02*
X050250Y011114D01*
X050250Y011212D02*
X048250Y011212D01*
X048250Y011311D02*
X050250Y011311D01*
X050250Y011409D02*
X048250Y011409D01*
X048250Y011508D02*
X050250Y011508D01*
X050250Y011606D02*
X048250Y011606D01*
X048250Y011705D02*
X050250Y011705D01*
X050250Y011803D02*
X048250Y011803D01*
X048250Y011902D02*
X050250Y011902D01*
X050250Y012000D02*
X048250Y012000D01*
X048250Y012099D02*
X050250Y012099D01*
X050250Y012197D02*
X048250Y012197D01*
X048250Y012296D02*
X050250Y012296D01*
X050250Y012394D02*
X048250Y012394D01*
X048250Y012493D02*
X050250Y012493D01*
X050250Y012591D02*
X048250Y012591D01*
X048250Y012690D02*
X050250Y012690D01*
X050250Y012788D02*
X048250Y012788D01*
X048250Y012887D02*
X050250Y012887D01*
X050250Y012985D02*
X048250Y012985D01*
X048250Y013084D02*
X050250Y013084D01*
X050250Y013182D02*
X048250Y013182D01*
X048250Y013281D02*
X050250Y013281D01*
X050250Y013379D02*
X048250Y013379D01*
X048250Y013478D02*
X050250Y013478D01*
X050250Y013576D02*
X048250Y013576D01*
X048250Y013675D02*
X050250Y013675D01*
X050250Y013773D02*
X048250Y013773D01*
X048250Y013872D02*
X050250Y013872D01*
X050250Y013970D02*
X048250Y013970D01*
X048250Y014069D02*
X050250Y014069D01*
X050250Y014167D02*
X048250Y014167D01*
X048250Y014266D02*
X050250Y014266D01*
X050250Y014364D02*
X048250Y014364D01*
X048250Y014463D02*
X050250Y014463D01*
X050250Y014561D02*
X048250Y014561D01*
X048250Y014660D02*
X050250Y014660D01*
X050250Y014758D02*
X048250Y014758D01*
X048250Y014857D02*
X050250Y014857D01*
X050250Y014955D02*
X048250Y014955D01*
X048250Y015054D02*
X050250Y015054D01*
X050250Y015152D02*
X048250Y015152D01*
X048250Y015251D02*
X050250Y015251D01*
X050250Y015349D02*
X048250Y015349D01*
X048250Y015448D02*
X050250Y015448D01*
X050250Y015546D02*
X048250Y015546D01*
X048250Y015645D02*
X050250Y015645D01*
X050250Y015743D02*
X048250Y015743D01*
X048250Y015842D02*
X050250Y015842D01*
X050250Y015940D02*
X048250Y015940D01*
X048250Y016039D02*
X050250Y016039D01*
X050250Y016137D02*
X048250Y016137D01*
X048250Y016236D02*
X050250Y016236D01*
X050250Y016334D02*
X048250Y016334D01*
X048250Y016433D02*
X050250Y016433D01*
X050250Y016531D02*
X048250Y016531D01*
X048250Y016630D02*
X050250Y016630D01*
X050250Y016728D02*
X048250Y016728D01*
X048250Y016827D02*
X050250Y016827D01*
X050250Y016925D02*
X048250Y016925D01*
X048250Y017024D02*
X050250Y017024D01*
X050250Y017122D02*
X048250Y017122D01*
X048250Y017221D02*
X050250Y017221D01*
X050250Y017319D02*
X048250Y017319D01*
X048250Y017418D02*
X050250Y017418D01*
X050250Y017516D02*
X048250Y017516D01*
X048250Y017615D02*
X050250Y017615D01*
X050250Y017713D02*
X048250Y017713D01*
X048250Y017812D02*
X050250Y017812D01*
X050250Y017910D02*
X048250Y017910D01*
X048250Y018009D02*
X050250Y018009D01*
X050250Y018107D02*
X048250Y018107D01*
X048250Y018206D02*
X050250Y018206D01*
X050250Y018304D02*
X048250Y018304D01*
X048250Y018403D02*
X050250Y018403D01*
X050250Y018501D02*
X048250Y018501D01*
X048250Y018600D02*
X050250Y018600D01*
X050250Y018698D02*
X048250Y018698D01*
X048250Y018797D02*
X050250Y018797D01*
X050250Y018895D02*
X048250Y018895D01*
X048250Y018994D02*
X050250Y018994D01*
X050250Y019092D02*
X048250Y019092D01*
X048250Y019191D02*
X050250Y019191D01*
X050250Y019289D02*
X048250Y019289D01*
X048250Y019388D02*
X050250Y019388D01*
X050250Y019486D02*
X048250Y019486D01*
X048250Y019585D02*
X050250Y019585D01*
X050250Y019683D02*
X048250Y019683D01*
X048250Y019782D02*
X050250Y019782D01*
X050250Y019880D02*
X048250Y019880D01*
X048250Y019979D02*
X050250Y019979D01*
X050250Y020077D02*
X048250Y020077D01*
X048250Y020176D02*
X050250Y020176D01*
X050250Y020274D02*
X048250Y020274D01*
X048250Y020373D02*
X050250Y020373D01*
X050250Y020471D02*
X048250Y020471D01*
X048250Y020570D02*
X050250Y020570D01*
X050250Y020668D02*
X048250Y020668D01*
X048250Y020767D02*
X050250Y020767D01*
X050250Y020865D02*
X048250Y020865D01*
X048250Y020964D02*
X050250Y020964D01*
X050250Y021062D02*
X048250Y021062D01*
X048250Y021161D02*
X050250Y021161D01*
X050250Y021259D02*
X048250Y021259D01*
X048250Y021358D02*
X050250Y021358D01*
X050250Y021456D02*
X048250Y021456D01*
X048250Y021555D02*
X050250Y021555D01*
X050250Y021653D02*
X048250Y021653D01*
X048250Y021752D02*
X050250Y021752D01*
X050250Y021850D02*
X048250Y021850D01*
X048250Y021949D02*
X050250Y021949D01*
X050250Y022047D02*
X048250Y022047D01*
X048250Y022146D02*
X050250Y022146D01*
X050250Y022244D02*
X048250Y022244D01*
X048250Y022343D02*
X050250Y022343D01*
X050250Y022441D02*
X048250Y022441D01*
X048250Y022540D02*
X050250Y022540D01*
X050250Y022638D02*
X048250Y022638D01*
X048250Y022737D02*
X050250Y022737D01*
X050250Y022835D02*
X048250Y022835D01*
X048250Y022934D02*
X050250Y022934D01*
X050250Y023032D02*
X048250Y023032D01*
X048250Y023131D02*
X050250Y023131D01*
X050250Y023229D02*
X048250Y023229D01*
X048250Y023328D02*
X050250Y023328D01*
X050250Y023426D02*
X048250Y023426D01*
X048250Y023525D02*
X050250Y023525D01*
X050250Y023623D02*
X048250Y023623D01*
X048250Y023722D02*
X050250Y023722D01*
X050250Y023820D02*
X048250Y023820D01*
X048250Y023919D02*
X050250Y023919D01*
X050250Y024017D02*
X048250Y024017D01*
X048250Y024116D02*
X050250Y024116D01*
X050250Y024214D02*
X048250Y024214D01*
X048250Y024313D02*
X050250Y024313D01*
X050250Y024411D02*
X048250Y024411D01*
X048250Y024510D02*
X050250Y024510D01*
X050250Y024608D02*
X048250Y024608D01*
X048250Y024707D02*
X050250Y024707D01*
X050250Y024805D02*
X048250Y024805D01*
X048250Y024904D02*
X050250Y024904D01*
X050250Y025002D02*
X048250Y025002D01*
X048250Y025101D02*
X050250Y025101D01*
X050250Y025199D02*
X048250Y025199D01*
X048250Y025298D02*
X050250Y025298D01*
X050250Y025396D02*
X048250Y025396D01*
X048250Y025495D02*
X050250Y025495D01*
X050250Y025593D02*
X048250Y025593D01*
X048250Y025692D02*
X050250Y025692D01*
X050250Y025790D02*
X048250Y025790D01*
X048250Y025889D02*
X050250Y025889D01*
X050250Y025987D02*
X048250Y025987D01*
X048250Y026086D02*
X050250Y026086D01*
X050250Y026184D02*
X048250Y026184D01*
X048250Y026283D02*
X050250Y026283D01*
X050250Y026381D02*
X048250Y026381D01*
X048250Y026480D02*
X050250Y026480D01*
X050250Y026578D02*
X048250Y026578D01*
X048250Y026677D02*
X050250Y026677D01*
X050250Y026775D02*
X048250Y026775D01*
X048250Y026874D02*
X050250Y026874D01*
X050250Y026972D02*
X048250Y026972D01*
X048250Y027071D02*
X050250Y027071D01*
X050250Y027169D02*
X048250Y027169D01*
X048250Y027268D02*
X050250Y027268D01*
X050250Y027366D02*
X048250Y027366D01*
X048250Y027465D02*
X050250Y027465D01*
X050250Y027563D02*
X048250Y027563D01*
X048250Y027662D02*
X050250Y027662D01*
X050250Y027760D02*
X048237Y027760D01*
X048175Y027859D02*
X050250Y027859D01*
X050250Y027957D02*
X025772Y027957D01*
X025607Y028056D02*
X050250Y028056D01*
X050250Y028154D02*
X021337Y028154D01*
X021436Y028056D02*
X025393Y028056D01*
X025228Y027957D02*
X021534Y027957D01*
X021500Y027680D02*
X020500Y028680D01*
X020852Y028844D02*
X021948Y028844D01*
X021839Y028942D02*
X020787Y028942D01*
X020888Y028745D02*
X050250Y028745D01*
X050250Y028647D02*
X020888Y028647D01*
X020943Y028548D02*
X050250Y028548D01*
X050250Y028450D02*
X021042Y028450D01*
X021140Y028351D02*
X050250Y028351D01*
X050250Y028253D02*
X021239Y028253D01*
X021500Y027680D02*
X025500Y027680D01*
X024000Y026180D02*
X023835Y026180D01*
X022000Y025180D02*
X018000Y025180D01*
X010500Y032680D01*
X002500Y032680D01*
X002112Y032685D02*
X000750Y032685D01*
X000750Y032587D02*
X002119Y032587D01*
X002159Y032488D02*
X000750Y032488D01*
X000750Y032390D02*
X002242Y032390D01*
X002123Y032784D02*
X000750Y032784D01*
X000750Y032882D02*
X002164Y032882D01*
X002252Y032981D02*
X000750Y032981D01*
X000750Y033079D02*
X010290Y033079D01*
X010388Y032981D02*
X002748Y032981D01*
X002758Y032390D02*
X010479Y032390D01*
X010578Y032291D02*
X000750Y032291D01*
X000750Y032193D02*
X010676Y032193D01*
X010775Y032094D02*
X000750Y032094D01*
X000750Y031996D02*
X010873Y031996D01*
X010972Y031897D02*
X000750Y031897D01*
X000750Y031799D02*
X011070Y031799D01*
X011169Y031700D02*
X004156Y031700D01*
X004261Y031602D02*
X011267Y031602D01*
X011366Y031503D02*
X004328Y031503D01*
X004369Y031405D02*
X011464Y031405D01*
X011563Y031306D02*
X004380Y031306D01*
X004380Y031208D02*
X011661Y031208D01*
X011760Y031109D02*
X004380Y031109D01*
X004380Y031011D02*
X011858Y031011D01*
X011957Y030912D02*
X004380Y030912D01*
X004380Y030814D02*
X012055Y030814D01*
X012154Y030715D02*
X004380Y030715D01*
X004380Y030617D02*
X012252Y030617D01*
X012351Y030518D02*
X004370Y030518D01*
X004329Y030420D02*
X012449Y030420D01*
X012548Y030321D02*
X004264Y030321D01*
X004163Y030223D02*
X012646Y030223D01*
X010191Y033178D02*
X000750Y033178D01*
X000750Y033276D02*
X010093Y033276D01*
X009757Y033375D02*
X000750Y033375D01*
X000750Y033473D02*
X009666Y033473D01*
X009625Y033572D02*
X000750Y033572D01*
X000750Y033670D02*
X009612Y033670D01*
X009617Y033769D02*
X000750Y033769D01*
X000750Y033867D02*
X009657Y033867D01*
X009737Y033966D02*
X000750Y033966D01*
X000750Y034064D02*
X009913Y034064D01*
X010000Y033680D02*
X016000Y027680D01*
X020500Y027680D01*
X019270Y024904D02*
X016520Y024904D01*
X016520Y025002D02*
X017867Y025002D01*
X017768Y025101D02*
X016520Y025101D01*
X016520Y025199D02*
X017670Y025199D01*
X017571Y025298D02*
X016494Y025298D01*
X016395Y025396D02*
X017473Y025396D01*
X016520Y024805D02*
X019270Y024805D01*
X019270Y024707D02*
X016520Y024707D01*
X016520Y024608D02*
X019270Y024608D01*
X019270Y024510D02*
X016520Y024510D01*
X016520Y024411D02*
X019270Y024411D01*
X019270Y024313D02*
X016520Y024313D01*
X016520Y024214D02*
X019270Y024214D01*
X019270Y024116D02*
X016520Y024116D01*
X016520Y024017D02*
X019270Y024017D01*
X019270Y023919D02*
X016520Y023919D01*
X016520Y023820D02*
X019270Y023820D01*
X019270Y023722D02*
X016520Y023722D01*
X016520Y023623D02*
X019270Y023623D01*
X019270Y023525D02*
X016520Y023525D01*
X016520Y023426D02*
X019270Y023426D01*
X019270Y023328D02*
X016520Y023328D01*
X016520Y023229D02*
X019270Y023229D01*
X019270Y023131D02*
X016520Y023131D01*
X016463Y023032D02*
X019270Y023032D01*
X019000Y020680D02*
X016000Y017180D01*
X015500Y017180D01*
X015500Y014180D01*
X016000Y013680D01*
X016388Y013675D02*
X023780Y013675D01*
X023780Y013773D02*
X016382Y013773D01*
X016341Y013872D02*
X023780Y013872D01*
X023780Y013970D02*
X016259Y013970D01*
X015923Y014069D02*
X023780Y014069D01*
X023780Y014167D02*
X015824Y014167D01*
X015726Y014266D02*
X023780Y014266D01*
X023780Y014364D02*
X015720Y014364D01*
X015720Y014463D02*
X023780Y014463D01*
X023780Y014561D02*
X015720Y014561D01*
X015720Y014660D02*
X023780Y014660D01*
X023780Y014758D02*
X015720Y014758D01*
X015720Y014857D02*
X023780Y014857D01*
X023780Y014955D02*
X015720Y014955D01*
X015720Y015054D02*
X023780Y015054D01*
X023780Y015152D02*
X015720Y015152D01*
X015720Y015251D02*
X023780Y015251D01*
X023780Y015349D02*
X015720Y015349D01*
X015720Y015448D02*
X023780Y015448D01*
X023780Y015546D02*
X015720Y015546D01*
X015720Y015645D02*
X023780Y015645D01*
X023780Y015743D02*
X015720Y015743D01*
X015720Y015842D02*
X023780Y015842D01*
X023780Y015940D02*
X015720Y015940D01*
X015720Y016039D02*
X023780Y016039D01*
X023780Y016137D02*
X015720Y016137D01*
X015720Y016236D02*
X023780Y016236D01*
X023780Y016334D02*
X015720Y016334D01*
X015720Y016433D02*
X023780Y016433D01*
X023780Y016531D02*
X015720Y016531D01*
X015720Y016630D02*
X023780Y016630D01*
X023780Y016728D02*
X015720Y016728D01*
X015720Y016827D02*
X023780Y016827D01*
X023780Y016925D02*
X015720Y016925D01*
X016156Y017024D02*
X023780Y017024D01*
X023780Y017122D02*
X016240Y017122D01*
X016325Y017221D02*
X023780Y017221D01*
X023780Y017319D02*
X016409Y017319D01*
X016493Y017418D02*
X023780Y017418D01*
X023780Y017516D02*
X016578Y017516D01*
X016662Y017615D02*
X023780Y017615D01*
X023780Y017713D02*
X016747Y017713D01*
X016831Y017812D02*
X023780Y017812D01*
X023721Y017910D02*
X016916Y017910D01*
X017000Y018009D02*
X023651Y018009D01*
X023612Y018107D02*
X017084Y018107D01*
X017169Y018206D02*
X023612Y018206D01*
X023631Y018304D02*
X017253Y018304D01*
X017338Y018403D02*
X023674Y018403D01*
X023772Y018501D02*
X017422Y018501D01*
X017507Y018600D02*
X041250Y018600D01*
X041250Y018698D02*
X017591Y018698D01*
X017675Y018797D02*
X041250Y018797D01*
X041250Y012591D02*
X016383Y012591D01*
X016342Y012493D02*
X041250Y012493D01*
X041250Y012394D02*
X016263Y012394D01*
X016086Y012296D02*
X041250Y012296D01*
X041250Y012197D02*
X015828Y012197D01*
X015730Y012099D02*
X041250Y012099D01*
X041250Y012000D02*
X015720Y012000D01*
X015720Y011902D02*
X041250Y011902D01*
X041250Y011803D02*
X015720Y011803D01*
X015720Y011705D02*
X041250Y011705D01*
X041250Y011606D02*
X015720Y011606D01*
X015720Y011508D02*
X041250Y011508D01*
X041250Y011409D02*
X015720Y011409D01*
X015720Y011311D02*
X041250Y011311D01*
X041250Y011212D02*
X015720Y011212D01*
X015720Y011114D02*
X041250Y011114D01*
X041250Y011015D02*
X015720Y011015D01*
X015720Y010917D02*
X041250Y010917D01*
X041250Y010818D02*
X015720Y010818D01*
X015720Y010720D02*
X041250Y010720D01*
X041250Y010621D02*
X015720Y010621D01*
X015720Y010523D02*
X041250Y010523D01*
X041250Y010424D02*
X015720Y010424D01*
X015720Y010326D02*
X041250Y010326D01*
X041250Y010227D02*
X015720Y010227D01*
X015720Y010129D02*
X041250Y010129D01*
X041250Y010030D02*
X015720Y010030D01*
X015720Y009932D02*
X041250Y009932D01*
X041250Y009833D02*
X015720Y009833D01*
X015720Y009735D02*
X041250Y009735D01*
X041250Y009636D02*
X015720Y009636D01*
X015720Y009538D02*
X041289Y009538D01*
X041428Y009439D02*
X015720Y009439D01*
X016336Y013478D02*
X023780Y013478D01*
X023780Y013576D02*
X016377Y013576D01*
X013525Y017812D02*
X006250Y017812D01*
X006250Y017910D02*
X013371Y017910D01*
X013301Y018009D02*
X006250Y018009D01*
X006250Y018107D02*
X013262Y018107D01*
X013262Y018206D02*
X006250Y018206D01*
X006250Y018304D02*
X013281Y018304D01*
X013324Y018403D02*
X006250Y018403D01*
X006250Y018501D02*
X013422Y018501D01*
X013878Y018501D02*
X015463Y018501D01*
X015558Y018600D02*
X006250Y018600D01*
X006250Y018698D02*
X015653Y018698D01*
X015748Y018797D02*
X006250Y018797D01*
X006250Y018895D02*
X015843Y018895D01*
X015938Y018994D02*
X006250Y018994D01*
X006250Y019092D02*
X016034Y019092D01*
X016129Y019191D02*
X006250Y019191D01*
X006250Y019289D02*
X016224Y019289D01*
X016319Y019388D02*
X006250Y019388D01*
X006250Y019486D02*
X016414Y019486D01*
X016510Y019585D02*
X006250Y019585D01*
X006250Y019683D02*
X016605Y019683D01*
X016700Y019782D02*
X006250Y019782D01*
X006250Y019880D02*
X016795Y019880D01*
X016890Y019979D02*
X006250Y019979D01*
X006250Y020077D02*
X016985Y020077D01*
X017081Y020176D02*
X006250Y020176D01*
X006250Y020274D02*
X017176Y020274D01*
X017271Y020373D02*
X006250Y020373D01*
X006250Y020471D02*
X017366Y020471D01*
X017461Y020570D02*
X006250Y020570D01*
X006250Y020668D02*
X017557Y020668D01*
X017652Y020767D02*
X006250Y020767D01*
X006250Y020865D02*
X017747Y020865D01*
X017842Y020964D02*
X006250Y020964D01*
X006250Y021062D02*
X017937Y021062D01*
X022835Y019680D02*
X023000Y019680D01*
X023000Y018950D01*
X023106Y018680D02*
X023106Y021180D01*
X025500Y021605D02*
X027000Y021680D01*
X027000Y021845D01*
X028000Y021845D01*
X028000Y021680D01*
X010780Y037413D02*
X002782Y037413D01*
X000750Y038694D02*
X010780Y038694D01*
X010780Y038792D02*
X000750Y038792D01*
X000750Y038891D02*
X010780Y038891D01*
X010780Y038989D02*
X000750Y038989D01*
X000750Y039088D02*
X010780Y039088D01*
X010780Y039186D02*
X000750Y039186D01*
X000750Y039285D02*
X010780Y039285D01*
X010780Y039383D02*
X007665Y039383D01*
X007751Y039482D02*
X010780Y039482D01*
X010780Y039580D02*
X007792Y039580D01*
X007802Y039679D02*
X010780Y039679D01*
X010780Y039777D02*
X007793Y039777D01*
X007753Y039876D02*
X010780Y039876D01*
X010780Y039974D02*
X007668Y039974D01*
X007159Y039974D02*
X006657Y039974D01*
X006657Y040073D02*
X010780Y040073D01*
X010780Y040171D02*
X006657Y040171D01*
X006657Y040270D02*
X010780Y040270D01*
X010780Y040368D02*
X006657Y040368D01*
X006657Y040467D02*
X010780Y040467D01*
X010780Y040565D02*
X006657Y040565D01*
X006657Y040664D02*
X010780Y040664D01*
X010780Y040762D02*
X006657Y040762D01*
X006657Y040861D02*
X010780Y040861D01*
X010780Y040959D02*
X006657Y040959D01*
X006657Y041058D02*
X010780Y041058D01*
X010780Y041156D02*
X006659Y041156D01*
X006649Y041255D02*
X010780Y041255D01*
X010780Y041353D02*
X006589Y041353D01*
X006390Y041452D02*
X010780Y041452D01*
X010780Y041550D02*
X007681Y041550D01*
X007720Y041649D02*
X010780Y041649D01*
X010780Y041747D02*
X007720Y041747D01*
X007720Y041846D02*
X010780Y041846D01*
X010780Y041944D02*
X007720Y041944D01*
X007720Y042043D02*
X010780Y042043D01*
X010728Y042141D02*
X007720Y042141D01*
X007720Y042240D02*
X010629Y042240D01*
X010311Y042338D02*
X007720Y042338D01*
X007720Y042437D02*
X010195Y042437D01*
X010140Y042535D02*
X007720Y042535D01*
X007720Y042634D02*
X010112Y042634D01*
X010112Y042732D02*
X007720Y042732D01*
X007500Y042732D02*
X006620Y042732D01*
X006585Y042767D02*
X006847Y042505D01*
X006847Y042135D01*
X006585Y041873D01*
X006215Y041873D01*
X006024Y042064D01*
X005813Y041853D01*
X005668Y041853D01*
X005668Y042272D01*
X005572Y042272D01*
X005572Y041853D01*
X005427Y041853D01*
X005210Y042070D01*
X005210Y041828D01*
X005627Y041680D01*
X007500Y041680D01*
X007500Y044180D01*
X004500Y044180D01*
X004500Y041680D01*
X004777Y041680D01*
X004790Y041716D01*
X004790Y043387D01*
X004913Y043510D01*
X005198Y043510D01*
X005435Y043747D01*
X005805Y043747D01*
X006010Y043542D01*
X006215Y043747D01*
X006585Y043747D01*
X006847Y043485D01*
X006847Y043115D01*
X006585Y042853D01*
X006215Y042853D01*
X006010Y043058D01*
X005805Y042853D01*
X005435Y042853D01*
X005210Y043078D01*
X005210Y042570D01*
X005427Y042787D01*
X005572Y042787D01*
X005572Y042368D01*
X005668Y042368D01*
X005668Y042787D01*
X005813Y042787D01*
X006024Y042576D01*
X006215Y042767D01*
X006585Y042767D01*
X006661Y042929D02*
X007500Y042929D01*
X007500Y042831D02*
X005210Y042831D01*
X005210Y042929D02*
X005359Y042929D01*
X005260Y043028D02*
X005210Y043028D01*
X005210Y042732D02*
X005372Y042732D01*
X005273Y042634D02*
X005210Y042634D01*
X005572Y042634D02*
X005668Y042634D01*
X005668Y042732D02*
X005572Y042732D01*
X005572Y042535D02*
X005668Y042535D01*
X005668Y042437D02*
X005572Y042437D01*
X005572Y042240D02*
X005668Y042240D01*
X005668Y042141D02*
X005572Y042141D01*
X005572Y042043D02*
X005668Y042043D01*
X005668Y041944D02*
X005572Y041944D01*
X005336Y041944D02*
X005210Y041944D01*
X005210Y041846D02*
X007500Y041846D01*
X007500Y041944D02*
X006656Y041944D01*
X006755Y042043D02*
X007500Y042043D01*
X007500Y042141D02*
X006847Y042141D01*
X006847Y042240D02*
X007500Y042240D01*
X007500Y042338D02*
X006847Y042338D01*
X006847Y042437D02*
X007500Y042437D01*
X007500Y042535D02*
X006817Y042535D01*
X006718Y042634D02*
X007500Y042634D01*
X007500Y043028D02*
X006760Y043028D01*
X006847Y043126D02*
X007500Y043126D01*
X007500Y043225D02*
X006847Y043225D01*
X006847Y043323D02*
X007500Y043323D01*
X007500Y043422D02*
X006847Y043422D01*
X006812Y043520D02*
X007500Y043520D01*
X007500Y043619D02*
X006713Y043619D01*
X006615Y043717D02*
X007500Y043717D01*
X007500Y043816D02*
X004500Y043816D01*
X004500Y043914D02*
X007500Y043914D01*
X007500Y044013D02*
X004500Y044013D01*
X004500Y044111D02*
X007500Y044111D01*
X007720Y044111D02*
X015780Y044111D01*
X015780Y044013D02*
X007720Y044013D01*
X007720Y043914D02*
X015780Y043914D01*
X015780Y043816D02*
X007720Y043816D01*
X007720Y043717D02*
X015780Y043717D01*
X015780Y043619D02*
X007720Y043619D01*
X007720Y043520D02*
X015780Y043520D01*
X015780Y043422D02*
X007720Y043422D01*
X007720Y043323D02*
X015780Y043323D01*
X015780Y043225D02*
X007720Y043225D01*
X007720Y044210D02*
X015780Y044210D01*
X015780Y044308D02*
X007683Y044308D01*
X006185Y043717D02*
X005835Y043717D01*
X005933Y043619D02*
X006087Y043619D01*
X006040Y043028D02*
X005980Y043028D01*
X005881Y042929D02*
X006139Y042929D01*
X006180Y042732D02*
X005868Y042732D01*
X005967Y042634D02*
X006082Y042634D01*
X006045Y042043D02*
X006003Y042043D01*
X005904Y041944D02*
X006144Y041944D01*
X005438Y041747D02*
X007500Y041747D01*
X006157Y040073D02*
X006146Y040073D01*
X006157Y039974D02*
X006105Y039974D01*
X006157Y039876D02*
X006040Y039876D01*
X005941Y039777D02*
X006157Y039777D01*
X006157Y039679D02*
X005843Y039679D01*
X005632Y039580D02*
X006178Y039580D01*
X007162Y039383D02*
X000750Y039383D01*
X000750Y041452D02*
X004896Y041452D01*
X004790Y041747D02*
X004500Y041747D01*
X004500Y041846D02*
X004790Y041846D01*
X004790Y041944D02*
X004500Y041944D01*
X004500Y042043D02*
X004790Y042043D01*
X004790Y042141D02*
X004500Y042141D01*
X004500Y042240D02*
X004790Y042240D01*
X004790Y042338D02*
X004500Y042338D01*
X004500Y042437D02*
X004790Y042437D01*
X004790Y042535D02*
X004500Y042535D01*
X004500Y042634D02*
X004790Y042634D01*
X004790Y042732D02*
X004500Y042732D01*
X004500Y042831D02*
X004790Y042831D01*
X004790Y042929D02*
X004500Y042929D01*
X004500Y043028D02*
X004790Y043028D01*
X004790Y043126D02*
X004500Y043126D01*
X004500Y043225D02*
X004790Y043225D01*
X004790Y043323D02*
X004500Y043323D01*
X004500Y043422D02*
X004825Y043422D01*
X004500Y043520D02*
X005208Y043520D01*
X005307Y043619D02*
X004500Y043619D01*
X004500Y043717D02*
X005405Y043717D01*
X005831Y044407D02*
X015780Y044407D01*
X015780Y044505D02*
X005929Y044505D01*
X006028Y044604D02*
X015780Y044604D01*
X015780Y044702D02*
X006100Y044702D01*
X006141Y044801D02*
X015780Y044801D01*
X015780Y044899D02*
X006182Y044899D01*
X006222Y044998D02*
X015780Y044998D01*
X015780Y045096D02*
X006222Y045096D01*
X006222Y045195D02*
X010761Y045195D01*
X010623Y045293D02*
X006222Y045293D01*
X006211Y045392D02*
X010535Y045392D01*
X010494Y045490D02*
X006170Y045490D01*
X006129Y045589D02*
X010460Y045589D01*
X010460Y045687D02*
X006088Y045687D01*
X005998Y045786D02*
X010460Y045786D01*
X010500Y045884D02*
X005900Y045884D01*
X005771Y045983D02*
X010541Y045983D01*
X010637Y046081D02*
X005533Y046081D01*
X005237Y042043D02*
X005210Y042043D01*
X004319Y041550D02*
X000750Y041550D01*
X000750Y049824D02*
X019159Y049824D01*
X019186Y049890D02*
X019130Y049754D01*
X019186Y049890D02*
X019227Y049930D01*
X000750Y049930D01*
X000750Y049923D02*
X019219Y049923D01*
X015000Y046680D02*
X016000Y045680D01*
X016000Y042680D01*
X016358Y042831D02*
X019377Y042831D01*
X019228Y042929D02*
X016300Y042929D01*
X016220Y043028D02*
X019163Y043028D01*
X019130Y043126D02*
X016220Y043126D01*
X016220Y043225D02*
X019130Y043225D01*
X019130Y043323D02*
X016220Y043323D01*
X016220Y043422D02*
X019130Y043422D01*
X019130Y043520D02*
X016220Y043520D01*
X016220Y043619D02*
X019130Y043619D01*
X019130Y043717D02*
X016220Y043717D01*
X016220Y043816D02*
X019130Y043816D01*
X019130Y043914D02*
X016220Y043914D01*
X016220Y044013D02*
X019130Y044013D01*
X019130Y044111D02*
X016220Y044111D01*
X016220Y044210D02*
X019130Y044210D01*
X019130Y044308D02*
X016220Y044308D01*
X016220Y044407D02*
X019130Y044407D01*
X019130Y044505D02*
X016220Y044505D01*
X016220Y044604D02*
X019130Y044604D01*
X019130Y044702D02*
X016220Y044702D01*
X016220Y044801D02*
X019130Y044801D01*
X019130Y044899D02*
X016220Y044899D01*
X016220Y044998D02*
X019130Y044998D01*
X019130Y045096D02*
X016220Y045096D01*
X015780Y045195D02*
X015239Y045195D01*
X015377Y045293D02*
X015780Y045293D01*
X015780Y045392D02*
X015465Y045392D01*
X015506Y045490D02*
X015780Y045490D01*
X015780Y045589D02*
X015540Y045589D01*
X015540Y045687D02*
X015682Y045687D01*
X015583Y045786D02*
X015540Y045786D01*
X016388Y042732D02*
X050250Y042732D01*
X050250Y042634D02*
X016388Y042634D01*
X016360Y042535D02*
X050250Y042535D01*
X050250Y042437D02*
X016305Y042437D01*
X034623Y042831D02*
X050250Y042831D01*
X050250Y042929D02*
X034772Y042929D01*
X034837Y043028D02*
X050250Y043028D01*
X050250Y043126D02*
X034870Y043126D01*
X034870Y043225D02*
X050250Y043225D01*
X050250Y043323D02*
X034870Y043323D01*
X034870Y043422D02*
X050250Y043422D01*
X050250Y043520D02*
X034870Y043520D01*
X034870Y043619D02*
X050250Y043619D01*
X050250Y043717D02*
X034870Y043717D01*
X034870Y043816D02*
X050250Y043816D01*
X050250Y043914D02*
X034870Y043914D01*
X034870Y044013D02*
X050250Y044013D01*
X050250Y044111D02*
X034870Y044111D01*
X034870Y044210D02*
X050250Y044210D01*
X050250Y044308D02*
X034870Y044308D01*
X034870Y044407D02*
X050250Y044407D01*
X050250Y044505D02*
X034870Y044505D01*
X034870Y044604D02*
X050250Y044604D01*
X050250Y044702D02*
X034870Y044702D01*
X034870Y044801D02*
X050250Y044801D01*
X050250Y044899D02*
X034870Y044899D01*
X034870Y044998D02*
X050250Y044998D01*
X050250Y045096D02*
X034870Y045096D01*
X034870Y045195D02*
X050250Y045195D01*
X050250Y045293D02*
X034870Y045293D01*
X034870Y045392D02*
X050250Y045392D01*
X050250Y045490D02*
X034870Y045490D01*
X034870Y045589D02*
X050250Y045589D01*
X050250Y045687D02*
X034870Y045687D01*
X034870Y045786D02*
X050250Y045786D01*
X050250Y045884D02*
X034870Y045884D01*
X034870Y045983D02*
X050250Y045983D01*
X050250Y046081D02*
X034870Y046081D01*
X034870Y046180D02*
X050250Y046180D01*
X050250Y046278D02*
X034870Y046278D01*
X034870Y046377D02*
X050250Y046377D01*
X050250Y046475D02*
X034870Y046475D01*
X034870Y046574D02*
X047647Y046574D01*
X047552Y046599D02*
X047847Y046520D01*
X048153Y046520D01*
X048448Y046599D01*
X048712Y046752D01*
X048928Y046968D01*
X049081Y047232D01*
X049160Y047527D01*
X049160Y047833D01*
X049081Y048128D01*
X048928Y048392D01*
X048712Y048608D01*
X048448Y048761D01*
X048153Y048840D01*
X047847Y048840D01*
X047552Y048761D01*
X047288Y048608D01*
X047072Y048392D01*
X046919Y048128D01*
X046840Y047833D01*
X046840Y047527D01*
X046919Y047232D01*
X047072Y046968D01*
X047288Y046752D01*
X047552Y046599D01*
X047426Y046672D02*
X034870Y046672D01*
X034870Y046771D02*
X047269Y046771D01*
X047170Y046869D02*
X034870Y046869D01*
X034870Y046968D02*
X047072Y046968D01*
X047015Y047066D02*
X034870Y047066D01*
X034870Y047165D02*
X046958Y047165D01*
X046911Y047263D02*
X034870Y047263D01*
X034870Y047362D02*
X046884Y047362D01*
X046858Y047460D02*
X034870Y047460D01*
X034870Y047559D02*
X046840Y047559D01*
X046840Y047657D02*
X034870Y047657D01*
X034870Y047756D02*
X046840Y047756D01*
X046846Y047854D02*
X034870Y047854D01*
X034870Y047953D02*
X046872Y047953D01*
X046899Y048051D02*
X034870Y048051D01*
X034870Y048150D02*
X046932Y048150D01*
X046989Y048248D02*
X034870Y048248D01*
X034870Y048347D02*
X047045Y048347D01*
X047125Y048445D02*
X034870Y048445D01*
X034870Y048544D02*
X047223Y048544D01*
X047346Y048642D02*
X034870Y048642D01*
X034870Y048741D02*
X047517Y048741D01*
X047844Y048839D02*
X034870Y048839D01*
X034870Y048938D02*
X050250Y048938D01*
X050250Y049036D02*
X034870Y049036D01*
X034870Y049135D02*
X050250Y049135D01*
X050250Y049233D02*
X034870Y049233D01*
X034870Y049332D02*
X050250Y049332D01*
X050250Y049430D02*
X034870Y049430D01*
X034870Y049529D02*
X050250Y049529D01*
X050250Y049627D02*
X034870Y049627D01*
X034870Y049726D02*
X050250Y049726D01*
X050250Y049824D02*
X034841Y049824D01*
X034781Y049923D02*
X050250Y049923D01*
X050250Y048839D02*
X048156Y048839D01*
X048483Y048741D02*
X050250Y048741D01*
X050250Y048642D02*
X048654Y048642D01*
X048777Y048544D02*
X050250Y048544D01*
X050250Y048445D02*
X048875Y048445D01*
X048955Y048347D02*
X050250Y048347D01*
X050250Y048248D02*
X049011Y048248D01*
X049068Y048150D02*
X050250Y048150D01*
X050250Y048051D02*
X049101Y048051D01*
X049128Y047953D02*
X050250Y047953D01*
X050250Y047854D02*
X049154Y047854D01*
X049160Y047756D02*
X050250Y047756D01*
X050250Y047657D02*
X049160Y047657D01*
X049160Y047559D02*
X050250Y047559D01*
X050250Y047460D02*
X049142Y047460D01*
X049116Y047362D02*
X050250Y047362D01*
X050250Y047263D02*
X049089Y047263D01*
X049042Y047165D02*
X050250Y047165D01*
X050250Y047066D02*
X048985Y047066D01*
X048928Y046968D02*
X050250Y046968D01*
X050250Y046869D02*
X048830Y046869D01*
X048731Y046771D02*
X050250Y046771D01*
X050250Y046672D02*
X048574Y046672D01*
X048353Y046574D02*
X050250Y046574D01*
X050250Y004120D02*
X043193Y004120D01*
X043291Y004022D02*
X050250Y004022D01*
X050250Y003923D02*
X043390Y003923D01*
X043447Y003825D02*
X047789Y003825D01*
X047492Y003726D02*
X043447Y003726D01*
X043447Y003628D02*
X047321Y003628D01*
X047209Y003529D02*
X043447Y003529D01*
X043383Y003431D02*
X047110Y003431D01*
X047037Y003332D02*
X043285Y003332D01*
X043186Y003234D02*
X046980Y003234D01*
X048211Y003825D02*
X050250Y003825D01*
X050250Y003726D02*
X048508Y003726D01*
X048679Y003628D02*
X050250Y003628D01*
X050250Y003529D02*
X048791Y003529D01*
X048890Y003431D02*
X050250Y003431D01*
X050250Y003332D02*
X048963Y003332D01*
X049020Y003234D02*
X050250Y003234D01*
X050250Y003135D02*
X049077Y003135D01*
X049105Y003037D02*
X050250Y003037D01*
X050250Y002938D02*
X049132Y002938D01*
X049158Y002840D02*
X050250Y002840D01*
X050250Y002741D02*
X049160Y002741D01*
X049160Y002643D02*
X050250Y002643D01*
X050250Y002544D02*
X049160Y002544D01*
X049138Y002446D02*
X050250Y002446D01*
X050250Y002347D02*
X049112Y002347D01*
X049085Y002249D02*
X050250Y002249D01*
X050250Y002150D02*
X049033Y002150D01*
X048977Y002052D02*
X050250Y002052D01*
X050250Y001953D02*
X048913Y001953D01*
X048815Y001855D02*
X050250Y001855D01*
X050250Y001756D02*
X048716Y001756D01*
X048549Y001658D02*
X050250Y001658D01*
X004500Y019680D02*
X001500Y019680D01*
D25*
X014260Y005680D02*
X014710Y005680D01*
X014710Y003470D01*
X014442Y003470D01*
X014232Y003680D01*
X014517Y003966D01*
X014517Y004394D01*
X014246Y004666D01*
X014537Y004957D01*
X014537Y005180D01*
X014000Y005180D01*
X014537Y005180D01*
X014537Y005403D01*
X014260Y005680D01*
X014346Y005595D02*
X014710Y005595D01*
X014710Y005276D02*
X014537Y005276D01*
X014537Y004958D02*
X014710Y004958D01*
X014710Y004639D02*
X014273Y004639D01*
X014517Y004321D02*
X014710Y004321D01*
X014710Y004002D02*
X014517Y004002D01*
X014710Y003684D02*
X014235Y003684D01*
X014000Y005180D02*
X014000Y005180D01*
X014000Y005180D01*
X013537Y005180D01*
X013000Y005180D01*
X013000Y005180D01*
X014000Y005180D01*
X013000Y005180D02*
X012000Y005180D01*
X012537Y005180D01*
X013000Y005180D01*
X013000Y005180D01*
X012000Y005180D02*
X012000Y005180D01*
X012000Y005180D01*
X011463Y005180D01*
X011000Y005180D01*
X011000Y005180D01*
X012000Y005180D01*
D26*
X006500Y005680D02*
X005500Y005680D01*
X006500Y005680D02*
X006500Y006680D01*
X010500Y010680D01*
X010500Y011180D01*
X019500Y019180D02*
X019500Y020490D01*
X020579Y020490D01*
X021416Y021327D01*
X021429Y021322D01*
X021571Y021322D01*
X021703Y021376D01*
X021804Y021477D01*
X021858Y021609D01*
X021858Y021751D01*
X021804Y021883D01*
X021703Y021984D01*
X021571Y022038D01*
X021429Y022038D01*
X021297Y021984D01*
X021196Y021883D01*
X021142Y021751D01*
X021142Y021609D01*
X021147Y021596D01*
X020421Y020870D01*
X019500Y020870D01*
X019500Y020990D01*
X020079Y020990D01*
X021416Y022327D01*
X021429Y022322D01*
X021571Y022322D01*
X021703Y022376D01*
X021804Y022477D01*
X021858Y022609D01*
X021858Y022751D01*
X021804Y022883D01*
X021703Y022984D01*
X021571Y023038D01*
X021429Y023038D01*
X021297Y022984D01*
X021196Y022883D01*
X021142Y022751D01*
X021142Y022609D01*
X021147Y022596D01*
X019921Y021370D01*
X019500Y021370D01*
X019500Y024480D01*
X020315Y024480D01*
X020315Y024201D01*
X020323Y024193D01*
X020306Y024163D01*
X020295Y024122D01*
X020295Y023905D01*
X020690Y023905D01*
X020690Y023785D01*
X020810Y023785D01*
X020810Y023429D01*
X021066Y023429D01*
X021107Y023440D01*
X021144Y023461D01*
X021173Y023491D01*
X021194Y023528D01*
X021205Y023568D01*
X021205Y023785D01*
X020810Y023785D01*
X020810Y023905D01*
X021205Y023905D01*
X021205Y024122D01*
X021194Y024163D01*
X021177Y024193D01*
X021185Y024201D01*
X021185Y024339D01*
X021211Y024341D01*
X021297Y024254D01*
X021429Y024200D01*
X021571Y024200D01*
X021703Y024254D01*
X021804Y024355D01*
X021858Y024487D01*
X021858Y024553D01*
X022310Y024101D01*
X022421Y023990D01*
X025191Y023990D01*
X025196Y023977D01*
X025297Y023876D01*
X025429Y023822D01*
X025571Y023822D01*
X025703Y023876D01*
X025804Y023977D01*
X025858Y024109D01*
X025858Y024251D01*
X025804Y024383D01*
X025703Y024484D01*
X025571Y024538D01*
X025429Y024538D01*
X025297Y024484D01*
X025196Y024383D01*
X025191Y024370D01*
X022579Y024370D01*
X022190Y024759D01*
X022190Y025259D01*
X022111Y025338D01*
X022203Y025376D01*
X022304Y025477D01*
X022358Y025609D01*
X022358Y025751D01*
X022304Y025883D01*
X022203Y025984D01*
X022071Y026038D01*
X021929Y026038D01*
X021797Y025984D01*
X021696Y025883D01*
X021691Y025870D01*
X021690Y025870D01*
X021690Y027105D01*
X021692Y027107D01*
X021690Y027180D01*
X023660Y027180D01*
X023660Y027112D01*
X023712Y026987D01*
X023800Y026899D01*
X023800Y026615D01*
X023521Y026615D01*
X023513Y026607D01*
X023483Y026624D01*
X023442Y026635D01*
X023225Y026635D01*
X023225Y026240D01*
X023105Y026240D01*
X023105Y026120D01*
X022749Y026120D01*
X022749Y025864D01*
X022760Y025823D01*
X022781Y025786D01*
X022811Y025757D01*
X022848Y025736D01*
X022888Y025725D01*
X023105Y025725D01*
X023105Y026120D01*
X023225Y026120D01*
X023225Y025725D01*
X023442Y025725D01*
X023483Y025736D01*
X023513Y025753D01*
X023521Y025745D01*
X023737Y025745D01*
X023787Y025544D01*
X023785Y025542D01*
X023806Y025464D01*
X023819Y025415D01*
X023787Y025383D01*
X023732Y025251D01*
X023732Y025109D01*
X023787Y024977D01*
X023888Y024876D01*
X024019Y024822D01*
X024162Y024822D01*
X024293Y024876D01*
X024394Y024977D01*
X024449Y025109D01*
X024449Y025251D01*
X024394Y025383D01*
X024293Y025484D01*
X024206Y025520D01*
X024194Y025565D01*
X024188Y025586D01*
X024200Y025597D01*
X024200Y025796D01*
X024231Y025827D01*
X024231Y026533D01*
X024200Y026564D01*
X024200Y026899D01*
X024288Y026987D01*
X024340Y027112D01*
X024340Y027180D01*
X027500Y027180D01*
X027500Y025870D01*
X027394Y025870D01*
X027353Y025911D01*
X026647Y025911D01*
X026565Y025829D01*
X026565Y025705D01*
X026320Y025705D01*
X026304Y025745D01*
X026203Y025846D01*
X026071Y025900D01*
X025929Y025900D01*
X025797Y025846D01*
X025696Y025745D01*
X025642Y025613D01*
X025642Y025471D01*
X025696Y025339D01*
X025797Y025239D01*
X025929Y025184D01*
X026071Y025184D01*
X026203Y025239D01*
X026289Y025325D01*
X026565Y025325D01*
X026565Y025201D01*
X026573Y025193D01*
X026556Y025163D01*
X026545Y025122D01*
X026545Y024905D01*
X026940Y024905D01*
X026940Y024785D01*
X027060Y024785D01*
X027060Y024429D01*
X027316Y024429D01*
X027357Y024440D01*
X027394Y024461D01*
X027423Y024491D01*
X027444Y024528D01*
X027455Y024568D01*
X027455Y024785D01*
X027060Y024785D01*
X027060Y024905D01*
X027455Y024905D01*
X027455Y025122D01*
X027444Y025163D01*
X027427Y025193D01*
X027435Y025201D01*
X027435Y025490D01*
X027500Y025490D01*
X027500Y022035D01*
X027435Y022035D01*
X027435Y022159D01*
X027427Y022167D01*
X027444Y022197D01*
X027455Y022238D01*
X027455Y022455D01*
X027060Y022455D01*
X027060Y022575D01*
X026940Y022575D01*
X026940Y022931D01*
X026684Y022931D01*
X026643Y022920D01*
X026606Y022899D01*
X026577Y022869D01*
X026556Y022832D01*
X026545Y022792D01*
X026545Y022575D01*
X026940Y022575D01*
X026940Y022455D01*
X026545Y022455D01*
X026545Y022238D01*
X026556Y022197D01*
X026573Y022167D01*
X026565Y022159D01*
X026565Y021849D01*
X025801Y021810D01*
X025703Y021909D01*
X025571Y021963D01*
X025429Y021963D01*
X025297Y021909D01*
X025196Y021808D01*
X025142Y021676D01*
X025142Y021534D01*
X025196Y021402D01*
X025297Y021302D01*
X025429Y021247D01*
X025571Y021247D01*
X025703Y021302D01*
X025804Y021402D01*
X025815Y021431D01*
X026625Y021471D01*
X026647Y021449D01*
X027353Y021449D01*
X027435Y021531D01*
X027435Y021655D01*
X027500Y021655D01*
X027500Y019180D01*
X023296Y019180D01*
X023296Y020871D01*
X023309Y020876D01*
X023410Y020977D01*
X023464Y021109D01*
X023464Y021251D01*
X023410Y021383D01*
X023309Y021484D01*
X023178Y021538D01*
X023035Y021538D01*
X022903Y021484D01*
X022803Y021383D01*
X022748Y021251D01*
X022748Y021109D01*
X022803Y020977D01*
X022903Y020876D01*
X022916Y020871D01*
X022916Y020115D01*
X022521Y020115D01*
X022513Y020107D01*
X022483Y020124D01*
X022442Y020135D01*
X022225Y020135D01*
X022225Y019740D01*
X022105Y019740D01*
X022105Y019620D01*
X021749Y019620D01*
X021749Y019364D01*
X021760Y019323D01*
X021781Y019286D01*
X021811Y019257D01*
X021848Y019236D01*
X021888Y019225D01*
X022105Y019225D01*
X022105Y019620D01*
X022225Y019620D01*
X022225Y019225D01*
X022442Y019225D01*
X022483Y019236D01*
X022513Y019253D01*
X022521Y019245D01*
X022810Y019245D01*
X022810Y019180D01*
X019500Y019180D01*
X019500Y019259D02*
X021809Y019259D01*
X021749Y019377D02*
X019500Y019377D01*
X019500Y019496D02*
X021749Y019496D01*
X021749Y019614D02*
X019500Y019614D01*
X019500Y019733D02*
X022105Y019733D01*
X022105Y019740D02*
X021749Y019740D01*
X021749Y019996D01*
X021760Y020037D01*
X021781Y020074D01*
X021811Y020103D01*
X021848Y020124D01*
X021888Y020135D01*
X022105Y020135D01*
X022105Y019740D01*
X022105Y019851D02*
X022225Y019851D01*
X022225Y019970D02*
X022105Y019970D01*
X022105Y020088D02*
X022225Y020088D01*
X021796Y020088D02*
X019500Y020088D01*
X019500Y019970D02*
X021749Y019970D01*
X021749Y019851D02*
X019500Y019851D01*
X019500Y020207D02*
X022916Y020207D01*
X022916Y020325D02*
X019500Y020325D01*
X019500Y020444D02*
X022916Y020444D01*
X022916Y020562D02*
X020651Y020562D01*
X020769Y020681D02*
X022916Y020681D01*
X022916Y020799D02*
X020888Y020799D01*
X021006Y020918D02*
X022862Y020918D01*
X022778Y021036D02*
X021125Y021036D01*
X021243Y021155D02*
X022748Y021155D01*
X022757Y021273D02*
X021362Y021273D01*
X021718Y021392D02*
X022811Y021392D01*
X022967Y021510D02*
X021817Y021510D01*
X021858Y021629D02*
X025142Y021629D01*
X025152Y021510D02*
X023245Y021510D01*
X023401Y021392D02*
X025207Y021392D01*
X025366Y021273D02*
X023455Y021273D01*
X023464Y021155D02*
X027500Y021155D01*
X027500Y021273D02*
X025634Y021273D01*
X025793Y021392D02*
X027500Y021392D01*
X027500Y021510D02*
X027414Y021510D01*
X027435Y021629D02*
X027500Y021629D01*
X027500Y022103D02*
X027435Y022103D01*
X027451Y022221D02*
X027500Y022221D01*
X027500Y022340D02*
X027455Y022340D01*
X027500Y022458D02*
X027060Y022458D01*
X027060Y022575D02*
X027455Y022575D01*
X027455Y022792D01*
X027444Y022832D01*
X027423Y022869D01*
X027394Y022899D01*
X027357Y022920D01*
X027316Y022931D01*
X027060Y022931D01*
X027060Y022575D01*
X027060Y022577D02*
X026940Y022577D01*
X026940Y022695D02*
X027060Y022695D01*
X027060Y022814D02*
X026940Y022814D01*
X026940Y022458D02*
X021784Y022458D01*
X021845Y022577D02*
X026545Y022577D01*
X026545Y022695D02*
X021858Y022695D01*
X021832Y022814D02*
X026551Y022814D01*
X026545Y022340D02*
X021614Y022340D01*
X021310Y022221D02*
X026549Y022221D01*
X026565Y022103D02*
X021191Y022103D01*
X021298Y021984D02*
X021073Y021984D01*
X021189Y021866D02*
X020954Y021866D01*
X020836Y021747D02*
X021142Y021747D01*
X021142Y021629D02*
X020717Y021629D01*
X020599Y021510D02*
X021061Y021510D01*
X020943Y021392D02*
X020480Y021392D01*
X020362Y021273D02*
X020824Y021273D01*
X020706Y021155D02*
X020243Y021155D01*
X020125Y021036D02*
X020587Y021036D01*
X020469Y020918D02*
X019500Y020918D01*
X019500Y021392D02*
X019943Y021392D01*
X020061Y021510D02*
X019500Y021510D01*
X019500Y021629D02*
X020180Y021629D01*
X020298Y021747D02*
X019500Y021747D01*
X019500Y021866D02*
X020417Y021866D01*
X020535Y021984D02*
X019500Y021984D01*
X019500Y022103D02*
X020654Y022103D01*
X020772Y022221D02*
X019500Y022221D01*
X019500Y022340D02*
X020891Y022340D01*
X021009Y022458D02*
X019500Y022458D01*
X019500Y022577D02*
X021128Y022577D01*
X021142Y022695D02*
X019500Y022695D01*
X019500Y022814D02*
X021168Y022814D01*
X021246Y022932D02*
X019500Y022932D01*
X019500Y023051D02*
X027500Y023051D01*
X027500Y023169D02*
X019500Y023169D01*
X019500Y023288D02*
X027500Y023288D01*
X027500Y023406D02*
X019500Y023406D01*
X019500Y023525D02*
X020307Y023525D01*
X020306Y023528D02*
X020327Y023491D01*
X020356Y023461D01*
X020393Y023440D01*
X020434Y023429D01*
X020690Y023429D01*
X020690Y023785D01*
X020295Y023785D01*
X020295Y023568D01*
X020306Y023528D01*
X020295Y023643D02*
X019500Y023643D01*
X019500Y023762D02*
X020295Y023762D01*
X020295Y023999D02*
X019500Y023999D01*
X019500Y024117D02*
X020295Y024117D01*
X020315Y024236D02*
X019500Y024236D01*
X019500Y024354D02*
X020315Y024354D01*
X020315Y024473D02*
X019500Y024473D01*
X019000Y024680D02*
X020500Y024680D01*
X020750Y024515D01*
X021500Y024558D01*
X021657Y024236D02*
X022176Y024236D01*
X022057Y024354D02*
X021803Y024354D01*
X021852Y024473D02*
X021939Y024473D01*
X022239Y024710D02*
X026545Y024710D01*
X026545Y024785D02*
X026545Y024568D01*
X026556Y024528D01*
X026577Y024491D01*
X026606Y024461D01*
X026643Y024440D01*
X026684Y024429D01*
X026940Y024429D01*
X026940Y024785D01*
X026545Y024785D01*
X026545Y024947D02*
X024364Y024947D01*
X024431Y025065D02*
X026545Y025065D01*
X026567Y025184D02*
X024449Y025184D01*
X024428Y025302D02*
X025734Y025302D01*
X025663Y025421D02*
X024356Y025421D01*
X024201Y025539D02*
X025642Y025539D01*
X025660Y025658D02*
X024200Y025658D01*
X024200Y025776D02*
X025727Y025776D01*
X025915Y025895D02*
X024231Y025895D01*
X024231Y026013D02*
X027500Y026013D01*
X027500Y025895D02*
X027369Y025895D01*
X027500Y026132D02*
X024231Y026132D01*
X024231Y026250D02*
X027500Y026250D01*
X027500Y026369D02*
X024231Y026369D01*
X024231Y026487D02*
X027500Y026487D01*
X027500Y026606D02*
X024200Y026606D01*
X024200Y026724D02*
X027500Y026724D01*
X027500Y026843D02*
X024200Y026843D01*
X024262Y026961D02*
X027500Y026961D01*
X027500Y027080D02*
X024326Y027080D01*
X024000Y027180D02*
X024000Y026180D01*
X024000Y025680D01*
X024000Y025515D02*
X023835Y026180D01*
X023758Y025658D02*
X022358Y025658D01*
X022348Y025776D02*
X022792Y025776D01*
X022749Y025895D02*
X022292Y025895D01*
X022132Y026013D02*
X022749Y026013D01*
X022749Y026240D02*
X023105Y026240D01*
X023105Y026635D01*
X022888Y026635D01*
X022848Y026624D01*
X022811Y026603D01*
X022781Y026574D01*
X022760Y026537D01*
X022749Y026496D01*
X022749Y026240D01*
X022749Y026250D02*
X021690Y026250D01*
X021690Y026132D02*
X023105Y026132D01*
X023105Y026250D02*
X023225Y026250D01*
X023225Y026369D02*
X023105Y026369D01*
X023105Y026487D02*
X023225Y026487D01*
X023225Y026606D02*
X023105Y026606D01*
X022815Y026606D02*
X021690Y026606D01*
X021690Y026724D02*
X023800Y026724D01*
X023800Y026843D02*
X021690Y026843D01*
X021690Y026961D02*
X023738Y026961D01*
X023674Y027080D02*
X021690Y027080D01*
X021690Y026487D02*
X022749Y026487D01*
X022749Y026369D02*
X021690Y026369D01*
X021690Y026013D02*
X021868Y026013D01*
X021708Y025895D02*
X021690Y025895D01*
X022247Y025421D02*
X023817Y025421D01*
X023786Y025539D02*
X022329Y025539D01*
X022147Y025302D02*
X023753Y025302D01*
X023732Y025184D02*
X022190Y025184D01*
X022190Y025065D02*
X023751Y025065D01*
X023818Y024947D02*
X022190Y024947D01*
X022190Y024828D02*
X024004Y024828D01*
X024177Y024828D02*
X026940Y024828D01*
X026940Y024710D02*
X027060Y024710D01*
X027060Y024828D02*
X027500Y024828D01*
X027500Y024710D02*
X027455Y024710D01*
X027455Y024591D02*
X027500Y024591D01*
X027500Y024473D02*
X027405Y024473D01*
X027500Y024354D02*
X025816Y024354D01*
X025858Y024236D02*
X027500Y024236D01*
X027500Y024117D02*
X025858Y024117D01*
X025812Y023999D02*
X027500Y023999D01*
X027500Y023880D02*
X025706Y023880D01*
X025294Y023880D02*
X020810Y023880D01*
X020810Y023762D02*
X020690Y023762D01*
X020690Y023880D02*
X019500Y023880D01*
X020690Y023643D02*
X020810Y023643D01*
X020810Y023525D02*
X020690Y023525D01*
X021193Y023525D02*
X027500Y023525D01*
X027500Y023643D02*
X021205Y023643D01*
X021205Y023762D02*
X027500Y023762D01*
X027060Y024473D02*
X026940Y024473D01*
X026940Y024591D02*
X027060Y024591D01*
X026595Y024473D02*
X025714Y024473D01*
X025286Y024473D02*
X022476Y024473D01*
X022358Y024591D02*
X026545Y024591D01*
X026565Y025302D02*
X026266Y025302D01*
X026273Y025776D02*
X026565Y025776D01*
X026631Y025895D02*
X026085Y025895D01*
X027435Y025421D02*
X027500Y025421D01*
X027500Y025302D02*
X027435Y025302D01*
X027433Y025184D02*
X027500Y025184D01*
X027500Y025065D02*
X027455Y025065D01*
X027455Y024947D02*
X027500Y024947D01*
X027500Y022932D02*
X021754Y022932D01*
X021702Y021984D02*
X026565Y021984D01*
X026565Y021866D02*
X025746Y021866D01*
X025254Y021866D02*
X021811Y021866D01*
X021858Y021747D02*
X025171Y021747D01*
X023434Y021036D02*
X027500Y021036D01*
X027500Y020918D02*
X023350Y020918D01*
X023296Y020799D02*
X027500Y020799D01*
X027500Y020681D02*
X023296Y020681D01*
X023296Y020562D02*
X027500Y020562D01*
X027500Y020444D02*
X023296Y020444D01*
X023296Y020325D02*
X027500Y020325D01*
X027500Y020207D02*
X023296Y020207D01*
X023296Y020088D02*
X027500Y020088D01*
X027500Y019970D02*
X023296Y019970D01*
X023296Y019851D02*
X027500Y019851D01*
X027500Y019733D02*
X023296Y019733D01*
X023296Y019614D02*
X027500Y019614D01*
X027500Y019496D02*
X023296Y019496D01*
X023296Y019377D02*
X027500Y019377D01*
X027500Y019259D02*
X023296Y019259D01*
X022225Y019259D02*
X022105Y019259D01*
X022105Y019377D02*
X022225Y019377D01*
X022225Y019496D02*
X022105Y019496D01*
X022105Y019614D02*
X022225Y019614D01*
X022413Y023999D02*
X021205Y023999D01*
X021205Y024117D02*
X022294Y024117D01*
X021343Y024236D02*
X021185Y024236D01*
X023105Y025776D02*
X023225Y025776D01*
X023225Y025895D02*
X023105Y025895D01*
X023105Y026013D02*
X023225Y026013D01*
X024000Y025515D02*
X024091Y025180D01*
X027449Y022814D02*
X027500Y022814D01*
X027500Y022695D02*
X027455Y022695D01*
X027455Y022577D02*
X027500Y022577D01*
D27*
X045500Y026180D02*
X045500Y011180D01*
X030000Y044680D02*
X020000Y044680D01*
D28*
X004500Y020680D02*
X004500Y019680D01*
X004500Y005680D01*
D29*
X001500Y019680D03*
X001500Y027680D03*
X024000Y027180D03*
X024000Y028180D03*
M02*
