G75*
%MOIN*%
%OFA0B0*%
%FSLAX24Y24*%
%IPPOS*%
%LPD*%
%AMOC8*
5,1,8,0,0,1.08239X$1,22.5*
%
%ADD10C,0.0080*%
%ADD11C,0.0160*%
%ADD12C,0.0100*%
%ADD13C,0.0010*%
%ADD14C,0.0060*%
%ADD15C,0.0020*%
%ADD16R,0.4000X0.1000*%
%ADD17R,0.0925X0.4000*%
%ADD18R,0.0750X0.4000*%
%ADD19C,0.0050*%
%ADD20R,0.1000X0.1000*%
%ADD21R,0.0500X0.2500*%
%ADD22R,0.3500X0.0500*%
%ADD23R,0.3000X0.1000*%
D10*
X001238Y005470D02*
X001518Y005470D01*
X001698Y005470D02*
X001698Y005890D01*
X001979Y005890D01*
X002159Y005890D02*
X002159Y005470D01*
X002369Y005470D01*
X002439Y005540D01*
X002439Y005820D01*
X002369Y005890D01*
X002159Y005890D01*
X001839Y005680D02*
X001698Y005680D01*
X001698Y005470D02*
X001979Y005470D01*
X001238Y005470D02*
X001238Y005890D01*
X001238Y006470D02*
X001518Y006470D01*
X001698Y006470D02*
X001698Y006890D01*
X001979Y006890D01*
X002159Y006890D02*
X002159Y006470D01*
X002369Y006470D01*
X002439Y006540D01*
X002439Y006820D01*
X002369Y006890D01*
X002159Y006890D01*
X001839Y006680D02*
X001698Y006680D01*
X001698Y006470D02*
X001979Y006470D01*
X001238Y006470D02*
X001238Y006890D01*
X001238Y007470D02*
X001518Y007470D01*
X001698Y007470D02*
X001698Y007890D01*
X001979Y007890D01*
X002159Y007890D02*
X002159Y007470D01*
X002369Y007470D01*
X002439Y007540D01*
X002439Y007820D01*
X002369Y007890D01*
X002159Y007890D01*
X001839Y007680D02*
X001698Y007680D01*
X001698Y007470D02*
X001979Y007470D01*
X001238Y007470D02*
X001238Y007890D01*
X001238Y008470D02*
X001518Y008470D01*
X001698Y008470D02*
X001698Y008890D01*
X001979Y008890D01*
X002159Y008890D02*
X002159Y008470D01*
X002369Y008470D01*
X002439Y008540D01*
X002439Y008820D01*
X002369Y008890D01*
X002159Y008890D01*
X001839Y008680D02*
X001698Y008680D01*
X001698Y008470D02*
X001979Y008470D01*
X001238Y008470D02*
X001238Y008890D01*
X001238Y009470D02*
X001518Y009470D01*
X001698Y009470D02*
X001698Y009890D01*
X001979Y009890D01*
X002159Y009890D02*
X002159Y009470D01*
X002369Y009470D01*
X002439Y009540D01*
X002439Y009820D01*
X002369Y009890D01*
X002159Y009890D01*
X001839Y009680D02*
X001698Y009680D01*
X001698Y009470D02*
X001979Y009470D01*
X001238Y009470D02*
X001238Y009890D01*
X001238Y010470D02*
X001518Y010470D01*
X001698Y010470D02*
X001698Y010890D01*
X001979Y010890D01*
X002159Y010890D02*
X002159Y010470D01*
X002369Y010470D01*
X002439Y010540D01*
X002439Y010820D01*
X002369Y010890D01*
X002159Y010890D01*
X001839Y010680D02*
X001698Y010680D01*
X001698Y010470D02*
X001979Y010470D01*
X001238Y010470D02*
X001238Y010890D01*
X001698Y011470D02*
X001979Y011470D01*
X002159Y011470D02*
X002159Y011890D01*
X002439Y011890D01*
X002619Y011890D02*
X002619Y011470D01*
X002829Y011470D01*
X002899Y011540D01*
X002899Y011820D01*
X002829Y011890D01*
X002619Y011890D01*
X002299Y011680D02*
X002159Y011680D01*
X002159Y011470D02*
X002439Y011470D01*
X002759Y010890D02*
X002759Y010470D01*
X002619Y010470D02*
X002899Y010470D01*
X003080Y010540D02*
X003360Y010820D01*
X003360Y010540D01*
X003290Y010470D01*
X003150Y010470D01*
X003080Y010540D01*
X003080Y010820D01*
X003150Y010890D01*
X003290Y010890D01*
X003360Y010820D01*
X002759Y010890D02*
X002619Y010750D01*
X003150Y011470D02*
X003290Y011470D01*
X003360Y011540D01*
X003360Y011820D01*
X003290Y011890D01*
X003150Y011890D01*
X003080Y011820D01*
X003080Y011750D01*
X003150Y011680D01*
X003360Y011680D01*
X003150Y011470D02*
X003080Y011540D01*
X003150Y012470D02*
X003080Y012540D01*
X003080Y012610D01*
X003150Y012680D01*
X003290Y012680D01*
X003360Y012610D01*
X003360Y012540D01*
X003290Y012470D01*
X003150Y012470D01*
X003150Y012680D02*
X003080Y012750D01*
X003080Y012820D01*
X003150Y012890D01*
X003290Y012890D01*
X003360Y012820D01*
X003360Y012750D01*
X003290Y012680D01*
X002899Y012540D02*
X002899Y012820D01*
X002829Y012890D01*
X002619Y012890D01*
X002619Y012470D01*
X002829Y012470D01*
X002899Y012540D01*
X002439Y012470D02*
X002159Y012470D01*
X002159Y012890D01*
X002439Y012890D01*
X002299Y012680D02*
X002159Y012680D01*
X001979Y012470D02*
X001698Y012470D01*
X001698Y012890D01*
X001698Y013470D02*
X001979Y013470D01*
X002159Y013470D02*
X002159Y013890D01*
X002439Y013890D01*
X002619Y013890D02*
X002619Y013470D01*
X002829Y013470D01*
X002899Y013540D01*
X002899Y013820D01*
X002829Y013890D01*
X002619Y013890D01*
X002299Y013680D02*
X002159Y013680D01*
X002159Y013470D02*
X002439Y013470D01*
X001698Y013470D02*
X001698Y013890D01*
X001698Y014470D02*
X001979Y014470D01*
X002159Y014470D02*
X002159Y014890D01*
X002439Y014890D01*
X002619Y014890D02*
X002619Y014470D01*
X002829Y014470D01*
X002899Y014540D01*
X002899Y014820D01*
X002829Y014890D01*
X002619Y014890D01*
X002299Y014680D02*
X002159Y014680D01*
X002159Y014470D02*
X002439Y014470D01*
X001698Y014470D02*
X001698Y014890D01*
X001698Y015470D02*
X001979Y015470D01*
X002159Y015470D02*
X002159Y015890D01*
X002439Y015890D01*
X002619Y015890D02*
X002619Y015470D01*
X002829Y015470D01*
X002899Y015540D01*
X002899Y015820D01*
X002829Y015890D01*
X002619Y015890D01*
X002299Y015680D02*
X002159Y015680D01*
X002159Y015470D02*
X002439Y015470D01*
X001698Y015470D02*
X001698Y015890D01*
X001698Y016470D02*
X001979Y016470D01*
X002159Y016470D02*
X002159Y016890D01*
X002439Y016890D01*
X002619Y016890D02*
X002619Y016470D01*
X002829Y016470D01*
X002899Y016540D01*
X002899Y016820D01*
X002829Y016890D01*
X002619Y016890D01*
X002299Y016680D02*
X002159Y016680D01*
X002159Y016470D02*
X002439Y016470D01*
X001698Y016470D02*
X001698Y016890D01*
X001698Y017470D02*
X001979Y017470D01*
X002159Y017470D02*
X002159Y017890D01*
X002439Y017890D01*
X002619Y017890D02*
X002619Y017470D01*
X002829Y017470D01*
X002899Y017540D01*
X002899Y017820D01*
X002829Y017890D01*
X002619Y017890D01*
X002299Y017680D02*
X002159Y017680D01*
X002159Y017470D02*
X002439Y017470D01*
X001698Y017470D02*
X001698Y017890D01*
X001698Y018470D02*
X001979Y018470D01*
X002159Y018470D02*
X002159Y018890D01*
X002439Y018890D01*
X002619Y018890D02*
X002619Y018470D01*
X002829Y018470D01*
X002899Y018540D01*
X002899Y018820D01*
X002829Y018890D01*
X002619Y018890D01*
X002299Y018680D02*
X002159Y018680D01*
X002159Y018470D02*
X002439Y018470D01*
X001698Y018470D02*
X001698Y018890D01*
X001698Y019470D02*
X001979Y019470D01*
X002159Y019470D02*
X002159Y019890D01*
X002439Y019890D01*
X002619Y019890D02*
X002619Y019470D01*
X002829Y019470D01*
X002899Y019540D01*
X002899Y019820D01*
X002829Y019890D01*
X002619Y019890D01*
X002299Y019680D02*
X002159Y019680D01*
X002159Y019470D02*
X002439Y019470D01*
X001698Y019470D02*
X001698Y019890D01*
X001698Y020470D02*
X001979Y020470D01*
X002159Y020470D02*
X002159Y020890D01*
X002439Y020890D01*
X002619Y020890D02*
X002619Y020470D01*
X002829Y020470D01*
X002899Y020540D01*
X002899Y020820D01*
X002829Y020890D01*
X002619Y020890D01*
X002299Y020680D02*
X002159Y020680D01*
X002159Y020470D02*
X002439Y020470D01*
X001698Y020470D02*
X001698Y020890D01*
X003080Y020820D02*
X003080Y020540D01*
X003360Y020820D01*
X003360Y020540D01*
X003290Y020470D01*
X003150Y020470D01*
X003080Y020540D01*
X003080Y020820D02*
X003150Y020890D01*
X003290Y020890D01*
X003360Y020820D01*
X003220Y019890D02*
X003220Y019470D01*
X003080Y019470D02*
X003360Y019470D01*
X003080Y019750D02*
X003220Y019890D01*
X003290Y018890D02*
X003150Y018890D01*
X003080Y018820D01*
X003290Y018890D02*
X003360Y018820D01*
X003360Y018750D01*
X003080Y018470D01*
X003360Y018470D01*
X003290Y017890D02*
X003360Y017820D01*
X003360Y017750D01*
X003290Y017680D01*
X003360Y017610D01*
X003360Y017540D01*
X003290Y017470D01*
X003150Y017470D01*
X003080Y017540D01*
X003220Y017680D02*
X003290Y017680D01*
X003290Y017890D02*
X003150Y017890D01*
X003080Y017820D01*
X003290Y016890D02*
X003080Y016680D01*
X003360Y016680D01*
X003290Y016470D02*
X003290Y016890D01*
X003360Y015890D02*
X003080Y015890D01*
X003080Y015680D01*
X003220Y015750D01*
X003290Y015750D01*
X003360Y015680D01*
X003360Y015540D01*
X003290Y015470D01*
X003150Y015470D01*
X003080Y015540D01*
X003360Y014890D02*
X003220Y014820D01*
X003080Y014680D01*
X003290Y014680D01*
X003360Y014610D01*
X003360Y014540D01*
X003290Y014470D01*
X003150Y014470D01*
X003080Y014540D01*
X003080Y014680D01*
X003080Y013890D02*
X003360Y013890D01*
X003360Y013820D01*
X003080Y013540D01*
X003080Y013470D01*
X001698Y011890D02*
X001698Y011470D01*
X002759Y009890D02*
X002759Y009470D01*
X002619Y009470D02*
X002899Y009470D01*
X003080Y009470D02*
X003360Y009470D01*
X003220Y009470D02*
X003220Y009890D01*
X003080Y009750D01*
X002759Y009890D02*
X002619Y009750D01*
X002759Y008890D02*
X002759Y008470D01*
X002619Y008470D02*
X002899Y008470D01*
X003080Y008470D02*
X003360Y008750D01*
X003360Y008820D01*
X003290Y008890D01*
X003150Y008890D01*
X003080Y008820D01*
X002759Y008890D02*
X002619Y008750D01*
X003080Y008470D02*
X003360Y008470D01*
X003290Y007890D02*
X003360Y007820D01*
X003360Y007750D01*
X003290Y007680D01*
X003360Y007610D01*
X003360Y007540D01*
X003290Y007470D01*
X003150Y007470D01*
X003080Y007540D01*
X002899Y007470D02*
X002619Y007470D01*
X002759Y007470D02*
X002759Y007890D01*
X002619Y007750D01*
X003080Y007820D02*
X003150Y007890D01*
X003290Y007890D01*
X003290Y007680D02*
X003220Y007680D01*
X003290Y006890D02*
X003080Y006680D01*
X003360Y006680D01*
X003290Y006470D02*
X003290Y006890D01*
X002759Y006890D02*
X002759Y006470D01*
X002619Y006470D02*
X002899Y006470D01*
X002619Y006750D02*
X002759Y006890D01*
X002759Y005890D02*
X002759Y005470D01*
X002619Y005470D02*
X002899Y005470D01*
X003080Y005540D02*
X003150Y005470D01*
X003290Y005470D01*
X003360Y005540D01*
X003360Y005680D01*
X003290Y005750D01*
X003220Y005750D01*
X003080Y005680D01*
X003080Y005890D01*
X003360Y005890D01*
X002759Y005890D02*
X002619Y005750D01*
X011565Y001390D02*
X011705Y001390D01*
X011635Y001390D02*
X011635Y000970D01*
X011565Y000970D02*
X011705Y000970D01*
X011872Y000970D02*
X012152Y001250D01*
X012152Y001320D01*
X012082Y001390D01*
X011942Y001390D01*
X011872Y001320D01*
X011872Y000970D02*
X012152Y000970D01*
X012332Y001040D02*
X012402Y000970D01*
X012542Y000970D01*
X012612Y001040D01*
X012332Y001040D02*
X012332Y001320D01*
X012402Y001390D01*
X012542Y001390D01*
X012612Y001320D01*
X013253Y001390D02*
X013253Y000970D01*
X013253Y001180D02*
X013533Y001180D01*
X013713Y001180D02*
X013853Y001180D01*
X013713Y001390D02*
X013713Y000970D01*
X013994Y000970D01*
X014174Y000970D02*
X014174Y001250D01*
X014314Y001390D01*
X014454Y001250D01*
X014454Y000970D01*
X014634Y000970D02*
X014844Y000970D01*
X014914Y001040D01*
X014914Y001320D01*
X014844Y001390D01*
X014634Y001390D01*
X014634Y000970D01*
X014454Y001180D02*
X014174Y001180D01*
X013994Y001390D02*
X013713Y001390D01*
X013533Y001390D02*
X013533Y000970D01*
X015094Y000970D02*
X015375Y000970D01*
X015555Y000970D02*
X015555Y001390D01*
X015765Y001390D01*
X015835Y001320D01*
X015835Y001180D01*
X015765Y001110D01*
X015555Y001110D01*
X015695Y001110D02*
X015835Y000970D01*
X015375Y001390D02*
X015094Y001390D01*
X015094Y000970D01*
X015094Y001180D02*
X015235Y001180D01*
X015250Y001970D02*
X015110Y001970D01*
X015040Y002040D01*
X015110Y002180D02*
X015250Y002180D01*
X015320Y002110D01*
X015320Y002040D01*
X015250Y001970D01*
X015500Y001970D02*
X015711Y001970D01*
X015781Y002040D01*
X015781Y002320D01*
X015711Y002390D01*
X015500Y002390D01*
X015500Y001970D01*
X015320Y002320D02*
X015250Y002390D01*
X015110Y002390D01*
X015040Y002320D01*
X015040Y002250D01*
X015110Y002180D01*
X015110Y002970D02*
X015040Y003040D01*
X015110Y002970D02*
X015250Y002970D01*
X015320Y003040D01*
X015320Y003110D01*
X015250Y003180D01*
X015110Y003180D01*
X015040Y003250D01*
X015040Y003320D01*
X015110Y003390D01*
X015250Y003390D01*
X015320Y003320D01*
X015500Y003320D02*
X015500Y003040D01*
X015570Y002970D01*
X015711Y002970D01*
X015781Y003040D01*
X015961Y002970D02*
X015961Y003390D01*
X015781Y003320D02*
X015711Y003390D01*
X015570Y003390D01*
X015500Y003320D01*
X015961Y002970D02*
X016241Y002970D01*
X016101Y002390D02*
X016241Y002250D01*
X016241Y001970D01*
X016241Y002180D02*
X015961Y002180D01*
X015961Y002250D02*
X016101Y002390D01*
X015961Y002250D02*
X015961Y001970D01*
X016101Y003970D02*
X016241Y004110D01*
X016241Y004390D01*
X015961Y004390D02*
X015961Y004110D01*
X016101Y003970D01*
X015781Y004040D02*
X015711Y003970D01*
X015570Y003970D01*
X015500Y004040D01*
X015500Y004180D02*
X015641Y004250D01*
X015711Y004250D01*
X015781Y004180D01*
X015781Y004040D01*
X015500Y004180D02*
X015500Y004390D01*
X015781Y004390D01*
X015320Y004180D02*
X015040Y004180D01*
X015180Y004320D02*
X015180Y004040D01*
X015110Y004970D02*
X015250Y004970D01*
X015320Y005040D01*
X015320Y005180D01*
X015180Y005180D01*
X015040Y005040D02*
X015110Y004970D01*
X015040Y005040D02*
X015040Y005320D01*
X015110Y005390D01*
X015250Y005390D01*
X015320Y005320D01*
X015500Y005390D02*
X015781Y004970D01*
X015781Y005390D01*
X015961Y005390D02*
X016171Y005390D01*
X016241Y005320D01*
X016241Y005040D01*
X016171Y004970D01*
X015961Y004970D01*
X015961Y005390D01*
X015500Y005390D02*
X015500Y004970D01*
X024061Y002420D02*
X024061Y002350D01*
X024131Y002280D01*
X024271Y002280D01*
X024341Y002210D01*
X024341Y002140D01*
X024271Y002070D01*
X024131Y002070D01*
X024061Y002140D01*
X024061Y002420D02*
X024131Y002490D01*
X024271Y002490D01*
X024341Y002420D01*
X024521Y002490D02*
X024521Y002070D01*
X024661Y002210D01*
X024801Y002070D01*
X024801Y002490D01*
X024981Y002490D02*
X025121Y002490D01*
X025051Y002490D02*
X025051Y002070D01*
X024981Y002070D02*
X025121Y002070D01*
X025038Y001790D02*
X024828Y001790D01*
X024828Y001370D01*
X024828Y001510D02*
X025038Y001510D01*
X025108Y001580D01*
X025108Y001720D01*
X025038Y001790D01*
X025288Y001790D02*
X025288Y001440D01*
X025358Y001370D01*
X025498Y001370D01*
X025569Y001440D01*
X025569Y001790D01*
X025749Y001790D02*
X026029Y001790D01*
X025889Y001790D02*
X025889Y001370D01*
X026209Y001440D02*
X026279Y001370D01*
X026419Y001370D01*
X026489Y001440D01*
X026489Y001510D01*
X026419Y001580D01*
X026279Y001580D01*
X026209Y001650D01*
X026209Y001720D01*
X026279Y001790D01*
X026419Y001790D01*
X026489Y001720D01*
X026489Y002070D02*
X026489Y002490D01*
X026489Y002280D02*
X026209Y002280D01*
X026209Y002070D02*
X026209Y002490D01*
X026029Y002420D02*
X025959Y002490D01*
X025819Y002490D01*
X025749Y002420D01*
X025749Y002140D01*
X025819Y002070D01*
X025959Y002070D01*
X026029Y002140D01*
X025569Y002490D02*
X025288Y002490D01*
X025428Y002490D02*
X025428Y002070D01*
X024648Y001790D02*
X024648Y001370D01*
X024367Y001790D01*
X024367Y001370D01*
X024201Y001370D02*
X024061Y001370D01*
X024131Y001370D02*
X024131Y001790D01*
X024061Y001790D02*
X024201Y001790D01*
X025729Y003470D02*
X025869Y003470D01*
X025939Y003540D01*
X025939Y003680D01*
X025799Y003680D01*
X025659Y003540D02*
X025729Y003470D01*
X025659Y003540D02*
X025659Y003820D01*
X025729Y003890D01*
X025869Y003890D01*
X025939Y003820D01*
X026119Y003890D02*
X026399Y003470D01*
X026399Y003890D01*
X026580Y003890D02*
X026790Y003890D01*
X026860Y003820D01*
X026860Y003540D01*
X026790Y003470D01*
X026580Y003470D01*
X026580Y003890D01*
X026119Y003890D02*
X026119Y003470D01*
X026189Y004470D02*
X026329Y004470D01*
X026399Y004540D01*
X026399Y004890D01*
X026580Y004890D02*
X026860Y004890D01*
X026720Y004890D02*
X026720Y004470D01*
X026189Y004470D02*
X026119Y004540D01*
X026119Y004890D01*
X025939Y004820D02*
X025939Y004680D01*
X025869Y004610D01*
X025659Y004610D01*
X025659Y004470D02*
X025659Y004890D01*
X025869Y004890D01*
X025939Y004820D01*
X025479Y004890D02*
X025479Y004470D01*
X025198Y004890D01*
X025198Y004470D01*
X025032Y004470D02*
X024891Y004470D01*
X024962Y004470D02*
X024962Y004890D01*
X025032Y004890D02*
X024891Y004890D01*
X027790Y002470D02*
X027860Y002540D01*
X028140Y002260D01*
X028210Y002330D01*
X028210Y002470D01*
X028140Y002540D01*
X027860Y002540D01*
X027790Y002470D02*
X027790Y002330D01*
X027860Y002260D01*
X028140Y002260D01*
X028210Y002079D02*
X027790Y002079D01*
X027790Y001799D02*
X028210Y001799D01*
X028070Y001939D01*
X028210Y002079D01*
X028140Y001619D02*
X028210Y001549D01*
X028210Y001409D01*
X028140Y001339D01*
X028000Y001409D02*
X028000Y001549D01*
X028070Y001619D01*
X028140Y001619D01*
X028000Y001409D02*
X027930Y001339D01*
X027860Y001339D01*
X027790Y001409D01*
X027790Y001549D01*
X027860Y001619D01*
X028790Y001549D02*
X028790Y001409D01*
X028860Y001339D01*
X028930Y001339D01*
X029000Y001409D01*
X029000Y001549D01*
X029070Y001619D01*
X029140Y001619D01*
X029210Y001549D01*
X029210Y001409D01*
X029140Y001339D01*
X028860Y001619D02*
X028790Y001549D01*
X028790Y001799D02*
X029210Y001799D01*
X029070Y001939D01*
X029210Y002079D01*
X028790Y002079D01*
X028930Y002260D02*
X028790Y002400D01*
X029210Y002400D01*
X029210Y002260D02*
X029210Y002540D01*
X029790Y002470D02*
X029790Y002330D01*
X029860Y002260D01*
X029790Y002079D02*
X030210Y002079D01*
X030070Y001939D01*
X030210Y001799D01*
X029790Y001799D01*
X029860Y001619D02*
X029790Y001549D01*
X029790Y001409D01*
X029860Y001339D01*
X029930Y001339D01*
X030000Y001409D01*
X030000Y001549D01*
X030070Y001619D01*
X030140Y001619D01*
X030210Y001549D01*
X030210Y001409D01*
X030140Y001339D01*
X030790Y001409D02*
X030790Y001549D01*
X030860Y001619D01*
X031000Y001549D02*
X031000Y001409D01*
X030930Y001339D01*
X030860Y001339D01*
X030790Y001409D01*
X031000Y001549D02*
X031070Y001619D01*
X031140Y001619D01*
X031210Y001549D01*
X031210Y001409D01*
X031140Y001339D01*
X031210Y001799D02*
X030790Y001799D01*
X030790Y002079D02*
X031210Y002079D01*
X031070Y001939D01*
X031210Y001799D01*
X031140Y002260D02*
X031210Y002330D01*
X031210Y002470D01*
X031140Y002540D01*
X031070Y002540D01*
X031000Y002470D01*
X031000Y002400D01*
X031000Y002470D02*
X030930Y002540D01*
X030860Y002540D01*
X030790Y002470D01*
X030790Y002330D01*
X030860Y002260D01*
X030210Y002260D02*
X029930Y002540D01*
X029860Y002540D01*
X029790Y002470D01*
X030210Y002540D02*
X030210Y002260D01*
X031790Y002079D02*
X032210Y002079D01*
X032070Y001939D01*
X032210Y001799D01*
X031790Y001799D01*
X031860Y001619D02*
X031790Y001549D01*
X031790Y001409D01*
X031860Y001339D01*
X031930Y001339D01*
X032000Y001409D01*
X032000Y001549D01*
X032070Y001619D01*
X032140Y001619D01*
X032210Y001549D01*
X032210Y001409D01*
X032140Y001339D01*
X032790Y001409D02*
X032790Y001549D01*
X032860Y001619D01*
X033000Y001549D02*
X033000Y001409D01*
X032930Y001339D01*
X032860Y001339D01*
X032790Y001409D01*
X033000Y001549D02*
X033070Y001619D01*
X033140Y001619D01*
X033210Y001549D01*
X033210Y001409D01*
X033140Y001339D01*
X033210Y001799D02*
X032790Y001799D01*
X032790Y002079D02*
X033210Y002079D01*
X033070Y001939D01*
X033210Y001799D01*
X033140Y002260D02*
X033210Y002330D01*
X033210Y002470D01*
X033140Y002540D01*
X033000Y002540D01*
X032930Y002470D01*
X032930Y002400D01*
X033000Y002260D01*
X032790Y002260D01*
X032790Y002540D01*
X032210Y002470D02*
X031790Y002470D01*
X032000Y002260D01*
X032000Y002540D01*
X033790Y002540D02*
X033860Y002400D01*
X034000Y002260D01*
X034000Y002470D01*
X034070Y002540D01*
X034140Y002540D01*
X034210Y002470D01*
X034210Y002330D01*
X034140Y002260D01*
X034000Y002260D01*
X034210Y002079D02*
X033790Y002079D01*
X033790Y001799D02*
X034210Y001799D01*
X034070Y001939D01*
X034210Y002079D01*
X034140Y001619D02*
X034210Y001549D01*
X034210Y001409D01*
X034140Y001339D01*
X034000Y001409D02*
X034000Y001549D01*
X034070Y001619D01*
X034140Y001619D01*
X034000Y001409D02*
X033930Y001339D01*
X033860Y001339D01*
X033790Y001409D01*
X033790Y001549D01*
X033860Y001619D01*
X034790Y001549D02*
X034790Y001409D01*
X034860Y001339D01*
X034930Y001339D01*
X035000Y001409D01*
X035000Y001549D01*
X035070Y001619D01*
X035140Y001619D01*
X035210Y001549D01*
X035210Y001409D01*
X035140Y001339D01*
X034860Y001619D02*
X034790Y001549D01*
X034790Y001799D02*
X035210Y001799D01*
X035070Y001939D01*
X035210Y002079D01*
X034790Y002079D01*
X034790Y002260D02*
X034790Y002540D01*
X034860Y002540D01*
X035140Y002260D01*
X035210Y002260D01*
X035790Y002330D02*
X035790Y002470D01*
X035860Y002540D01*
X035930Y002540D01*
X036000Y002470D01*
X036000Y002330D01*
X035930Y002260D01*
X035860Y002260D01*
X035790Y002330D01*
X036000Y002330D02*
X036070Y002260D01*
X036140Y002260D01*
X036210Y002330D01*
X036210Y002470D01*
X036140Y002540D01*
X036070Y002540D01*
X036000Y002470D01*
X036210Y002079D02*
X035790Y002079D01*
X035790Y001799D02*
X036210Y001799D01*
X036070Y001939D01*
X036210Y002079D01*
X036140Y001619D02*
X036210Y001549D01*
X036210Y001409D01*
X036140Y001339D01*
X036000Y001409D02*
X036000Y001549D01*
X036070Y001619D01*
X036140Y001619D01*
X036000Y001409D02*
X035930Y001339D01*
X035860Y001339D01*
X035790Y001409D01*
X035790Y001549D01*
X035860Y001619D01*
X036790Y001549D02*
X036790Y001409D01*
X036860Y001339D01*
X036930Y001339D01*
X037000Y001409D01*
X037000Y001549D01*
X037070Y001619D01*
X037140Y001619D01*
X037210Y001549D01*
X037210Y001409D01*
X037140Y001339D01*
X036860Y001619D02*
X036790Y001549D01*
X036790Y001799D02*
X037210Y001799D01*
X037070Y001939D01*
X037210Y002079D01*
X036790Y002079D01*
X036860Y002260D02*
X036930Y002260D01*
X037000Y002330D01*
X037000Y002540D01*
X037140Y002540D02*
X036860Y002540D01*
X036790Y002470D01*
X036790Y002330D01*
X036860Y002260D01*
X037140Y002260D02*
X037210Y002330D01*
X037210Y002470D01*
X037140Y002540D01*
X037790Y002470D02*
X037860Y002540D01*
X038140Y002260D01*
X038210Y002330D01*
X038210Y002470D01*
X038140Y002540D01*
X037860Y002540D01*
X037790Y002470D02*
X037790Y002330D01*
X037860Y002260D01*
X038140Y002260D01*
X038210Y002079D02*
X038210Y001799D01*
X038210Y001939D02*
X037790Y001939D01*
X037930Y001799D01*
X037790Y001619D02*
X038210Y001619D01*
X038070Y001479D01*
X038210Y001339D01*
X037790Y001339D01*
X037860Y001159D02*
X037790Y001089D01*
X037790Y000948D01*
X037860Y000878D01*
X037930Y000878D01*
X038000Y000948D01*
X038000Y001089D01*
X038070Y001159D01*
X038140Y001159D01*
X038210Y001089D01*
X038210Y000948D01*
X038140Y000878D01*
X038790Y000948D02*
X038790Y001089D01*
X038860Y001159D01*
X039000Y001089D02*
X039070Y001159D01*
X039140Y001159D01*
X039210Y001089D01*
X039210Y000948D01*
X039140Y000878D01*
X039000Y000948D02*
X039000Y001089D01*
X039000Y000948D02*
X038930Y000878D01*
X038860Y000878D01*
X038790Y000948D01*
X038790Y001339D02*
X039210Y001339D01*
X039070Y001479D01*
X039210Y001619D01*
X038790Y001619D01*
X038930Y001799D02*
X038790Y001939D01*
X039210Y001939D01*
X039210Y001799D02*
X039210Y002079D01*
X039210Y002260D02*
X039210Y002540D01*
X039210Y002400D02*
X038790Y002400D01*
X038930Y002260D01*
X039790Y002330D02*
X039860Y002260D01*
X039790Y002330D02*
X039790Y002470D01*
X039860Y002540D01*
X039930Y002540D01*
X040210Y002260D01*
X040210Y002540D01*
X040210Y002079D02*
X040210Y001799D01*
X040210Y001939D02*
X039790Y001939D01*
X039930Y001799D01*
X039790Y001619D02*
X040210Y001619D01*
X040070Y001479D01*
X040210Y001339D01*
X039790Y001339D01*
X039860Y001159D02*
X039790Y001089D01*
X039790Y000948D01*
X039860Y000878D01*
X039930Y000878D01*
X040000Y000948D01*
X040000Y001089D01*
X040070Y001159D01*
X040140Y001159D01*
X040210Y001089D01*
X040210Y000948D01*
X040140Y000878D01*
X040790Y000948D02*
X040790Y001089D01*
X040860Y001159D01*
X041000Y001089D02*
X041070Y001159D01*
X041140Y001159D01*
X041210Y001089D01*
X041210Y000948D01*
X041140Y000878D01*
X041000Y000948D02*
X041000Y001089D01*
X041000Y000948D02*
X040930Y000878D01*
X040860Y000878D01*
X040790Y000948D01*
X040790Y001339D02*
X041210Y001339D01*
X041070Y001479D01*
X041210Y001619D01*
X040790Y001619D01*
X040930Y001799D02*
X040790Y001939D01*
X041210Y001939D01*
X041210Y001799D02*
X041210Y002079D01*
X041140Y002260D02*
X041210Y002330D01*
X041210Y002470D01*
X041140Y002540D01*
X041070Y002540D01*
X041000Y002470D01*
X041000Y002400D01*
X041000Y002470D02*
X040930Y002540D01*
X040860Y002540D01*
X040790Y002470D01*
X040790Y002330D01*
X040860Y002260D01*
X041790Y002470D02*
X042000Y002260D01*
X042000Y002540D01*
X042210Y002470D02*
X041790Y002470D01*
X041790Y001939D02*
X042210Y001939D01*
X042210Y001799D02*
X042210Y002079D01*
X041930Y001799D02*
X041790Y001939D01*
X041790Y001619D02*
X042210Y001619D01*
X042070Y001479D01*
X042210Y001339D01*
X041790Y001339D01*
X041860Y001159D02*
X041790Y001089D01*
X041790Y000948D01*
X041860Y000878D01*
X041930Y000878D01*
X042000Y000948D01*
X042000Y001089D01*
X042070Y001159D01*
X042140Y001159D01*
X042210Y001089D01*
X042210Y000948D01*
X042140Y000878D01*
X042790Y000948D02*
X042790Y001089D01*
X042860Y001159D01*
X043000Y001089D02*
X043070Y001159D01*
X043140Y001159D01*
X043210Y001089D01*
X043210Y000948D01*
X043140Y000878D01*
X043000Y000948D02*
X043000Y001089D01*
X043000Y000948D02*
X042930Y000878D01*
X042860Y000878D01*
X042790Y000948D01*
X042790Y001339D02*
X043210Y001339D01*
X043070Y001479D01*
X043210Y001619D01*
X042790Y001619D01*
X042930Y001799D02*
X042790Y001939D01*
X043210Y001939D01*
X043210Y001799D02*
X043210Y002079D01*
X043140Y002260D02*
X043210Y002330D01*
X043210Y002470D01*
X043140Y002540D01*
X043000Y002540D01*
X042930Y002470D01*
X042930Y002400D01*
X043000Y002260D01*
X042790Y002260D01*
X042790Y002540D01*
X044360Y007458D02*
X044430Y007458D01*
X044500Y007528D01*
X044500Y007668D01*
X044570Y007738D01*
X044640Y007738D01*
X044710Y007668D01*
X044710Y007528D01*
X044640Y007458D01*
X044360Y007458D02*
X044290Y007528D01*
X044290Y007668D01*
X044360Y007738D01*
X044290Y007918D02*
X044290Y008058D01*
X044290Y007988D02*
X044710Y007988D01*
X044710Y007918D02*
X044710Y008058D01*
X044640Y008225D02*
X044710Y008295D01*
X044710Y008435D01*
X044640Y008505D01*
X044500Y008505D01*
X044500Y008365D01*
X044360Y008225D02*
X044640Y008225D01*
X044360Y008225D02*
X044290Y008295D01*
X044290Y008435D01*
X044360Y008505D01*
X044430Y009146D02*
X044290Y009286D01*
X044290Y009453D02*
X044710Y009453D01*
X044570Y009593D01*
X044710Y009733D01*
X044290Y009733D01*
X044290Y009913D02*
X044430Y010053D01*
X044570Y010053D01*
X044710Y009913D01*
X045290Y009913D02*
X045430Y010053D01*
X045570Y010053D01*
X045710Y009913D01*
X045710Y009733D02*
X045570Y009593D01*
X045570Y009663D02*
X045570Y009453D01*
X045710Y009453D02*
X045290Y009453D01*
X045290Y009663D01*
X045360Y009733D01*
X045500Y009733D01*
X045570Y009663D01*
X045710Y009286D02*
X045570Y009146D01*
X045430Y009146D01*
X045290Y009286D01*
X044710Y009286D02*
X044570Y009146D01*
X044430Y009146D01*
X045290Y008505D02*
X045570Y008505D01*
X045710Y008365D01*
X045570Y008225D01*
X045290Y008225D01*
X045290Y008045D02*
X045290Y007765D01*
X045500Y007765D01*
X045430Y007905D01*
X045430Y007975D01*
X045500Y008045D01*
X045640Y008045D01*
X045710Y007975D01*
X045710Y007835D01*
X045640Y007765D01*
X045500Y007584D02*
X045500Y007304D01*
X045360Y007444D02*
X045640Y007444D01*
X046290Y007374D02*
X046360Y007304D01*
X046640Y007304D01*
X046710Y007374D01*
X046710Y007514D01*
X046640Y007584D01*
X046500Y007584D01*
X046500Y007444D01*
X046360Y007584D02*
X046290Y007514D01*
X046290Y007374D01*
X046290Y007765D02*
X046710Y008045D01*
X046290Y008045D01*
X046290Y008225D02*
X046290Y008435D01*
X046360Y008505D01*
X046640Y008505D01*
X046710Y008435D01*
X046710Y008225D01*
X046290Y008225D01*
X046290Y007765D02*
X046710Y007765D01*
X048040Y007799D02*
X048460Y008079D01*
X048040Y008079D01*
X048180Y008260D02*
X048040Y008400D01*
X048180Y008540D01*
X048460Y008540D01*
X048460Y008720D02*
X048040Y008720D01*
X048250Y008540D02*
X048250Y008260D01*
X048180Y008260D02*
X048460Y008260D01*
X048665Y008183D02*
X048665Y008393D01*
X048735Y008463D01*
X048875Y008463D01*
X048945Y008393D01*
X048945Y008183D01*
X049085Y008183D02*
X048665Y008183D01*
X048665Y008003D02*
X049085Y008003D01*
X048665Y007722D01*
X049085Y007722D01*
X049085Y007556D02*
X049085Y007416D01*
X049085Y007486D02*
X048665Y007486D01*
X048665Y007416D02*
X048665Y007556D01*
X048460Y007619D02*
X048180Y007619D01*
X048040Y007479D01*
X048180Y007339D01*
X048460Y007339D01*
X048250Y007339D02*
X048250Y007619D01*
X048460Y007799D02*
X048040Y007799D01*
X048460Y008720D02*
X048460Y009000D01*
X048390Y009180D02*
X048110Y009180D01*
X048040Y009250D01*
X048040Y009391D01*
X048110Y009461D01*
X048390Y009461D01*
X048460Y009391D01*
X048460Y009250D01*
X048390Y009180D01*
X048665Y009244D02*
X049085Y009244D01*
X049015Y009564D02*
X049085Y009634D01*
X049085Y009774D01*
X049015Y009844D01*
X048945Y009844D01*
X048875Y009774D01*
X048875Y009634D01*
X048805Y009564D01*
X048735Y009564D01*
X048665Y009634D01*
X048665Y009774D01*
X048735Y009844D01*
X048460Y009851D02*
X048390Y009921D01*
X048250Y009921D01*
X048250Y009781D01*
X048390Y009641D02*
X048460Y009711D01*
X048460Y009851D01*
X048390Y009641D02*
X048110Y009641D01*
X048040Y009711D01*
X048040Y009851D01*
X048110Y009921D01*
X048665Y009384D02*
X048665Y009104D01*
X048665Y008924D02*
X049015Y008924D01*
X049085Y008853D01*
X049085Y008713D01*
X049015Y008643D01*
X048665Y008643D01*
X046710Y009286D02*
X046570Y009146D01*
X046430Y009146D01*
X046290Y009286D01*
X046290Y009453D02*
X046290Y009663D01*
X046360Y009733D01*
X046430Y009733D01*
X046500Y009663D01*
X046500Y009453D01*
X046500Y009663D02*
X046570Y009733D01*
X046640Y009733D01*
X046710Y009663D01*
X046710Y009453D01*
X046290Y009453D01*
X046290Y009913D02*
X046430Y010053D01*
X046570Y010053D01*
X046710Y009913D01*
X047540Y010970D02*
X047540Y011250D01*
X047680Y011390D01*
X047820Y011250D01*
X047820Y010970D01*
X048000Y010970D02*
X048000Y011390D01*
X048281Y010970D01*
X048281Y011390D01*
X048461Y011250D02*
X048601Y011390D01*
X048741Y011250D01*
X048741Y010970D01*
X048921Y011040D02*
X049201Y011320D01*
X049201Y011040D01*
X049131Y010970D01*
X048991Y010970D01*
X048921Y011040D01*
X048921Y011320D01*
X048991Y011390D01*
X049131Y011390D01*
X049201Y011320D01*
X048741Y011180D02*
X048461Y011180D01*
X048461Y011250D02*
X048461Y010970D01*
X047820Y011180D02*
X047540Y011180D01*
X047540Y011970D02*
X047540Y012250D01*
X047680Y012390D01*
X047820Y012250D01*
X047820Y011970D01*
X048000Y011970D02*
X048000Y012390D01*
X048281Y011970D01*
X048281Y012390D01*
X048461Y012250D02*
X048601Y012390D01*
X048741Y012250D01*
X048741Y011970D01*
X048921Y011970D02*
X049201Y011970D01*
X049061Y011970D02*
X049061Y012390D01*
X048921Y012250D01*
X048741Y012180D02*
X048461Y012180D01*
X048461Y012250D02*
X048461Y011970D01*
X047820Y012180D02*
X047540Y012180D01*
X047540Y012970D02*
X047540Y013250D01*
X047680Y013390D01*
X047820Y013250D01*
X047820Y012970D01*
X048000Y012970D02*
X048000Y013390D01*
X048281Y012970D01*
X048281Y013390D01*
X048461Y013250D02*
X048601Y013390D01*
X048741Y013250D01*
X048741Y012970D01*
X048921Y012970D02*
X049201Y013250D01*
X049201Y013320D01*
X049131Y013390D01*
X048991Y013390D01*
X048921Y013320D01*
X048741Y013180D02*
X048461Y013180D01*
X048461Y013250D02*
X048461Y012970D01*
X048921Y012970D02*
X049201Y012970D01*
X049131Y013970D02*
X048991Y013970D01*
X048921Y014040D01*
X048741Y013970D02*
X048741Y014250D01*
X048601Y014390D01*
X048461Y014250D01*
X048461Y013970D01*
X048281Y013970D02*
X048281Y014390D01*
X048461Y014180D02*
X048741Y014180D01*
X048921Y014320D02*
X048991Y014390D01*
X049131Y014390D01*
X049201Y014320D01*
X049201Y014250D01*
X049131Y014180D01*
X049201Y014110D01*
X049201Y014040D01*
X049131Y013970D01*
X049131Y014180D02*
X049061Y014180D01*
X049131Y014970D02*
X049131Y015390D01*
X048921Y015180D01*
X049201Y015180D01*
X048741Y015180D02*
X048461Y015180D01*
X048461Y015250D02*
X048601Y015390D01*
X048741Y015250D01*
X048741Y014970D01*
X048461Y014970D02*
X048461Y015250D01*
X048281Y015390D02*
X048281Y014970D01*
X048000Y015390D01*
X048000Y014970D01*
X047820Y014970D02*
X047820Y015250D01*
X047680Y015390D01*
X047540Y015250D01*
X047540Y014970D01*
X047540Y015180D02*
X047820Y015180D01*
X047820Y015970D02*
X047820Y016250D01*
X047680Y016390D01*
X047540Y016250D01*
X047540Y015970D01*
X047540Y016180D02*
X047820Y016180D01*
X048000Y015970D02*
X048000Y016390D01*
X048281Y015970D01*
X048281Y016390D01*
X048461Y016250D02*
X048601Y016390D01*
X048741Y016250D01*
X048741Y015970D01*
X048921Y016040D02*
X048991Y015970D01*
X049131Y015970D01*
X049201Y016040D01*
X049201Y016180D01*
X049131Y016250D01*
X049061Y016250D01*
X048921Y016180D01*
X048921Y016390D01*
X049201Y016390D01*
X048741Y016180D02*
X048461Y016180D01*
X048461Y016250D02*
X048461Y015970D01*
X048461Y016970D02*
X048461Y017250D01*
X048601Y017390D01*
X048741Y017250D01*
X048741Y016970D01*
X048921Y017040D02*
X048991Y016970D01*
X049131Y016970D01*
X049201Y017040D01*
X049201Y017110D01*
X049131Y017180D01*
X048921Y017180D01*
X048921Y017040D01*
X048921Y017180D02*
X049061Y017320D01*
X049201Y017390D01*
X048741Y017180D02*
X048461Y017180D01*
X048281Y016970D02*
X048281Y017390D01*
X048000Y017390D02*
X048000Y016970D01*
X047820Y016970D02*
X047820Y017250D01*
X047680Y017390D01*
X047540Y017250D01*
X047540Y016970D01*
X047540Y017180D02*
X047820Y017180D01*
X048000Y017390D02*
X048281Y016970D01*
X048281Y017970D02*
X048281Y018390D01*
X048461Y018250D02*
X048601Y018390D01*
X048741Y018250D01*
X048741Y017970D01*
X048921Y017970D02*
X048921Y018040D01*
X049201Y018320D01*
X049201Y018390D01*
X048921Y018390D01*
X048741Y018180D02*
X048461Y018180D01*
X048461Y018250D02*
X048461Y017970D01*
X048281Y017970D02*
X048000Y018390D01*
X048000Y017970D01*
X047820Y017970D02*
X047820Y018250D01*
X047680Y018390D01*
X047540Y018250D01*
X047540Y017970D01*
X047540Y018180D02*
X047820Y018180D01*
X047820Y018970D02*
X047820Y019250D01*
X047680Y019390D01*
X047540Y019250D01*
X047540Y018970D01*
X047540Y019180D02*
X047820Y019180D01*
X048000Y018970D02*
X048000Y019390D01*
X048281Y018970D01*
X048281Y019390D01*
X048461Y019250D02*
X048601Y019390D01*
X048741Y019250D01*
X048741Y018970D01*
X048921Y019040D02*
X048921Y019110D01*
X048991Y019180D01*
X049131Y019180D01*
X049201Y019110D01*
X049201Y019040D01*
X049131Y018970D01*
X048991Y018970D01*
X048921Y019040D01*
X048991Y019180D02*
X048921Y019250D01*
X048921Y019320D01*
X048991Y019390D01*
X049131Y019390D01*
X049201Y019320D01*
X049201Y019250D01*
X049131Y019180D01*
X048741Y019180D02*
X048461Y019180D01*
X048461Y019250D02*
X048461Y018970D01*
X048461Y019970D02*
X048461Y020250D01*
X048601Y020390D01*
X048741Y020250D01*
X048741Y019970D01*
X048921Y020040D02*
X048991Y019970D01*
X049131Y019970D01*
X049201Y020040D01*
X049201Y020320D01*
X049131Y020390D01*
X048991Y020390D01*
X048921Y020320D01*
X048921Y020250D01*
X048991Y020180D01*
X049201Y020180D01*
X048741Y020180D02*
X048461Y020180D01*
X048281Y019970D02*
X048281Y020390D01*
X048000Y020390D02*
X048000Y019970D01*
X047820Y019970D02*
X047820Y020250D01*
X047680Y020390D01*
X047540Y020250D01*
X047540Y019970D01*
X047540Y020180D02*
X047820Y020180D01*
X048000Y020390D02*
X048281Y019970D01*
X048281Y020970D02*
X048281Y021390D01*
X048461Y021250D02*
X048601Y021390D01*
X048741Y021250D01*
X048741Y020970D01*
X048921Y020970D02*
X049201Y020970D01*
X049061Y020970D02*
X049061Y021390D01*
X048921Y021250D01*
X048741Y021180D02*
X048461Y021180D01*
X048461Y021250D02*
X048461Y020970D01*
X048281Y020970D02*
X048000Y021390D01*
X048000Y020970D01*
X047820Y020970D02*
X047820Y021250D01*
X047680Y021390D01*
X047540Y021250D01*
X047540Y020970D01*
X047540Y021180D02*
X047820Y021180D01*
X047820Y021970D02*
X047820Y022250D01*
X047680Y022390D01*
X047540Y022250D01*
X047540Y021970D01*
X047540Y022180D02*
X047820Y022180D01*
X048000Y021970D02*
X048000Y022390D01*
X048281Y021970D01*
X048281Y022390D01*
X048461Y022250D02*
X048601Y022390D01*
X048741Y022250D01*
X048741Y021970D01*
X048921Y021970D02*
X049201Y021970D01*
X049061Y021970D02*
X049061Y022390D01*
X048921Y022250D01*
X048741Y022180D02*
X048461Y022180D01*
X048461Y022250D02*
X048461Y021970D01*
X049382Y021970D02*
X049662Y021970D01*
X049522Y021970D02*
X049522Y022390D01*
X049382Y022250D01*
X049382Y022970D02*
X049662Y023250D01*
X049662Y023320D01*
X049592Y023390D01*
X049452Y023390D01*
X049382Y023320D01*
X049061Y023390D02*
X049061Y022970D01*
X048921Y022970D02*
X049201Y022970D01*
X049382Y022970D02*
X049662Y022970D01*
X049061Y023390D02*
X048921Y023250D01*
X048741Y023250D02*
X048741Y022970D01*
X048741Y023180D02*
X048461Y023180D01*
X048461Y023250D02*
X048601Y023390D01*
X048741Y023250D01*
X048461Y023250D02*
X048461Y022970D01*
X048281Y022970D02*
X048281Y023390D01*
X048000Y023390D02*
X048000Y022970D01*
X047820Y022970D02*
X047820Y023250D01*
X047680Y023390D01*
X047540Y023250D01*
X047540Y022970D01*
X047540Y023180D02*
X047820Y023180D01*
X048000Y023390D02*
X048281Y022970D01*
X048281Y023970D02*
X048281Y024390D01*
X048461Y024250D02*
X048601Y024390D01*
X048741Y024250D01*
X048741Y023970D01*
X048921Y023970D02*
X049201Y023970D01*
X049061Y023970D02*
X049061Y024390D01*
X048921Y024250D01*
X048741Y024180D02*
X048461Y024180D01*
X048461Y024250D02*
X048461Y023970D01*
X048281Y023970D02*
X048000Y024390D01*
X048000Y023970D01*
X047820Y023970D02*
X047820Y024250D01*
X047680Y024390D01*
X047540Y024250D01*
X047540Y023970D01*
X047540Y024180D02*
X047820Y024180D01*
X047820Y024970D02*
X047820Y025250D01*
X047680Y025390D01*
X047540Y025250D01*
X047540Y024970D01*
X047540Y025180D02*
X047820Y025180D01*
X048000Y024970D02*
X048000Y025390D01*
X048281Y024970D01*
X048281Y025390D01*
X048461Y025250D02*
X048601Y025390D01*
X048741Y025250D01*
X048741Y024970D01*
X048921Y024970D02*
X049201Y024970D01*
X049061Y024970D02*
X049061Y025390D01*
X048921Y025250D01*
X048741Y025180D02*
X048461Y025180D01*
X048461Y025250D02*
X048461Y024970D01*
X049382Y025180D02*
X049662Y025180D01*
X049592Y024970D02*
X049592Y025390D01*
X049382Y025180D01*
X049452Y025970D02*
X049382Y026040D01*
X049452Y025970D02*
X049592Y025970D01*
X049662Y026040D01*
X049662Y026180D01*
X049592Y026250D01*
X049522Y026250D01*
X049382Y026180D01*
X049382Y026390D01*
X049662Y026390D01*
X049061Y026390D02*
X049061Y025970D01*
X048921Y025970D02*
X049201Y025970D01*
X048921Y026250D02*
X049061Y026390D01*
X048741Y026250D02*
X048741Y025970D01*
X048741Y026180D02*
X048461Y026180D01*
X048461Y026250D02*
X048461Y025970D01*
X048281Y025970D02*
X048281Y026390D01*
X048461Y026250D02*
X048601Y026390D01*
X048741Y026250D01*
X048281Y025970D02*
X048000Y026390D01*
X048000Y025970D01*
X047820Y025970D02*
X047820Y026250D01*
X047680Y026390D01*
X047540Y026250D01*
X047540Y025970D01*
X047540Y026180D02*
X047820Y026180D01*
X049452Y024390D02*
X049592Y024390D01*
X049662Y024320D01*
X049662Y024250D01*
X049592Y024180D01*
X049662Y024110D01*
X049662Y024040D01*
X049592Y023970D01*
X049452Y023970D01*
X049382Y024040D01*
X049522Y024180D02*
X049592Y024180D01*
X049382Y024320D02*
X049452Y024390D01*
X049452Y021390D02*
X049592Y021390D01*
X049662Y021320D01*
X049382Y021040D01*
X049452Y020970D01*
X049592Y020970D01*
X049662Y021040D01*
X049662Y021320D01*
X049452Y021390D02*
X049382Y021320D01*
X049382Y021040D01*
X048000Y014390D02*
X048281Y013970D01*
X048000Y013970D02*
X048000Y014390D01*
X047820Y014250D02*
X047820Y013970D01*
X047820Y014180D02*
X047540Y014180D01*
X047540Y014250D02*
X047680Y014390D01*
X047820Y014250D01*
X047540Y014250D02*
X047540Y013970D01*
X047540Y013180D02*
X047820Y013180D01*
X018756Y022971D02*
X018244Y022971D01*
X017960Y023009D02*
X017960Y022869D01*
X017890Y022799D01*
X017610Y022799D01*
X017540Y022869D01*
X017540Y023009D01*
X017610Y023079D01*
X017750Y023079D01*
X017820Y023009D01*
X017680Y023009D01*
X017680Y022869D01*
X017820Y022869D01*
X017820Y023009D01*
X017890Y023079D02*
X017960Y023009D01*
X017960Y023260D02*
X017960Y023540D01*
X017960Y023400D02*
X017540Y023400D01*
X017680Y023260D01*
X017750Y023720D02*
X017610Y023860D01*
X017540Y024000D01*
X017540Y024180D02*
X017680Y024321D01*
X017540Y024461D01*
X017960Y024461D01*
X017960Y024641D02*
X017540Y024641D01*
X017750Y024641D02*
X017750Y024921D01*
X017680Y025101D02*
X017680Y025381D01*
X017960Y025101D01*
X017960Y025381D01*
X017960Y024921D02*
X017540Y024921D01*
X017540Y024180D02*
X017960Y024180D01*
X017890Y024000D02*
X017820Y024000D01*
X017750Y023930D01*
X017750Y023720D01*
X017890Y023720D01*
X017960Y023790D01*
X017960Y023930D01*
X017890Y024000D01*
X018244Y024389D02*
X018756Y024389D01*
X017820Y022619D02*
X017540Y022619D01*
X017820Y022619D02*
X017960Y022479D01*
X017820Y022339D01*
X017540Y022339D01*
X017540Y022159D02*
X017540Y021878D01*
X017750Y021878D01*
X017680Y022019D01*
X017680Y022089D01*
X017750Y022159D01*
X017890Y022159D01*
X017960Y022089D01*
X017960Y021948D01*
X017890Y021878D01*
X015860Y021909D02*
X015790Y021839D01*
X015860Y021909D02*
X015860Y022049D01*
X015790Y022119D01*
X015720Y022119D01*
X015650Y022049D01*
X015650Y021909D01*
X015580Y021839D01*
X015510Y021839D01*
X015440Y021909D01*
X015440Y022049D01*
X015510Y022119D01*
X015650Y022299D02*
X015650Y022579D01*
X015510Y022760D02*
X015790Y022760D01*
X015860Y022830D01*
X015860Y022970D01*
X015790Y023040D01*
X015510Y023040D01*
X015440Y022970D01*
X015440Y022830D01*
X015510Y022760D01*
X014860Y022913D02*
X014860Y023053D01*
X014860Y022983D02*
X014440Y022983D01*
X014440Y022913D02*
X014440Y023053D01*
X014650Y022733D02*
X014650Y022453D01*
X014860Y022273D02*
X014440Y021992D01*
X014510Y021812D02*
X014650Y021812D01*
X014720Y021742D01*
X014720Y021532D01*
X014860Y021532D02*
X014440Y021532D01*
X014440Y021742D01*
X014510Y021812D01*
X014720Y021672D02*
X014860Y021812D01*
X014860Y021992D02*
X014440Y022273D01*
X013860Y022119D02*
X013440Y021839D01*
X013440Y021659D02*
X013440Y021378D01*
X013440Y021519D02*
X013860Y021519D01*
X013860Y021839D02*
X013440Y022119D01*
X013650Y022299D02*
X013650Y022579D01*
X013510Y022760D02*
X013790Y022760D01*
X013860Y022830D01*
X013860Y022970D01*
X013790Y023040D01*
X013510Y023040D01*
X013440Y022970D01*
X013440Y022830D01*
X013510Y022760D01*
X012860Y022760D02*
X012860Y022970D01*
X012790Y023040D01*
X012510Y023040D01*
X012440Y022970D01*
X012440Y022760D01*
X012860Y022760D01*
X012860Y022579D02*
X012440Y022579D01*
X012440Y022299D02*
X012860Y022579D01*
X012860Y022299D02*
X012440Y022299D01*
X012510Y022119D02*
X012440Y022049D01*
X012440Y021909D01*
X012510Y021839D01*
X012790Y021839D01*
X012860Y021909D01*
X012860Y022049D01*
X012790Y022119D01*
X012650Y022119D01*
X012650Y021979D01*
X011860Y021979D02*
X011720Y022119D01*
X011440Y022119D01*
X011510Y022299D02*
X011790Y022299D01*
X011860Y022369D01*
X011860Y022509D01*
X011790Y022579D01*
X011790Y022760D02*
X011510Y022760D01*
X011440Y022830D01*
X011440Y022970D01*
X011510Y023040D01*
X011790Y023040D02*
X011860Y022970D01*
X011860Y022830D01*
X011790Y022760D01*
X011510Y022579D02*
X011440Y022509D01*
X011440Y022369D01*
X011510Y022299D01*
X011440Y021839D02*
X011720Y021839D01*
X011860Y021979D01*
X010860Y022062D02*
X010790Y021992D01*
X010860Y022062D02*
X010860Y022202D01*
X010790Y022273D01*
X010720Y022273D01*
X010650Y022202D01*
X010650Y022062D01*
X010580Y021992D01*
X010510Y021992D01*
X010440Y022062D01*
X010440Y022202D01*
X010510Y022273D01*
X010650Y022453D02*
X010650Y022733D01*
X010860Y022913D02*
X010860Y023053D01*
X010860Y022983D02*
X010440Y022983D01*
X010440Y022913D02*
X010440Y023053D01*
X010440Y021812D02*
X010440Y021532D01*
X010440Y021672D02*
X010860Y021672D01*
X010790Y021352D02*
X010860Y021282D01*
X010860Y021142D01*
X010790Y021071D01*
X010510Y021071D01*
X010440Y021142D01*
X010440Y021282D01*
X010510Y021352D01*
X005710Y021790D02*
X005710Y021930D01*
X005640Y022000D01*
X005360Y022000D01*
X005290Y021930D01*
X005290Y021790D01*
X005360Y021720D01*
X005640Y021720D01*
X005710Y021790D01*
X005640Y022180D02*
X005290Y022180D01*
X005290Y022461D02*
X005640Y022461D01*
X005710Y022391D01*
X005710Y022250D01*
X005640Y022180D01*
X005290Y022641D02*
X005290Y022921D01*
X005290Y022781D02*
X005710Y022781D01*
X005710Y023101D02*
X005290Y023101D01*
X005290Y023311D01*
X005360Y023381D01*
X005500Y023381D01*
X005570Y023311D01*
X005570Y023101D01*
X005640Y023562D02*
X005290Y023562D01*
X005290Y023842D02*
X005640Y023842D01*
X005710Y023772D01*
X005710Y023632D01*
X005640Y023562D01*
X005290Y024022D02*
X005290Y024302D01*
X005290Y024162D02*
X005710Y024162D01*
X005570Y024943D02*
X005430Y024943D01*
X005290Y025083D01*
X005500Y025250D02*
X005500Y025530D01*
X005710Y025710D02*
X005570Y025850D01*
X005430Y025850D01*
X005290Y025710D01*
X005710Y025083D02*
X005570Y024943D01*
X004710Y024329D02*
X004570Y024469D01*
X004430Y024469D01*
X004290Y024329D01*
X004500Y024149D02*
X004500Y023868D01*
X004360Y024009D02*
X004640Y024009D01*
X004710Y023702D02*
X004570Y023562D01*
X004430Y023562D01*
X004290Y023702D01*
X003710Y023770D02*
X003710Y023490D01*
X003290Y023490D01*
X003290Y023770D01*
X003290Y023950D02*
X003290Y024160D01*
X003360Y024230D01*
X003640Y024230D01*
X003710Y024160D01*
X003710Y023950D01*
X003290Y023950D01*
X003010Y024020D02*
X003010Y024230D01*
X002730Y024230D01*
X002730Y024411D02*
X002730Y024551D01*
X002660Y024481D02*
X002940Y024481D01*
X003010Y024551D01*
X003010Y024718D02*
X003010Y024928D01*
X002940Y024998D01*
X002870Y024928D01*
X002870Y024788D01*
X002800Y024718D01*
X002730Y024788D01*
X002730Y024998D01*
X002310Y024461D02*
X002030Y024461D01*
X001890Y024321D01*
X002030Y024180D01*
X002310Y024180D01*
X002310Y024000D02*
X002100Y024000D01*
X002030Y023930D01*
X002100Y023860D01*
X002310Y023860D01*
X002310Y023720D02*
X002030Y023720D01*
X002030Y023790D01*
X002100Y023860D01*
X002100Y024180D02*
X002100Y024461D01*
X001610Y024506D02*
X001610Y024366D01*
X001540Y024295D01*
X001400Y024295D01*
X001330Y024366D01*
X001330Y024506D01*
X001400Y024576D01*
X001470Y024576D01*
X001470Y024295D01*
X001330Y024115D02*
X001610Y023975D01*
X001330Y023835D01*
X001330Y023598D02*
X001610Y023598D01*
X001610Y023528D02*
X001610Y023668D01*
X001330Y023598D02*
X001330Y023528D01*
X001190Y023598D02*
X001120Y023598D01*
X001330Y023355D02*
X001330Y023285D01*
X001470Y023145D01*
X001610Y023145D02*
X001330Y023145D01*
X001260Y022964D02*
X001190Y022894D01*
X001190Y022684D01*
X001610Y022684D01*
X001610Y022894D01*
X001540Y022964D01*
X001260Y022964D01*
X001890Y023009D02*
X001890Y022869D01*
X001960Y022799D01*
X001890Y023009D02*
X001960Y023079D01*
X002030Y023079D01*
X002310Y022799D01*
X002310Y023079D01*
X002240Y023260D02*
X001960Y023540D01*
X002240Y023540D01*
X002310Y023470D01*
X002310Y023330D01*
X002240Y023260D01*
X001960Y023260D01*
X001890Y023330D01*
X001890Y023470D01*
X001960Y023540D01*
X002660Y023253D02*
X002940Y023253D01*
X003010Y023323D01*
X003010Y023490D02*
X003010Y023700D01*
X002940Y023770D01*
X002800Y023770D01*
X002730Y023700D01*
X002730Y023490D01*
X003150Y023490D01*
X003500Y023490D02*
X003500Y023630D01*
X003710Y023310D02*
X003710Y023029D01*
X003290Y023029D01*
X003010Y023003D02*
X002730Y023003D01*
X002730Y023183D02*
X002730Y023323D01*
X003010Y023003D02*
X003010Y022793D01*
X002940Y022722D01*
X002730Y022722D01*
X002660Y022542D02*
X002590Y022472D01*
X002590Y022332D01*
X002660Y022262D01*
X002940Y022262D01*
X003010Y022332D01*
X003010Y022472D01*
X002940Y022542D01*
X002660Y022542D01*
X002730Y023950D02*
X002940Y023950D01*
X003010Y024020D01*
X004290Y022921D02*
X004570Y022921D01*
X004710Y022781D01*
X004570Y022641D01*
X004290Y022641D01*
X004290Y022461D02*
X004290Y022180D01*
X004500Y022180D01*
X004430Y022321D01*
X004430Y022391D01*
X004500Y022461D01*
X004640Y022461D01*
X004710Y022391D01*
X004710Y022250D01*
X004640Y022180D01*
X004500Y022000D02*
X004500Y021720D01*
X004360Y021860D02*
X004640Y021860D01*
X015440Y021659D02*
X015440Y021378D01*
X015440Y021519D02*
X015860Y021519D01*
X015860Y021198D02*
X015720Y021058D01*
X015720Y021128D02*
X015720Y020918D01*
X015860Y020918D02*
X015440Y020918D01*
X015440Y021128D01*
X015510Y021198D01*
X015650Y021198D01*
X015720Y021128D01*
X017540Y029020D02*
X017680Y029020D01*
X017610Y029020D02*
X017610Y029440D01*
X017540Y029440D02*
X017680Y029440D01*
X017847Y029370D02*
X017847Y029300D01*
X017917Y029230D01*
X018057Y029230D01*
X018127Y029160D01*
X018127Y029090D01*
X018057Y029020D01*
X017917Y029020D01*
X017847Y029090D01*
X017847Y029370D02*
X017917Y029440D01*
X018057Y029440D01*
X018127Y029370D01*
X018307Y029440D02*
X018307Y029020D01*
X018307Y029160D02*
X018518Y029160D01*
X018588Y029230D01*
X018588Y029370D01*
X018518Y029440D01*
X018307Y029440D01*
X018700Y029680D02*
X017200Y029680D01*
X016950Y029930D01*
X016950Y030430D01*
X017200Y030680D01*
X018700Y030680D01*
X018950Y030930D01*
X018950Y031430D01*
X018700Y031680D01*
X017200Y031680D01*
X016950Y031930D01*
X016950Y032430D01*
X017200Y032680D01*
X018700Y032680D01*
X018950Y032430D01*
X018950Y031930D01*
X018700Y031680D01*
X018700Y030680D02*
X018950Y030430D01*
X018950Y029930D01*
X018700Y029680D01*
X019082Y029930D02*
X019082Y030430D01*
X017200Y030680D02*
X016950Y030930D01*
X016950Y031430D01*
X017200Y031680D01*
X008250Y041880D02*
X007750Y041880D01*
X007750Y042480D02*
X008250Y042480D01*
X019790Y046720D02*
X019790Y046930D01*
X019860Y047000D01*
X020000Y047000D01*
X020070Y046930D01*
X020070Y046720D01*
X020210Y046720D02*
X019790Y046720D01*
X019790Y047180D02*
X020210Y047180D01*
X020070Y047321D01*
X020210Y047461D01*
X019790Y047461D01*
X019790Y047641D02*
X019930Y047781D01*
X019790Y047921D01*
X020210Y047921D01*
X020210Y048101D02*
X020210Y048381D01*
X020210Y048241D02*
X019790Y048241D01*
X019930Y048101D01*
X019860Y048562D02*
X019790Y048632D01*
X019790Y048772D01*
X019860Y048842D01*
X020140Y048562D01*
X020210Y048632D01*
X020210Y048772D01*
X020140Y048842D01*
X019860Y048842D01*
X019860Y048562D02*
X020140Y048562D01*
X020790Y048311D02*
X020790Y048171D01*
X020860Y048101D01*
X020930Y048101D01*
X021000Y048171D01*
X021000Y048381D01*
X021140Y048381D02*
X020860Y048381D01*
X020790Y048311D01*
X021140Y048381D02*
X021210Y048311D01*
X021210Y048171D01*
X021140Y048101D01*
X021210Y047921D02*
X020790Y047921D01*
X020930Y047781D01*
X020790Y047641D01*
X021210Y047641D01*
X021210Y047461D02*
X020790Y047461D01*
X020790Y047180D02*
X021210Y047180D01*
X021070Y047321D01*
X021210Y047461D01*
X021000Y047000D02*
X021070Y046930D01*
X021070Y046720D01*
X021210Y046720D02*
X020790Y046720D01*
X020790Y046930D01*
X020860Y047000D01*
X021000Y047000D01*
X021790Y046930D02*
X021790Y046720D01*
X022210Y046720D01*
X022070Y046720D02*
X022070Y046930D01*
X022000Y047000D01*
X021860Y047000D01*
X021790Y046930D01*
X021790Y047180D02*
X022210Y047180D01*
X022070Y047321D01*
X022210Y047461D01*
X021790Y047461D01*
X021790Y047641D02*
X021930Y047781D01*
X021790Y047921D01*
X022210Y047921D01*
X022140Y048101D02*
X022070Y048101D01*
X022000Y048171D01*
X022000Y048311D01*
X022070Y048381D01*
X022140Y048381D01*
X022210Y048311D01*
X022210Y048171D01*
X022140Y048101D01*
X022000Y048171D02*
X021930Y048101D01*
X021860Y048101D01*
X021790Y048171D01*
X021790Y048311D01*
X021860Y048381D01*
X021930Y048381D01*
X022000Y048311D01*
X022210Y047641D02*
X021790Y047641D01*
X022790Y047641D02*
X022930Y047781D01*
X022790Y047921D01*
X023210Y047921D01*
X023210Y048101D02*
X023140Y048101D01*
X022860Y048381D01*
X022790Y048381D01*
X022790Y048101D01*
X022790Y047641D02*
X023210Y047641D01*
X023210Y047461D02*
X022790Y047461D01*
X022790Y047180D02*
X023210Y047180D01*
X023070Y047321D01*
X023210Y047461D01*
X023000Y047000D02*
X023070Y046930D01*
X023070Y046720D01*
X023210Y046720D02*
X022790Y046720D01*
X022790Y046930D01*
X022860Y047000D01*
X023000Y047000D01*
X023790Y046930D02*
X023790Y046720D01*
X024210Y046720D01*
X024070Y046720D02*
X024070Y046930D01*
X024000Y047000D01*
X023860Y047000D01*
X023790Y046930D01*
X023790Y047180D02*
X024210Y047180D01*
X024070Y047321D01*
X024210Y047461D01*
X023790Y047461D01*
X023790Y047641D02*
X023930Y047781D01*
X023790Y047921D01*
X024210Y047921D01*
X024140Y048101D02*
X024210Y048171D01*
X024210Y048311D01*
X024140Y048381D01*
X024070Y048381D01*
X024000Y048311D01*
X024000Y048101D01*
X024140Y048101D01*
X024000Y048101D02*
X023860Y048241D01*
X023790Y048381D01*
X023790Y047641D02*
X024210Y047641D01*
X024790Y047641D02*
X024930Y047781D01*
X024790Y047921D01*
X025210Y047921D01*
X025140Y048101D02*
X025210Y048171D01*
X025210Y048311D01*
X025140Y048381D01*
X025000Y048381D01*
X024930Y048311D01*
X024930Y048241D01*
X025000Y048101D01*
X024790Y048101D01*
X024790Y048381D01*
X024790Y047641D02*
X025210Y047641D01*
X025210Y047461D02*
X024790Y047461D01*
X024790Y047180D02*
X025210Y047180D01*
X025070Y047321D01*
X025210Y047461D01*
X025000Y047000D02*
X025070Y046930D01*
X025070Y046720D01*
X025210Y046720D02*
X024790Y046720D01*
X024790Y046930D01*
X024860Y047000D01*
X025000Y047000D01*
X025790Y046930D02*
X025790Y046720D01*
X026210Y046720D01*
X026070Y046720D02*
X026070Y046930D01*
X026000Y047000D01*
X025860Y047000D01*
X025790Y046930D01*
X025790Y047180D02*
X026210Y047180D01*
X026070Y047321D01*
X026210Y047461D01*
X025790Y047461D01*
X025790Y047641D02*
X025930Y047781D01*
X025790Y047921D01*
X026210Y047921D01*
X026000Y048101D02*
X026000Y048381D01*
X026210Y048311D02*
X025790Y048311D01*
X026000Y048101D01*
X026210Y047641D02*
X025790Y047641D01*
X026790Y047641D02*
X026930Y047781D01*
X026790Y047921D01*
X027210Y047921D01*
X027140Y048101D02*
X027210Y048171D01*
X027210Y048311D01*
X027140Y048381D01*
X027070Y048381D01*
X027000Y048311D01*
X027000Y048241D01*
X027000Y048311D02*
X026930Y048381D01*
X026860Y048381D01*
X026790Y048311D01*
X026790Y048171D01*
X026860Y048101D01*
X026790Y047641D02*
X027210Y047641D01*
X027210Y047461D02*
X026790Y047461D01*
X026790Y047180D02*
X027210Y047180D01*
X027070Y047321D01*
X027210Y047461D01*
X027000Y047000D02*
X026860Y047000D01*
X026790Y046930D01*
X026790Y046720D01*
X027210Y046720D01*
X027070Y046720D02*
X027070Y046930D01*
X027000Y047000D01*
X027790Y046930D02*
X027790Y046720D01*
X028210Y046720D01*
X028070Y046720D02*
X028070Y046930D01*
X028000Y047000D01*
X027860Y047000D01*
X027790Y046930D01*
X027790Y047180D02*
X028210Y047180D01*
X028070Y047321D01*
X028210Y047461D01*
X027790Y047461D01*
X027790Y047641D02*
X027930Y047781D01*
X027790Y047921D01*
X028210Y047921D01*
X028210Y048101D02*
X027930Y048381D01*
X027860Y048381D01*
X027790Y048311D01*
X027790Y048171D01*
X027860Y048101D01*
X028210Y048101D02*
X028210Y048381D01*
X028790Y048241D02*
X029210Y048241D01*
X029210Y048101D02*
X029210Y048381D01*
X028930Y048101D02*
X028790Y048241D01*
X028790Y047921D02*
X029210Y047921D01*
X029210Y047641D02*
X028790Y047641D01*
X028930Y047781D01*
X028790Y047921D01*
X028790Y047461D02*
X029210Y047461D01*
X029070Y047321D01*
X029210Y047180D01*
X028790Y047180D01*
X028860Y047000D02*
X029000Y047000D01*
X029070Y046930D01*
X029070Y046720D01*
X029210Y046720D02*
X028790Y046720D01*
X028790Y046930D01*
X028860Y047000D01*
X028210Y047641D02*
X027790Y047641D01*
X029790Y047641D02*
X029930Y047781D01*
X029790Y047921D01*
X030210Y047921D01*
X030140Y048101D02*
X029860Y048381D01*
X030140Y048381D01*
X030210Y048311D01*
X030210Y048171D01*
X030140Y048101D01*
X029860Y048101D01*
X029790Y048171D01*
X029790Y048311D01*
X029860Y048381D01*
X029790Y047641D02*
X030210Y047641D01*
X030210Y047461D02*
X029790Y047461D01*
X029790Y047180D02*
X030210Y047180D01*
X030070Y047321D01*
X030210Y047461D01*
X030000Y047000D02*
X029860Y047000D01*
X029790Y046930D01*
X029790Y046720D01*
X030210Y046720D01*
X030070Y046720D02*
X030070Y046930D01*
X030000Y047000D01*
X030999Y048095D02*
X031139Y048095D01*
X031209Y048165D01*
X031209Y048445D01*
X031139Y048515D01*
X030999Y048515D01*
X030929Y048445D01*
X030929Y048165D01*
X030999Y048095D01*
X031389Y048165D02*
X031459Y048095D01*
X031599Y048095D01*
X031669Y048165D01*
X031669Y048515D01*
X031849Y048515D02*
X032130Y048515D01*
X031990Y048515D02*
X031990Y048095D01*
X032310Y048095D02*
X032310Y048515D01*
X032520Y048515D01*
X032590Y048445D01*
X032590Y048305D01*
X032520Y048235D01*
X032310Y048235D01*
X032770Y048165D02*
X032770Y048515D01*
X033050Y048515D02*
X033050Y048165D01*
X032980Y048095D01*
X032840Y048095D01*
X032770Y048165D01*
X032770Y047765D02*
X032910Y047625D01*
X033050Y047765D01*
X033050Y047345D01*
X032770Y047345D02*
X032770Y047765D01*
X032590Y047765D02*
X032590Y047345D01*
X032450Y047485D01*
X032310Y047345D01*
X032310Y047765D01*
X032130Y047695D02*
X032130Y047555D01*
X032060Y047485D01*
X031849Y047485D01*
X031849Y047345D02*
X031849Y047765D01*
X032060Y047765D01*
X032130Y047695D01*
X031389Y048165D02*
X031389Y048515D01*
X033231Y048515D02*
X033511Y048515D01*
X033371Y048515D02*
X033371Y048095D01*
X033691Y048165D02*
X033761Y048095D01*
X033901Y048095D01*
X033971Y048165D01*
X033971Y048235D01*
X033901Y048305D01*
X033761Y048305D01*
X033691Y048375D01*
X033691Y048445D01*
X033761Y048515D01*
X033901Y048515D01*
X033971Y048445D01*
X033649Y045890D02*
X033789Y045750D01*
X033789Y045610D01*
X033649Y045470D01*
X033469Y045540D02*
X033399Y045470D01*
X033188Y045470D01*
X033188Y045890D01*
X033399Y045890D01*
X033469Y045820D01*
X033469Y045750D01*
X033399Y045680D01*
X033188Y045680D01*
X033399Y045680D02*
X033469Y045610D01*
X033469Y045540D01*
X033022Y045470D02*
X032882Y045610D01*
X032882Y045750D01*
X033022Y045890D01*
X032241Y045820D02*
X032171Y045890D01*
X031961Y045890D01*
X031961Y045470D01*
X032171Y045470D01*
X032241Y045540D01*
X032241Y045820D01*
X031781Y045890D02*
X031781Y045470D01*
X031500Y045890D01*
X031500Y045470D01*
X031320Y045540D02*
X031320Y045680D01*
X031180Y045680D01*
X031040Y045540D02*
X031110Y045470D01*
X031250Y045470D01*
X031320Y045540D01*
X031040Y045540D02*
X031040Y045820D01*
X031110Y045890D01*
X031250Y045890D01*
X031320Y045820D01*
X031500Y044890D02*
X031500Y044680D01*
X031641Y044750D01*
X031711Y044750D01*
X031781Y044680D01*
X031781Y044540D01*
X031711Y044470D01*
X031570Y044470D01*
X031500Y044540D01*
X031320Y044680D02*
X031040Y044680D01*
X031180Y044820D02*
X031180Y044540D01*
X031500Y044890D02*
X031781Y044890D01*
X031961Y044890D02*
X031961Y044610D01*
X032101Y044470D01*
X032241Y044610D01*
X032241Y044890D01*
X032882Y044750D02*
X033022Y044890D01*
X033188Y044890D02*
X033399Y044890D01*
X033469Y044820D01*
X033469Y044680D01*
X033399Y044610D01*
X033188Y044610D01*
X033188Y044470D02*
X033188Y044890D01*
X033329Y044610D02*
X033469Y044470D01*
X033649Y044470D02*
X033789Y044610D01*
X033789Y044750D01*
X033649Y044890D01*
X033022Y044470D02*
X032882Y044610D01*
X032882Y044750D01*
X032868Y043890D02*
X032728Y043750D01*
X032728Y043610D01*
X032868Y043470D01*
X033035Y043470D02*
X033035Y043890D01*
X033315Y043890D02*
X033315Y043470D01*
X033175Y043610D01*
X033035Y043470D01*
X033495Y043470D02*
X033636Y043610D01*
X033636Y043750D01*
X033495Y043890D01*
X032088Y043820D02*
X032018Y043890D01*
X031877Y043890D01*
X031807Y043820D01*
X031807Y043540D01*
X031877Y043470D01*
X032018Y043470D01*
X032088Y043540D01*
X032088Y043680D01*
X031947Y043680D01*
X031641Y043470D02*
X031500Y043470D01*
X031570Y043470D02*
X031570Y043890D01*
X031500Y043890D02*
X031641Y043890D01*
X031320Y043820D02*
X031250Y043890D01*
X031110Y043890D01*
X031040Y043820D01*
X031040Y043750D01*
X031110Y043680D01*
X031250Y043680D01*
X031320Y043610D01*
X031320Y043540D01*
X031250Y043470D01*
X031110Y043470D01*
X031040Y043540D01*
X020210Y047641D02*
X019790Y047641D01*
D11*
X004000Y005180D02*
X001000Y005180D01*
X001000Y006180D01*
X006000Y006180D01*
X006000Y007180D01*
X001000Y007180D01*
X001000Y006180D01*
X001000Y007180D02*
X001000Y008180D01*
X006000Y008180D01*
X006000Y009180D01*
X001000Y009180D01*
X001000Y008180D01*
X001000Y009180D02*
X001000Y010180D01*
X006000Y010180D01*
X006000Y011180D01*
X001000Y011180D01*
X001000Y010180D01*
X001000Y011180D02*
X001000Y012180D01*
X006000Y012180D01*
X006000Y013180D01*
X001000Y013180D01*
X001000Y012180D01*
X001000Y013180D02*
X001000Y014180D01*
X006000Y014180D01*
X006000Y015180D01*
X001000Y015180D01*
X001000Y014180D01*
X001000Y015180D02*
X001000Y016180D01*
X006000Y016180D01*
X006000Y017180D01*
X001000Y017180D01*
X001000Y016180D01*
X001000Y017180D02*
X001000Y018180D01*
X006000Y018180D01*
X006000Y019180D01*
X001000Y019180D01*
X001000Y018180D01*
X001000Y019180D02*
X001000Y020180D01*
X006000Y020180D01*
X006000Y021180D01*
X001000Y021180D01*
X001000Y020180D01*
X001000Y021180D02*
X001000Y026180D01*
X004000Y026180D01*
X004000Y005180D01*
X005000Y005180D01*
X005000Y026180D01*
X004000Y026180D01*
X005000Y026180D02*
X006000Y026180D01*
X006000Y021180D01*
X006000Y020180D02*
X006000Y019180D01*
X006000Y018180D02*
X006000Y017180D01*
X006000Y016180D02*
X006000Y015180D01*
X006000Y014180D02*
X006000Y013180D01*
X006000Y012180D02*
X006000Y011180D01*
X006000Y010180D02*
X006000Y009180D01*
X006000Y008180D02*
X006000Y007180D01*
X006000Y006180D02*
X006000Y005180D01*
X005000Y005180D01*
X010500Y004680D02*
X010500Y003680D01*
X010500Y002680D01*
X010500Y001680D01*
X010500Y000680D01*
X017000Y000680D01*
X017000Y001680D01*
X017000Y002680D01*
X017000Y003680D01*
X017000Y004680D01*
X017000Y005680D01*
X014500Y005680D01*
X014500Y001680D01*
X017000Y001680D01*
X017000Y002680D02*
X010500Y002680D01*
X010500Y001680D02*
X014500Y001680D01*
X017000Y003680D02*
X010500Y003680D01*
X010500Y004680D02*
X010500Y005680D01*
X014500Y005680D01*
X017000Y005680D02*
X010500Y005680D01*
X010500Y004680D02*
X017000Y004680D01*
X023000Y004180D02*
X023000Y003180D01*
X023000Y000680D01*
X027500Y000680D01*
X027500Y005180D01*
X023000Y005180D01*
X023000Y004180D01*
X040500Y004180D01*
X043500Y004180D01*
X043500Y003180D01*
X040500Y003180D01*
X040500Y000680D01*
X039500Y000680D01*
X039500Y005180D01*
X038500Y005180D01*
X038500Y000680D01*
X037500Y000680D01*
X037500Y005180D01*
X036500Y005180D01*
X036500Y000680D01*
X035500Y000680D01*
X035500Y005180D01*
X034500Y005180D01*
X034500Y000680D01*
X033500Y000680D01*
X033500Y005180D01*
X032500Y005180D01*
X032500Y000680D01*
X031500Y000680D01*
X031500Y005180D01*
X030500Y005180D01*
X030500Y000680D01*
X029500Y000680D01*
X029500Y005180D01*
X028500Y005180D01*
X028500Y000680D01*
X029500Y000680D01*
X028500Y000680D02*
X027500Y000680D01*
X030500Y000680D02*
X031500Y000680D01*
X032500Y000680D02*
X033500Y000680D01*
X034500Y000680D02*
X035500Y000680D01*
X036500Y000680D02*
X037500Y000680D01*
X038500Y000680D02*
X039500Y000680D01*
X040500Y000680D02*
X041500Y000680D01*
X042500Y000680D01*
X042500Y005180D01*
X043500Y005180D01*
X043500Y004180D01*
X043500Y003180D02*
X043500Y000680D01*
X042500Y000680D01*
X041500Y000680D02*
X041500Y005180D01*
X040500Y005180D01*
X039500Y005180D01*
X040500Y005180D02*
X040500Y004180D01*
X040500Y003180D01*
X023000Y003180D01*
X027500Y005180D02*
X028500Y005180D01*
X029500Y005180D02*
X030500Y005180D01*
X031500Y005180D02*
X032500Y005180D01*
X033500Y005180D02*
X034500Y005180D01*
X035500Y005180D02*
X036500Y005180D01*
X037500Y005180D02*
X038500Y005180D01*
X041500Y005180D02*
X042500Y005180D01*
X044000Y006680D02*
X044000Y010680D01*
X047000Y010680D01*
X047000Y006680D01*
X046000Y006680D01*
X046000Y026680D01*
X047000Y026680D01*
X047000Y015680D01*
X044000Y015680D01*
X044000Y016680D01*
X044000Y017680D01*
X050000Y017680D01*
X050000Y018680D01*
X050000Y019680D01*
X044000Y019680D01*
X044000Y020680D01*
X050000Y020680D01*
X050000Y021680D01*
X044000Y021680D01*
X044000Y022680D01*
X050000Y022680D01*
X050000Y023680D01*
X044000Y023680D01*
X044000Y024680D01*
X050000Y024680D01*
X050000Y025680D01*
X044000Y025680D01*
X044000Y026680D01*
X045000Y026680D01*
X045000Y006680D01*
X044000Y006680D01*
X045000Y006680D02*
X046000Y006680D01*
X047000Y006680D02*
X050000Y006680D01*
X050000Y010680D01*
X047000Y010680D01*
X047000Y011680D01*
X044000Y011680D01*
X044000Y012680D01*
X047000Y012680D01*
X047000Y013680D01*
X044000Y013680D01*
X044000Y014680D01*
X047000Y014680D01*
X047000Y015680D01*
X050000Y015680D01*
X050000Y014680D01*
X047000Y014680D01*
X047000Y013680D01*
X050000Y013680D01*
X050000Y012680D01*
X047000Y012680D01*
X047000Y011680D01*
X050000Y011680D01*
X050000Y010680D01*
X050000Y011680D02*
X050000Y012680D01*
X050000Y013680D02*
X050000Y014680D01*
X050000Y015680D02*
X050000Y016680D01*
X050000Y017680D01*
X050000Y016680D02*
X044000Y016680D01*
X044000Y015680D02*
X044000Y014680D01*
X044000Y013680D02*
X044000Y012680D01*
X044000Y011680D02*
X044000Y010680D01*
X044000Y017680D02*
X044000Y018680D01*
X050000Y018680D01*
X050000Y019680D02*
X050000Y020680D01*
X050000Y021680D02*
X050000Y022680D01*
X050000Y023680D02*
X050000Y024680D01*
X050000Y025680D02*
X050000Y026680D01*
X047000Y026680D01*
X046000Y026680D02*
X045000Y026680D01*
X044000Y025680D02*
X044000Y024680D01*
X044000Y023680D02*
X044000Y022680D01*
X044000Y021680D02*
X044000Y020680D01*
X044000Y019680D02*
X044000Y018680D01*
X034500Y043180D02*
X030500Y043180D01*
X019500Y043180D01*
X019500Y046180D01*
X019500Y049680D01*
X020500Y049680D01*
X021500Y049680D01*
X022500Y049680D01*
X023500Y049680D01*
X024500Y049680D01*
X025500Y049680D01*
X026500Y049680D01*
X027500Y049680D01*
X028500Y049680D01*
X029500Y049680D01*
X030500Y049680D01*
X030500Y046180D01*
X034500Y046180D01*
X034500Y045180D01*
X030500Y045180D01*
X030500Y046180D01*
X029500Y046180D01*
X029500Y049680D01*
X028500Y049680D02*
X028500Y046180D01*
X027500Y046180D01*
X027500Y049680D01*
X026500Y049680D02*
X026500Y046180D01*
X025500Y046180D01*
X025500Y049680D01*
X024500Y049680D02*
X024500Y046180D01*
X023500Y046180D01*
X023500Y049680D01*
X022500Y049680D02*
X022500Y046180D01*
X021500Y046180D01*
X021500Y049680D01*
X020500Y049680D02*
X020500Y046180D01*
X019500Y046180D01*
X020500Y046180D02*
X021500Y046180D01*
X022500Y046180D02*
X023500Y046180D01*
X024500Y046180D02*
X025500Y046180D01*
X026500Y046180D02*
X027500Y046180D01*
X028500Y046180D02*
X029500Y046180D01*
X030500Y045180D02*
X030500Y044180D01*
X034500Y044180D01*
X034500Y043180D01*
X034500Y044180D02*
X034500Y045180D01*
X034500Y046180D02*
X034500Y049680D01*
X030500Y049680D01*
X030500Y044180D02*
X030500Y043180D01*
X014070Y038092D02*
X012228Y038092D01*
X012228Y039319D01*
X013149Y038706D02*
X013149Y038092D01*
X013149Y037478D02*
X012535Y037478D01*
X012228Y037171D01*
X012228Y036250D01*
X014070Y036250D01*
X014070Y035636D02*
X014070Y035022D01*
X014070Y035329D02*
X012842Y035329D01*
X012842Y035022D01*
X012228Y035329D02*
X011921Y035329D01*
X012228Y034409D02*
X014070Y034409D01*
X012842Y033795D02*
X012228Y034409D01*
X012842Y033795D02*
X012228Y033181D01*
X014070Y033181D01*
X013763Y032567D02*
X013456Y032567D01*
X013149Y032260D01*
X013149Y031646D01*
X012842Y031339D01*
X012535Y031339D01*
X012228Y031646D01*
X012228Y032260D01*
X012535Y032567D01*
X013763Y032567D02*
X014070Y032260D01*
X014070Y031646D01*
X013763Y031339D01*
X013456Y030725D02*
X013456Y029498D01*
X013149Y029498D02*
X012842Y029805D01*
X012842Y030418D01*
X013149Y030725D01*
X013456Y030725D01*
X014070Y030418D02*
X014070Y029805D01*
X013763Y029498D01*
X013149Y029498D01*
X012842Y028884D02*
X014070Y028884D01*
X014070Y027963D01*
X013763Y027656D01*
X012842Y027656D01*
X012228Y026735D02*
X014070Y026735D01*
X014070Y026428D02*
X014070Y027042D01*
X013763Y025814D02*
X013456Y025814D01*
X013149Y025508D01*
X013149Y024587D01*
X012228Y024587D02*
X012228Y025508D01*
X012535Y025814D01*
X012842Y025814D01*
X013149Y025508D01*
X013763Y025814D02*
X014070Y025508D01*
X014070Y024587D01*
X012228Y024587D01*
X012228Y026428D02*
X012228Y026735D01*
X013456Y036250D02*
X013456Y037171D01*
X013149Y037478D01*
X013456Y036864D02*
X014070Y037478D01*
D12*
X014490Y046800D02*
X014690Y046800D01*
X015330Y046800D02*
X015510Y046800D01*
X016490Y046800D02*
X016690Y046800D01*
X017330Y046800D02*
X017510Y046800D01*
X013510Y046800D02*
X013330Y046800D01*
X012690Y046800D02*
X012490Y046800D01*
X011510Y046800D02*
X011330Y046800D01*
X010690Y046800D02*
X010490Y046800D01*
X020843Y025936D02*
X020744Y025837D01*
X020744Y020523D01*
X020843Y020424D01*
X026157Y020424D01*
X026256Y020523D01*
X026256Y025641D01*
X025961Y025936D01*
X020843Y025936D01*
X025764Y025542D02*
X025766Y025561D01*
X025771Y025580D01*
X025781Y025596D01*
X025793Y025611D01*
X025808Y025623D01*
X025824Y025633D01*
X025843Y025638D01*
X025862Y025640D01*
X025881Y025638D01*
X025900Y025633D01*
X025916Y025623D01*
X025931Y025611D01*
X025943Y025596D01*
X025953Y025580D01*
X025958Y025561D01*
X025960Y025542D01*
X025958Y025523D01*
X025953Y025504D01*
X025943Y025488D01*
X025931Y025473D01*
X025916Y025461D01*
X025900Y025451D01*
X025881Y025446D01*
X025862Y025444D01*
X025843Y025446D01*
X025824Y025451D01*
X025808Y025461D01*
X025793Y025473D01*
X025781Y025488D01*
X025771Y025504D01*
X025766Y025523D01*
X025764Y025542D01*
D13*
X017423Y045449D02*
X017378Y045527D01*
X017379Y045527D02*
X017423Y045555D01*
X017465Y045586D01*
X017505Y045619D01*
X017543Y045655D01*
X017578Y045694D01*
X017610Y045735D01*
X017640Y045779D01*
X017666Y045824D01*
X017689Y045871D01*
X017709Y045919D01*
X017725Y045969D01*
X017738Y046019D01*
X017747Y046071D01*
X017753Y046123D01*
X017755Y046175D01*
X017844Y046176D01*
X017845Y046175D01*
X017843Y046120D01*
X017837Y046066D01*
X017828Y046011D01*
X017815Y045958D01*
X017799Y045906D01*
X017780Y045854D01*
X017757Y045804D01*
X017731Y045756D01*
X017702Y045709D01*
X017670Y045665D01*
X017635Y045622D01*
X017597Y045582D01*
X017557Y045545D01*
X017515Y045510D01*
X017470Y045478D01*
X017424Y045449D01*
X017419Y045457D01*
X017465Y045485D01*
X017509Y045517D01*
X017551Y045552D01*
X017591Y045589D01*
X017628Y045628D01*
X017663Y045670D01*
X017694Y045714D01*
X017723Y045760D01*
X017749Y045808D01*
X017771Y045858D01*
X017791Y045908D01*
X017807Y045960D01*
X017819Y046013D01*
X017828Y046067D01*
X017834Y046121D01*
X017836Y046175D01*
X017827Y046175D01*
X017825Y046121D01*
X017819Y046068D01*
X017810Y046015D01*
X017798Y045963D01*
X017782Y045911D01*
X017763Y045861D01*
X017741Y045812D01*
X017715Y045765D01*
X017687Y045719D01*
X017655Y045676D01*
X017621Y045634D01*
X017585Y045595D01*
X017545Y045558D01*
X017504Y045524D01*
X017460Y045493D01*
X017415Y045464D01*
X017410Y045472D01*
X017458Y045502D01*
X017504Y045536D01*
X017547Y045572D01*
X017588Y045612D01*
X017626Y045654D01*
X017661Y045698D01*
X017693Y045745D01*
X017721Y045794D01*
X017746Y045845D01*
X017768Y045898D01*
X017785Y045951D01*
X017799Y046006D01*
X017809Y046062D01*
X017816Y046118D01*
X017818Y046175D01*
X017809Y046175D01*
X017807Y046119D01*
X017801Y046063D01*
X017791Y046008D01*
X017777Y045954D01*
X017759Y045901D01*
X017738Y045849D01*
X017713Y045798D01*
X017685Y045750D01*
X017654Y045704D01*
X017619Y045659D01*
X017582Y045618D01*
X017541Y045579D01*
X017499Y045543D01*
X017453Y045510D01*
X017406Y045480D01*
X017401Y045488D01*
X017448Y045517D01*
X017493Y045550D01*
X017535Y045586D01*
X017575Y045624D01*
X017612Y045665D01*
X017647Y045709D01*
X017678Y045755D01*
X017705Y045803D01*
X017730Y045852D01*
X017751Y045904D01*
X017768Y045956D01*
X017782Y046010D01*
X017792Y046065D01*
X017798Y046120D01*
X017800Y046175D01*
X017791Y046175D01*
X017789Y046120D01*
X017783Y046066D01*
X017773Y046012D01*
X017759Y045959D01*
X017742Y045907D01*
X017722Y045856D01*
X017697Y045807D01*
X017670Y045760D01*
X017639Y045714D01*
X017606Y045671D01*
X017569Y045630D01*
X017529Y045592D01*
X017487Y045557D01*
X017443Y045525D01*
X017397Y045496D01*
X017392Y045504D01*
X017438Y045532D01*
X017482Y045564D01*
X017523Y045599D01*
X017562Y045637D01*
X017599Y045677D01*
X017632Y045719D01*
X017662Y045764D01*
X017690Y045811D01*
X017713Y045860D01*
X017734Y045910D01*
X017751Y045961D01*
X017764Y046014D01*
X017774Y046067D01*
X017780Y046121D01*
X017782Y046175D01*
X017773Y046175D01*
X017771Y046122D01*
X017765Y046068D01*
X017755Y046016D01*
X017742Y045964D01*
X017725Y045913D01*
X017705Y045863D01*
X017682Y045815D01*
X017655Y045769D01*
X017625Y045725D01*
X017592Y045683D01*
X017556Y045643D01*
X017517Y045606D01*
X017476Y045571D01*
X017433Y045540D01*
X017388Y045511D01*
X017383Y045519D01*
X017428Y045547D01*
X017471Y045578D01*
X017511Y045612D01*
X017549Y045649D01*
X017585Y045688D01*
X017617Y045730D01*
X017647Y045774D01*
X017674Y045820D01*
X017697Y045867D01*
X017717Y045916D01*
X017734Y045966D01*
X017747Y046018D01*
X017756Y046070D01*
X017762Y046122D01*
X017764Y046175D01*
X016156Y046175D02*
X016246Y046175D01*
X016245Y046175D02*
X016247Y046121D01*
X016253Y046068D01*
X016263Y046015D01*
X016277Y045963D01*
X016294Y045912D01*
X016315Y045863D01*
X016339Y045815D01*
X016367Y045769D01*
X016398Y045725D01*
X016432Y045683D01*
X016468Y045644D01*
X016508Y045607D01*
X016550Y045574D01*
X016594Y045543D01*
X016640Y045516D01*
X016598Y045437D01*
X016549Y045465D01*
X016503Y045497D01*
X016458Y045532D01*
X016416Y045569D01*
X016376Y045610D01*
X016340Y045653D01*
X016306Y045698D01*
X016275Y045745D01*
X016248Y045795D01*
X016224Y045846D01*
X016203Y045898D01*
X016186Y045952D01*
X016173Y046007D01*
X016163Y046062D01*
X016157Y046119D01*
X016155Y046175D01*
X016164Y046175D01*
X016166Y046119D01*
X016172Y046064D01*
X016182Y046009D01*
X016195Y045954D01*
X016212Y045901D01*
X016232Y045849D01*
X016256Y045799D01*
X016283Y045750D01*
X016313Y045703D01*
X016347Y045658D01*
X016383Y045616D01*
X016422Y045576D01*
X016464Y045539D01*
X016508Y045504D01*
X016554Y045473D01*
X016602Y045445D01*
X016606Y045453D01*
X016559Y045481D01*
X016513Y045512D01*
X016470Y045546D01*
X016428Y045582D01*
X016390Y045622D01*
X016354Y045664D01*
X016321Y045708D01*
X016291Y045754D01*
X016264Y045803D01*
X016241Y045853D01*
X016220Y045904D01*
X016204Y045957D01*
X016191Y046010D01*
X016181Y046065D01*
X016175Y046120D01*
X016173Y046175D01*
X016182Y046175D01*
X016184Y046120D01*
X016190Y046066D01*
X016199Y046012D01*
X016212Y045959D01*
X016229Y045907D01*
X016249Y045856D01*
X016272Y045807D01*
X016299Y045759D01*
X016328Y045713D01*
X016361Y045669D01*
X016396Y045628D01*
X016435Y045589D01*
X016475Y045552D01*
X016518Y045519D01*
X016564Y045488D01*
X016611Y045461D01*
X016615Y045469D01*
X016568Y045496D01*
X016524Y045526D01*
X016481Y045559D01*
X016441Y045595D01*
X016403Y045634D01*
X016368Y045675D01*
X016336Y045718D01*
X016306Y045764D01*
X016280Y045811D01*
X016257Y045860D01*
X016237Y045910D01*
X016221Y045962D01*
X016208Y046014D01*
X016199Y046067D01*
X016193Y046121D01*
X016191Y046175D01*
X016200Y046175D01*
X016202Y046122D01*
X016208Y046069D01*
X016217Y046016D01*
X016230Y045964D01*
X016246Y045913D01*
X016265Y045863D01*
X016288Y045815D01*
X016314Y045768D01*
X016343Y045724D01*
X016375Y045681D01*
X016410Y045640D01*
X016447Y045602D01*
X016487Y045566D01*
X016529Y045533D01*
X016573Y045503D01*
X016619Y045476D01*
X016623Y045484D01*
X016578Y045511D01*
X016534Y045541D01*
X016493Y045573D01*
X016453Y045608D01*
X016416Y045646D01*
X016382Y045686D01*
X016350Y045729D01*
X016322Y045773D01*
X016296Y045819D01*
X016274Y045867D01*
X016254Y045916D01*
X016238Y045966D01*
X016226Y046018D01*
X016217Y046070D01*
X016211Y046122D01*
X016209Y046175D01*
X016218Y046175D01*
X016220Y046119D01*
X016227Y046064D01*
X016237Y046009D01*
X016251Y045955D01*
X016269Y045903D01*
X016290Y045851D01*
X016316Y045802D01*
X016344Y045754D01*
X016376Y045708D01*
X016411Y045665D01*
X016449Y045625D01*
X016490Y045587D01*
X016534Y045552D01*
X016580Y045521D01*
X016628Y045492D01*
X016632Y045500D01*
X016584Y045528D01*
X016539Y045559D01*
X016496Y045594D01*
X016456Y045631D01*
X016418Y045671D01*
X016383Y045714D01*
X016352Y045759D01*
X016323Y045806D01*
X016299Y045855D01*
X016277Y045906D01*
X016260Y045958D01*
X016246Y046011D01*
X016236Y046065D01*
X016229Y046120D01*
X016227Y046175D01*
X016236Y046175D01*
X016238Y046121D01*
X016244Y046067D01*
X016254Y046013D01*
X016268Y045961D01*
X016286Y045909D01*
X016307Y045859D01*
X016331Y045810D01*
X016359Y045764D01*
X016391Y045719D01*
X016425Y045677D01*
X016462Y045638D01*
X016502Y045601D01*
X016544Y045567D01*
X016589Y045536D01*
X016636Y045508D01*
X016456Y046825D02*
X016513Y046756D01*
X016513Y046757D02*
X016473Y046720D01*
X016435Y046681D01*
X016401Y046639D01*
X016369Y046595D01*
X016341Y046549D01*
X016316Y046500D01*
X016295Y046450D01*
X016277Y046399D01*
X016264Y046346D01*
X016254Y046293D01*
X016247Y046239D01*
X016245Y046185D01*
X016156Y046184D01*
X016155Y046185D01*
X016157Y046241D01*
X016163Y046297D01*
X016173Y046352D01*
X016186Y046407D01*
X016203Y046460D01*
X016223Y046513D01*
X016247Y046564D01*
X016274Y046613D01*
X016305Y046660D01*
X016338Y046705D01*
X016374Y046748D01*
X016413Y046788D01*
X016455Y046826D01*
X016461Y046819D01*
X016420Y046782D01*
X016381Y046742D01*
X016345Y046700D01*
X016312Y046655D01*
X016282Y046608D01*
X016255Y046560D01*
X016232Y046509D01*
X016211Y046457D01*
X016195Y046404D01*
X016182Y046350D01*
X016172Y046296D01*
X016166Y046241D01*
X016164Y046185D01*
X016173Y046185D01*
X016175Y046240D01*
X016181Y046295D01*
X016190Y046349D01*
X016203Y046402D01*
X016220Y046454D01*
X016240Y046506D01*
X016263Y046555D01*
X016290Y046604D01*
X016319Y046650D01*
X016352Y046694D01*
X016388Y046736D01*
X016426Y046775D01*
X016467Y046812D01*
X016472Y046805D01*
X016432Y046769D01*
X016394Y046730D01*
X016359Y046688D01*
X016327Y046645D01*
X016297Y046599D01*
X016271Y046551D01*
X016248Y046502D01*
X016228Y046452D01*
X016212Y046400D01*
X016199Y046347D01*
X016190Y046293D01*
X016184Y046239D01*
X016182Y046185D01*
X016191Y046185D01*
X016193Y046239D01*
X016199Y046292D01*
X016208Y046345D01*
X016221Y046397D01*
X016237Y046449D01*
X016256Y046499D01*
X016279Y046547D01*
X016305Y046594D01*
X016334Y046640D01*
X016366Y046683D01*
X016401Y046724D01*
X016438Y046762D01*
X016478Y046798D01*
X016484Y046791D01*
X016445Y046756D01*
X016408Y046718D01*
X016373Y046677D01*
X016342Y046634D01*
X016313Y046590D01*
X016287Y046543D01*
X016265Y046495D01*
X016245Y046446D01*
X016229Y046395D01*
X016217Y046343D01*
X016208Y046291D01*
X016202Y046238D01*
X016200Y046185D01*
X016209Y046185D01*
X016211Y046237D01*
X016217Y046290D01*
X016226Y046341D01*
X016238Y046392D01*
X016254Y046443D01*
X016273Y046492D01*
X016295Y046539D01*
X016321Y046585D01*
X016349Y046629D01*
X016380Y046671D01*
X016414Y046712D01*
X016451Y046749D01*
X016490Y046784D01*
X016496Y046778D01*
X016457Y046743D01*
X016421Y046705D01*
X016387Y046666D01*
X016356Y046624D01*
X016328Y046580D01*
X016303Y046535D01*
X016281Y046488D01*
X016262Y046440D01*
X016247Y046390D01*
X016234Y046340D01*
X016226Y046288D01*
X016220Y046237D01*
X016218Y046185D01*
X016227Y046185D01*
X016229Y046236D01*
X016234Y046287D01*
X016243Y046338D01*
X016255Y046388D01*
X016271Y046437D01*
X016289Y046484D01*
X016311Y046531D01*
X016336Y046576D01*
X016364Y046619D01*
X016394Y046660D01*
X016427Y046699D01*
X016463Y046736D01*
X016501Y046771D01*
X016507Y046764D01*
X016466Y046727D01*
X016428Y046687D01*
X016394Y046645D01*
X016362Y046600D01*
X016333Y046553D01*
X016308Y046504D01*
X016287Y046453D01*
X016269Y046402D01*
X016255Y046348D01*
X016245Y046294D01*
X016238Y046240D01*
X016236Y046185D01*
X017844Y046184D02*
X017754Y046184D01*
X017755Y046185D02*
X017753Y046239D01*
X017747Y046292D01*
X017737Y046345D01*
X017723Y046397D01*
X017706Y046448D01*
X017685Y046498D01*
X017661Y046546D01*
X017633Y046592D01*
X017602Y046636D01*
X017568Y046677D01*
X017531Y046717D01*
X017492Y046753D01*
X017549Y046821D01*
X017550Y046822D01*
X017591Y046784D01*
X017629Y046744D01*
X017665Y046701D01*
X017698Y046656D01*
X017728Y046609D01*
X017754Y046561D01*
X017778Y046510D01*
X017798Y046458D01*
X017814Y046405D01*
X017828Y046351D01*
X017837Y046296D01*
X017843Y046241D01*
X017845Y046185D01*
X017836Y046185D01*
X017834Y046240D01*
X017828Y046295D01*
X017819Y046349D01*
X017806Y046403D01*
X017789Y046455D01*
X017770Y046507D01*
X017746Y046557D01*
X017720Y046605D01*
X017690Y046651D01*
X017658Y046696D01*
X017623Y046738D01*
X017584Y046778D01*
X017544Y046815D01*
X017538Y046808D01*
X017578Y046771D01*
X017616Y046732D01*
X017651Y046690D01*
X017683Y046646D01*
X017712Y046600D01*
X017738Y046552D01*
X017761Y046503D01*
X017781Y046452D01*
X017797Y046400D01*
X017810Y046347D01*
X017819Y046294D01*
X017825Y046239D01*
X017827Y046185D01*
X017818Y046185D01*
X017816Y046239D01*
X017810Y046292D01*
X017801Y046345D01*
X017788Y046398D01*
X017772Y046449D01*
X017753Y046500D01*
X017730Y046548D01*
X017705Y046596D01*
X017676Y046641D01*
X017644Y046685D01*
X017609Y046726D01*
X017572Y046765D01*
X017532Y046801D01*
X017526Y046794D01*
X017566Y046758D01*
X017603Y046720D01*
X017637Y046679D01*
X017668Y046636D01*
X017697Y046591D01*
X017722Y046544D01*
X017745Y046496D01*
X017764Y046446D01*
X017780Y046395D01*
X017792Y046344D01*
X017801Y046291D01*
X017807Y046238D01*
X017809Y046185D01*
X017800Y046185D01*
X017798Y046238D01*
X017792Y046290D01*
X017783Y046342D01*
X017771Y046393D01*
X017755Y046443D01*
X017736Y046493D01*
X017714Y046540D01*
X017689Y046587D01*
X017661Y046631D01*
X017630Y046673D01*
X017596Y046714D01*
X017559Y046752D01*
X017521Y046787D01*
X017515Y046781D01*
X017553Y046745D01*
X017589Y046708D01*
X017623Y046668D01*
X017653Y046626D01*
X017681Y046582D01*
X017706Y046536D01*
X017728Y046489D01*
X017747Y046440D01*
X017762Y046391D01*
X017775Y046340D01*
X017783Y046289D01*
X017789Y046237D01*
X017791Y046185D01*
X017782Y046185D01*
X017780Y046241D01*
X017773Y046296D01*
X017763Y046351D01*
X017749Y046405D01*
X017731Y046458D01*
X017709Y046509D01*
X017684Y046559D01*
X017655Y046607D01*
X017623Y046652D01*
X017588Y046695D01*
X017550Y046736D01*
X017509Y046774D01*
X017503Y046767D01*
X017544Y046730D01*
X017581Y046689D01*
X017616Y046647D01*
X017648Y046602D01*
X017676Y046554D01*
X017701Y046505D01*
X017723Y046454D01*
X017740Y046402D01*
X017754Y046349D01*
X017764Y046295D01*
X017771Y046240D01*
X017773Y046185D01*
X017764Y046185D01*
X017762Y046239D01*
X017756Y046293D01*
X017746Y046347D01*
X017732Y046400D01*
X017714Y046451D01*
X017693Y046501D01*
X017668Y046550D01*
X017640Y046597D01*
X017609Y046641D01*
X017575Y046683D01*
X017537Y046723D01*
X017497Y046760D01*
X014156Y046175D02*
X014246Y046175D01*
X014245Y046175D02*
X014247Y046121D01*
X014253Y046068D01*
X014263Y046015D01*
X014277Y045963D01*
X014294Y045912D01*
X014315Y045863D01*
X014339Y045815D01*
X014367Y045769D01*
X014398Y045725D01*
X014432Y045683D01*
X014468Y045644D01*
X014508Y045607D01*
X014550Y045574D01*
X014594Y045543D01*
X014640Y045516D01*
X014598Y045437D01*
X014549Y045465D01*
X014503Y045497D01*
X014458Y045532D01*
X014416Y045569D01*
X014376Y045610D01*
X014340Y045653D01*
X014306Y045698D01*
X014275Y045745D01*
X014248Y045795D01*
X014224Y045846D01*
X014203Y045898D01*
X014186Y045952D01*
X014173Y046007D01*
X014163Y046062D01*
X014157Y046119D01*
X014155Y046175D01*
X014164Y046175D01*
X014166Y046119D01*
X014172Y046064D01*
X014182Y046009D01*
X014195Y045954D01*
X014212Y045901D01*
X014232Y045849D01*
X014256Y045799D01*
X014283Y045750D01*
X014313Y045703D01*
X014347Y045658D01*
X014383Y045616D01*
X014422Y045576D01*
X014464Y045539D01*
X014508Y045504D01*
X014554Y045473D01*
X014602Y045445D01*
X014606Y045453D01*
X014559Y045481D01*
X014513Y045512D01*
X014470Y045546D01*
X014428Y045582D01*
X014390Y045622D01*
X014354Y045664D01*
X014321Y045708D01*
X014291Y045754D01*
X014264Y045803D01*
X014241Y045853D01*
X014220Y045904D01*
X014204Y045957D01*
X014191Y046010D01*
X014181Y046065D01*
X014175Y046120D01*
X014173Y046175D01*
X014182Y046175D01*
X014184Y046120D01*
X014190Y046066D01*
X014199Y046012D01*
X014212Y045959D01*
X014229Y045907D01*
X014249Y045856D01*
X014272Y045807D01*
X014299Y045759D01*
X014328Y045713D01*
X014361Y045669D01*
X014396Y045628D01*
X014435Y045589D01*
X014475Y045552D01*
X014518Y045519D01*
X014564Y045488D01*
X014611Y045461D01*
X014615Y045469D01*
X014568Y045496D01*
X014524Y045526D01*
X014481Y045559D01*
X014441Y045595D01*
X014403Y045634D01*
X014368Y045675D01*
X014336Y045718D01*
X014306Y045764D01*
X014280Y045811D01*
X014257Y045860D01*
X014237Y045910D01*
X014221Y045962D01*
X014208Y046014D01*
X014199Y046067D01*
X014193Y046121D01*
X014191Y046175D01*
X014200Y046175D01*
X014202Y046122D01*
X014208Y046069D01*
X014217Y046016D01*
X014230Y045964D01*
X014246Y045913D01*
X014265Y045863D01*
X014288Y045815D01*
X014314Y045768D01*
X014343Y045724D01*
X014375Y045681D01*
X014410Y045640D01*
X014447Y045602D01*
X014487Y045566D01*
X014529Y045533D01*
X014573Y045503D01*
X014619Y045476D01*
X014623Y045484D01*
X014578Y045511D01*
X014534Y045541D01*
X014493Y045573D01*
X014453Y045608D01*
X014416Y045646D01*
X014382Y045686D01*
X014350Y045729D01*
X014322Y045773D01*
X014296Y045819D01*
X014274Y045867D01*
X014254Y045916D01*
X014238Y045966D01*
X014226Y046018D01*
X014217Y046070D01*
X014211Y046122D01*
X014209Y046175D01*
X014218Y046175D01*
X014220Y046119D01*
X014227Y046064D01*
X014237Y046009D01*
X014251Y045955D01*
X014269Y045903D01*
X014290Y045851D01*
X014316Y045802D01*
X014344Y045754D01*
X014376Y045708D01*
X014411Y045665D01*
X014449Y045625D01*
X014490Y045587D01*
X014534Y045552D01*
X014580Y045521D01*
X014628Y045492D01*
X014632Y045500D01*
X014584Y045528D01*
X014539Y045559D01*
X014496Y045594D01*
X014456Y045631D01*
X014418Y045671D01*
X014383Y045714D01*
X014352Y045759D01*
X014323Y045806D01*
X014299Y045855D01*
X014277Y045906D01*
X014260Y045958D01*
X014246Y046011D01*
X014236Y046065D01*
X014229Y046120D01*
X014227Y046175D01*
X014236Y046175D01*
X014238Y046121D01*
X014244Y046067D01*
X014254Y046013D01*
X014268Y045961D01*
X014286Y045909D01*
X014307Y045859D01*
X014331Y045810D01*
X014359Y045764D01*
X014391Y045719D01*
X014425Y045677D01*
X014462Y045638D01*
X014502Y045601D01*
X014544Y045567D01*
X014589Y045536D01*
X014636Y045508D01*
X015423Y045449D02*
X015378Y045527D01*
X015379Y045527D02*
X015423Y045555D01*
X015465Y045586D01*
X015505Y045619D01*
X015543Y045655D01*
X015578Y045694D01*
X015610Y045735D01*
X015640Y045779D01*
X015666Y045824D01*
X015689Y045871D01*
X015709Y045919D01*
X015725Y045969D01*
X015738Y046019D01*
X015747Y046071D01*
X015753Y046123D01*
X015755Y046175D01*
X015844Y046176D01*
X015845Y046175D01*
X015843Y046120D01*
X015837Y046066D01*
X015828Y046011D01*
X015815Y045958D01*
X015799Y045906D01*
X015780Y045854D01*
X015757Y045804D01*
X015731Y045756D01*
X015702Y045709D01*
X015670Y045665D01*
X015635Y045622D01*
X015597Y045582D01*
X015557Y045545D01*
X015515Y045510D01*
X015470Y045478D01*
X015424Y045449D01*
X015419Y045457D01*
X015465Y045485D01*
X015509Y045517D01*
X015551Y045552D01*
X015591Y045589D01*
X015628Y045628D01*
X015663Y045670D01*
X015694Y045714D01*
X015723Y045760D01*
X015749Y045808D01*
X015771Y045858D01*
X015791Y045908D01*
X015807Y045960D01*
X015819Y046013D01*
X015828Y046067D01*
X015834Y046121D01*
X015836Y046175D01*
X015827Y046175D01*
X015825Y046121D01*
X015819Y046068D01*
X015810Y046015D01*
X015798Y045963D01*
X015782Y045911D01*
X015763Y045861D01*
X015741Y045812D01*
X015715Y045765D01*
X015687Y045719D01*
X015655Y045676D01*
X015621Y045634D01*
X015585Y045595D01*
X015545Y045558D01*
X015504Y045524D01*
X015460Y045493D01*
X015415Y045464D01*
X015410Y045472D01*
X015458Y045502D01*
X015504Y045536D01*
X015547Y045572D01*
X015588Y045612D01*
X015626Y045654D01*
X015661Y045698D01*
X015693Y045745D01*
X015721Y045794D01*
X015746Y045845D01*
X015768Y045898D01*
X015785Y045951D01*
X015799Y046006D01*
X015809Y046062D01*
X015816Y046118D01*
X015818Y046175D01*
X015809Y046175D01*
X015807Y046119D01*
X015801Y046063D01*
X015791Y046008D01*
X015777Y045954D01*
X015759Y045901D01*
X015738Y045849D01*
X015713Y045798D01*
X015685Y045750D01*
X015654Y045704D01*
X015619Y045659D01*
X015582Y045618D01*
X015541Y045579D01*
X015499Y045543D01*
X015453Y045510D01*
X015406Y045480D01*
X015401Y045488D01*
X015448Y045517D01*
X015493Y045550D01*
X015535Y045586D01*
X015575Y045624D01*
X015612Y045665D01*
X015647Y045709D01*
X015678Y045755D01*
X015705Y045803D01*
X015730Y045852D01*
X015751Y045904D01*
X015768Y045956D01*
X015782Y046010D01*
X015792Y046065D01*
X015798Y046120D01*
X015800Y046175D01*
X015791Y046175D01*
X015789Y046120D01*
X015783Y046066D01*
X015773Y046012D01*
X015759Y045959D01*
X015742Y045907D01*
X015722Y045856D01*
X015697Y045807D01*
X015670Y045760D01*
X015639Y045714D01*
X015606Y045671D01*
X015569Y045630D01*
X015529Y045592D01*
X015487Y045557D01*
X015443Y045525D01*
X015397Y045496D01*
X015392Y045504D01*
X015438Y045532D01*
X015482Y045564D01*
X015523Y045599D01*
X015562Y045637D01*
X015599Y045677D01*
X015632Y045719D01*
X015662Y045764D01*
X015690Y045811D01*
X015713Y045860D01*
X015734Y045910D01*
X015751Y045961D01*
X015764Y046014D01*
X015774Y046067D01*
X015780Y046121D01*
X015782Y046175D01*
X015773Y046175D01*
X015771Y046122D01*
X015765Y046068D01*
X015755Y046016D01*
X015742Y045964D01*
X015725Y045913D01*
X015705Y045863D01*
X015682Y045815D01*
X015655Y045769D01*
X015625Y045725D01*
X015592Y045683D01*
X015556Y045643D01*
X015517Y045606D01*
X015476Y045571D01*
X015433Y045540D01*
X015388Y045511D01*
X015383Y045519D01*
X015428Y045547D01*
X015471Y045578D01*
X015511Y045612D01*
X015549Y045649D01*
X015585Y045688D01*
X015617Y045730D01*
X015647Y045774D01*
X015674Y045820D01*
X015697Y045867D01*
X015717Y045916D01*
X015734Y045966D01*
X015747Y046018D01*
X015756Y046070D01*
X015762Y046122D01*
X015764Y046175D01*
X015844Y046184D02*
X015754Y046184D01*
X015755Y046185D02*
X015753Y046239D01*
X015747Y046292D01*
X015737Y046345D01*
X015723Y046397D01*
X015706Y046448D01*
X015685Y046498D01*
X015661Y046546D01*
X015633Y046592D01*
X015602Y046636D01*
X015568Y046677D01*
X015531Y046717D01*
X015492Y046753D01*
X015549Y046821D01*
X015550Y046822D01*
X015591Y046784D01*
X015629Y046744D01*
X015665Y046701D01*
X015698Y046656D01*
X015728Y046609D01*
X015754Y046561D01*
X015778Y046510D01*
X015798Y046458D01*
X015814Y046405D01*
X015828Y046351D01*
X015837Y046296D01*
X015843Y046241D01*
X015845Y046185D01*
X015836Y046185D01*
X015834Y046240D01*
X015828Y046295D01*
X015819Y046349D01*
X015806Y046403D01*
X015789Y046455D01*
X015770Y046507D01*
X015746Y046557D01*
X015720Y046605D01*
X015690Y046651D01*
X015658Y046696D01*
X015623Y046738D01*
X015584Y046778D01*
X015544Y046815D01*
X015538Y046808D01*
X015578Y046771D01*
X015616Y046732D01*
X015651Y046690D01*
X015683Y046646D01*
X015712Y046600D01*
X015738Y046552D01*
X015761Y046503D01*
X015781Y046452D01*
X015797Y046400D01*
X015810Y046347D01*
X015819Y046294D01*
X015825Y046239D01*
X015827Y046185D01*
X015818Y046185D01*
X015816Y046239D01*
X015810Y046292D01*
X015801Y046345D01*
X015788Y046398D01*
X015772Y046449D01*
X015753Y046500D01*
X015730Y046548D01*
X015705Y046596D01*
X015676Y046641D01*
X015644Y046685D01*
X015609Y046726D01*
X015572Y046765D01*
X015532Y046801D01*
X015526Y046794D01*
X015566Y046758D01*
X015603Y046720D01*
X015637Y046679D01*
X015668Y046636D01*
X015697Y046591D01*
X015722Y046544D01*
X015745Y046496D01*
X015764Y046446D01*
X015780Y046395D01*
X015792Y046344D01*
X015801Y046291D01*
X015807Y046238D01*
X015809Y046185D01*
X015800Y046185D01*
X015798Y046238D01*
X015792Y046290D01*
X015783Y046342D01*
X015771Y046393D01*
X015755Y046443D01*
X015736Y046493D01*
X015714Y046540D01*
X015689Y046587D01*
X015661Y046631D01*
X015630Y046673D01*
X015596Y046714D01*
X015559Y046752D01*
X015521Y046787D01*
X015515Y046781D01*
X015553Y046745D01*
X015589Y046708D01*
X015623Y046668D01*
X015653Y046626D01*
X015681Y046582D01*
X015706Y046536D01*
X015728Y046489D01*
X015747Y046440D01*
X015762Y046391D01*
X015775Y046340D01*
X015783Y046289D01*
X015789Y046237D01*
X015791Y046185D01*
X015782Y046185D01*
X015780Y046241D01*
X015773Y046296D01*
X015763Y046351D01*
X015749Y046405D01*
X015731Y046458D01*
X015709Y046509D01*
X015684Y046559D01*
X015655Y046607D01*
X015623Y046652D01*
X015588Y046695D01*
X015550Y046736D01*
X015509Y046774D01*
X015503Y046767D01*
X015544Y046730D01*
X015581Y046689D01*
X015616Y046647D01*
X015648Y046602D01*
X015676Y046554D01*
X015701Y046505D01*
X015723Y046454D01*
X015740Y046402D01*
X015754Y046349D01*
X015764Y046295D01*
X015771Y046240D01*
X015773Y046185D01*
X015764Y046185D01*
X015762Y046239D01*
X015756Y046293D01*
X015746Y046347D01*
X015732Y046400D01*
X015714Y046451D01*
X015693Y046501D01*
X015668Y046550D01*
X015640Y046597D01*
X015609Y046641D01*
X015575Y046683D01*
X015537Y046723D01*
X015497Y046760D01*
X014456Y046825D02*
X014513Y046756D01*
X014513Y046757D02*
X014473Y046720D01*
X014435Y046681D01*
X014401Y046639D01*
X014369Y046595D01*
X014341Y046549D01*
X014316Y046500D01*
X014295Y046450D01*
X014277Y046399D01*
X014264Y046346D01*
X014254Y046293D01*
X014247Y046239D01*
X014245Y046185D01*
X014156Y046184D01*
X014155Y046185D01*
X014157Y046241D01*
X014163Y046297D01*
X014173Y046352D01*
X014186Y046407D01*
X014203Y046460D01*
X014223Y046513D01*
X014247Y046564D01*
X014274Y046613D01*
X014305Y046660D01*
X014338Y046705D01*
X014374Y046748D01*
X014413Y046788D01*
X014455Y046826D01*
X014461Y046819D01*
X014420Y046782D01*
X014381Y046742D01*
X014345Y046700D01*
X014312Y046655D01*
X014282Y046608D01*
X014255Y046560D01*
X014232Y046509D01*
X014211Y046457D01*
X014195Y046404D01*
X014182Y046350D01*
X014172Y046296D01*
X014166Y046241D01*
X014164Y046185D01*
X014173Y046185D01*
X014175Y046240D01*
X014181Y046295D01*
X014190Y046349D01*
X014203Y046402D01*
X014220Y046454D01*
X014240Y046506D01*
X014263Y046555D01*
X014290Y046604D01*
X014319Y046650D01*
X014352Y046694D01*
X014388Y046736D01*
X014426Y046775D01*
X014467Y046812D01*
X014472Y046805D01*
X014432Y046769D01*
X014394Y046730D01*
X014359Y046688D01*
X014327Y046645D01*
X014297Y046599D01*
X014271Y046551D01*
X014248Y046502D01*
X014228Y046452D01*
X014212Y046400D01*
X014199Y046347D01*
X014190Y046293D01*
X014184Y046239D01*
X014182Y046185D01*
X014191Y046185D01*
X014193Y046239D01*
X014199Y046292D01*
X014208Y046345D01*
X014221Y046397D01*
X014237Y046449D01*
X014256Y046499D01*
X014279Y046547D01*
X014305Y046594D01*
X014334Y046640D01*
X014366Y046683D01*
X014401Y046724D01*
X014438Y046762D01*
X014478Y046798D01*
X014484Y046791D01*
X014445Y046756D01*
X014408Y046718D01*
X014373Y046677D01*
X014342Y046634D01*
X014313Y046590D01*
X014287Y046543D01*
X014265Y046495D01*
X014245Y046446D01*
X014229Y046395D01*
X014217Y046343D01*
X014208Y046291D01*
X014202Y046238D01*
X014200Y046185D01*
X014209Y046185D01*
X014211Y046237D01*
X014217Y046290D01*
X014226Y046341D01*
X014238Y046392D01*
X014254Y046443D01*
X014273Y046492D01*
X014295Y046539D01*
X014321Y046585D01*
X014349Y046629D01*
X014380Y046671D01*
X014414Y046712D01*
X014451Y046749D01*
X014490Y046784D01*
X014496Y046778D01*
X014457Y046743D01*
X014421Y046705D01*
X014387Y046666D01*
X014356Y046624D01*
X014328Y046580D01*
X014303Y046535D01*
X014281Y046488D01*
X014262Y046440D01*
X014247Y046390D01*
X014234Y046340D01*
X014226Y046288D01*
X014220Y046237D01*
X014218Y046185D01*
X014227Y046185D01*
X014229Y046236D01*
X014234Y046287D01*
X014243Y046338D01*
X014255Y046388D01*
X014271Y046437D01*
X014289Y046484D01*
X014311Y046531D01*
X014336Y046576D01*
X014364Y046619D01*
X014394Y046660D01*
X014427Y046699D01*
X014463Y046736D01*
X014501Y046771D01*
X014507Y046764D01*
X014466Y046727D01*
X014428Y046687D01*
X014394Y046645D01*
X014362Y046600D01*
X014333Y046553D01*
X014308Y046504D01*
X014287Y046453D01*
X014269Y046402D01*
X014255Y046348D01*
X014245Y046294D01*
X014238Y046240D01*
X014236Y046185D01*
X012156Y046175D02*
X012246Y046175D01*
X012245Y046175D02*
X012247Y046121D01*
X012253Y046068D01*
X012263Y046015D01*
X012277Y045963D01*
X012294Y045912D01*
X012315Y045863D01*
X012339Y045815D01*
X012367Y045769D01*
X012398Y045725D01*
X012432Y045683D01*
X012468Y045644D01*
X012508Y045607D01*
X012550Y045574D01*
X012594Y045543D01*
X012640Y045516D01*
X012598Y045437D01*
X012549Y045465D01*
X012503Y045497D01*
X012458Y045532D01*
X012416Y045569D01*
X012376Y045610D01*
X012340Y045653D01*
X012306Y045698D01*
X012275Y045745D01*
X012248Y045795D01*
X012224Y045846D01*
X012203Y045898D01*
X012186Y045952D01*
X012173Y046007D01*
X012163Y046062D01*
X012157Y046119D01*
X012155Y046175D01*
X012164Y046175D01*
X012166Y046119D01*
X012172Y046064D01*
X012182Y046009D01*
X012195Y045954D01*
X012212Y045901D01*
X012232Y045849D01*
X012256Y045799D01*
X012283Y045750D01*
X012313Y045703D01*
X012347Y045658D01*
X012383Y045616D01*
X012422Y045576D01*
X012464Y045539D01*
X012508Y045504D01*
X012554Y045473D01*
X012602Y045445D01*
X012606Y045453D01*
X012559Y045481D01*
X012513Y045512D01*
X012470Y045546D01*
X012428Y045582D01*
X012390Y045622D01*
X012354Y045664D01*
X012321Y045708D01*
X012291Y045754D01*
X012264Y045803D01*
X012241Y045853D01*
X012220Y045904D01*
X012204Y045957D01*
X012191Y046010D01*
X012181Y046065D01*
X012175Y046120D01*
X012173Y046175D01*
X012182Y046175D01*
X012184Y046120D01*
X012190Y046066D01*
X012199Y046012D01*
X012212Y045959D01*
X012229Y045907D01*
X012249Y045856D01*
X012272Y045807D01*
X012299Y045759D01*
X012328Y045713D01*
X012361Y045669D01*
X012396Y045628D01*
X012435Y045589D01*
X012475Y045552D01*
X012518Y045519D01*
X012564Y045488D01*
X012611Y045461D01*
X012615Y045469D01*
X012568Y045496D01*
X012524Y045526D01*
X012481Y045559D01*
X012441Y045595D01*
X012403Y045634D01*
X012368Y045675D01*
X012336Y045718D01*
X012306Y045764D01*
X012280Y045811D01*
X012257Y045860D01*
X012237Y045910D01*
X012221Y045962D01*
X012208Y046014D01*
X012199Y046067D01*
X012193Y046121D01*
X012191Y046175D01*
X012200Y046175D01*
X012202Y046122D01*
X012208Y046069D01*
X012217Y046016D01*
X012230Y045964D01*
X012246Y045913D01*
X012265Y045863D01*
X012288Y045815D01*
X012314Y045768D01*
X012343Y045724D01*
X012375Y045681D01*
X012410Y045640D01*
X012447Y045602D01*
X012487Y045566D01*
X012529Y045533D01*
X012573Y045503D01*
X012619Y045476D01*
X012623Y045484D01*
X012578Y045511D01*
X012534Y045541D01*
X012493Y045573D01*
X012453Y045608D01*
X012416Y045646D01*
X012382Y045686D01*
X012350Y045729D01*
X012322Y045773D01*
X012296Y045819D01*
X012274Y045867D01*
X012254Y045916D01*
X012238Y045966D01*
X012226Y046018D01*
X012217Y046070D01*
X012211Y046122D01*
X012209Y046175D01*
X012218Y046175D01*
X012220Y046119D01*
X012227Y046064D01*
X012237Y046009D01*
X012251Y045955D01*
X012269Y045903D01*
X012290Y045851D01*
X012316Y045802D01*
X012344Y045754D01*
X012376Y045708D01*
X012411Y045665D01*
X012449Y045625D01*
X012490Y045587D01*
X012534Y045552D01*
X012580Y045521D01*
X012628Y045492D01*
X012632Y045500D01*
X012584Y045528D01*
X012539Y045559D01*
X012496Y045594D01*
X012456Y045631D01*
X012418Y045671D01*
X012383Y045714D01*
X012352Y045759D01*
X012323Y045806D01*
X012299Y045855D01*
X012277Y045906D01*
X012260Y045958D01*
X012246Y046011D01*
X012236Y046065D01*
X012229Y046120D01*
X012227Y046175D01*
X012236Y046175D01*
X012238Y046121D01*
X012244Y046067D01*
X012254Y046013D01*
X012268Y045961D01*
X012286Y045909D01*
X012307Y045859D01*
X012331Y045810D01*
X012359Y045764D01*
X012391Y045719D01*
X012425Y045677D01*
X012462Y045638D01*
X012502Y045601D01*
X012544Y045567D01*
X012589Y045536D01*
X012636Y045508D01*
X013423Y045449D02*
X013378Y045527D01*
X013379Y045527D02*
X013423Y045555D01*
X013465Y045586D01*
X013505Y045619D01*
X013543Y045655D01*
X013578Y045694D01*
X013610Y045735D01*
X013640Y045779D01*
X013666Y045824D01*
X013689Y045871D01*
X013709Y045919D01*
X013725Y045969D01*
X013738Y046019D01*
X013747Y046071D01*
X013753Y046123D01*
X013755Y046175D01*
X013844Y046176D01*
X013845Y046175D01*
X013843Y046120D01*
X013837Y046066D01*
X013828Y046011D01*
X013815Y045958D01*
X013799Y045906D01*
X013780Y045854D01*
X013757Y045804D01*
X013731Y045756D01*
X013702Y045709D01*
X013670Y045665D01*
X013635Y045622D01*
X013597Y045582D01*
X013557Y045545D01*
X013515Y045510D01*
X013470Y045478D01*
X013424Y045449D01*
X013419Y045457D01*
X013465Y045485D01*
X013509Y045517D01*
X013551Y045552D01*
X013591Y045589D01*
X013628Y045628D01*
X013663Y045670D01*
X013694Y045714D01*
X013723Y045760D01*
X013749Y045808D01*
X013771Y045858D01*
X013791Y045908D01*
X013807Y045960D01*
X013819Y046013D01*
X013828Y046067D01*
X013834Y046121D01*
X013836Y046175D01*
X013827Y046175D01*
X013825Y046121D01*
X013819Y046068D01*
X013810Y046015D01*
X013798Y045963D01*
X013782Y045911D01*
X013763Y045861D01*
X013741Y045812D01*
X013715Y045765D01*
X013687Y045719D01*
X013655Y045676D01*
X013621Y045634D01*
X013585Y045595D01*
X013545Y045558D01*
X013504Y045524D01*
X013460Y045493D01*
X013415Y045464D01*
X013410Y045472D01*
X013458Y045502D01*
X013504Y045536D01*
X013547Y045572D01*
X013588Y045612D01*
X013626Y045654D01*
X013661Y045698D01*
X013693Y045745D01*
X013721Y045794D01*
X013746Y045845D01*
X013768Y045898D01*
X013785Y045951D01*
X013799Y046006D01*
X013809Y046062D01*
X013816Y046118D01*
X013818Y046175D01*
X013809Y046175D01*
X013807Y046119D01*
X013801Y046063D01*
X013791Y046008D01*
X013777Y045954D01*
X013759Y045901D01*
X013738Y045849D01*
X013713Y045798D01*
X013685Y045750D01*
X013654Y045704D01*
X013619Y045659D01*
X013582Y045618D01*
X013541Y045579D01*
X013499Y045543D01*
X013453Y045510D01*
X013406Y045480D01*
X013401Y045488D01*
X013448Y045517D01*
X013493Y045550D01*
X013535Y045586D01*
X013575Y045624D01*
X013612Y045665D01*
X013647Y045709D01*
X013678Y045755D01*
X013705Y045803D01*
X013730Y045852D01*
X013751Y045904D01*
X013768Y045956D01*
X013782Y046010D01*
X013792Y046065D01*
X013798Y046120D01*
X013800Y046175D01*
X013791Y046175D01*
X013789Y046120D01*
X013783Y046066D01*
X013773Y046012D01*
X013759Y045959D01*
X013742Y045907D01*
X013722Y045856D01*
X013697Y045807D01*
X013670Y045760D01*
X013639Y045714D01*
X013606Y045671D01*
X013569Y045630D01*
X013529Y045592D01*
X013487Y045557D01*
X013443Y045525D01*
X013397Y045496D01*
X013392Y045504D01*
X013438Y045532D01*
X013482Y045564D01*
X013523Y045599D01*
X013562Y045637D01*
X013599Y045677D01*
X013632Y045719D01*
X013662Y045764D01*
X013690Y045811D01*
X013713Y045860D01*
X013734Y045910D01*
X013751Y045961D01*
X013764Y046014D01*
X013774Y046067D01*
X013780Y046121D01*
X013782Y046175D01*
X013773Y046175D01*
X013771Y046122D01*
X013765Y046068D01*
X013755Y046016D01*
X013742Y045964D01*
X013725Y045913D01*
X013705Y045863D01*
X013682Y045815D01*
X013655Y045769D01*
X013625Y045725D01*
X013592Y045683D01*
X013556Y045643D01*
X013517Y045606D01*
X013476Y045571D01*
X013433Y045540D01*
X013388Y045511D01*
X013383Y045519D01*
X013428Y045547D01*
X013471Y045578D01*
X013511Y045612D01*
X013549Y045649D01*
X013585Y045688D01*
X013617Y045730D01*
X013647Y045774D01*
X013674Y045820D01*
X013697Y045867D01*
X013717Y045916D01*
X013734Y045966D01*
X013747Y046018D01*
X013756Y046070D01*
X013762Y046122D01*
X013764Y046175D01*
X013844Y046184D02*
X013754Y046184D01*
X013755Y046185D02*
X013753Y046239D01*
X013747Y046292D01*
X013737Y046345D01*
X013723Y046397D01*
X013706Y046448D01*
X013685Y046498D01*
X013661Y046546D01*
X013633Y046592D01*
X013602Y046636D01*
X013568Y046677D01*
X013531Y046717D01*
X013492Y046753D01*
X013549Y046821D01*
X013550Y046822D01*
X013591Y046784D01*
X013629Y046744D01*
X013665Y046701D01*
X013698Y046656D01*
X013728Y046609D01*
X013754Y046561D01*
X013778Y046510D01*
X013798Y046458D01*
X013814Y046405D01*
X013828Y046351D01*
X013837Y046296D01*
X013843Y046241D01*
X013845Y046185D01*
X013836Y046185D01*
X013834Y046240D01*
X013828Y046295D01*
X013819Y046349D01*
X013806Y046403D01*
X013789Y046455D01*
X013770Y046507D01*
X013746Y046557D01*
X013720Y046605D01*
X013690Y046651D01*
X013658Y046696D01*
X013623Y046738D01*
X013584Y046778D01*
X013544Y046815D01*
X013538Y046808D01*
X013578Y046771D01*
X013616Y046732D01*
X013651Y046690D01*
X013683Y046646D01*
X013712Y046600D01*
X013738Y046552D01*
X013761Y046503D01*
X013781Y046452D01*
X013797Y046400D01*
X013810Y046347D01*
X013819Y046294D01*
X013825Y046239D01*
X013827Y046185D01*
X013818Y046185D01*
X013816Y046239D01*
X013810Y046292D01*
X013801Y046345D01*
X013788Y046398D01*
X013772Y046449D01*
X013753Y046500D01*
X013730Y046548D01*
X013705Y046596D01*
X013676Y046641D01*
X013644Y046685D01*
X013609Y046726D01*
X013572Y046765D01*
X013532Y046801D01*
X013526Y046794D01*
X013566Y046758D01*
X013603Y046720D01*
X013637Y046679D01*
X013668Y046636D01*
X013697Y046591D01*
X013722Y046544D01*
X013745Y046496D01*
X013764Y046446D01*
X013780Y046395D01*
X013792Y046344D01*
X013801Y046291D01*
X013807Y046238D01*
X013809Y046185D01*
X013800Y046185D01*
X013798Y046238D01*
X013792Y046290D01*
X013783Y046342D01*
X013771Y046393D01*
X013755Y046443D01*
X013736Y046493D01*
X013714Y046540D01*
X013689Y046587D01*
X013661Y046631D01*
X013630Y046673D01*
X013596Y046714D01*
X013559Y046752D01*
X013521Y046787D01*
X013515Y046781D01*
X013553Y046745D01*
X013589Y046708D01*
X013623Y046668D01*
X013653Y046626D01*
X013681Y046582D01*
X013706Y046536D01*
X013728Y046489D01*
X013747Y046440D01*
X013762Y046391D01*
X013775Y046340D01*
X013783Y046289D01*
X013789Y046237D01*
X013791Y046185D01*
X013782Y046185D01*
X013780Y046241D01*
X013773Y046296D01*
X013763Y046351D01*
X013749Y046405D01*
X013731Y046458D01*
X013709Y046509D01*
X013684Y046559D01*
X013655Y046607D01*
X013623Y046652D01*
X013588Y046695D01*
X013550Y046736D01*
X013509Y046774D01*
X013503Y046767D01*
X013544Y046730D01*
X013581Y046689D01*
X013616Y046647D01*
X013648Y046602D01*
X013676Y046554D01*
X013701Y046505D01*
X013723Y046454D01*
X013740Y046402D01*
X013754Y046349D01*
X013764Y046295D01*
X013771Y046240D01*
X013773Y046185D01*
X013764Y046185D01*
X013762Y046239D01*
X013756Y046293D01*
X013746Y046347D01*
X013732Y046400D01*
X013714Y046451D01*
X013693Y046501D01*
X013668Y046550D01*
X013640Y046597D01*
X013609Y046641D01*
X013575Y046683D01*
X013537Y046723D01*
X013497Y046760D01*
X012456Y046825D02*
X012513Y046756D01*
X012513Y046757D02*
X012473Y046720D01*
X012435Y046681D01*
X012401Y046639D01*
X012369Y046595D01*
X012341Y046549D01*
X012316Y046500D01*
X012295Y046450D01*
X012277Y046399D01*
X012264Y046346D01*
X012254Y046293D01*
X012247Y046239D01*
X012245Y046185D01*
X012156Y046184D01*
X012155Y046185D01*
X012157Y046241D01*
X012163Y046297D01*
X012173Y046352D01*
X012186Y046407D01*
X012203Y046460D01*
X012223Y046513D01*
X012247Y046564D01*
X012274Y046613D01*
X012305Y046660D01*
X012338Y046705D01*
X012374Y046748D01*
X012413Y046788D01*
X012455Y046826D01*
X012461Y046819D01*
X012420Y046782D01*
X012381Y046742D01*
X012345Y046700D01*
X012312Y046655D01*
X012282Y046608D01*
X012255Y046560D01*
X012232Y046509D01*
X012211Y046457D01*
X012195Y046404D01*
X012182Y046350D01*
X012172Y046296D01*
X012166Y046241D01*
X012164Y046185D01*
X012173Y046185D01*
X012175Y046240D01*
X012181Y046295D01*
X012190Y046349D01*
X012203Y046402D01*
X012220Y046454D01*
X012240Y046506D01*
X012263Y046555D01*
X012290Y046604D01*
X012319Y046650D01*
X012352Y046694D01*
X012388Y046736D01*
X012426Y046775D01*
X012467Y046812D01*
X012472Y046805D01*
X012432Y046769D01*
X012394Y046730D01*
X012359Y046688D01*
X012327Y046645D01*
X012297Y046599D01*
X012271Y046551D01*
X012248Y046502D01*
X012228Y046452D01*
X012212Y046400D01*
X012199Y046347D01*
X012190Y046293D01*
X012184Y046239D01*
X012182Y046185D01*
X012191Y046185D01*
X012193Y046239D01*
X012199Y046292D01*
X012208Y046345D01*
X012221Y046397D01*
X012237Y046449D01*
X012256Y046499D01*
X012279Y046547D01*
X012305Y046594D01*
X012334Y046640D01*
X012366Y046683D01*
X012401Y046724D01*
X012438Y046762D01*
X012478Y046798D01*
X012484Y046791D01*
X012445Y046756D01*
X012408Y046718D01*
X012373Y046677D01*
X012342Y046634D01*
X012313Y046590D01*
X012287Y046543D01*
X012265Y046495D01*
X012245Y046446D01*
X012229Y046395D01*
X012217Y046343D01*
X012208Y046291D01*
X012202Y046238D01*
X012200Y046185D01*
X012209Y046185D01*
X012211Y046237D01*
X012217Y046290D01*
X012226Y046341D01*
X012238Y046392D01*
X012254Y046443D01*
X012273Y046492D01*
X012295Y046539D01*
X012321Y046585D01*
X012349Y046629D01*
X012380Y046671D01*
X012414Y046712D01*
X012451Y046749D01*
X012490Y046784D01*
X012496Y046778D01*
X012457Y046743D01*
X012421Y046705D01*
X012387Y046666D01*
X012356Y046624D01*
X012328Y046580D01*
X012303Y046535D01*
X012281Y046488D01*
X012262Y046440D01*
X012247Y046390D01*
X012234Y046340D01*
X012226Y046288D01*
X012220Y046237D01*
X012218Y046185D01*
X012227Y046185D01*
X012229Y046236D01*
X012234Y046287D01*
X012243Y046338D01*
X012255Y046388D01*
X012271Y046437D01*
X012289Y046484D01*
X012311Y046531D01*
X012336Y046576D01*
X012364Y046619D01*
X012394Y046660D01*
X012427Y046699D01*
X012463Y046736D01*
X012501Y046771D01*
X012507Y046764D01*
X012466Y046727D01*
X012428Y046687D01*
X012394Y046645D01*
X012362Y046600D01*
X012333Y046553D01*
X012308Y046504D01*
X012287Y046453D01*
X012269Y046402D01*
X012255Y046348D01*
X012245Y046294D01*
X012238Y046240D01*
X012236Y046185D01*
X010156Y046175D02*
X010246Y046175D01*
X010245Y046175D02*
X010247Y046121D01*
X010253Y046068D01*
X010263Y046015D01*
X010277Y045963D01*
X010294Y045912D01*
X010315Y045863D01*
X010339Y045815D01*
X010367Y045769D01*
X010398Y045725D01*
X010432Y045683D01*
X010468Y045644D01*
X010508Y045607D01*
X010550Y045574D01*
X010594Y045543D01*
X010640Y045516D01*
X010598Y045437D01*
X010549Y045465D01*
X010503Y045497D01*
X010458Y045532D01*
X010416Y045569D01*
X010376Y045610D01*
X010340Y045653D01*
X010306Y045698D01*
X010275Y045745D01*
X010248Y045795D01*
X010224Y045846D01*
X010203Y045898D01*
X010186Y045952D01*
X010173Y046007D01*
X010163Y046062D01*
X010157Y046119D01*
X010155Y046175D01*
X010164Y046175D01*
X010166Y046119D01*
X010172Y046064D01*
X010182Y046009D01*
X010195Y045954D01*
X010212Y045901D01*
X010232Y045849D01*
X010256Y045799D01*
X010283Y045750D01*
X010313Y045703D01*
X010347Y045658D01*
X010383Y045616D01*
X010422Y045576D01*
X010464Y045539D01*
X010508Y045504D01*
X010554Y045473D01*
X010602Y045445D01*
X010606Y045453D01*
X010559Y045481D01*
X010513Y045512D01*
X010470Y045546D01*
X010428Y045582D01*
X010390Y045622D01*
X010354Y045664D01*
X010321Y045708D01*
X010291Y045754D01*
X010264Y045803D01*
X010241Y045853D01*
X010220Y045904D01*
X010204Y045957D01*
X010191Y046010D01*
X010181Y046065D01*
X010175Y046120D01*
X010173Y046175D01*
X010182Y046175D01*
X010184Y046120D01*
X010190Y046066D01*
X010199Y046012D01*
X010212Y045959D01*
X010229Y045907D01*
X010249Y045856D01*
X010272Y045807D01*
X010299Y045759D01*
X010328Y045713D01*
X010361Y045669D01*
X010396Y045628D01*
X010435Y045589D01*
X010475Y045552D01*
X010518Y045519D01*
X010564Y045488D01*
X010611Y045461D01*
X010615Y045469D01*
X010568Y045496D01*
X010524Y045526D01*
X010481Y045559D01*
X010441Y045595D01*
X010403Y045634D01*
X010368Y045675D01*
X010336Y045718D01*
X010306Y045764D01*
X010280Y045811D01*
X010257Y045860D01*
X010237Y045910D01*
X010221Y045962D01*
X010208Y046014D01*
X010199Y046067D01*
X010193Y046121D01*
X010191Y046175D01*
X010200Y046175D01*
X010202Y046122D01*
X010208Y046069D01*
X010217Y046016D01*
X010230Y045964D01*
X010246Y045913D01*
X010265Y045863D01*
X010288Y045815D01*
X010314Y045768D01*
X010343Y045724D01*
X010375Y045681D01*
X010410Y045640D01*
X010447Y045602D01*
X010487Y045566D01*
X010529Y045533D01*
X010573Y045503D01*
X010619Y045476D01*
X010623Y045484D01*
X010578Y045511D01*
X010534Y045541D01*
X010493Y045573D01*
X010453Y045608D01*
X010416Y045646D01*
X010382Y045686D01*
X010350Y045729D01*
X010322Y045773D01*
X010296Y045819D01*
X010274Y045867D01*
X010254Y045916D01*
X010238Y045966D01*
X010226Y046018D01*
X010217Y046070D01*
X010211Y046122D01*
X010209Y046175D01*
X010218Y046175D01*
X010220Y046119D01*
X010227Y046064D01*
X010237Y046009D01*
X010251Y045955D01*
X010269Y045903D01*
X010290Y045851D01*
X010316Y045802D01*
X010344Y045754D01*
X010376Y045708D01*
X010411Y045665D01*
X010449Y045625D01*
X010490Y045587D01*
X010534Y045552D01*
X010580Y045521D01*
X010628Y045492D01*
X010632Y045500D01*
X010584Y045528D01*
X010539Y045559D01*
X010496Y045594D01*
X010456Y045631D01*
X010418Y045671D01*
X010383Y045714D01*
X010352Y045759D01*
X010323Y045806D01*
X010299Y045855D01*
X010277Y045906D01*
X010260Y045958D01*
X010246Y046011D01*
X010236Y046065D01*
X010229Y046120D01*
X010227Y046175D01*
X010236Y046175D01*
X010238Y046121D01*
X010244Y046067D01*
X010254Y046013D01*
X010268Y045961D01*
X010286Y045909D01*
X010307Y045859D01*
X010331Y045810D01*
X010359Y045764D01*
X010391Y045719D01*
X010425Y045677D01*
X010462Y045638D01*
X010502Y045601D01*
X010544Y045567D01*
X010589Y045536D01*
X010636Y045508D01*
X011423Y045449D02*
X011378Y045527D01*
X011379Y045527D02*
X011423Y045555D01*
X011465Y045586D01*
X011505Y045619D01*
X011543Y045655D01*
X011578Y045694D01*
X011610Y045735D01*
X011640Y045779D01*
X011666Y045824D01*
X011689Y045871D01*
X011709Y045919D01*
X011725Y045969D01*
X011738Y046019D01*
X011747Y046071D01*
X011753Y046123D01*
X011755Y046175D01*
X011844Y046176D01*
X011845Y046175D01*
X011843Y046120D01*
X011837Y046066D01*
X011828Y046011D01*
X011815Y045958D01*
X011799Y045906D01*
X011780Y045854D01*
X011757Y045804D01*
X011731Y045756D01*
X011702Y045709D01*
X011670Y045665D01*
X011635Y045622D01*
X011597Y045582D01*
X011557Y045545D01*
X011515Y045510D01*
X011470Y045478D01*
X011424Y045449D01*
X011419Y045457D01*
X011465Y045485D01*
X011509Y045517D01*
X011551Y045552D01*
X011591Y045589D01*
X011628Y045628D01*
X011663Y045670D01*
X011694Y045714D01*
X011723Y045760D01*
X011749Y045808D01*
X011771Y045858D01*
X011791Y045908D01*
X011807Y045960D01*
X011819Y046013D01*
X011828Y046067D01*
X011834Y046121D01*
X011836Y046175D01*
X011827Y046175D01*
X011825Y046121D01*
X011819Y046068D01*
X011810Y046015D01*
X011798Y045963D01*
X011782Y045911D01*
X011763Y045861D01*
X011741Y045812D01*
X011715Y045765D01*
X011687Y045719D01*
X011655Y045676D01*
X011621Y045634D01*
X011585Y045595D01*
X011545Y045558D01*
X011504Y045524D01*
X011460Y045493D01*
X011415Y045464D01*
X011410Y045472D01*
X011458Y045502D01*
X011504Y045536D01*
X011547Y045572D01*
X011588Y045612D01*
X011626Y045654D01*
X011661Y045698D01*
X011693Y045745D01*
X011721Y045794D01*
X011746Y045845D01*
X011768Y045898D01*
X011785Y045951D01*
X011799Y046006D01*
X011809Y046062D01*
X011816Y046118D01*
X011818Y046175D01*
X011809Y046175D01*
X011807Y046119D01*
X011801Y046063D01*
X011791Y046008D01*
X011777Y045954D01*
X011759Y045901D01*
X011738Y045849D01*
X011713Y045798D01*
X011685Y045750D01*
X011654Y045704D01*
X011619Y045659D01*
X011582Y045618D01*
X011541Y045579D01*
X011499Y045543D01*
X011453Y045510D01*
X011406Y045480D01*
X011401Y045488D01*
X011448Y045517D01*
X011493Y045550D01*
X011535Y045586D01*
X011575Y045624D01*
X011612Y045665D01*
X011647Y045709D01*
X011678Y045755D01*
X011705Y045803D01*
X011730Y045852D01*
X011751Y045904D01*
X011768Y045956D01*
X011782Y046010D01*
X011792Y046065D01*
X011798Y046120D01*
X011800Y046175D01*
X011791Y046175D01*
X011789Y046120D01*
X011783Y046066D01*
X011773Y046012D01*
X011759Y045959D01*
X011742Y045907D01*
X011722Y045856D01*
X011697Y045807D01*
X011670Y045760D01*
X011639Y045714D01*
X011606Y045671D01*
X011569Y045630D01*
X011529Y045592D01*
X011487Y045557D01*
X011443Y045525D01*
X011397Y045496D01*
X011392Y045504D01*
X011438Y045532D01*
X011482Y045564D01*
X011523Y045599D01*
X011562Y045637D01*
X011599Y045677D01*
X011632Y045719D01*
X011662Y045764D01*
X011690Y045811D01*
X011713Y045860D01*
X011734Y045910D01*
X011751Y045961D01*
X011764Y046014D01*
X011774Y046067D01*
X011780Y046121D01*
X011782Y046175D01*
X011773Y046175D01*
X011771Y046122D01*
X011765Y046068D01*
X011755Y046016D01*
X011742Y045964D01*
X011725Y045913D01*
X011705Y045863D01*
X011682Y045815D01*
X011655Y045769D01*
X011625Y045725D01*
X011592Y045683D01*
X011556Y045643D01*
X011517Y045606D01*
X011476Y045571D01*
X011433Y045540D01*
X011388Y045511D01*
X011383Y045519D01*
X011428Y045547D01*
X011471Y045578D01*
X011511Y045612D01*
X011549Y045649D01*
X011585Y045688D01*
X011617Y045730D01*
X011647Y045774D01*
X011674Y045820D01*
X011697Y045867D01*
X011717Y045916D01*
X011734Y045966D01*
X011747Y046018D01*
X011756Y046070D01*
X011762Y046122D01*
X011764Y046175D01*
X011844Y046184D02*
X011754Y046184D01*
X011755Y046185D02*
X011753Y046239D01*
X011747Y046292D01*
X011737Y046345D01*
X011723Y046397D01*
X011706Y046448D01*
X011685Y046498D01*
X011661Y046546D01*
X011633Y046592D01*
X011602Y046636D01*
X011568Y046677D01*
X011531Y046717D01*
X011492Y046753D01*
X011549Y046821D01*
X011550Y046822D01*
X011591Y046784D01*
X011629Y046744D01*
X011665Y046701D01*
X011698Y046656D01*
X011728Y046609D01*
X011754Y046561D01*
X011778Y046510D01*
X011798Y046458D01*
X011814Y046405D01*
X011828Y046351D01*
X011837Y046296D01*
X011843Y046241D01*
X011845Y046185D01*
X011836Y046185D01*
X011834Y046240D01*
X011828Y046295D01*
X011819Y046349D01*
X011806Y046403D01*
X011789Y046455D01*
X011770Y046507D01*
X011746Y046557D01*
X011720Y046605D01*
X011690Y046651D01*
X011658Y046696D01*
X011623Y046738D01*
X011584Y046778D01*
X011544Y046815D01*
X011538Y046808D01*
X011578Y046771D01*
X011616Y046732D01*
X011651Y046690D01*
X011683Y046646D01*
X011712Y046600D01*
X011738Y046552D01*
X011761Y046503D01*
X011781Y046452D01*
X011797Y046400D01*
X011810Y046347D01*
X011819Y046294D01*
X011825Y046239D01*
X011827Y046185D01*
X011818Y046185D01*
X011816Y046239D01*
X011810Y046292D01*
X011801Y046345D01*
X011788Y046398D01*
X011772Y046449D01*
X011753Y046500D01*
X011730Y046548D01*
X011705Y046596D01*
X011676Y046641D01*
X011644Y046685D01*
X011609Y046726D01*
X011572Y046765D01*
X011532Y046801D01*
X011526Y046794D01*
X011566Y046758D01*
X011603Y046720D01*
X011637Y046679D01*
X011668Y046636D01*
X011697Y046591D01*
X011722Y046544D01*
X011745Y046496D01*
X011764Y046446D01*
X011780Y046395D01*
X011792Y046344D01*
X011801Y046291D01*
X011807Y046238D01*
X011809Y046185D01*
X011800Y046185D01*
X011798Y046238D01*
X011792Y046290D01*
X011783Y046342D01*
X011771Y046393D01*
X011755Y046443D01*
X011736Y046493D01*
X011714Y046540D01*
X011689Y046587D01*
X011661Y046631D01*
X011630Y046673D01*
X011596Y046714D01*
X011559Y046752D01*
X011521Y046787D01*
X011515Y046781D01*
X011553Y046745D01*
X011589Y046708D01*
X011623Y046668D01*
X011653Y046626D01*
X011681Y046582D01*
X011706Y046536D01*
X011728Y046489D01*
X011747Y046440D01*
X011762Y046391D01*
X011775Y046340D01*
X011783Y046289D01*
X011789Y046237D01*
X011791Y046185D01*
X011782Y046185D01*
X011780Y046241D01*
X011773Y046296D01*
X011763Y046351D01*
X011749Y046405D01*
X011731Y046458D01*
X011709Y046509D01*
X011684Y046559D01*
X011655Y046607D01*
X011623Y046652D01*
X011588Y046695D01*
X011550Y046736D01*
X011509Y046774D01*
X011503Y046767D01*
X011544Y046730D01*
X011581Y046689D01*
X011616Y046647D01*
X011648Y046602D01*
X011676Y046554D01*
X011701Y046505D01*
X011723Y046454D01*
X011740Y046402D01*
X011754Y046349D01*
X011764Y046295D01*
X011771Y046240D01*
X011773Y046185D01*
X011764Y046185D01*
X011762Y046239D01*
X011756Y046293D01*
X011746Y046347D01*
X011732Y046400D01*
X011714Y046451D01*
X011693Y046501D01*
X011668Y046550D01*
X011640Y046597D01*
X011609Y046641D01*
X011575Y046683D01*
X011537Y046723D01*
X011497Y046760D01*
X010456Y046825D02*
X010513Y046756D01*
X010513Y046757D02*
X010473Y046720D01*
X010435Y046681D01*
X010401Y046639D01*
X010369Y046595D01*
X010341Y046549D01*
X010316Y046500D01*
X010295Y046450D01*
X010277Y046399D01*
X010264Y046346D01*
X010254Y046293D01*
X010247Y046239D01*
X010245Y046185D01*
X010156Y046184D01*
X010155Y046185D01*
X010157Y046241D01*
X010163Y046297D01*
X010173Y046352D01*
X010186Y046407D01*
X010203Y046460D01*
X010223Y046513D01*
X010247Y046564D01*
X010274Y046613D01*
X010305Y046660D01*
X010338Y046705D01*
X010374Y046748D01*
X010413Y046788D01*
X010455Y046826D01*
X010461Y046819D01*
X010420Y046782D01*
X010381Y046742D01*
X010345Y046700D01*
X010312Y046655D01*
X010282Y046608D01*
X010255Y046560D01*
X010232Y046509D01*
X010211Y046457D01*
X010195Y046404D01*
X010182Y046350D01*
X010172Y046296D01*
X010166Y046241D01*
X010164Y046185D01*
X010173Y046185D01*
X010175Y046240D01*
X010181Y046295D01*
X010190Y046349D01*
X010203Y046402D01*
X010220Y046454D01*
X010240Y046506D01*
X010263Y046555D01*
X010290Y046604D01*
X010319Y046650D01*
X010352Y046694D01*
X010388Y046736D01*
X010426Y046775D01*
X010467Y046812D01*
X010472Y046805D01*
X010432Y046769D01*
X010394Y046730D01*
X010359Y046688D01*
X010327Y046645D01*
X010297Y046599D01*
X010271Y046551D01*
X010248Y046502D01*
X010228Y046452D01*
X010212Y046400D01*
X010199Y046347D01*
X010190Y046293D01*
X010184Y046239D01*
X010182Y046185D01*
X010191Y046185D01*
X010193Y046239D01*
X010199Y046292D01*
X010208Y046345D01*
X010221Y046397D01*
X010237Y046449D01*
X010256Y046499D01*
X010279Y046547D01*
X010305Y046594D01*
X010334Y046640D01*
X010366Y046683D01*
X010401Y046724D01*
X010438Y046762D01*
X010478Y046798D01*
X010484Y046791D01*
X010445Y046756D01*
X010408Y046718D01*
X010373Y046677D01*
X010342Y046634D01*
X010313Y046590D01*
X010287Y046543D01*
X010265Y046495D01*
X010245Y046446D01*
X010229Y046395D01*
X010217Y046343D01*
X010208Y046291D01*
X010202Y046238D01*
X010200Y046185D01*
X010209Y046185D01*
X010211Y046237D01*
X010217Y046290D01*
X010226Y046341D01*
X010238Y046392D01*
X010254Y046443D01*
X010273Y046492D01*
X010295Y046539D01*
X010321Y046585D01*
X010349Y046629D01*
X010380Y046671D01*
X010414Y046712D01*
X010451Y046749D01*
X010490Y046784D01*
X010496Y046778D01*
X010457Y046743D01*
X010421Y046705D01*
X010387Y046666D01*
X010356Y046624D01*
X010328Y046580D01*
X010303Y046535D01*
X010281Y046488D01*
X010262Y046440D01*
X010247Y046390D01*
X010234Y046340D01*
X010226Y046288D01*
X010220Y046237D01*
X010218Y046185D01*
X010227Y046185D01*
X010229Y046236D01*
X010234Y046287D01*
X010243Y046338D01*
X010255Y046388D01*
X010271Y046437D01*
X010289Y046484D01*
X010311Y046531D01*
X010336Y046576D01*
X010364Y046619D01*
X010394Y046660D01*
X010427Y046699D01*
X010463Y046736D01*
X010501Y046771D01*
X010507Y046764D01*
X010466Y046727D01*
X010428Y046687D01*
X010394Y046645D01*
X010362Y046600D01*
X010333Y046553D01*
X010308Y046504D01*
X010287Y046453D01*
X010269Y046402D01*
X010255Y046348D01*
X010245Y046294D01*
X010238Y046240D01*
X010236Y046185D01*
D14*
X007047Y038582D02*
X002953Y038582D01*
X002953Y036278D01*
X007047Y036278D01*
X007047Y038582D01*
X003156Y036662D02*
X003158Y036688D01*
X003164Y036714D01*
X003173Y036739D01*
X003186Y036762D01*
X003202Y036783D01*
X003221Y036801D01*
X003243Y036817D01*
X003266Y036829D01*
X003291Y036837D01*
X003317Y036842D01*
X003344Y036843D01*
X003370Y036840D01*
X003395Y036833D01*
X003420Y036823D01*
X003442Y036809D01*
X003463Y036792D01*
X003480Y036773D01*
X003495Y036751D01*
X003506Y036727D01*
X003514Y036701D01*
X003518Y036675D01*
X003518Y036649D01*
X003514Y036623D01*
X003506Y036597D01*
X003495Y036573D01*
X003480Y036551D01*
X003463Y036532D01*
X003442Y036515D01*
X003420Y036501D01*
X003395Y036491D01*
X003370Y036484D01*
X003344Y036481D01*
X003317Y036482D01*
X003291Y036487D01*
X003266Y036495D01*
X003243Y036507D01*
X003221Y036523D01*
X003202Y036541D01*
X003186Y036562D01*
X003173Y036585D01*
X003164Y036610D01*
X003158Y036636D01*
X003156Y036662D01*
X003300Y030980D02*
X002700Y030980D01*
X002700Y030880D01*
X002600Y030880D01*
X003300Y030880D02*
X003400Y030880D01*
X003300Y030880D02*
X003300Y030980D01*
X004200Y030530D02*
X004200Y030130D01*
X004200Y029180D01*
X004200Y028830D01*
X003400Y028480D02*
X003300Y028480D01*
X003300Y028380D01*
X002700Y028380D01*
X002700Y028480D01*
X002600Y028480D01*
X001800Y028830D02*
X001800Y029180D01*
X001800Y030180D01*
X001800Y030530D01*
X002900Y029680D02*
X002902Y029700D01*
X002908Y029718D01*
X002917Y029736D01*
X002929Y029751D01*
X002944Y029763D01*
X002962Y029772D01*
X002980Y029778D01*
X003000Y029780D01*
X003020Y029778D01*
X003038Y029772D01*
X003056Y029763D01*
X003071Y029751D01*
X003083Y029736D01*
X003092Y029718D01*
X003098Y029700D01*
X003100Y029680D01*
X003098Y029660D01*
X003092Y029642D01*
X003083Y029624D01*
X003071Y029609D01*
X003056Y029597D01*
X003038Y029588D01*
X003020Y029582D01*
X003000Y029580D01*
X002980Y029582D01*
X002962Y029588D01*
X002944Y029597D01*
X002929Y029609D01*
X002917Y029624D01*
X002908Y029642D01*
X002902Y029660D01*
X002900Y029680D01*
X002300Y029680D02*
X002302Y029732D01*
X002308Y029784D01*
X002318Y029836D01*
X002331Y029886D01*
X002348Y029936D01*
X002369Y029984D01*
X002394Y030030D01*
X002422Y030074D01*
X002453Y030116D01*
X002487Y030156D01*
X002524Y030193D01*
X002564Y030227D01*
X002606Y030258D01*
X002650Y030286D01*
X002696Y030311D01*
X002744Y030332D01*
X002794Y030349D01*
X002844Y030362D01*
X002896Y030372D01*
X002948Y030378D01*
X003000Y030380D01*
X003052Y030378D01*
X003104Y030372D01*
X003156Y030362D01*
X003206Y030349D01*
X003256Y030332D01*
X003304Y030311D01*
X003350Y030286D01*
X003394Y030258D01*
X003436Y030227D01*
X003476Y030193D01*
X003513Y030156D01*
X003547Y030116D01*
X003578Y030074D01*
X003606Y030030D01*
X003631Y029984D01*
X003652Y029936D01*
X003669Y029886D01*
X003682Y029836D01*
X003692Y029784D01*
X003698Y029732D01*
X003700Y029680D01*
X003698Y029628D01*
X003692Y029576D01*
X003682Y029524D01*
X003669Y029474D01*
X003652Y029424D01*
X003631Y029376D01*
X003606Y029330D01*
X003578Y029286D01*
X003547Y029244D01*
X003513Y029204D01*
X003476Y029167D01*
X003436Y029133D01*
X003394Y029102D01*
X003350Y029074D01*
X003304Y029049D01*
X003256Y029028D01*
X003206Y029011D01*
X003156Y028998D01*
X003104Y028988D01*
X003052Y028982D01*
X003000Y028980D01*
X002948Y028982D01*
X002896Y028988D01*
X002844Y028998D01*
X002794Y029011D01*
X002744Y029028D01*
X002696Y029049D01*
X002650Y029074D01*
X002606Y029102D01*
X002564Y029133D01*
X002524Y029167D01*
X002487Y029204D01*
X002453Y029244D01*
X002422Y029286D01*
X002394Y029330D01*
X002369Y029376D01*
X002348Y029424D01*
X002331Y029474D01*
X002318Y029524D01*
X002308Y029576D01*
X002302Y029628D01*
X002300Y029680D01*
D15*
X001900Y030180D02*
X001900Y029180D01*
X001800Y029180D01*
X001800Y030180D02*
X001900Y030180D01*
X004100Y030130D02*
X004100Y029180D01*
X004200Y029180D01*
X004200Y030130D02*
X004100Y030130D01*
D16*
X032500Y046680D03*
X032500Y049180D03*
D17*
X047463Y008680D03*
D18*
X049625Y008680D03*
D19*
X016300Y020680D02*
X016300Y023680D01*
X016300Y040180D01*
X010000Y040180D01*
X010000Y023680D01*
X010000Y020680D01*
X011150Y020680D01*
X011150Y023680D01*
X012150Y023680D01*
X012150Y020680D01*
X013150Y020680D01*
X013150Y023680D01*
X014150Y023680D01*
X014150Y020680D01*
X015150Y020680D01*
X015150Y023680D01*
X016300Y023680D01*
X015150Y023680D02*
X014150Y023680D01*
X013150Y023680D02*
X012150Y023680D01*
X011150Y023680D02*
X010000Y023680D01*
X011150Y020680D02*
X012150Y020680D01*
X013150Y020680D02*
X014150Y020680D01*
X015150Y020680D02*
X016300Y020680D01*
X006920Y040440D02*
X000500Y040440D01*
X000500Y045180D01*
X006920Y045180D01*
X006920Y040440D01*
D20*
X011000Y001180D03*
X016500Y001180D03*
D21*
X023250Y001930D03*
X027250Y001930D03*
D22*
X025250Y000930D03*
X025250Y002930D03*
D23*
X002500Y021680D03*
X002500Y025680D03*
M02*
